<?xml version="1.0" encoding="UTF-8"?>
<svg id="Capa_2" data-name="Capa 2" xmlns="http://www.w3.org/2000/svg" xmlns:xlink="http://www.w3.org/1999/xlink" viewBox="0 0 711.75 383">
  <defs>
    <style>
      .cls-1 {
        fill: #fff;
      }

      .cls-2 {
        fill: #fcfdfd;
      }

      .cls-3, .cls-4 {
        stroke: #fff;
        stroke-miterlimit: 10;
      }

      .cls-3, .cls-5 {
        fill: none;
      }

      .cls-6 {
        clip-path: url(#clippath-2);
      }

      .cls-7 {
        fill: #f3fafb;
      }

      .cls-8 {
        clip-path: url(#clippath-1);
      }

      .cls-9 {
        clip-path: url(#clippath-4);
      }

      .cls-10 {
        clip-path: url(#clippath);
      }

      .cls-4 {
        fill: #1d068e;
      }

      .cls-11 {
        clip-path: url(#clippath-3);
      }

      .cls-12 {
        clip-path: url(#clippath-5);
      }
    </style>
    <clipPath id="clippath">
      <polygon class="cls-5" points="361.5 80.88 397.82 78.28 407.08 110.2 374.66 112.53 361.5 80.88"/>
    </clipPath>
    <clipPath id="clippath-1">
      <rect class="cls-5" x="376.08" y="81.34" width="28.64" height="28.64" transform="translate(-5.85 28.19) rotate(-4.1)"/>
    </clipPath>
    <clipPath id="clippath-2">
      <rect class="cls-5" x="508.47" y="303.33" width="54.94" height="54.94"/>
    </clipPath>
    <clipPath id="clippath-3">
      <rect class="cls-5" x="512.83" y="307.54" width="48.41" height="48.41"/>
    </clipPath>
    <clipPath id="clippath-4">
      <rect class="cls-5" x="513.43" y="304.36" width="150.83" height="52.87"/>
    </clipPath>
    <clipPath id="clippath-5">
      <rect class="cls-5" x="560.92" y="299.71" width="150.83" height="52.87"/>
    </clipPath>
  </defs>
  <rect class="cls-4" x=".5" y=".5" width="680" height="382"/>
  <g>
    <path class="cls-4" d="M250.59,101.13l11.17,195.92s67.03,.49,68.98-.49h51.49l8.74-179.04-140.38-16.39Zm65.82,191.55h-49.3v-49.3h49.3v49.3Zm2.19-53.92h-51.49v-76.75h51.49v76.75Zm63.63,51.49h-56.33v-46.87h56.33v46.87Zm-54.4-52.46v-68.49h56.53v68.49h-56.53Z"/>
    <path class="cls-4" d="M189.39,80.89s3.4-10.69,8.74-5.83,9.23,30.08,9.23,30.08l87.43,5.38,5.34-7.77,170.5,16.52-2.91,6.8,58.78,3.4s-11.66-26.23-26.23-25.74-100.55-7.29-100.55-7.29c0,0-5.53,11.1-8.44,11.59s-13.42-15.48-13.42-15.48l-43.72-.97-125.32-9.71s-10.69-14.09-19.43-.97Z"/>
    <path class="cls-3" d="M257.9,107.92s1.02-22.17-9.72-23"/>
    <path class="cls-3" d="M298.52,105.1s1.56-16.16-9.1-16.99"/>
    <path class="cls-3" d="M337.54,105.1s1.54-13.14-3.4-13.52"/>
    <path class="cls-3" d="M375.91,110.09s-7.22-17.74-15.03-17.92"/>
    <path class="cls-3" d="M414.69,113.85c-1.49-.14-4.77-15.47-14.97-17.41"/>
    <g class="cls-10">
      <g class="cls-8">
        <path class="cls-1" d="M400.34,84.9c-.06-.33-.12-.37-.43-.25-.66,.26-1.34,.48-2.04,.58-1.39,.2-2.77,.16-4.13-.2-1.42-.38-2.75-.97-3.93-1.87-.09-.07-.13-.05-.19,.02-.24,.27-.5,.51-.78,.73-.91,.77-1.92,1.38-3.04,1.8-.69,.26-1.4,.44-2.13,.55-.68,.11-1.36,.14-2.04,.12-.73-.02-1.47-.13-2.18-.33-.14-.04-.2-.03-.21,.15-.06,.62-.13,1.23-.16,1.86-.04,.93-.05,1.86,0,2.79,.04,.62,.14,1.23,.22,1.84,.11,.76,.27,1.51,.48,2.25,.46,1.64,1.12,3.19,1.99,4.65,.53,.89,1.12,1.73,1.77,2.53,.71,.88,1.49,1.69,2.32,2.45,.65,.6,1.35,1.14,2.07,1.67,1.07,.78,2.21,1.45,3.39,2.04,.13,.06,.23,.05,.36-.03,1.13-.78,2.16-1.66,3.14-2.62,.81-.79,1.53-1.66,2.18-2.58,.91-1.29,1.65-2.67,2.24-4.14,.57-1.42,.97-2.87,1.24-4.37,.2-1.11,.32-2.24,.35-3.37,.03-.87,.03-1.73,0-2.6-.05-1.24-.28-2.45-.5-3.67m-14.15,1.94c.85-.36,1.64-.84,2.37-1.41,.39-.31,.76-.64,1.1-1.01,.1-.11,.17-.13,.3-.03,1.02,.79,2.16,1.33,3.38,1.72,.16,.05,.22,.11,.23,.28,.02,.39,.05,.78,.08,1.17h.05c.06,.85,.11,1.7,.19,2.55,.02,.25-.06,.32-.29,.3-.36-.03-.71-.09-1.06-.16-.77-.16-1.51-.4-2.25-.65-.14-.05-.24-.04-.36,.04-.99,.59-2.04,1.06-3.14,1.39-.05,.01-.1,.02-.14,.04-.21,.08-.26-.01-.27-.21-.11-1.27-.22-2.53-.34-3.8-.02-.16,.08-.18,.17-.21m-5.62,4.75c-.26-1.11-.22-2.25-.24-3.38,0-.17,.01-.34,0-.51,0-.15,.05-.15,.17-.13,.92,.16,1.84,.16,2.76,.05,.68-.08,1.35-.23,2-.44,.14-.04,.2-.06,.22,.12,.12,1.24,.24,2.48,.37,3.72,.02,.21-.05,.29-.23,.35-.84,.28-1.71,.44-2.49,.49-.84,.06-1.58,.05-2.32-.03-.17-.02-.2-.09-.24-.24m19.06-.2c-.03,1.15-.13,2.28-.34,3.39-.22,1.16-.54,2.3-.98,3.4-.55,1.37-1.26,2.64-2.13,3.84-.92,1.27-2,2.38-3.21,3.38-.45,.37-.92,.72-1.4,1.06-.15,.1-.27,.1-.42,.03-1.08-.5-2.1-1.12-3.07-1.81-1.54-1.11-2.91-2.42-4.05-3.94-1.38-1.83-2.35-3.86-2.88-6.1-.16-.66-.26-1.32-.36-1.99-.02-.15,.06-.15,.15-.14,.78,.11,1.56,.04,2.34-.03,1.64-.16,3.22-.57,4.76-1.15,.7-.26,1.38-.56,2.04-.88,.14-.07,.26-.08,.42-.03,1.54,.55,3.14,.87,4.77,.99,1.18,.09,2.36,.07,3.54-.05,.21-.02,.42-.06,.63-.09q.19-.03,.19,.13m.06-1.63c.02,.73,0,.72-.71,.81-1.19,.15-2.39,.18-3.59,.07-.24-.02-.48-.07-.73-.07-.16,0-.2-.1-.21-.24-.04-.63-.09-1.25-.13-1.88h-.01c-.04-.62-.08-1.24-.14-1.85-.02-.18,.03-.21,.21-.18,1.19,.18,2.39,.16,3.57-.08,.41-.08,.83-.17,1.23-.31,.17-.06,.25-.01,.27,.18,.1,1.18,.21,2.36,.24,3.54"/>
        <path class="cls-1" d="M382.64,90.88c.67,.37,1.51,.01,1.63-.7,.01-.07,.05-.15-.03-.2-.13-.08-.45,.04-.49,.19-.07,.22-.2,.37-.44,.4-.25,.03-.46-.05-.58-.27-.19-.33-.21-.68-.03-1.03,.18-.36,.7-.39,.94-.07,.1,.13,.4,.19,.53,.12,.07-.03,.04-.07,.03-.12-.07-.25-.21-.44-.45-.55-.42-.2-.83-.18-1.21,.08-.41,.28-.53,.7-.5,1,.07,.66,.25,.97,.6,1.16"/>
        <path class="cls-1" d="M389.89,86.3c.36-.04,.68,.02,.88,.35,.06,.11,.16,.23,.03,.35-.1,.09-.4,.02-.48-.08-.15-.21-.37-.27-.6-.17-.11,.05-.18,.11-.18,.23,0,.13,.09,.19,.2,.21,.24,.05,.48,.1,.72,.15,.29,.06,.49,.22,.55,.52,.07,.31-.05,.59-.33,.75-.41,.23-.83,.26-1.27,.06-.12-.06-.23-.14-.29-.26-.06-.13-.21-.27-.05-.41,.13-.11,.4,0,.49,.15,.15,.27,.75,.29,.9,.03,.09-.16,.01-.29-.16-.34-.22-.06-.44-.1-.67-.15-.53-.11-.79-.55-.55-.96,.17-.3,.46-.42,.8-.42"/>
        <path class="cls-1" d="M382.04,89.72c-.02-.3,.09-.72,.5-1,.38-.25,.79-.28,1.21-.08,.23,.11,.38,.3,.45,.55,.01,.05,.04,.09-.03,.12-.14,.07-.44,0-.53-.12-.24-.32-.76-.29-.94,.07-.17,.34-.15,.7,.03,1.03,.12,.22,.33,.31,.58,.27,.24-.03,.38-.17,.44-.4,.04-.14,.37-.27,.49-.19,.08,.05,.04,.13,.03,.2-.13,.72-.96,1.08-1.63,.7-.35-.19-.53-.5-.6-1.16"/>
        <path class="cls-1" d="M397.87,88.38c-.13,.27-.15,.57-.26,.84-.04,.11-.06,.22-.08,.33-.02,.17-.1,.25-.28,.26-.19,.02-.25-.08-.31-.23-.12-.32-.26-.63-.4-.94-.03-.06-.03-.15-.17-.16,.03,.35,.05,.7,.07,1.04,.02,.36,.02,.36-.34,.37-.11,0-.14-.04-.15-.14-.05-.69-.1-1.38-.15-2.07,0-.1,.01-.16,.13-.15,0,0,.02,0,.02,0,.61-.07,.62-.06,.87,.62,.11,.29,.21,.57,.39,.87,.12-.5,.25-.96,.35-1.42,.03-.16,.1-.19,.24-.2,.55-.04,.54-.04,.58,.5,.04,.54,.07,1.07,.12,1.61,.02,.18-.04,.23-.21,.23-.14,0-.29,.06-.29-.18,0-.39-.05-.77-.08-1.16-.02,0-.05,0-.07,0"/>
        <path class="cls-2" d="M388.98,94.88c-.12-1.15,.14-2.2,.92-3.08,.4-.45,.43-.45,.83,0,.91,1.05,1.32,2.27,1.28,3.66-.04,1.21-.36,2.34-.88,3.42-.07,.15-.14,.25-.33,.26-.19,0-.26-.09-.34-.22-.65-1.05-1.18-2.15-1.43-3.37-.05-.22-.04-.45-.05-.68"/>
        <path class="cls-2" d="M385.67,95.47c1.33-.05,2.23,.48,2.91,1.41,.44,.59,.71,1.26,.92,1.96,.03,.11,.14,.26,0,.32-.14,.06-.33,.11-.47-.05-.31-.36-.67-.67-1.05-.95-.36-.27-.75-.5-1.21-.54-.56-.05-.93,.24-1.16,.72-.14,.29-.24,.59-.3,.9-.02,.11-.05,.19-.19,.12-.53-.27-1.01-.61-1.29-1.15-.31-.59-.16-1.23,.38-1.78,.25-.25,.51-.47,.8-.68,.25-.18,.5-.3,.67-.28"/>
        <path class="cls-2" d="M397.46,96.66c.04,.43-.11,.77-.33,1.07-.23,.32-.52,.58-.83,.82-.13,.1-.17,.05-.22-.08-.15-.38-.32-.75-.6-1.06-.35-.38-.85-.49-1.31-.27-.59,.27-1.02,.73-1.42,1.21-.13,.16-.25,.32-.36,.49-.13,.21-.33,.15-.51,.15-.09,0-.07-.09-.06-.16,.14-1,.39-1.97,1.01-2.79,.64-.84,1.49-1.26,2.55-1.25,.22,0,.38,.13,.56,.22,.46,.23,.88,.5,1.2,.9,.18,.23,.31,.48,.3,.74"/>
        <path class="cls-2" d="M392.37,103.22c.03,.77-.31,1.6-.89,2.36-.07,.1-.15,.15-.26,.05-.74-.67-1.33-1.42-1.4-2.46-.07-1.01,.37-1.83,1.05-2.54,.08-.08,.15-.08,.23,0,.69,.66,1.2,1.41,1.28,2.59"/>
        <path class="cls-7" d="M390.87,100.21c-.59,.04-1.17,.08-1.76,.13-.18,.02-.25-.03-.26-.22-.05-.58-.05-.58,.52-.62,1.05-.08,2.1-.15,3.15-.23,.18-.01,.26,.02,.27,.22,.03,.58,.04,.58-.53,.62-.46,.03-.93,.07-1.39,.1"/>
        <path class="cls-7" d="M393.45,102.29c-.73,.05-1.19-.26-1.43-.96-.07-.22-.12-.44-.14-.67-.01-.13,.03-.18,.16-.18,.1,0,.2-.01,.29-.02,.08,0,.14,.01,.17,.1,.3,.87,1.09,.92,1.72,.75,.21-.06,.42-.13,.62-.21,.13-.06,.18-.03,.16,.11-.02,.15-.05,.31-.06,.46,0,.1-.07,.14-.14,.18-.35,.21-.95,.41-1.36,.44"/>
        <path class="cls-7" d="M386.66,101.64c.46,.11,.88,.22,1.32,.17,.57-.06,.95-.36,1.1-.92,.04-.16,.47-.31,.6-.2,.03,.02,.05,.07,.05,.11,0,.59-.02,1.16-.52,1.58-.32,.27-.7,.3-1.09,.28-.36-.01-.71-.1-1.05-.21-.15-.05-.23-.12-.26-.28-.03-.17-.09-.33-.14-.54"/>
      </g>
    </g>
    <polygon class="cls-4" points="470.29 139.57 297.99 132.87 292.85 102.75 471.14 117.53 470.29 139.57"/>
    <path class="cls-4" d="M389.89,138.45l-7.77,160.2,70.53-2.09V138.94l-62.76-.49Zm46.02,32.3h7.49v68.49h-7.49v-68.49Zm-36.17-1.46h7.49v68.49h-7.49v-68.49Zm12.06,120.95h-12.06v-45.66h12.06v45.66Zm0-120.47h7.49v68.49h-7.49v-68.49Zm15.8,120.47h-12.06v-45.66h12.06v45.66Zm3.74-51.49h-7.49v-68.49h7.49v68.49Zm12.09,51.49h-12.06v-45.66h12.06v45.66Z"/>
    <path class="cls-4" d="M257.93,157.16l-2.48-47.06-46.15-4.99s-5.89-30.71-11.87-32.81c-7.88-2.77-9.89,10.56-9.89,10.56l-5.93,228.28,80.15-14.09-3.83-139.89Zm-40.86,76.26h-9.71v-74.32h9.71v74.32Zm15.54,2.91h-9.71v-74.32h9.71v74.32Zm14.57,0h-9.71v-74.32h9.71v74.32Z"/>
    <rect class="cls-4" x="207.36" y="251.39" width="21.86" height="42.75"/>
    <rect class="cls-4" x="235.69" y="251.39" width="19.11" height="38.86"/>
    <path class="cls-4" d="M183.23,330.73c-.65,1.62,2.59-4.21,2.59-4.21l-4.21-2.27,2.1-30.12,276.39,1.62,14.9,2.9v7.79l5.51,2.91v11.66l-297.28,9.71Z"/>
    <line class="cls-4" x1="184.53" y1="313.24" x2="475.01" y2="306.44"/>
  </g>
  <g class="cls-6">
    <g class="cls-11">
      <path class="cls-1" d="M555.11,314.79c-.06-.56-.15-.64-.69-.47-1.14,.36-2.31,.65-3.51,.73-2.36,.16-4.7-.06-6.95-.84-2.35-.81-4.52-1.97-6.39-3.63-.14-.13-.21-.1-.33,.01-.43,.42-.91,.79-1.4,1.14-1.63,1.18-3.4,2.1-5.34,2.67-1.2,.35-2.41,.57-3.66,.67-1.16,.1-2.31,.07-3.46-.05-1.24-.13-2.46-.39-3.63-.83-.23-.09-.33-.07-.38,.22-.17,1.04-.38,2.06-.5,3.11-.18,1.57-.31,3.14-.32,4.71-.01,1.04,.09,2.08,.16,3.12,.09,1.3,.28,2.58,.54,3.85,.58,2.81,1.5,5.51,2.79,8.08,.78,1.56,1.67,3.05,2.68,4.47,1.1,1.56,2.31,3.03,3.62,4.41,1.03,1.09,2.14,2.09,3.29,3.06,1.71,1.44,3.54,2.72,5.47,3.85,.21,.12,.38,.12,.61-.01,2-1.17,3.85-2.54,5.61-4.04,1.46-1.24,2.79-2.61,3.99-4.09,1.68-2.07,3.11-4.3,4.28-6.7,1.13-2.32,1.98-4.73,2.61-7.22,.47-1.85,.81-3.73,1.01-5.64,.15-1.46,.26-2.92,.3-4.38,.06-2.09-.17-4.17-.4-6.24m-24.09,1.55c1.48-.51,2.86-1.22,4.16-2.1,.7-.47,1.36-.99,1.97-1.56,.19-.17,.31-.2,.51-.02,1.62,1.45,3.48,2.51,5.49,3.31,.26,.1,.36,.22,.35,.5-.02,.66,0,1.32,0,1.98h.08c0,1.45-.02,2.89,0,4.34,0,.42-.14,.52-.52,.47-.6-.09-1.19-.23-1.77-.4-1.27-.37-2.5-.85-3.72-1.37-.23-.1-.4-.09-.62,.02-1.74,.88-3.56,1.54-5.47,1.96-.08,.02-.16,.03-.24,.05-.36,.1-.43-.05-.44-.39-.02-2.15-.06-4.29-.12-6.44,0-.28,.16-.29,.32-.34m-10.05,7.33c-.31-1.91-.11-3.82,0-5.73,.02-.29,.06-.58,.06-.86,0-.25,.1-.25,.31-.2,1.52,.37,3.08,.49,4.64,.41,1.16-.06,2.3-.23,3.43-.5,.24-.06,.34-.07,.35,.23,.04,2.11,.1,4.21,.17,6.32,.01,.35-.12,.48-.43,.56-1.45,.37-2.93,.53-4.26,.52-1.42,0-2.67-.11-3.91-.33-.29-.05-.33-.18-.37-.43m32.15,1.97c-.18,1.94-.5,3.82-.98,5.68-.51,1.94-1.19,3.81-2.07,5.61-1.09,2.24-2.45,4.3-4.05,6.21-1.71,2.03-3.66,3.77-5.82,5.3-.81,.57-1.65,1.11-2.5,1.62-.26,.16-.46,.14-.72,0-1.77-.98-3.41-2.13-4.96-3.43-2.47-2.06-4.6-4.43-6.35-7.13-2.1-3.26-3.49-6.79-4.12-10.62-.19-1.13-.28-2.26-.37-3.4-.02-.26,.12-.25,.27-.21,1.31,.29,2.63,.26,3.95,.23,2.78-.06,5.5-.57,8.17-1.36,1.2-.35,2.39-.77,3.55-1.24,.24-.1,.46-.11,.71,0,2.54,1.12,5.19,1.84,7.93,2.24,1.98,.29,3.98,.41,5.98,.34,.36-.01,.71-.05,1.07-.08q.32-.02,.31,.24m.3-2.74c-.05,1.23-.07,1.22-1.29,1.28-2.03,.1-4.05,0-6.06-.31-.41-.06-.81-.18-1.22-.21-.27-.02-.33-.19-.32-.43,0-1.06,0-2.12,0-3.18h-.02c0-1.05,0-2.09,0-3.14,0-.31,.07-.35,.38-.28,1.99,.46,4,.56,6.03,.3,.71-.09,1.42-.18,2.11-.37,.29-.08,.42,.01,.42,.34,.02,2,.06,4-.02,5.99"/>
      <path class="cls-1" d="M524.55,322.73c1.09,.71,2.54,.2,2.84-.99,.03-.11,.1-.24-.03-.34-.2-.15-.76,.02-.85,.26-.14,.37-.39,.59-.8,.61-.43,.02-.77-.15-.95-.53-.27-.58-.27-1.18,.07-1.74,.35-.58,1.23-.58,1.6,0,.15,.23,.64,.37,.88,.27,.12-.05,.08-.12,.06-.2-.09-.43-.31-.76-.69-.98-.68-.39-1.38-.4-2.05-.02-.73,.42-.97,1.12-.97,1.63,.04,1.13,.31,1.66,.88,2.03"/>
      <path class="cls-1" d="M537.31,315.9c.61-.02,1.14,.11,1.44,.7,.09,.19,.24,.41,0,.59-.18,.14-.68-.01-.79-.2-.24-.37-.58-.49-.99-.35-.19,.06-.33,.17-.34,.37-.01,.21,.13,.32,.32,.38,.4,.12,.8,.22,1.19,.34,.47,.14,.8,.42,.87,.94,.07,.54-.15,.99-.65,1.23-.71,.34-1.44,.34-2.14-.05-.2-.11-.36-.27-.45-.47-.09-.22-.32-.49-.03-.7,.23-.17,.68,.03,.81,.31,.22,.47,1.23,.59,1.51,.15,.17-.26,.06-.49-.22-.6-.36-.13-.74-.22-1.11-.33-.89-.26-1.27-1.02-.81-1.69,.33-.49,.83-.65,1.4-.61"/>
      <path class="cls-1" d="M523.67,320.7c0-.51,.23-1.21,.97-1.63,.67-.38,1.37-.37,2.05,.02,.38,.22,.6,.56,.69,.98,.02,.08,.05,.15-.06,.2-.24,.1-.74-.05-.88-.27-.37-.57-1.25-.58-1.6,0-.34,.56-.34,1.15-.07,1.74,.18,.39,.52,.55,.95,.53,.41-.02,.66-.25,.8-.61,.09-.24,.65-.41,.85-.26,.13,.1,.06,.23,.03,.34-.3,1.19-1.75,1.7-2.84,.99-.56-.37-.83-.9-.88-2.03"/>
      <path class="cls-1" d="M550.51,320.37c-.25,.43-.33,.94-.53,1.39-.08,.17-.14,.36-.17,.54-.06,.28-.2,.4-.51,.41-.32,0-.41-.16-.5-.42-.17-.55-.36-1.09-.56-1.63-.04-.1-.04-.25-.26-.29,0,.6,0,1.18,0,1.76,0,.61-.02,.62-.61,.58-.19-.01-.23-.09-.23-.25,0-1.17,0-2.34,0-3.51,0-.16,.04-.27,.24-.23,.01,0,.03,0,.04,0,1.04-.05,1.05-.03,1.39,1.14,.14,.49,.28,.99,.56,1.51,.27-.82,.54-1.58,.76-2.35,.07-.26,.19-.31,.43-.31,.92,0,.92,0,.92,.92,0,.91-.01,1.82,.01,2.73,0,.31-.1,.38-.38,.36-.23-.02-.5,.07-.47-.35,.03-.65,0-1.31,0-1.96-.04,0-.08-.02-.12-.03"/>
      <path class="cls-2" d="M534.74,330.24c-.07-1.96,.5-3.68,1.93-5.07,.73-.71,.79-.71,1.4,.1,1.41,1.88,1.95,3.99,1.71,6.33-.21,2.03-.89,3.9-1.89,5.67-.13,.24-.26,.41-.6,.4-.32,0-.43-.19-.54-.41-.97-1.85-1.73-3.77-2.01-5.86-.05-.38,0-.77,0-1.15"/>
      <path class="cls-2" d="M529.09,330.85c2.25,.08,3.69,1.08,4.74,2.73,.66,1.05,1.05,2.21,1.31,3.41,.04,.19,.2,.46-.04,.54-.24,.08-.57,.15-.79-.14-.49-.64-1.05-1.21-1.65-1.73-.57-.5-1.2-.93-1.98-1.06-.94-.15-1.59,.3-2.05,1.07-.27,.46-.48,.96-.62,1.48-.05,.19-.1,.32-.33,.18-.86-.53-1.63-1.15-2.04-2.1-.45-1.03-.13-2.09,.85-2.95,.45-.39,.93-.73,1.43-1.04,.44-.27,.89-.44,1.17-.39"/>
      <path class="cls-2" d="M548.82,334.27c0,.73-.27,1.28-.68,1.76-.43,.51-.94,.92-1.5,1.28-.24,.15-.3,.06-.37-.15-.2-.66-.45-1.3-.88-1.85-.54-.69-1.37-.92-2.18-.62-1.03,.38-1.8,1.1-2.53,1.87-.24,.25-.46,.51-.66,.79-.24,.33-.57,.2-.87,.19-.15,0-.1-.17-.08-.27,.36-1.67,.89-3.27,2.04-4.58,1.18-1.35,2.67-1.95,4.45-1.8,.36,.03,.63,.27,.92,.44,.74,.43,1.43,.95,1.92,1.67,.28,.4,.46,.85,.42,1.28"/>
      <path class="cls-2" d="M539.44,344.71c-.04,1.31-.72,2.67-1.79,3.87-.13,.15-.26,.24-.44,.05-1.16-1.21-2.07-2.56-2.06-4.31,.01-1.71,.85-3.03,2.07-4.16,.14-.13,.26-.12,.38,.02,1.08,1.2,1.85,2.53,1.84,4.53"/>
      <path class="cls-7" d="M537.29,339.47c-.99,0-1.99,0-2.98,0-.3,0-.41-.08-.41-.4,0-.99-.02-.99,.95-.99,1.78,0,3.56,0,5.34,0,.31,0,.43,.06,.43,.41-.01,.98,0,.98-.96,.98-.79,0-1.57,0-2.36,0"/>
      <path class="cls-7" d="M541.38,343.28c-1.23,0-1.98-.59-2.29-1.79-.1-.37-.15-.75-.16-1.14,0-.22,.08-.3,.29-.29,.17,.01,.33,0,.5,0,.14,0,.24,.03,.28,.19,.4,1.5,1.73,1.69,2.81,1.47,.36-.07,.72-.17,1.08-.28,.23-.08,.31-.03,.26,.21-.05,.26-.12,.51-.16,.77-.02,.17-.14,.22-.26,.28-.62,.32-1.65,.57-2.35,.57"/>
      <path class="cls-7" d="M530.02,341.35c.77,.24,1.46,.47,2.2,.45,.97-.03,1.64-.5,1.96-1.41,.1-.27,.83-.46,1.03-.26,.04,.04,.07,.12,.07,.18-.06,.99-.18,1.96-1.07,2.6-.57,.41-1.22,.41-1.87,.34-.6-.07-1.18-.25-1.74-.49-.25-.1-.37-.23-.41-.5-.04-.28-.11-.56-.18-.92"/>
    </g>
  </g>
  <g class="cls-9">
    <g class="cls-12">
      <path class="cls-1" d="M565.15,321.07c0-.63,.12-1.22,.36-1.78,.24-.56,.57-1.04,.98-1.45,.41-.41,.9-.74,1.45-.98,.56-.24,1.15-.36,1.78-.36,.68,0,1.31,.14,1.89,.41,.58,.27,1.08,.65,1.5,1.13l-1.2,.68c-.28-.3-.61-.53-.98-.7-.38-.17-.78-.26-1.21-.26s-.85,.09-1.23,.26c-.38,.17-.72,.41-1.01,.71-.29,.3-.51,.65-.68,1.06-.16,.4-.25,.83-.25,1.29s.08,.9,.25,1.3c.16,.4,.39,.76,.68,1.05,.29,.3,.62,.54,1.01,.71,.38,.17,.79,.26,1.22,.26s.85-.09,1.23-.26c.38-.17,.71-.41,.99-.7l1.19,.7c-.42,.47-.92,.84-1.5,1.11-.58,.27-1.22,.41-1.89,.41-.63,0-1.22-.12-1.78-.36-.56-.24-1.04-.57-1.45-.98-.41-.41-.74-.9-.98-1.46-.24-.56-.36-1.16-.36-1.79"/>
      <path class="cls-1" d="M578.25,316.51c.63,0,1.22,.12,1.78,.36,.56,.24,1.04,.57,1.45,.98,.41,.41,.74,.9,.98,1.45,.24,.56,.36,1.15,.36,1.78s-.12,1.23-.36,1.79c-.24,.56-.57,1.05-.98,1.46-.41,.41-.9,.74-1.45,.98-.56,.24-1.15,.36-1.78,.36s-1.23-.12-1.78-.36c-.56-.24-1.04-.57-1.45-.98-.41-.41-.74-.9-.98-1.46-.24-.56-.36-1.15-.36-1.79s.12-1.22,.36-1.78c.24-.56,.57-1.04,.98-1.45,.41-.41,.9-.74,1.45-.98,.56-.24,1.15-.36,1.78-.36m-3.17,4.57c0,.46,.08,.9,.25,1.3,.16,.4,.39,.76,.68,1.06,.29,.3,.62,.54,1.01,.71,.38,.17,.8,.26,1.23,.26s.85-.09,1.23-.26c.38-.17,.72-.41,1-.71,.28-.3,.51-.65,.67-1.06,.16-.4,.25-.84,.25-1.3s-.08-.89-.25-1.29c-.16-.4-.39-.76-.67-1.06-.28-.3-.62-.54-1-.71-.38-.17-.8-.26-1.23-.26s-.85,.09-1.23,.26c-.38,.17-.72,.41-1.01,.71-.29,.3-.51,.65-.68,1.06-.16,.4-.25,.83-.25,1.29"/>
      <polygon class="cls-1" points="588.79 324.22 588.79 325.48 584.33 325.48 584.33 316.69 585.73 316.69 585.73 324.22 588.79 324.22"/>
      <polygon class="cls-1" points="595.01 324.22 595.01 325.48 589.94 325.48 589.94 316.69 594.83 316.69 594.83 317.95 591.34 317.95 591.34 320.37 594.62 320.37 594.62 321.63 591.34 321.63 591.34 324.22 595.01 324.22"/>
      <path class="cls-1" d="M600.71,320.21h3.93v3.78c-.47,.54-1.04,.96-1.72,1.24-.68,.28-1.39,.43-2.15,.43-.7,0-1.33-.12-1.9-.35-.57-.24-1.06-.56-1.47-.97-.41-.41-.72-.89-.95-1.44-.22-.55-.34-1.14-.34-1.77,0-.66,.12-1.28,.36-1.84,.24-.56,.57-1.05,.99-1.46,.42-.41,.91-.73,1.47-.97,.56-.23,1.15-.35,1.79-.35,.7,0,1.35,.14,1.96,.41,.61,.27,1.13,.65,1.55,1.13l-1.2,.7c-.28-.3-.62-.54-1.03-.72-.41-.18-.84-.26-1.29-.26s-.85,.08-1.23,.25c-.38,.17-.72,.4-1.01,.7-.29,.3-.52,.65-.68,1.05-.17,.4-.25,.85-.25,1.32s.08,.9,.24,1.31c.16,.41,.38,.76,.67,1.06,.29,.3,.63,.54,1.04,.71,.4,.17,.85,.26,1.32,.26s.9-.08,1.34-.25c.44-.16,.81-.4,1.12-.7v-2.03h-2.55v-1.21Z"/>
      <rect class="cls-1" x="606.46" y="316.69" width="1.4" height="8.79"/>
      <path class="cls-1" d="M613.9,316.51c.63,0,1.22,.12,1.78,.36,.56,.24,1.04,.57,1.45,.98,.41,.41,.74,.9,.98,1.45,.24,.56,.36,1.15,.36,1.78s-.12,1.23-.36,1.79c-.24,.56-.57,1.05-.98,1.46-.41,.41-.9,.74-1.45,.98-.56,.24-1.15,.36-1.78,.36s-1.23-.12-1.78-.36c-.56-.24-1.04-.57-1.45-.98-.41-.41-.74-.9-.98-1.46-.24-.56-.36-1.15-.36-1.79s.12-1.22,.36-1.78c.24-.56,.57-1.04,.98-1.45,.41-.41,.9-.74,1.45-.98,.56-.24,1.15-.36,1.78-.36m-3.17,4.57c0,.46,.08,.9,.25,1.3,.16,.4,.39,.76,.68,1.06,.29,.3,.62,.54,1.01,.71,.38,.17,.8,.26,1.23,.26s.85-.09,1.23-.26c.38-.17,.72-.41,1-.71,.28-.3,.51-.65,.67-1.06,.16-.4,.25-.84,.25-1.3s-.08-.89-.25-1.29c-.16-.4-.39-.76-.67-1.06-.28-.3-.62-.54-1-.71-.38-.17-.8-.26-1.23-.26s-.85,.09-1.23,.26c-.38,.17-.72,.41-1.01,.71-.29,.3-.51,.65-.68,1.06-.16,.4-.25,.83-.25,1.29"/>
      <path class="cls-1" d="M566.71,340.24c.22,.35,.53,.61,.95,.8,.42,.18,.88,.28,1.38,.28,.65,0,1.18-.16,1.58-.48,.4-.32,.6-.77,.6-1.34s-.2-.98-.6-1.26c-.4-.28-.96-.54-1.66-.79-.97-.35-1.78-.77-2.44-1.25-.66-.49-.99-1.24-.99-2.25s.36-1.87,1.09-2.47c.73-.59,1.65-.89,2.77-.89,.65,0,1.31,.13,1.96,.38,.66,.26,1.22,.74,1.69,1.44l-1.6,.83c-.41-.62-1.07-.93-1.99-.93-.58,0-1.05,.14-1.42,.41-.38,.28-.56,.67-.56,1.16,0,.53,.22,.96,.65,1.29,.43,.33,1.03,.6,1.77,.83,.92,.29,1.69,.68,2.31,1.15,.62,.47,.93,1.23,.93,2.27,0,1.16-.39,2.05-1.16,2.67-.77,.62-1.76,.93-2.98,.93-1.73,0-3.01-.62-3.84-1.86l1.56-.93Z"/>
      <path class="cls-1" d="M582,339.74h-5.13l-1.2,3.04h-1.92l4.79-11.93h1.82l4.77,11.93h-1.92l-1.2-3.04Zm-4.51-1.6h3.89l-1.79-4.56c-.09-.23-.13-.48-.13-.75h-.03c0,.27-.04,.52-.13,.75l-1.81,4.56Z"/>
      <path class="cls-1" d="M594.71,339.72c.13,.2,.23,.43,.31,.7h.03c-.03-.12-.06-.25-.09-.38-.03-.14-.04-.26-.04-.38v-8.81h1.91v11.93h-2.21l-6.02-8.87c-.13-.2-.23-.43-.31-.7h-.03c.03,.12,.06,.25,.09,.38,.03,.14,.04,.26,.04,.38v8.81h-1.91v-11.93h2.21l6.02,8.87Z"/>
      <path class="cls-1" d="M606.11,342.78h-1.9v-11.93h2.16l4.07,5.86c.14,.18,.21,.42,.21,.72h.03c0-.29,.07-.53,.21-.72l4.07-5.86h2.17v11.93h-1.91v-8.76c0-.12,.01-.25,.04-.38,.03-.14,.06-.26,.09-.38h-.03c-.08,.26-.18,.49-.33,.68l-3.5,4.88h-1.64l-3.52-4.88c-.14-.2-.25-.42-.33-.68h-.03c.03,.12,.06,.25,.09,.38,.03,.14,.04,.26,.04,.38v8.76Z"/>
      <rect class="cls-1" x="619.73" y="330.85" width="1.9" height="11.93"/>
      <path class="cls-1" d="M629.86,335.64h5.34v5.13c-.64,.74-1.42,1.3-2.34,1.68-.92,.39-1.89,.58-2.92,.58-.94,0-1.8-.16-2.58-.48-.78-.32-1.44-.76-1.99-1.32-.55-.56-.98-1.21-1.29-1.96-.3-.75-.46-1.55-.46-2.41,0-.9,.16-1.73,.49-2.5,.33-.77,.77-1.43,1.34-1.99,.57-.56,1.23-1,1.99-1.31,.76-.31,1.57-.47,2.43-.47,.94,0,1.83,.18,2.66,.55,.83,.37,1.53,.88,2.11,1.53l-1.63,.94c-.38-.41-.85-.74-1.4-.98-.55-.24-1.14-.36-1.76-.36s-1.16,.11-1.68,.34c-.52,.23-.98,.54-1.37,.94-.39,.4-.7,.88-.93,1.42-.23,.55-.34,1.15-.34,1.8s.11,1.22,.33,1.77c.22,.55,.52,1.03,.91,1.44,.39,.41,.86,.73,1.41,.96s1.15,.35,1.8,.35,1.23-.11,1.82-.33c.6-.22,1.1-.54,1.51-.95v-2.75h-3.47v-1.64Z"/>
      <path class="cls-1" d="M639.51,330.85v7.77c0,.86,.24,1.52,.73,1.99,.49,.47,1.08,.71,1.77,.71s1.29-.24,1.77-.71c.49-.47,.73-1.14,.73-1.99v-7.77h1.9v7.77c0,1.35-.43,2.42-1.29,3.21-.86,.8-1.9,1.2-3.13,1.2s-2.27-.4-3.13-1.2c-.86-.8-1.29-1.87-1.29-3.21v-7.77h1.9Z"/>
      <polygon class="cls-1" points="655.97 341.07 655.97 342.78 649.08 342.78 649.08 330.85 655.72 330.85 655.72 332.56 650.99 332.56 650.99 335.85 655.43 335.85 655.43 337.56 650.99 337.56 650.99 341.07 655.97 341.07"/>
      <polygon class="cls-1" points="664.25 341.07 664.25 342.78 658.2 342.78 658.2 330.85 660.1 330.85 660.1 341.07 664.25 341.07"/>
    </g>
  </g>
  <g>
    <path class="cls-1" d="M101.95,28.89c0,1.03-.23,1.96-.7,2.78-.47,.83-1.1,1.48-1.9,1.96,1.07,.42,1.92,1.12,2.56,2.1,.64,.98,.96,2.09,.96,3.33,0,1.58-.53,2.92-1.59,4.01s-2.49,1.64-4.3,1.64h-7.2V23.78h6.6c1.73,0,3.09,.49,4.08,1.47,.99,.98,1.49,2.2,1.49,3.64Zm-2.03,.31c0-1.09-.34-1.97-1.03-2.64-.69-.68-1.59-1.01-2.71-1.01h-4.4v7.45h4.46c1.14,0,2.04-.36,2.7-1.09,.66-.72,.98-1.63,.98-2.71Zm.89,9.68c0-1.14-.36-2.12-1.09-2.94-.72-.82-1.72-1.23-3-1.23h-4.94v8.23h5c1.22,0,2.19-.38,2.93-1.16s1.1-1.74,1.1-2.9Z"/>
    <path class="cls-1" d="M106.95,23.78h1.89v2.88h-1.89v-2.88Zm0,6.91h1.89v14.02h-1.89v-14.02Z"/>
    <path class="cls-1" d="M125.54,41.57c-.63,1.05-1.46,1.89-2.5,2.51-1.04,.63-2.18,.94-3.41,.94-1.96,0-3.62-.71-4.97-2.14s-2.03-3.18-2.03-5.26c0-1.01,.18-1.95,.53-2.83,.35-.88,.84-1.65,1.47-2.31,.63-.67,1.37-1.19,2.23-1.57,.86-.38,1.79-.57,2.8-.57,2,0,3.66,.71,4.98,2.11,1.32,1.41,1.99,3.15,1.99,5.23,0,.12-.02,.25-.06,.4h-12.08c.11,1.64,.69,2.92,1.74,3.84s2.2,1.39,3.46,1.39c.82,0,1.61-.21,2.37-.63,.76-.42,1.4-1.09,1.91-2l1.57,.89Zm-.86-4.83c-.17-1.33-.72-2.45-1.64-3.34s-2.06-1.34-3.41-1.34-2.48,.44-3.4,1.33c-.91,.88-1.48,2-1.69,3.36h10.14Z"/>
    <path class="cls-1" d="M134.11,44.71l-5.77-14.02h1.91l4.71,11.77,4.68-11.77h1.91l-5.74,14.02h-1.71Z"/>
    <path class="cls-1" d="M156.14,41.57c-.63,1.05-1.46,1.89-2.5,2.51-1.04,.63-2.18,.94-3.41,.94-1.96,0-3.62-.71-4.97-2.14s-2.03-3.18-2.03-5.26c0-1.01,.18-1.95,.53-2.83,.35-.88,.84-1.65,1.47-2.31,.63-.67,1.37-1.19,2.23-1.57,.86-.38,1.79-.57,2.8-.57,2,0,3.66,.71,4.98,2.11,1.32,1.41,1.99,3.15,1.99,5.23,0,.12-.02,.25-.06,.4h-12.08c.11,1.64,.69,2.92,1.74,3.84s2.2,1.39,3.46,1.39c.82,0,1.61-.21,2.37-.63,.76-.42,1.4-1.09,1.91-2l1.57,.89Zm-.86-4.83c-.17-1.33-.72-2.45-1.64-3.34s-2.06-1.34-3.41-1.34-2.48,.44-3.4,1.33c-.91,.88-1.48,2-1.69,3.36h10.14Z"/>
    <path class="cls-1" d="M162.62,33.17c.7-.88,1.57-1.57,2.6-2.07,1.03-.5,2.1-.76,3.23-.76,1.37,0,2.43,.39,3.18,1.16,.75,.77,1.13,1.82,1.13,3.16v10.05h-1.86v-10c0-1.77-.97-2.66-2.91-2.66-1.18,0-2.28,.35-3.28,1.06s-1.69,1.64-2.06,2.8v8.8h-1.86v-10.03l-.2-4h1.89l.14,2.48Z"/>
    <path class="cls-1" d="M177.27,23.78h1.89v2.88h-1.89v-2.88Zm0,6.91h1.89v14.02h-1.89v-14.02Z"/>
    <path class="cls-1" d="M195.58,42.14c-.67,.91-1.49,1.63-2.47,2.14-.98,.51-2.07,.77-3.27,.77-2,0-3.65-.69-4.96-2.07s-1.96-3.14-1.96-5.27,.65-3.92,1.96-5.3,2.96-2.07,4.96-2.07c1.2,0,2.29,.26,3.27,.77,.98,.51,1.8,1.23,2.47,2.14v-10.68h1.86v22.14h-1.86v-2.57Zm.06-4.43c0-1.56-.53-2.89-1.6-4-1.07-1.1-2.39-1.66-3.97-1.66s-2.77,.52-3.74,1.57c-.97,1.05-1.46,2.41-1.46,4.08s.49,3.06,1.46,4.1c.97,1.04,2.22,1.56,3.74,1.56s2.9-.55,3.97-1.64c1.07-1.09,1.6-2.43,1.6-4.01Z"/>
    <path class="cls-1" d="M208.17,30.32c1.03,0,1.99,.2,2.88,.59s1.68,.92,2.34,1.58,1.19,1.45,1.59,2.34,.59,1.85,.59,2.86-.2,1.96-.59,2.84c-.39,.88-.92,1.66-1.59,2.33s-1.45,1.19-2.34,1.59c-.89,.39-1.86,.58-2.88,.58s-1.99-.2-2.88-.58c-.89-.39-1.68-.92-2.34-1.59s-1.2-1.44-1.59-2.33c-.39-.89-.59-1.83-.59-2.84s.2-1.96,.59-2.86c.39-.89,.92-1.68,1.59-2.34s1.45-1.19,2.34-1.58,1.86-.59,2.88-.59Zm-5.51,7.37c0,1.56,.54,2.89,1.61,3.99,1.08,1.09,2.38,1.64,3.93,1.64s2.82-.55,3.88-1.64c1.07-1.09,1.6-2.42,1.6-3.99s-.53-2.89-1.6-3.98c-1.07-1.09-2.36-1.64-3.88-1.64s-2.85,.55-3.93,1.64c-1.08,1.09-1.61,2.42-1.61,3.98Z"/>
    <path class="cls-1" d="M219.11,41.54c.36,.57,.95,1.04,1.76,1.4,.81,.36,1.64,.54,2.5,.54,.97,0,1.8-.24,2.5-.73,.69-.49,1.04-1.14,1.04-1.96,0-.89-.4-1.5-1.19-1.81-.79-.31-1.69-.58-2.7-.79-.57-.12-1.14-.25-1.71-.41-.57-.16-1.09-.38-1.54-.66-.46-.28-.83-.63-1.11-1.07-.28-.44-.43-.99-.43-1.66,0-1.26,.49-2.25,1.46-2.97,.97-.72,2.14-1.09,3.51-1.09,.99,0,1.95,.2,2.87,.6,.92,.4,1.6,.96,2.04,1.69l-1.4,.94c-.27-.49-.75-.89-1.44-1.2-.7-.3-1.38-.46-2.04-.46-.8,0-1.52,.21-2.17,.64s-.97,1-.97,1.73c0,.8,.39,1.36,1.17,1.67,.78,.31,1.71,.58,2.8,.79,.53,.12,1.08,.25,1.64,.41s1.07,.38,1.53,.67,.83,.65,1.13,1.1c.3,.45,.44,1.01,.44,1.7,0,1.37-.54,2.45-1.63,3.24s-2.36,1.19-3.83,1.19c-1.12,0-2.21-.23-3.26-.7s-1.82-1.1-2.31-1.9l1.34-.91Z"/>
    <path class="cls-1" d="M251.13,42.91c-.57,.67-1.34,1.19-2.3,1.59-.96,.39-2,.58-3.13,.58-1.81,0-3.32-.48-4.53-1.44-1.21-.96-1.81-2.16-1.81-3.58s.61-2.61,1.84-3.56c1.23-.94,2.77-1.41,4.61-1.41,2.28,0,4.05,.66,5.31,1.97v-1.29c0-2.59-1.41-3.89-4.23-3.89-1.01,0-1.97,.16-2.87,.49-.91,.32-1.66,.79-2.27,1.4l-1.43-.74c.69-.8,1.66-1.45,2.93-1.94,1.27-.5,2.58-.74,3.93-.74,1.83,0,3.25,.47,4.26,1.4,1.01,.93,1.51,2.26,1.51,3.97v5.03c0,.89,.01,1.66,.04,2.28,.03,.63,.07,1.19,.13,1.69h-1.8c-.12-.63-.17-1.23-.17-1.8h-.03Zm-5.03,.51c1.41,0,2.6-.33,3.59-.99,.98-.66,1.47-1.45,1.47-2.38s-.5-1.72-1.49-2.37c-.99-.65-2.18-.97-3.57-.97s-2.55,.31-3.47,.94c-.92,.63-1.39,1.43-1.39,2.4s.46,1.78,1.39,2.41,2.08,.96,3.47,.96Z"/>
    <path class="cls-1" d="M257.53,22.58h1.89v22.14h-1.89V22.58Z"/>
    <path class="cls-1" d="M272.04,41.54c.36,.57,.95,1.04,1.76,1.4,.81,.36,1.64,.54,2.5,.54,.97,0,1.8-.24,2.5-.73,.69-.49,1.04-1.14,1.04-1.96,0-.89-.4-1.5-1.19-1.81-.79-.31-1.69-.58-2.7-.79-.57-.12-1.14-.25-1.71-.41-.57-.16-1.09-.38-1.54-.66-.46-.28-.83-.63-1.11-1.07-.28-.44-.43-.99-.43-1.66,0-1.26,.49-2.25,1.46-2.97,.97-.72,2.14-1.09,3.51-1.09,.99,0,1.95,.2,2.87,.6,.92,.4,1.6,.96,2.04,1.69l-1.4,.94c-.27-.49-.75-.89-1.44-1.2-.7-.3-1.38-.46-2.04-.46-.8,0-1.52,.21-2.17,.64s-.97,1-.97,1.73c0,.8,.39,1.36,1.17,1.67,.78,.31,1.71,.58,2.8,.79,.53,.12,1.08,.25,1.64,.41s1.07,.38,1.53,.67,.83,.65,1.13,1.1c.3,.45,.44,1.01,.44,1.7,0,1.37-.54,2.45-1.63,3.24s-2.36,1.19-3.83,1.19c-1.12,0-2.21-.23-3.26-.7s-1.82-1.1-2.31-1.9l1.34-.91Z"/>
    <path class="cls-1" d="M285.26,23.78h1.89v2.88h-1.89v-2.88Zm0,6.91h1.89v14.02h-1.89v-14.02Z"/>
    <path class="cls-1" d="M297.34,30.69v1.63h-3.14v8.43c0,.74,.27,1.37,.81,1.87,.54,.5,1.19,.76,1.96,.76,.21,0,.36,0,.46-.03l.2,1.71h-.49c-1.45,0-2.61-.4-3.48-1.19s-1.31-1.86-1.31-3.21v-8.34h-2.51v-1.63h2.51v-5.51h1.86v5.51h3.14Z"/>
    <path class="cls-1" d="M300.63,23.78h1.89v2.88h-1.89v-2.88Zm0,6.91h1.89v14.02h-1.89v-14.02Z"/>
    <path class="cls-1" d="M313.68,30.32c1.03,0,1.99,.2,2.88,.59s1.68,.92,2.34,1.58,1.19,1.45,1.59,2.34,.59,1.85,.59,2.86-.2,1.96-.59,2.84c-.39,.88-.92,1.66-1.59,2.33s-1.45,1.19-2.34,1.59c-.89,.39-1.86,.58-2.88,.58s-1.99-.2-2.88-.58c-.89-.39-1.68-.92-2.34-1.59s-1.2-1.44-1.59-2.33c-.39-.89-.59-1.83-.59-2.84s.2-1.96,.59-2.86c.39-.89,.92-1.68,1.59-2.34s1.45-1.19,2.34-1.58,1.86-.59,2.88-.59Zm-5.51,7.37c0,1.56,.54,2.89,1.61,3.99,1.08,1.09,2.38,1.64,3.93,1.64s2.82-.55,3.88-1.64c1.07-1.09,1.6-2.42,1.6-3.99s-.53-2.89-1.6-3.98c-1.07-1.09-2.36-1.64-3.88-1.64s-2.85,.55-3.93,1.64c-1.08,1.09-1.61,2.42-1.61,3.98Z"/>
    <path class="cls-1" d="M337.67,44.71h-1.69l-5.03-14.02h1.89l4,11.48,3.86-11.48h1.71l3.86,11.54,4-11.54h1.86l-5.03,14.02h-1.71l-3.86-11.4-3.86,11.4Z"/>
    <path class="cls-1" d="M366.64,41.57c-.63,1.05-1.46,1.89-2.5,2.51-1.04,.63-2.18,.94-3.41,.94-1.96,0-3.62-.71-4.97-2.14s-2.03-3.18-2.03-5.26c0-1.01,.18-1.95,.53-2.83,.35-.88,.84-1.65,1.47-2.31,.63-.67,1.37-1.19,2.23-1.57,.86-.38,1.79-.57,2.8-.57,2,0,3.66,.71,4.98,2.11,1.32,1.41,1.99,3.15,1.99,5.23,0,.12-.02,.25-.06,.4h-12.08c.11,1.64,.69,2.92,1.74,3.84s2.2,1.39,3.46,1.39c.82,0,1.61-.21,2.37-.63,.76-.42,1.4-1.09,1.91-2l1.57,.89Zm-.86-4.83c-.17-1.33-.72-2.45-1.64-3.34s-2.06-1.34-3.41-1.34-2.48,.44-3.4,1.33c-.91,.88-1.48,2-1.69,3.36h10.14Z"/>
    <path class="cls-1" d="M372.95,44.71h-1.89V22.58h1.89v10.68c.67-.91,1.49-1.63,2.47-2.14,.98-.51,2.06-.77,3.24-.77,2,0,3.65,.69,4.96,2.07,1.3,1.38,1.96,3.15,1.96,5.3s-.65,3.89-1.96,5.27c-1.31,1.38-2.96,2.07-4.96,2.07-1.18,0-2.26-.26-3.24-.77-.98-.51-1.8-1.23-2.47-2.14v2.57Zm10.68-7c0-1.68-.49-3.04-1.46-4.08-.97-1.05-2.21-1.57-3.71-1.57-1.6,0-2.93,.55-3.99,1.66-1.06,1.11-1.59,2.44-1.59,4s.53,2.92,1.59,4.01c1.06,1.09,2.39,1.64,3.99,1.64,1.5,0,2.74-.52,3.71-1.56,.97-1.04,1.46-2.4,1.46-4.1Z"/>
    <path class="cls-1" d="M403.97,30.32c1.03,0,1.99,.2,2.88,.59s1.68,.92,2.34,1.58,1.19,1.45,1.59,2.34,.59,1.85,.59,2.86-.2,1.96-.59,2.84c-.39,.88-.92,1.66-1.59,2.33s-1.45,1.19-2.34,1.59c-.89,.39-1.86,.58-2.88,.58s-1.99-.2-2.88-.58c-.89-.39-1.68-.92-2.34-1.59s-1.2-1.44-1.59-2.33c-.39-.89-.59-1.83-.59-2.84s.2-1.96,.59-2.86c.39-.89,.92-1.68,1.59-2.34s1.45-1.19,2.34-1.58,1.86-.59,2.88-.59Zm-5.51,7.37c0,1.56,.54,2.89,1.61,3.99,1.08,1.09,2.38,1.64,3.93,1.64s2.82-.55,3.88-1.64c1.07-1.09,1.6-2.42,1.6-3.99s-.53-2.89-1.6-3.98c-1.07-1.09-2.36-1.64-3.88-1.64s-2.85,.55-3.93,1.64c-1.08,1.09-1.61,2.42-1.61,3.98Z"/>
    <path class="cls-1" d="M417.68,44.71h-1.86v-12.37h-2.57v-1.66h2.57v-4.11c0-1.31,.43-2.37,1.29-3.17s2.01-1.2,3.46-1.2h.46l-.17,1.71c-.11-.02-.28-.03-.48-.03-.74,0-1.38,.25-1.9,.76-.52,.51-.79,1.12-.79,1.84v4.2h2.86v1.66h-2.86v12.37Z"/>
    <path class="cls-1" d="M423.22,23.78h1.89v2.88h-1.89v-2.88Zm0,6.91h1.89v14.02h-1.89v-14.02Z"/>
    <path class="cls-1" d="M428.9,37.66c0-2.09,.71-3.84,2.14-5.23,1.43-1.39,3.18-2.08,5.26-2.08,1.14,0,2.21,.22,3.2,.67s1.82,1.12,2.48,2.01l-1.54,.94c-.5-.65-1.1-1.13-1.81-1.44-.71-.31-1.47-.47-2.27-.47-1.56,0-2.88,.53-3.97,1.59-1.09,1.06-1.63,2.4-1.63,4.04s.54,2.98,1.61,4.04c1.08,1.06,2.38,1.59,3.9,1.59,.86,0,1.64-.18,2.36-.53,.71-.35,1.32-.82,1.81-1.41l1.54,.97c-.67,.82-1.49,1.47-2.48,1.96-.99,.48-2.08,.73-3.26,.73-1.01,0-1.96-.18-2.84-.56-.89-.37-1.66-.89-2.33-1.54-.67-.66-1.19-1.44-1.59-2.34s-.59-1.88-.59-2.93Z"/>
    <path class="cls-1" d="M445.15,23.78h1.89v2.88h-1.89v-2.88Zm0,6.91h1.89v14.02h-1.89v-14.02Z"/>
    <path class="cls-1" d="M462.4,42.91c-.57,.67-1.34,1.19-2.3,1.59-.96,.39-2,.58-3.13,.58-1.81,0-3.32-.48-4.53-1.44-1.21-.96-1.81-2.16-1.81-3.58s.61-2.61,1.84-3.56c1.23-.94,2.77-1.41,4.61-1.41,2.28,0,4.05,.66,5.31,1.97v-1.29c0-2.59-1.41-3.89-4.23-3.89-1.01,0-1.97,.16-2.87,.49-.91,.32-1.66,.79-2.27,1.4l-1.43-.74c.69-.8,1.66-1.45,2.93-1.94,1.27-.5,2.58-.74,3.93-.74,1.83,0,3.25,.47,4.26,1.4,1.01,.93,1.51,2.26,1.51,3.97v5.03c0,.89,.01,1.66,.04,2.28,.03,.63,.07,1.19,.13,1.69h-1.8c-.12-.63-.17-1.23-.17-1.8h-.03Zm-5.03,.51c1.41,0,2.6-.33,3.59-.99,.98-.66,1.47-1.45,1.47-2.38s-.5-1.72-1.49-2.37c-.99-.65-2.18-.97-3.57-.97s-2.55,.31-3.47,.94c-.92,.63-1.39,1.43-1.39,2.4s.46,1.78,1.39,2.41,2.08,.96,3.47,.96Z"/>
    <path class="cls-1" d="M468.8,22.58h1.89v22.14h-1.89V22.58Z"/>
    <path class="cls-1" d="M495.28,42.14c-.67,.91-1.49,1.63-2.47,2.14-.98,.51-2.07,.77-3.27,.77-2,0-3.65-.69-4.96-2.07s-1.96-3.14-1.96-5.27,.65-3.92,1.96-5.3,2.96-2.07,4.96-2.07c1.2,0,2.29,.26,3.27,.77,.98,.51,1.8,1.23,2.47,2.14v-10.68h1.86v22.14h-1.86v-2.57Zm.06-4.43c0-1.56-.53-2.89-1.6-4-1.07-1.1-2.39-1.66-3.97-1.66s-2.77,.52-3.74,1.57c-.97,1.05-1.46,2.41-1.46,4.08s.49,3.06,1.46,4.1c.97,1.04,2.22,1.56,3.74,1.56s2.9-.55,3.97-1.64c1.07-1.09,1.6-2.43,1.6-4.01Z"/>
    <path class="cls-1" d="M513.42,41.57c-.63,1.05-1.46,1.89-2.5,2.51-1.04,.63-2.18,.94-3.41,.94-1.96,0-3.62-.71-4.97-2.14s-2.03-3.18-2.03-5.26c0-1.01,.18-1.95,.53-2.83,.35-.88,.84-1.65,1.47-2.31,.63-.67,1.37-1.19,2.23-1.57,.86-.38,1.79-.57,2.8-.57,2,0,3.66,.71,4.98,2.11,1.32,1.41,1.99,3.15,1.99,5.23,0,.12-.02,.25-.06,.4h-12.08c.11,1.64,.69,2.92,1.74,3.84s2.2,1.39,3.46,1.39c.82,0,1.61-.21,2.37-.63,.76-.42,1.4-1.09,1.91-2l1.57,.89Zm-.86-4.83c-.17-1.33-.72-2.45-1.64-3.34s-2.06-1.34-3.41-1.34-2.48,.44-3.4,1.33c-.91,.88-1.48,2-1.69,3.36h10.14Z"/>
    <path class="cls-1" d="M518.3,22.58h1.89v22.14h-1.89V22.58Z"/>
    <path class="cls-1" d="M532.15,37.66c0-2.09,.71-3.84,2.14-5.23,1.43-1.39,3.18-2.08,5.26-2.08,1.14,0,2.21,.22,3.2,.67s1.82,1.12,2.48,2.01l-1.54,.94c-.5-.65-1.1-1.13-1.81-1.44-.71-.31-1.47-.47-2.27-.47-1.56,0-2.88,.53-3.97,1.59-1.09,1.06-1.63,2.4-1.63,4.04s.54,2.98,1.61,4.04c1.08,1.06,2.38,1.59,3.9,1.59,.86,0,1.64-.18,2.36-.53,.71-.35,1.32-.82,1.81-1.41l1.54,.97c-.67,.82-1.49,1.47-2.48,1.96-.99,.48-2.08,.73-3.26,.73-1.01,0-1.96-.18-2.84-.56-.89-.37-1.66-.89-2.33-1.54-.67-.66-1.19-1.44-1.59-2.34s-.59-1.88-.59-2.93Z"/>
    <path class="cls-1" d="M554.6,30.32c1.03,0,1.99,.2,2.88,.59s1.68,.92,2.34,1.58,1.19,1.45,1.59,2.34,.59,1.85,.59,2.86-.2,1.96-.59,2.84c-.39,.88-.92,1.66-1.59,2.33s-1.45,1.19-2.34,1.59c-.89,.39-1.86,.58-2.88,.58s-1.99-.2-2.88-.58c-.89-.39-1.68-.92-2.34-1.59s-1.2-1.44-1.59-2.33c-.39-.89-.59-1.83-.59-2.84s.2-1.96,.59-2.86c.39-.89,.92-1.68,1.59-2.34s1.45-1.19,2.34-1.58,1.86-.59,2.88-.59Zm-5.51,7.37c0,1.56,.54,2.89,1.61,3.99,1.08,1.09,2.38,1.64,3.93,1.64s2.82-.55,3.88-1.64c1.07-1.09,1.6-2.42,1.6-3.99s-.53-2.89-1.6-3.98c-1.07-1.09-2.36-1.64-3.88-1.64s-2.85,.55-3.93,1.64c-1.08,1.09-1.61,2.42-1.61,3.98Z"/>
    <path class="cls-1" d="M565.8,22.58h1.89v22.14h-1.89V22.58Z"/>
    <path class="cls-1" d="M584.42,41.57c-.63,1.05-1.46,1.89-2.5,2.51-1.04,.63-2.18,.94-3.41,.94-1.96,0-3.62-.71-4.97-2.14s-2.03-3.18-2.03-5.26c0-1.01,.18-1.95,.53-2.83,.35-.88,.84-1.65,1.47-2.31,.63-.67,1.37-1.19,2.23-1.57s1.79-.57,2.8-.57c2,0,3.66,.71,4.98,2.11,1.32,1.41,1.99,3.15,1.99,5.23,0,.12-.02,.25-.06,.4h-12.08c.11,1.64,.69,2.92,1.74,3.84,1.05,.92,2.2,1.39,3.45,1.39,.82,0,1.61-.21,2.37-.63,.76-.42,1.4-1.09,1.92-2l1.57,.89Zm-.86-4.83c-.17-1.33-.72-2.45-1.64-3.34s-2.06-1.34-3.41-1.34-2.49,.44-3.4,1.33c-.92,.88-1.48,2-1.69,3.36h10.14Z"/>
    <path class="cls-1" d="M590.62,44.11c1.71-.46,3.41-.69,5.08-.69,2.09,0,3.75,.37,4.96,1.1,1.21,.73,1.81,1.76,1.81,3.07s-.64,2.35-1.91,3.1c-1.28,.75-3.05,1.13-5.31,1.13-1.43,0-2.75-.15-3.97-.46-1.22-.3-2.26-.73-3.11-1.29l.89-1.4c.65,.48,1.54,.86,2.68,1.16,1.14,.3,2.34,.44,3.6,.44,1.6,0,2.88-.24,3.84-.73,.96-.49,1.44-1.13,1.44-1.93s-.48-1.44-1.43-1.93c-.95-.49-2.21-.73-3.77-.73-1.01,0-2.09,.1-3.26,.31-1.16,.21-2.23,.48-3.2,.83l-1.23-1.23,3.57-4.11c-.91-.5-1.64-1.15-2.18-1.97-.54-.82-.81-1.74-.81-2.77,0-1.62,.65-2.98,1.95-4.07s2.94-1.64,4.9-1.64c1.64,0,3.07,.4,4.28,1.2l2.17-2.48,1.37,1.11-2.34,2.34c.93,1.03,1.4,2.2,1.4,3.51,0,1.62-.66,2.98-1.97,4.07-1.31,1.1-2.95,1.64-4.91,1.64-.78,0-1.54-.1-2.28-.31l-2.26,2.71Zm-.46-8.11c0,1.14,.48,2.1,1.44,2.86,.96,.76,2.16,1.14,3.58,1.14s2.62-.38,3.57-1.14c.95-.76,1.43-1.71,1.43-2.86s-.48-2.09-1.43-2.84c-.95-.75-2.14-1.13-3.57-1.13s-2.62,.38-3.58,1.13c-.96,.75-1.44,1.7-1.44,2.84Z"/>
    <path class="cls-1" d="M606.07,23.78h1.89v2.88h-1.89v-2.88Zm0,6.91h1.89v14.02h-1.89v-14.02Z"/>
    <path class="cls-1" d="M619.12,30.32c1.03,0,1.99,.2,2.88,.59s1.68,.92,2.34,1.58c.66,.67,1.19,1.45,1.59,2.34,.39,.89,.59,1.85,.59,2.86s-.2,1.96-.59,2.84c-.39,.88-.92,1.66-1.59,2.33-.67,.67-1.45,1.19-2.34,1.59-.89,.39-1.86,.58-2.88,.58s-1.99-.2-2.88-.58c-.89-.39-1.68-.92-2.34-1.59-.67-.67-1.19-1.44-1.59-2.33-.39-.89-.59-1.83-.59-2.84s.2-1.96,.59-2.86,.92-1.68,1.59-2.34c.67-.67,1.45-1.19,2.34-1.58s1.86-.59,2.88-.59Zm-5.51,7.37c0,1.56,.54,2.89,1.62,3.99,1.07,1.09,2.38,1.64,3.93,1.64s2.82-.55,3.88-1.64c1.07-1.09,1.6-2.42,1.6-3.99s-.53-2.89-1.6-3.98c-1.06-1.09-2.36-1.64-3.88-1.64s-2.85,.55-3.93,1.64c-1.08,1.09-1.62,2.42-1.62,3.98Z"/>
  </g>
  <path class="cls-3" d="M494.45,127.62s-10.23-22.22-17.51-24.7"/>
  <path class="cls-3" d="M459.91,116.93s-8.74-14.5-16.03-16.08"/>
</svg>