<?xml version="1.0" encoding="UTF-8"?>
<svg xmlns="http://www.w3.org/2000/svg" xmlns:xlink="http://www.w3.org/1999/xlink" viewBox="0 0 1667.86 1179.59">
  <defs>
    <style>
      .cls-1 {
        fill: #fff;
      }

      .cls-2 {
        fill: #fcfdfd;
      }

      .cls-3 {
        fill: #000fc9;
      }

      .cls-4 {
        clip-path: url(#clippath-2);
      }

      .cls-5 {
        fill: #fcd892;
      }

      .cls-6 {
        fill: #f3fafb;
      }

      .cls-7 {
        clip-path: url(#clippath-1);
      }

      .cls-8 {
        stroke: #fff;
        stroke-linecap: square;
        stroke-linejoin: bevel;
        stroke-width: 8px;
      }

      .cls-8, .cls-9 {
        fill: none;
      }

      .cls-10 {
        fill: #021668;
        stroke: #000;
        stroke-miterlimit: 10;
      }

      .cls-11 {
        fill: #6d69ff;
      }
    </style>
    <clipPath id="clippath-1">
      <rect class="cls-9" x="1111.04" y="157.1" width="273.26" height="273.26"/>
    </clipPath>
    <clipPath id="clippath-2">
      <rect class="cls-9" x="1111.04" y="157.1" width="273.26" height="273.26"/>
    </clipPath>
  </defs>
  <g id="Capa_2" data-name="Capa 2">
    <rect class="cls-10" x=".5" y=".5" width="1666.86" height="1178.59"/>
  </g>
  <g id="Capa_1" data-name="Capa 1">
    <polygon class="cls-5" points=".5 1014.29 1381.95 1014.29 1381.95 943.44 1500.42 1054.24 1392.34 1155.33 1392.34 1097.12 .5 1097.12 .5 1014.29"/>
    <polygon class="cls-3" points=".5 860.81 1381.95 860.81 1381.95 789.96 1500.42 900.76 1392.34 1001.85 1392.34 943.64 .5 943.64 .5 860.81"/>
    <g>
      <path class="cls-1" d="M235.89,148.98c-1.84,0-3.2-.26-4.07-.76-.88-.51-1.45-1.25-1.72-2.21-.28-.96-.42-2.09-.42-3.38V58.95c0-2.3,.48-3.91,1.45-4.83,.96-.91,2.69-1.37,5.17-1.37h55.42c1.28,0,2.39,.13,3.31,.41,.91,.28,1.6,.88,2.06,1.8s.69,2.3,.69,4.13-.25,3.2-.76,4.07c-.5,.88-1.22,1.45-2.14,1.72-.92,.28-2.02,.42-3.31,.42h-49.49v28.54h34.47c1.28,0,2.36,.14,3.24,.42s1.54,.83,2,1.65c.45,.82,.68,2.11,.68,3.86,0,1.65-.23,2.89-.68,3.72-.47,.82-1.17,1.36-2.14,1.58-.96,.23-2.09,.35-3.38,.35h-34.19v31.16h49.63c1.28,0,2.39,.13,3.31,.42,.91,.27,1.6,.85,2.06,1.72s.69,2.23,.69,4.07-.25,3.19-.76,4.07c-.5,.87-1.22,1.45-2.14,1.72s-2.02,.42-3.31,.42h-55.69Z"/>
      <path class="cls-1" d="M335.98,149.67c-2.2,0-4.53-.23-6.96-.69-2.43-.46-4.76-1.13-6.96-2-2.2-.87-4.18-1.9-5.93-3.1-1.74-1.19-2.99-2.52-3.72-3.99-.47-.92-.74-1.77-.83-2.55s.02-1.54,.35-2.27c.32-.73,.89-1.47,1.72-2.21,.91-1.1,1.81-1.63,2.69-1.58,.87,.04,2.04,.67,3.52,1.86,1.01,.64,2.18,1.35,3.51,2.13,1.34,.79,2.76,1.48,4.27,2.07,1.52,.6,3.03,1.11,4.55,1.51,1.52,.42,3.01,.62,4.48,.62,4.22,0,7.63-.8,10.2-2.41,2.57-1.61,3.86-3.74,3.86-6.41,0-1.56-.33-2.89-.96-4-.65-1.1-1.52-2.02-2.62-2.75-1.11-.73-2.37-1.4-3.79-2-1.42-.6-2.97-1.13-4.62-1.59-1.65-.46-3.36-.96-5.1-1.51-2.39-.65-4.8-1.38-7.24-2.21-2.43-.82-4.59-1.9-6.48-3.24-1.88-1.33-3.43-3.03-4.62-5.1-1.19-2.07-1.8-4.71-1.8-7.93,0-3.76,.94-7.03,2.83-9.78,1.88-2.76,4.57-4.9,8.07-6.41,3.49-1.52,7.62-2.28,12.4-2.28,2.03,0,3.91,.14,5.65,.42s3.42,.71,5.03,1.31c1.61,.6,3.15,1.29,4.62,2.07s2.9,1.72,4.27,2.83c1.65,1.11,2.53,2.3,2.62,3.58,.09,1.29-.42,2.66-1.51,4.13-.83,1.11-1.75,1.82-2.76,2.14-1.01,.33-2.02,.12-3.03-.62-1.48-1.1-3.03-2.09-4.69-2.96-1.65-.87-3.35-1.59-5.1-2.14-1.75-.55-3.54-.82-5.38-.82-2.29,0-4.34,.34-6.13,1.03-1.8,.69-3.18,1.7-4.14,3.03-.96,1.33-1.45,2.83-1.45,4.48,0,1.48,.39,2.67,1.17,3.58,.78,.92,1.8,1.71,3.03,2.34,1.24,.65,2.71,1.22,4.41,1.72,1.7,.51,3.47,.99,5.31,1.45,2.66,.65,5.4,1.4,8.2,2.28,2.8,.88,5.33,2.03,7.58,3.44,2.26,1.43,4.09,3.31,5.52,5.65,1.42,2.34,2.13,5.45,2.13,9.31,0,6.06-2.39,10.84-7.16,14.34-4.79,3.49-11.12,5.24-19.03,5.24Z"/>
      <path class="cls-1" d="M408.5,149.25c-4.78,0-9.26-.78-13.45-2.34-4.18-1.56-7.85-3.79-11.03-6.69-3.17-2.89-5.65-6.41-7.44-10.55-1.79-4.13-2.69-8.82-2.69-14.06s.9-9.9,2.69-13.99c1.8-4.09,4.25-7.61,7.38-10.55,3.12-2.94,6.78-5.19,10.96-6.75,4.18-1.57,8.62-2.34,13.3-2.34,3.12,0,6.2,.48,9.24,1.45s5.72,2.2,8.07,3.72c2.34,1.52,4.02,3.1,5.03,4.76,.91,1.19,1.58,2.19,2,2.97s.44,1.68,.07,2.69c-.36,.73-.87,1.4-1.51,2-.65,.6-1.29,1.08-1.93,1.45-1.74,1.29-3.4,1.48-4.96,.56-1.01-1.01-2.14-1.95-3.38-2.83s-2.55-1.65-3.93-2.34-2.78-1.26-4.21-1.72-2.92-.69-4.48-.69c-4.32,0-8.13,.92-11.44,2.75-3.31,1.84-5.86,4.37-7.65,7.58-1.8,3.22-2.69,6.98-2.69,11.3s.9,8.09,2.69,11.31c1.79,3.21,4.32,5.74,7.58,7.58,3.26,1.84,7.01,2.76,11.24,2.76,1.84,0,3.67-.25,5.51-.76s3.54-1.19,5.1-2.07c1.56-.88,2.84-1.81,3.86-2.83,.91-.64,1.7-1.19,2.34-1.65,.64-.46,1.37-.69,2.2-.69s1.63,.3,2.41,.9c.78,.6,1.63,1.5,2.55,2.69,.82,.83,1.31,1.71,1.45,2.62,.13,.92-.03,1.82-.48,2.69-.47,.87-1.2,1.68-2.21,2.41-1.47,1.47-3.42,2.87-5.86,4.2-2.43,1.34-5.08,2.41-7.93,3.24-2.85,.82-5.65,1.24-8.41,1.24Z"/>
      <path class="cls-1" d="M473.56,149.11c-4.13,0-7.9-.73-11.3-2.2-3.41-1.47-6.39-3.53-8.96-6.2-2.57-2.66-4.57-5.88-6-9.65-1.42-3.77-2.14-8.04-2.14-12.82v-29.92c0-1.28,.12-2.39,.35-3.31,.22-.91,.8-1.63,1.72-2.13,.91-.5,2.25-.76,4-.76s3.05,.28,3.93,.83,1.45,1.28,1.72,2.2,.42,2.03,.42,3.31v29.92c0,3.77,.64,7.1,1.93,10,1.28,2.89,3.24,5.12,5.86,6.69,2.62,1.56,5.81,2.34,9.58,2.34s7.19-.78,10-2.34c2.8-1.57,4.96-3.79,6.48-6.69,1.52-2.89,2.28-6.23,2.28-10v-30.06c0-1.28,.11-2.39,.34-3.31,.23-.91,.8-1.63,1.72-2.13s2.26-.76,4-.76,3.06,.28,3.93,.83c.87,.55,1.42,1.28,1.65,2.2s.35,2.03,.35,3.31v54.73c0,1.1-.12,2.09-.35,2.96s-.78,1.54-1.65,2c-.88,.46-2.19,.69-3.93,.69-1.28,0-2.32-.13-3.1-.42-.78-.27-1.36-.64-1.72-1.1-.37-.46-.62-.99-.76-1.59-.14-.59-.21-1.22-.21-1.86l.55-5.92c-.92,1.19-2.02,2.41-3.31,3.65-1.28,1.24-2.78,2.43-4.48,3.58-1.71,1.15-3.61,2.09-5.72,2.83s-4.5,1.1-7.17,1.1Z"/>
      <path class="cls-1" d="M553.39,149.67c-5.51,0-10.43-.92-14.75-2.76-4.32-1.83-7.98-4.34-10.96-7.51-2.98-3.18-5.28-6.83-6.89-10.96-1.6-4.13-2.41-8.59-2.41-13.37,0-6.34,1.47-11.99,4.41-16.96,2.94-4.96,7.03-8.89,12.27-11.79,5.24-2.89,11.21-4.34,17.92-4.34,4.59,0,8.71,.71,12.34,2.14s6.73,3.33,9.31,5.72,4.55,5.05,5.93,7.99c1.38,2.95,2.07,5.88,2.07,8.82,0,4.69-1.11,7.99-3.31,9.92s-4.92,2.89-8.13,2.89h-39.85c-.09,3.95,.99,7.38,3.24,10.27,2.25,2.9,5.1,5.13,8.55,6.69,3.44,1.57,6.91,2.34,10.41,2.34,2.49,0,4.67-.13,6.55-.42,1.88-.27,3.51-.64,4.89-1.1s2.55-.92,3.52-1.38,1.86-.92,2.69-1.38c.82-.46,1.6-.78,2.34-.96,.73-.18,1.51-.11,2.34,.21,.82,.33,1.46,.94,1.93,1.86,.55,.73,.91,1.42,1.1,2.07,.19,.64,.27,1.33,.27,2.06,0,1.38-1.1,2.83-3.3,4.34-2.21,1.52-5.27,2.83-9.17,3.93-3.9,1.1-8.34,1.65-13.3,1.65Zm-22.06-38.47h34.61c1.65,0,2.94-.23,3.86-.69s1.38-1.7,1.38-3.72c0-2.49-.78-4.78-2.34-6.89-1.57-2.11-3.7-3.81-6.41-5.1-2.71-1.28-5.86-1.93-9.44-1.93-3.95,0-7.61,.81-10.96,2.41-3.35,1.61-6,3.79-7.93,6.55-1.93,2.75-2.85,5.88-2.76,9.37Z"/>
      <path class="cls-1" d="M617.36,148.98c-2.95,0-5.61-.23-8-.69s-4.43-1.24-6.13-2.34c-1.71-1.11-3.12-2.55-4.27-4.34-1.15-1.8-2-3.93-2.55-6.41-.55-2.48-.82-5.37-.82-8.68V57.57c0-1.38,.13-2.53,.42-3.45,.27-.91,.85-1.63,1.72-2.13,.87-.5,2.18-.76,3.93-.76,1.84,0,3.19,.23,4.07,.69s1.45,1.15,1.72,2.07c.28,.92,.42,2.02,.42,3.31V126.36c0,1.84,.19,3.43,.55,4.76,.37,1.34,.94,2.46,1.73,3.38,.78,.92,1.77,1.57,2.96,1.93,1.19,.37,2.62,.56,4.27,.56,1.1,0,2.04,.13,2.83,.41,.78,.28,1.4,.83,1.86,1.65,.46,.83,.69,2.11,.69,3.86,0,1.84-.23,3.2-.69,4.07-.46,.88-1.08,1.42-1.86,1.65-.79,.23-1.73,.35-2.83,.35Z"/>
      <path class="cls-1" d="M691.95,148.84c-2.03,0-3.49-.42-4.41-1.24s-1.42-2.11-1.51-3.86l.55-6.89c-.92,1.47-2.34,3.15-4.27,5.03s-4.48,3.54-7.65,4.96c-3.17,1.42-6.96,2.14-11.37,2.14s-8.53-.88-12.34-2.62-7.17-4.18-10.06-7.31c-2.89-3.12-5.17-6.7-6.82-10.75-1.65-4.04-2.49-8.36-2.49-12.96s.83-8.75,2.49-12.75c1.65-4,3.95-7.51,6.89-10.55,2.95-3.03,6.32-5.42,10.14-7.17,3.81-1.74,7.88-2.62,12.2-2.62,4.04,0,7.49,.53,10.34,1.59,2.85,1.05,5.31,2.43,7.38,4.13,2.06,1.7,3.88,3.61,5.45,5.72l-.42-5.79c0-2.03,.48-3.47,1.45-4.35,.96-.87,2.5-1.31,4.62-1.31,1.74,0,3.01,.27,3.79,.82,.78,.56,1.31,1.34,1.59,2.34,.27,1.02,.41,2.26,.41,3.72v53.21c0,1.29-.13,2.43-.41,3.45-.28,1.01-.83,1.77-1.65,2.27-.83,.5-2.11,.76-3.86,.76Zm-26.75-11.44c3.76,0,7.17-.96,10.2-2.89,3.03-1.93,5.47-4.53,7.31-7.79,1.84-3.26,2.76-7.01,2.76-11.24s-.95-8.11-2.83-11.38c-1.88-3.26-4.37-5.81-7.44-7.65-3.09-1.83-6.51-2.75-10.27-2.75-4.23,0-7.93,.96-11.1,2.89-3.17,1.93-5.68,4.55-7.51,7.86-1.84,3.31-2.76,7.08-2.76,11.3s.92,7.84,2.76,11.1c1.83,3.26,4.39,5.84,7.65,7.72,3.26,1.88,7.01,2.82,11.24,2.82Z"/>
      <path class="cls-1" d="M736.47,149.67c-2.2,0-4.53-.23-6.96-.69-2.43-.46-4.76-1.13-6.96-2-2.2-.87-4.18-1.9-5.93-3.1-1.74-1.19-2.99-2.52-3.72-3.99-.47-.92-.74-1.77-.83-2.55s.02-1.54,.35-2.27c.32-.73,.89-1.47,1.72-2.21,.91-1.1,1.81-1.63,2.69-1.58,.87,.04,2.04,.67,3.52,1.86,1.01,.64,2.18,1.35,3.51,2.13,1.34,.79,2.76,1.48,4.27,2.07,1.52,.6,3.03,1.11,4.55,1.51,1.52,.42,3.01,.62,4.48,.62,4.22,0,7.63-.8,10.2-2.41,2.57-1.61,3.86-3.74,3.86-6.41,0-1.56-.33-2.89-.96-4-.65-1.1-1.52-2.02-2.62-2.75-1.11-.73-2.37-1.4-3.79-2-1.42-.6-2.97-1.13-4.62-1.59-1.65-.46-3.36-.96-5.1-1.51-2.39-.65-4.8-1.38-7.24-2.21-2.43-.82-4.59-1.9-6.48-3.24-1.88-1.33-3.43-3.03-4.62-5.1-1.19-2.07-1.8-4.71-1.8-7.93,0-3.76,.94-7.03,2.83-9.78,1.88-2.76,4.57-4.9,8.07-6.41,3.49-1.52,7.62-2.28,12.4-2.28,2.03,0,3.91,.14,5.65,.42s3.42,.71,5.03,1.31c1.61,.6,3.15,1.29,4.62,2.07s2.9,1.72,4.27,2.83c1.65,1.11,2.53,2.3,2.62,3.58,.09,1.29-.42,2.66-1.51,4.13-.83,1.11-1.75,1.82-2.76,2.14-1.01,.33-2.02,.12-3.03-.62-1.48-1.1-3.03-2.09-4.69-2.96-1.65-.87-3.35-1.59-5.1-2.14-1.75-.55-3.54-.82-5.38-.82-2.29,0-4.34,.34-6.13,1.03-1.8,.69-3.18,1.7-4.14,3.03-.96,1.33-1.45,2.83-1.45,4.48,0,1.48,.39,2.67,1.17,3.58,.78,.92,1.8,1.71,3.03,2.34,1.24,.65,2.71,1.22,4.41,1.72,1.7,.51,3.47,.99,5.31,1.45,2.66,.65,5.4,1.4,8.2,2.28,2.8,.88,5.33,2.03,7.58,3.44,2.26,1.43,4.09,3.31,5.52,5.65,1.42,2.34,2.13,5.45,2.13,9.31,0,6.06-2.39,10.84-7.16,14.34-4.79,3.49-11.12,5.24-19.03,5.24Z"/>
      <path class="cls-1" d="M820.15,148.98c-1.84,0-3.2-.26-4.07-.76-.88-.51-1.45-1.25-1.72-2.21s-.42-2.09-.42-3.38V58.95c0-1.19,.14-2.28,.42-3.24s.87-1.7,1.79-2.2,2.3-.76,4.14-.76c1.74,0,3.05,.25,3.93,.76,.87,.5,1.45,1.24,1.72,2.2,.27,.96,.42,2.09,.42,3.38v83.69c0,1.28-.14,2.39-.42,3.31s-.88,1.63-1.79,2.14c-.92,.5-2.26,.76-4,.76Zm.55-43.57v-11.58h57.63l-.14,11.58h-57.49Zm61.49,43.57c-1.74,0-3.08-.26-4-.76-.92-.51-1.49-1.25-1.72-2.21-.23-.96-.34-2.09-.34-3.38V58.95c0-1.19,.13-2.28,.42-3.24,.27-.96,.85-1.7,1.72-2.2,.87-.5,2.23-.76,4.07-.76s3.19,.25,4.07,.76c.87,.5,1.45,1.24,1.72,2.2,.27,.96,.42,2.09,.42,3.38v83.69c0,1.28-.16,2.39-.48,3.31-.33,.92-.92,1.63-1.8,2.14-.88,.5-2.23,.76-4.07,.76Z"/>
      <path class="cls-1" d="M938.72,149.67c-5.51,0-10.43-.92-14.75-2.76-4.32-1.83-7.98-4.34-10.96-7.51-2.98-3.18-5.28-6.83-6.89-10.96-1.6-4.13-2.41-8.59-2.41-13.37,0-6.34,1.47-11.99,4.41-16.96,2.94-4.96,7.03-8.89,12.27-11.79,5.24-2.89,11.21-4.34,17.92-4.34,4.59,0,8.71,.71,12.34,2.14s6.73,3.33,9.31,5.72c2.57,2.39,4.55,5.05,5.93,7.99,1.38,2.95,2.07,5.88,2.07,8.82,0,4.69-1.11,7.99-3.31,9.92-2.2,1.93-4.92,2.89-8.13,2.89h-39.85c-.09,3.95,.99,7.38,3.24,10.27,2.25,2.9,5.1,5.13,8.55,6.69,3.44,1.57,6.91,2.34,10.41,2.34,2.49,0,4.67-.13,6.55-.42,1.88-.27,3.51-.64,4.89-1.1s2.55-.92,3.52-1.38,1.86-.92,2.69-1.38c.82-.46,1.6-.78,2.34-.96,.73-.18,1.51-.11,2.34,.21,.82,.33,1.46,.94,1.93,1.86,.55,.73,.91,1.42,1.1,2.07,.19,.64,.27,1.33,.27,2.06,0,1.38-1.1,2.83-3.3,4.34-2.21,1.52-5.27,2.83-9.17,3.93-3.9,1.1-8.34,1.65-13.3,1.65Zm-22.06-38.47h34.61c1.65,0,2.94-.23,3.86-.69s1.38-1.7,1.38-3.72c0-2.49-.78-4.78-2.34-6.89-1.57-2.11-3.7-3.81-6.41-5.1-2.71-1.28-5.86-1.93-9.44-1.93-3.95,0-7.61,.81-10.96,2.41-3.35,1.61-6,3.79-7.93,6.55-1.93,2.75-2.85,5.88-2.76,9.37Z"/>
      <path class="cls-1" d="M987.8,148.98c-1.75,0-3.06-.26-3.93-.76-.88-.51-1.42-1.25-1.65-2.21-.23-.96-.34-2.09-.34-3.38v-54.32c0-1.37,.11-2.52,.34-3.44,.23-.92,.78-1.59,1.65-2,.88-.42,2.23-.62,4.07-.62,1.65,0,2.92,.21,3.79,.62,.88,.41,1.47,1.01,1.8,1.79,.32,.78,.48,1.68,.48,2.69l-.56,4.14c.65-1.19,1.4-2.39,2.28-3.58,.87-1.19,1.97-2.28,3.31-3.24,1.33-.96,2.94-1.77,4.82-2.41,1.88-.64,4.2-.96,6.96-.96,1.38,0,2.69,.12,3.93,.34,1.24,.23,2.43,.58,3.58,1.04s2.14,.99,2.97,1.58c.82,.6,1.49,1.25,2,1.93,.5,.69,.76,1.5,.76,2.41,0,2.03-.65,3.75-1.93,5.17-1.29,1.42-2.62,2.14-4,2.14-1.19,0-2.06-.14-2.62-.42-.55-.27-1.08-.62-1.58-1.03s-1.22-.78-2.14-1.11c-.92-.32-2.39-.48-4.41-.48-1.37,0-2.82,.27-4.34,.83-1.51,.55-2.96,1.36-4.34,2.41-1.38,1.05-2.5,2.41-3.38,4.07-.88,1.65-1.31,3.63-1.31,5.93v36.81c0,1.29-.14,2.4-.42,3.31-.27,.92-.85,1.61-1.72,2.07-.88,.46-2.23,.69-4.07,.69Z"/>
      <path class="cls-1" d="M1043.64,148.98c-1.74,0-3.03-.27-3.86-.83-.83-.55-1.38-1.28-1.65-2.2-.27-.91-.42-2.02-.42-3.31v-54.59c0-1.19,.14-2.23,.42-3.1,.27-.87,.85-1.54,1.72-2s2.18-.69,3.93-.69c2.02,0,3.47,.39,4.34,1.17,.87,.78,1.31,2.14,1.31,4.07l-.55,5.93c.64-1.38,1.6-2.76,2.89-4.14,1.28-1.37,2.83-2.62,4.62-3.72,1.8-1.11,3.7-1.97,5.72-2.62s4.09-.96,6.2-.96c3.21,0,6.09,.57,8.62,1.72s4.8,2.78,6.83,4.89c2.02,2.12,3.72,4.74,5.1,7.86,1.84-3.03,3.79-5.63,5.86-7.79,2.07-2.16,4.41-3.81,7.03-4.96s5.58-1.72,8.89-1.72c5.33,0,9.77,1.31,13.31,3.93,3.53,2.62,6.2,6.3,7.99,11.03,1.79,4.73,2.69,10.41,2.69,17.03v28.82c0,1.28-.13,2.39-.42,3.31-.27,.92-.82,1.63-1.65,2.14-.83,.5-2.17,.76-4,.76s-3.08-.27-4-.83c-.92-.55-1.49-1.28-1.72-2.2-.23-.91-.34-2.02-.34-3.31v-28.81c0-4.04-.51-7.58-1.52-10.61-1.01-3.03-2.48-5.38-4.41-7.03-1.93-1.65-4.46-2.48-7.58-2.48-3.31,0-6.23,.82-8.75,2.48-2.53,1.65-4.48,3.98-5.86,6.96-1.38,2.99-2.07,6.55-2.07,10.69v29.09c0,1.38-.27,2.57-.82,3.58-.55,1.02-1.38,1.73-2.48,2.14-1.11,.42-2.49,.48-4.14,.21-1.37-.09-2.43-.44-3.17-1.03-.73-.6-1.19-1.33-1.38-2.2s-.27-1.86-.27-2.97v-28.81c0-4.04-.48-7.58-1.45-10.61-.96-3.03-2.43-5.38-4.41-7.03-1.98-1.65-4.53-2.48-7.65-2.48-3.31,0-6.23,.85-8.76,2.55-2.53,1.71-4.48,4.07-5.86,7.1-1.38,3.03-2.07,6.53-2.07,10.48v28.95c0,1.28-.14,2.39-.42,3.31-.27,.92-.85,1.63-1.72,2.14-.88,.5-2.23,.76-4.07,.76Z"/>
      <path class="cls-1" d="M1208.25,148.84c-2.03,0-3.49-.42-4.41-1.24s-1.42-2.11-1.51-3.86l.55-6.89c-.92,1.47-2.34,3.15-4.27,5.03-1.93,1.88-4.48,3.54-7.65,4.96-3.17,1.42-6.96,2.14-11.37,2.14s-8.53-.88-12.34-2.62c-3.81-1.74-7.17-4.18-10.06-7.31-2.89-3.12-5.17-6.7-6.82-10.75-1.65-4.04-2.49-8.36-2.49-12.96s.83-8.75,2.49-12.75,3.95-7.51,6.89-10.55c2.95-3.03,6.32-5.42,10.14-7.17,3.81-1.74,7.88-2.62,12.2-2.62,4.04,0,7.49,.53,10.34,1.59,2.85,1.05,5.31,2.43,7.38,4.13,2.06,1.7,3.88,3.61,5.45,5.72l-.42-5.79c0-2.03,.48-3.47,1.45-4.35,.96-.87,2.5-1.31,4.62-1.31,1.74,0,3.01,.27,3.79,.82,.78,.56,1.31,1.34,1.59,2.34,.27,1.02,.41,2.26,.41,3.72v53.21c0,1.29-.13,2.43-.41,3.45-.28,1.01-.83,1.77-1.65,2.27-.83,.5-2.11,.76-3.86,.76Zm-26.75-11.44c3.76,0,7.17-.96,10.2-2.89,3.03-1.93,5.47-4.53,7.31-7.79,1.84-3.26,2.76-7.01,2.76-11.24s-.95-8.11-2.83-11.38c-1.88-3.26-4.37-5.81-7.44-7.65-3.09-1.83-6.51-2.75-10.27-2.75-4.23,0-7.93,.96-11.1,2.89-3.17,1.93-5.68,4.55-7.51,7.86-1.84,3.31-2.76,7.08-2.76,11.3s.92,7.84,2.76,11.1c1.83,3.26,4.39,5.84,7.65,7.72,3.26,1.88,7.01,2.82,11.24,2.82Z"/>
      <path class="cls-1" d="M1236.65,148.84c-1.75,0-3.06-.25-3.93-.76s-1.42-1.22-1.65-2.14c-.23-.91-.34-2.02-.34-3.31v-54.73c0-1.19,.11-2.21,.34-3.03,.23-.83,.81-1.47,1.73-1.93,.91-.46,2.25-.69,3.99-.69,1.38,0,2.46,.16,3.24,.48,.78,.33,1.33,.76,1.65,1.31,.32,.56,.53,1.16,.62,1.8,.09,.65,.14,1.24,.14,1.79l-.27,6.34c.91-1.56,2.06-3.06,3.44-4.48s2.98-2.71,4.82-3.86,3.84-2.04,6-2.69,4.48-.96,6.96-.96c4.04,0,7.77,.71,11.17,2.14s6.32,3.49,8.76,6.2c2.43,2.71,4.32,5.95,5.65,9.72,1.34,3.77,2,8.04,2,12.82v29.92c0,1.28-.12,2.39-.35,3.31s-.78,1.6-1.65,2.06-2.23,.69-4.07,.69c-1.74,0-3.08-.25-3.99-.76-.92-.5-1.5-1.22-1.73-2.14-.23-.91-.34-2.02-.34-3.31v-29.92c0-3.86-.67-7.21-2-10.06-1.34-2.84-3.26-5.05-5.79-6.61-2.52-1.57-5.77-2.34-9.72-2.34s-7.06,.78-9.86,2.34c-2.8,1.56-4.96,3.77-6.48,6.61-1.51,2.85-2.27,6.2-2.27,10.06v30.06c0,1.28-.14,2.39-.42,3.31s-.85,1.6-1.72,2.06-2.18,.69-3.93,.69Z"/>
      <path class="cls-1" d="M1364.17,148.84c-2.03,0-3.49-.42-4.41-1.24s-1.42-2.11-1.51-3.86l.55-6.89c-.92,1.47-2.34,3.15-4.27,5.03-1.93,1.88-4.48,3.54-7.65,4.96-3.17,1.42-6.96,2.14-11.37,2.14s-8.53-.88-12.34-2.62c-3.81-1.74-7.17-4.18-10.06-7.31-2.89-3.12-5.17-6.7-6.82-10.75-1.65-4.04-2.49-8.36-2.49-12.96s.83-8.75,2.49-12.75c1.65-4,3.95-7.51,6.89-10.55,2.95-3.03,6.32-5.42,10.14-7.17,3.81-1.74,7.88-2.62,12.2-2.62,4.04,0,7.49,.53,10.34,1.59,2.85,1.05,5.31,2.43,7.38,4.13,2.06,1.7,3.88,3.61,5.45,5.72l-.42-5.79c0-2.03,.48-3.47,1.45-4.35,.96-.87,2.5-1.31,4.62-1.31,1.74,0,3.01,.27,3.79,.82,.78,.56,1.31,1.34,1.59,2.34,.27,1.02,.41,2.26,.41,3.72v53.21c0,1.29-.13,2.43-.41,3.45-.28,1.01-.83,1.77-1.65,2.27-.83,.5-2.11,.76-3.86,.76Zm-26.75-11.44c3.76,0,7.17-.96,10.2-2.89,3.03-1.93,5.47-4.53,7.31-7.79,1.84-3.26,2.76-7.01,2.76-11.24s-.95-8.11-2.83-11.38c-1.88-3.26-4.37-5.81-7.44-7.65-3.09-1.83-6.51-2.75-10.27-2.75-4.23,0-7.93,.96-11.1,2.89-3.17,1.93-5.68,4.55-7.51,7.86-1.84,3.31-2.76,7.08-2.76,11.3s.92,7.84,2.76,11.1c1.83,3.26,4.39,5.84,7.65,7.72,3.26,1.88,7.01,2.82,11.24,2.82Z"/>
      <path class="cls-1" d="M1408.7,149.67c-2.2,0-4.53-.23-6.96-.69s-4.76-1.13-6.96-2c-2.2-.87-4.18-1.9-5.93-3.1-1.74-1.19-2.99-2.52-3.72-3.99-.47-.92-.74-1.77-.83-2.55s.02-1.54,.35-2.27c.32-.73,.89-1.47,1.72-2.21,.91-1.1,1.81-1.63,2.69-1.58,.87,.04,2.04,.67,3.52,1.86,1.01,.64,2.18,1.35,3.51,2.13,1.34,.79,2.76,1.48,4.27,2.07,1.52,.6,3.03,1.11,4.55,1.51,1.52,.42,3.01,.62,4.48,.62,4.22,0,7.63-.8,10.2-2.41,2.57-1.61,3.86-3.74,3.86-6.41,0-1.56-.33-2.89-.96-4-.65-1.1-1.52-2.02-2.62-2.75-1.11-.73-2.37-1.4-3.79-2-1.42-.6-2.97-1.13-4.62-1.59-1.65-.46-3.36-.96-5.1-1.51-2.39-.65-4.8-1.38-7.24-2.21-2.43-.82-4.59-1.9-6.48-3.24-1.88-1.33-3.43-3.03-4.62-5.1-1.19-2.07-1.8-4.71-1.8-7.93,0-3.76,.94-7.03,2.83-9.78,1.88-2.76,4.57-4.9,8.07-6.41,3.49-1.52,7.62-2.28,12.4-2.28,2.03,0,3.91,.14,5.65,.42s3.42,.71,5.03,1.31c1.61,.6,3.15,1.29,4.62,2.07s2.9,1.72,4.27,2.83c1.65,1.11,2.53,2.3,2.62,3.58,.09,1.29-.42,2.66-1.51,4.13-.83,1.11-1.75,1.82-2.76,2.14-1.01,.33-2.02,.12-3.03-.62-1.48-1.1-3.03-2.09-4.69-2.96-1.65-.87-3.35-1.59-5.1-2.14-1.75-.55-3.54-.82-5.38-.82-2.29,0-4.34,.34-6.13,1.03-1.8,.69-3.18,1.7-4.14,3.03-.96,1.33-1.45,2.83-1.45,4.48,0,1.48,.39,2.67,1.17,3.58,.78,.92,1.8,1.71,3.03,2.34,1.24,.65,2.71,1.22,4.41,1.72,1.7,.51,3.47,.99,5.31,1.45,2.66,.65,5.4,1.4,8.2,2.28,2.8,.88,5.33,2.03,7.58,3.44,2.26,1.43,4.09,3.31,5.52,5.65,1.42,2.34,2.13,5.45,2.13,9.31,0,6.06-2.39,10.84-7.16,14.34-4.79,3.49-11.12,5.24-19.03,5.24Z"/>
    </g>
    <g>
      <polyline class="cls-8" points="147.18 753.49 213.55 596.62 313.56 596.62 375.36 753.49"/>
      <polyline class="cls-8" points="374.72 573.96 426.54 595.88 426.54 628.92 374.72 649.33"/>
      <polyline class="cls-8" points="147.82 573.96 96 595.88 96 628.92 147.82 649.33"/>
      <circle class="cls-8" cx="261.27" cy="511.96" r="47.54"/>
    </g>
    <g>
      <polyline class="cls-8" points="512.35 753.49 578.72 596.62 678.73 596.62 740.53 753.49"/>
      <polyline class="cls-8" points="739.89 573.96 791.71 595.88 791.71 628.92 739.89 649.33"/>
      <polyline class="cls-8" points="523.67 573.96 471.86 595.88 471.86 628.92 523.67 649.33"/>
      <circle class="cls-8" cx="637.13" cy="511.96" r="47.54"/>
    </g>
    <g>
      <polyline class="cls-8" points="898.89 753.49 965.27 596.62 1065.27 596.62 1127.07 753.49"/>
      <polyline class="cls-8" points="1126.44 573.96 1178.25 595.88 1178.25 628.92 1126.44 649.33"/>
      <polyline class="cls-8" points="899.53 573.96 847.71 595.88 847.71 628.92 899.53 649.33"/>
      <circle class="cls-8" cx="1012.98" cy="511.96" r="47.54"/>
    </g>
    <g>
      <polyline class="cls-8" points="1274.75 753.49 1341.12 596.62 1441.13 596.62 1502.93 753.49"/>
      <polyline class="cls-8" points="1502.29 573.96 1554.11 595.88 1554.11 628.92 1502.29 649.33"/>
      <polyline class="cls-8" points="1275.39 573.96 1223.57 595.88 1223.57 628.92 1275.39 649.33"/>
      <circle class="cls-8" cx="1388.84" cy="511.96" r="47.54"/>
    </g>
    <polygon class="cls-11" points=".5 942.68 1431.4 942.68 1431.4 871.82 1554.11 982.63 1442.16 1083.71 1442.16 1025.51 .5 1025.51 .5 942.68"/>
    <g>
      <path class="cls-1" d="M262.08,279.41c-4.58,0-8.67-.8-12.29-2.4-3.63-1.6-6.66-3.85-9.12-6.76-2.46-2.9-4.33-6.35-5.63-10.34-1.3-4-1.94-8.35-1.94-13.06v-34.61c0-.96,.12-1.78,.36-2.46,.23-.68,.68-1.21,1.33-1.59,.65-.38,1.66-.56,3.03-.56s2.39,.19,3.08,.56c.68,.38,1.13,.9,1.33,1.59,.21,.68,.31,1.53,.31,2.56v34.51c0,4.58,.75,8.61,2.26,12.09,1.5,3.48,3.72,6.23,6.65,8.25,2.93,2.01,6.59,3.02,10.96,3.02,4.1,0,7.61-.96,10.55-2.87,2.93-1.91,5.18-4.61,6.76-8.09,1.57-3.48,2.35-7.65,2.35-12.49v-35.03c0-.89,.13-1.62,.36-2.2,.24-.58,.7-1.04,1.38-1.38s1.68-.51,2.98-.51,2.37,.19,3.02,.56,1.08,.92,1.28,1.64c.2,.72,.31,1.55,.31,2.51v34.72c0,4.78-.65,9.13-1.95,13.06-1.3,3.93-3.21,7.34-5.73,10.24-2.53,2.9-5.6,5.14-9.22,6.71-3.62,1.57-7.75,2.35-12.39,2.35Z"/>
      <path class="cls-1" d="M309.7,279c-1.3,0-2.28-.19-2.92-.56-.65-.38-1.06-.9-1.23-1.59-.17-.68-.26-1.5-.26-2.46v-40.66c0-.89,.09-1.64,.26-2.25,.18-.62,.6-1.09,1.28-1.43s1.67-.51,2.97-.51c1.03,0,1.83,.12,2.41,.36,.58,.24,.99,.56,1.23,.97,.24,.41,.39,.86,.47,1.33,.07,.48,.1,.92,.1,1.33l-.21,4.71c.68-1.16,1.54-2.27,2.57-3.33,1.02-1.06,2.22-2.01,3.58-2.87,1.36-.85,2.85-1.52,4.45-2,1.61-.48,3.33-.72,5.18-.72,3,0,5.77,.53,8.29,1.59,2.53,1.06,4.69,2.6,6.5,4.61,1.81,2.01,3.21,4.42,4.2,7.22,.99,2.8,1.48,5.98,1.48,9.53v22.22c0,.95-.08,1.78-.25,2.46-.18,.68-.58,1.19-1.23,1.53s-1.66,.51-3.02,.51-2.29-.19-2.98-.56-1.11-.9-1.28-1.59c-.18-.68-.26-1.5-.26-2.46v-22.22c0-2.87-.5-5.36-1.48-7.48-.99-2.11-2.43-3.75-4.3-4.91-1.88-1.16-4.29-1.74-7.23-1.74s-5.23,.58-7.32,1.74c-2.08,1.16-3.69,2.8-4.82,4.91-1.13,2.12-1.69,4.61-1.69,7.48v22.33c0,.95-.1,1.78-.3,2.46-.21,.68-.63,1.19-1.28,1.53s-1.63,.51-2.92,.51Z"/>
      <path class="cls-1" d="M392.04,299.28c-1.3,0-2.29-.19-2.98-.56s-1.13-.9-1.33-1.59c-.21-.68-.31-1.5-.31-2.46v-60.53c0-.95,.1-1.78,.31-2.46,.2-.68,.63-1.21,1.28-1.59s1.63-.56,2.93-.56c1.5,0,2.61,.24,3.33,.72,.72,.48,1.14,1.33,1.28,2.56v61.76c.08,.95,0,1.79-.2,2.51-.21,.72-.63,1.26-1.28,1.64s-1.65,.56-3.02,.56Zm21.2-20.59c-3.34,0-6.37-.61-9.06-1.84-2.7-1.23-5-2.95-6.92-5.17-1.91-2.22-3.39-4.83-4.45-7.83s-1.55-6.31-1.48-9.94c0-3.55,.51-6.83,1.53-9.83,1.03-3,2.51-5.62,4.46-7.83,1.94-2.22,4.27-3.93,6.96-5.12,2.7-1.2,5.68-1.79,8.96-1.79s6.18,.61,8.91,1.84c2.73,1.23,5.16,2.95,7.28,5.17,2.12,2.22,3.77,4.87,4.97,7.94,1.19,3.07,1.79,6.38,1.79,9.94s-.6,6.83-1.79,9.83c-1.2,3-2.83,5.6-4.92,7.78s-4.51,3.88-7.27,5.07c-2.77,1.2-5.76,1.79-8.97,1.79Zm-1.23-8.4c2.87,0,5.46-.7,7.78-2.1,2.32-1.4,4.15-3.33,5.48-5.78,1.33-2.46,2-5.26,2-8.4s-.67-5.93-2-8.35c-1.33-2.43-3.16-4.3-5.48-5.63-2.33-1.33-4.92-2-7.78-2s-5.44,.68-7.73,2.05c-2.28,1.37-4.09,3.25-5.43,5.63-1.33,2.39-2,5.16-2,8.3s.67,5.94,2,8.4c1.33,2.46,3.14,4.39,5.43,5.78,2.29,1.4,4.87,2.1,7.73,2.1Z"/>
      <path class="cls-1" d="M451.54,279.1c-1.3,0-2.28-.19-2.92-.56-.65-.38-1.06-.93-1.23-1.64-.17-.72-.26-1.55-.26-2.51v-40.35c0-1.02,.09-1.88,.26-2.56,.18-.68,.58-1.18,1.23-1.48,.64-.31,1.65-.46,3.02-.46,1.23,0,2.17,.15,2.82,.46,.65,.3,1.09,.75,1.33,1.33,.23,.58,.36,1.25,.36,2l-.41,3.08c.48-.89,1.03-1.78,1.68-2.66,.65-.89,1.47-1.69,2.46-2.41s2.18-1.31,3.58-1.79c1.4-.48,3.13-.72,5.18-.72,1.03,0,2,.09,2.92,.25,.93,.17,1.81,.43,2.67,.77,.85,.34,1.58,.73,2.2,1.18,.62,.45,1.11,.93,1.48,1.43,.38,.51,.57,1.11,.57,1.79,0,1.5-.48,2.78-1.43,3.84-.96,1.06-1.95,1.59-2.98,1.59-.88,0-1.53-.1-1.94-.31s-.81-.46-1.18-.77-.9-.58-1.58-.82c-.68-.24-1.78-.36-3.28-.36-1.03,0-2.1,.2-3.23,.62-1.13,.41-2.21,1.01-3.23,1.79-1.03,.78-1.87,1.79-2.51,3.02-.65,1.23-.98,2.7-.98,4.4v27.34c0,.96-.11,1.78-.31,2.46-.21,.68-.63,1.2-1.28,1.54s-1.65,.51-3.02,.51Z"/>
      <path class="cls-1" d="M511.04,279.72c-3.34,0-6.53-.65-9.58-1.95-3.03-1.3-5.75-3.09-8.14-5.38-2.38-2.29-4.28-4.97-5.68-8.04-1.4-3.07-2.09-6.42-2.09-10.04s.66-6.84,1.99-9.88c1.33-3.04,3.16-5.72,5.48-8.04,2.32-2.32,5-4.15,8.03-5.48,3.04-1.33,6.3-2,9.79-2,4.71,0,8.96,1.11,12.74,3.33,3.79,2.22,6.82,5.24,9.07,9.06,2.25,3.83,3.38,8.13,3.38,12.91,0,3.75-.68,7.18-2.04,10.29-1.37,3.1-3.21,5.78-5.53,8.04-2.32,2.25-4.98,4.01-7.98,5.28-3.01,1.26-6.15,1.89-9.43,1.89Zm-.2-8.91c2.87,0,5.53-.72,7.98-2.15,2.46-1.43,4.44-3.41,5.94-5.94s2.25-5.39,2.25-8.61-.7-6.04-2.1-8.5c-1.4-2.45-3.33-4.37-5.78-5.73-2.46-1.36-5.26-2.05-8.4-2.05s-5.72,.72-8.14,2.15c-2.42,1.43-4.37,3.38-5.83,5.84-1.47,2.45-2.2,5.26-2.2,8.4s.75,6.16,2.25,8.65c1.5,2.5,3.5,4.44,5.99,5.84,2.49,1.4,5.18,2.1,8.04,2.1Z"/>
      <path class="cls-1" d="M566.96,272.55l-23.45-36.05c-.89-1.43-1.25-2.61-1.08-3.53,.18-.92,.98-1.83,2.41-2.71,1.5-.95,2.72-1.31,3.63-1.08,.93,.24,1.87,1.04,2.82,2.4l19.87,31.24-4.2,9.73Zm-10.14,26.43c-1.64-.68-2.59-1.47-2.87-2.36-.28-.89-.03-2.12,.72-3.68l27.14-60.84c.75-1.64,1.55-2.64,2.41-3.02,.85-.37,2.07-.22,3.63,.46,1.64,.75,2.58,1.57,2.82,2.46s.02,2.08-.67,3.58l-27.35,61.24c-.68,1.64-1.43,2.58-2.25,2.82s-2.02,.02-3.58-.66Z"/>
      <path class="cls-1" d="M623.09,279.62c-4.1,0-7.75-.68-10.96-2.05-3.21-1.36-5.93-3.23-8.14-5.58-2.22-2.36-3.93-5.07-5.12-8.14-1.2-3.07-1.79-6.38-1.79-9.94,0-4.71,1.09-8.91,3.28-12.6,2.18-3.69,5.23-6.61,9.12-8.76,3.88-2.15,8.33-3.23,13.31-3.23,3.41,0,6.47,.53,9.17,1.59,2.69,1.06,5,2.48,6.91,4.25,1.91,1.78,3.38,3.75,4.41,5.94,1.02,2.19,1.53,4.37,1.53,6.56,0,3.48-.82,5.94-2.46,7.37-1.64,1.43-3.65,2.15-6.04,2.15h-29.6c-.08,2.94,.73,5.48,2.4,7.63,1.68,2.15,3.79,3.81,6.35,4.97,2.57,1.16,5.14,1.74,7.73,1.74,1.84,0,3.47-.1,4.87-.31,1.4-.2,2.61-.48,3.63-.82s1.89-.68,2.61-1.03,1.38-.68,2-1.03,1.19-.58,1.74-.72c.54-.13,1.13-.08,1.74,.15,.61,.24,1.09,.7,1.43,1.38,.41,.55,.68,1.06,.82,1.54,.13,.48,.21,.99,.21,1.53,0,1.03-.83,2.1-2.46,3.23-1.64,1.13-3.91,2.1-6.81,2.92-2.91,.82-6.2,1.23-9.89,1.23Zm-16.39-28.58h25.7c1.23,0,2.18-.17,2.87-.51s1.03-1.26,1.03-2.76c0-1.85-.58-3.55-1.74-5.12-1.16-1.57-2.75-2.83-4.76-3.79-2.02-.95-4.36-1.43-7.02-1.43-2.93,0-5.65,.6-8.14,1.79-2.49,1.2-4.45,2.82-5.89,4.87-1.43,2.05-2.12,4.37-2.04,6.96Z"/>
      <path class="cls-1" d="M678.39,279.31c-3.55,0-6.88-.58-9.99-1.74-3.11-1.16-5.84-2.82-8.19-4.97-2.36-2.15-4.2-4.76-5.53-7.83-1.33-3.07-1.99-6.56-1.99-10.45s.66-7.36,1.99-10.39c1.33-3.04,3.16-5.65,5.48-7.83,2.32-2.18,5.03-3.86,8.13-5.02,3.11-1.16,6.4-1.74,9.89-1.74,2.33,0,4.61,.36,6.87,1.08,2.25,.72,4.24,1.64,5.98,2.76,1.74,1.13,2.99,2.3,3.74,3.53,.68,.89,1.18,1.63,1.48,2.2s.33,1.25,.05,2c-.28,.55-.65,1.04-1.13,1.48-.48,.45-.96,.8-1.43,1.08-1.3,.96-2.53,1.1-3.68,.41-.76-.75-1.59-1.45-2.51-2.1-.93-.65-1.9-1.23-2.93-1.74s-2.06-.94-3.12-1.28c-1.07-.34-2.18-.51-3.33-.51-3.21,0-6.04,.68-8.5,2.05-2.46,1.37-4.35,3.25-5.68,5.63-1.33,2.39-1.99,5.19-1.99,8.4s.67,6.01,1.99,8.4c1.33,2.39,3.21,4.27,5.63,5.63,2.43,1.37,5.21,2.05,8.35,2.05,1.36,0,2.73-.19,4.09-.56s2.63-.89,3.79-1.54c1.16-.65,2.12-1.35,2.87-2.1,.68-.48,1.26-.89,1.74-1.23,.48-.34,1.03-.51,1.63-.51s1.22,.23,1.79,.67c.58,.45,1.22,1.11,1.9,2,.61,.62,.98,1.27,1.08,1.95,.1,.68-.02,1.35-.36,2-.34,.65-.89,1.25-1.64,1.79-1.09,1.09-2.54,2.13-4.35,3.12-1.81,.99-3.78,1.79-5.89,2.41-2.12,.61-4.19,.92-6.24,.92Z"/>
      <path class="cls-1" d="M707.47,230.66l9.84,.1,14.24-.2c.96,0,1.78,.08,2.46,.25s1.21,.58,1.58,1.23c.38,.65,.57,1.62,.57,2.92s-.18,2.27-.52,2.92-.85,1.08-1.53,1.28-1.5,.31-2.46,.31l-14.03-.2-10.34,.2c-1.43-.07-2.41-.45-2.92-1.13-.52-.68-.78-1.81-.78-3.38s.31-2.6,.93-3.28c.62-.68,1.6-1.03,2.97-1.03Zm22.95,48.45c-3.21,0-5.94-.31-8.19-.92-2.26-.62-4.08-1.57-5.48-2.87-1.4-1.3-2.4-2.98-3.02-5.07-.62-2.08-.93-4.66-.93-7.73v-45.17c0-1.02,.11-1.88,.31-2.56,.21-.68,.62-1.21,1.23-1.59,.61-.38,1.57-.56,2.87-.56s2.28,.19,2.97,.56,1.13,.9,1.33,1.59c.2,.68,.31,1.47,.31,2.35v45.37c0,1.78,.15,3.2,.46,4.25,.31,1.06,.78,1.86,1.43,2.41s1.52,.89,2.61,1.03,2.43,.2,4,.2c1.08,0,1.98,.1,2.66,.31,.68,.2,1.19,.61,1.53,1.23,.34,.62,.52,1.54,.52,2.77,0,1.3-.19,2.27-.57,2.92-.38,.65-.92,1.06-1.63,1.23s-1.53,.26-2.41,.26Z"/>
      <path class="cls-1" d="M768,279.72c-3.34,0-6.53-.65-9.58-1.95-3.03-1.3-5.75-3.09-8.14-5.38-2.38-2.29-4.28-4.97-5.68-8.04s-2.09-6.42-2.09-10.04,.66-6.84,1.99-9.88c1.33-3.04,3.16-5.72,5.48-8.04,2.32-2.32,5-4.15,8.03-5.48,3.04-1.33,6.3-2,9.79-2,4.71,0,8.96,1.11,12.74,3.33,3.79,2.22,6.82,5.24,9.07,9.06,2.25,3.83,3.38,8.13,3.38,12.91,0,3.75-.68,7.18-2.04,10.29-1.37,3.1-3.21,5.78-5.53,8.04-2.32,2.25-4.98,4.01-7.98,5.28-3.01,1.26-6.15,1.89-9.43,1.89Zm-.2-8.91c2.87,0,5.53-.72,7.98-2.15s4.44-3.41,5.94-5.94c1.5-2.53,2.25-5.39,2.25-8.61s-.7-6.04-2.1-8.5c-1.4-2.45-3.33-4.37-5.78-5.73-2.46-1.36-5.26-2.05-8.4-2.05s-5.72,.72-8.14,2.15c-2.42,1.43-4.37,3.38-5.83,5.84-1.47,2.45-2.2,5.26-2.2,8.4s.75,6.16,2.25,8.65c1.5,2.5,3.5,4.44,5.99,5.84,2.49,1.4,5.18,2.1,8.04,2.1Z"/>
      <path class="cls-1" d="M850.24,279.1c-3.14,0-6.09-.62-8.86-1.85-2.76-1.23-5.18-2.97-7.27-5.22-2.08-2.25-3.73-4.9-4.92-7.94-1.19-3.03-1.79-6.36-1.79-9.99s.6-6.83,1.79-9.83c1.19-3,2.83-5.62,4.92-7.83,2.08-2.22,4.53-3.94,7.33-5.17,2.79-1.23,5.73-1.85,8.8-1.85,3.35,0,6.37,.62,9.07,1.85,2.69,1.23,5,2.95,6.91,5.17,1.92,2.22,3.4,4.85,4.46,7.88,1.06,3.04,1.58,6.33,1.58,9.89s-.51,6.93-1.53,9.94c-1.03,3-2.49,5.63-4.4,7.88-1.92,2.25-4.23,3.99-6.97,5.22-2.73,1.23-5.77,1.85-9.12,1.85Zm1.33-8.71c2.87,0,5.44-.68,7.73-2.05,2.28-1.36,4.09-3.26,5.43-5.68,1.33-2.42,2-5.21,2-8.35s-.67-5.92-2-8.35c-1.33-2.42-3.14-4.33-5.43-5.73-2.29-1.4-4.87-2.1-7.73-2.1s-5.46,.68-7.78,2.05c-2.32,1.37-4.14,3.28-5.48,5.73s-2,5.26-2,8.4,.67,5.93,2,8.35c1.33,2.43,3.18,4.32,5.53,5.68,2.36,1.37,4.93,2.05,7.73,2.05Zm19.97,8.71c-1.5,0-2.58-.28-3.23-.82-.65-.55-1.04-1.47-1.18-2.76v-64.12c0-1.03,.08-1.88,.26-2.56,.17-.68,.58-1.21,1.23-1.59s1.58-.56,2.82-.56c1.37,0,2.36,.19,2.97,.56,.62,.38,1.04,.9,1.28,1.59s.36,1.5,.36,2.45v63.09c0,.96-.1,1.79-.31,2.51-.21,.72-.62,1.26-1.23,1.64-.62,.37-1.61,.56-2.98,.56Z"/>
      <path class="cls-1" d="M912.1,279.62c-4.1,0-7.75-.68-10.96-2.05-3.21-1.36-5.93-3.23-8.14-5.58-2.22-2.36-3.93-5.07-5.12-8.14-1.2-3.07-1.79-6.38-1.79-9.94,0-4.71,1.09-8.91,3.28-12.6,2.18-3.69,5.23-6.61,9.12-8.76,3.88-2.15,8.33-3.23,13.31-3.23,3.41,0,6.47,.53,9.17,1.59,2.69,1.06,5,2.48,6.91,4.25s3.38,3.75,4.41,5.94c1.02,2.19,1.53,4.37,1.53,6.56,0,3.48-.82,5.94-2.46,7.37-1.64,1.43-3.65,2.15-6.04,2.15h-29.6c-.08,2.94,.73,5.48,2.4,7.63,1.68,2.15,3.79,3.81,6.35,4.97,2.57,1.16,5.14,1.74,7.73,1.74,1.84,0,3.47-.1,4.87-.31,1.4-.2,2.61-.48,3.63-.82,1.03-.34,1.89-.68,2.61-1.03s1.38-.68,2-1.03,1.19-.58,1.74-.72c.54-.13,1.13-.08,1.74,.15,.61,.24,1.09,.7,1.43,1.38,.41,.55,.68,1.06,.82,1.54,.13,.48,.21,.99,.21,1.53,0,1.03-.83,2.1-2.46,3.23-1.64,1.13-3.91,2.1-6.81,2.92-2.91,.82-6.2,1.23-9.89,1.23Zm-16.39-28.58h25.7c1.23,0,2.18-.17,2.87-.51s1.03-1.26,1.03-2.76c0-1.85-.58-3.55-1.74-5.12s-2.75-2.83-4.76-3.79c-2.02-.95-4.36-1.43-7.02-1.43-2.93,0-5.65,.6-8.14,1.79-2.49,1.2-4.45,2.82-5.89,4.87-1.43,2.05-2.12,4.37-2.04,6.96Z"/>
      <path class="cls-1" d="M959.62,279.1c-2.18,0-4.17-.17-5.94-.51s-3.29-.92-4.56-1.74c-1.26-.82-2.32-1.9-3.18-3.23-.85-1.33-1.48-2.92-1.89-4.76-.41-1.84-.62-3.99-.62-6.45v-51.21c0-1.03,.11-1.88,.31-2.56,.21-.68,.63-1.21,1.28-1.58s1.62-.57,2.92-.57c1.37,0,2.38,.17,3.03,.51,.64,.34,1.08,.85,1.28,1.54,.21,.68,.31,1.5,.31,2.46v51.31c0,1.37,.13,2.55,.41,3.53,.28,.99,.7,1.83,1.28,2.51,.58,.68,1.31,1.16,2.2,1.43,.88,.28,1.94,.41,3.18,.41,.82,0,1.52,.1,2.1,.3,.58,.21,1.04,.62,1.38,1.23,.34,.62,.51,1.57,.51,2.87,0,1.37-.17,2.38-.51,3.02-.34,.65-.81,1.06-1.38,1.23-.58,.17-1.28,.26-2.1,.26Z"/>
      <path class="cls-1" d="M266.58,402.21c-3.68,0-7.28-.53-10.75-1.59-3.48-1.06-6.74-2.63-9.79-4.71-3.03-2.08-5.68-4.62-7.93-7.63-2.25-3-4.03-6.42-5.33-10.24-1.3-3.82-1.95-7.99-1.95-12.49s.65-8.52,1.95-12.24c1.29-3.72,3.08-7.02,5.33-9.89,2.25-2.87,4.9-5.31,7.93-7.32,3.04-2.01,6.3-3.55,9.79-4.61,3.48-1.06,7.1-1.59,10.85-1.59,3.42,0,6.35,.34,8.81,1.03,2.46,.68,4.45,1.43,5.99,2.25,1.53,.82,2.61,1.4,3.23,1.74,.96,.62,1.88,1.3,2.77,2.05,.88,.75,1.36,1.6,1.43,2.56,.13,.75,.08,1.38-.16,1.9-.24,.51-.53,1.01-.87,1.48-.55,.82-1.13,1.42-1.74,1.79-.62,.38-1.23,.57-1.84,.57-.68,0-1.32-.2-1.9-.62-.58-.41-1.28-.89-2.09-1.43-.42-.27-1.23-.72-2.46-1.33s-2.82-1.2-4.77-1.74c-1.94-.55-4.25-.82-6.91-.82-3.48,0-6.81,.62-9.99,1.85s-5.96,3-8.35,5.33c-2.39,2.32-4.27,5.12-5.63,8.4-1.37,3.28-2.04,7-2.04,11.16s.68,7.8,2.04,11.11c1.37,3.31,3.26,6.13,5.68,8.45,2.43,2.32,5.21,4.1,8.35,5.33,3.14,1.23,6.45,1.84,9.94,1.84,2.59,0,4.84-.27,6.76-.82,1.91-.55,3.52-1.14,4.81-1.79,1.3-.65,2.18-1.14,2.67-1.48,.75-.41,1.42-.82,1.99-1.23,.58-.41,1.22-.61,1.9-.61s1.31,.19,1.89,.56,1.14,.97,1.69,1.79c.34,.48,.62,1.01,.82,1.59,.21,.58,.28,1.21,.21,1.89-.08,1.03-.57,1.9-1.48,2.61-.93,.72-1.87,1.38-2.82,2-.55,.28-1.59,.84-3.13,1.69-1.54,.85-3.53,1.6-5.99,2.25-2.46,.65-5.43,.98-8.91,.98Z"/>
      <path class="cls-1" d="M322.91,402.62c-3.34,0-6.53-.65-9.58-1.95-3.03-1.3-5.75-3.09-8.14-5.38-2.38-2.29-4.28-4.97-5.68-8.04-1.4-3.07-2.09-6.42-2.09-10.04s.66-6.84,1.99-9.88c1.33-3.04,3.16-5.72,5.48-8.04,2.32-2.32,5-4.15,8.03-5.48,3.04-1.33,6.3-2,9.79-2,4.71,0,8.96,1.11,12.74,3.33,3.79,2.22,6.82,5.24,9.07,9.06,2.25,3.83,3.38,8.13,3.38,12.91,0,3.75-.68,7.18-2.04,10.29-1.37,3.1-3.21,5.78-5.53,8.04-2.32,2.25-4.98,4.01-7.98,5.28-3.01,1.26-6.15,1.89-9.43,1.89Zm-.2-8.91c2.87,0,5.53-.72,7.98-2.15,2.46-1.43,4.44-3.41,5.94-5.94,1.5-2.53,2.25-5.39,2.25-8.61s-.7-6.04-2.1-8.5c-1.4-2.45-3.33-4.37-5.78-5.73-2.46-1.36-5.26-2.05-8.4-2.05s-5.72,.72-8.14,2.15c-2.42,1.43-4.37,3.38-5.83,5.84-1.47,2.45-2.2,5.26-2.2,8.4s.75,6.16,2.25,8.65c1.5,2.5,3.5,4.44,5.99,5.84,2.49,1.4,5.18,2.1,8.04,2.1Z"/>
      <path class="cls-1" d="M373.3,402c-2.18,0-4.17-.17-5.94-.51s-3.29-.92-4.56-1.74c-1.26-.82-2.32-1.9-3.18-3.23-.85-1.33-1.48-2.92-1.89-4.76-.41-1.84-.62-3.99-.62-6.45v-51.21c0-1.03,.11-1.88,.31-2.56,.21-.68,.63-1.21,1.28-1.58s1.62-.57,2.92-.57c1.37,0,2.38,.17,3.03,.51,.64,.34,1.08,.85,1.28,1.54,.21,.68,.31,1.5,.31,2.46v51.31c0,1.37,.13,2.55,.41,3.53,.28,.99,.7,1.83,1.28,2.51,.58,.68,1.31,1.16,2.2,1.43,.88,.28,1.94,.41,3.18,.41,.82,0,1.52,.1,2.1,.3,.58,.21,1.04,.62,1.38,1.23,.34,.62,.51,1.57,.51,2.87,0,1.37-.17,2.38-.51,3.02-.34,.65-.81,1.06-1.38,1.23-.58,.17-1.28,.26-2.1,.26Z"/>
      <path class="cls-1" d="M409.87,402.52c-4.1,0-7.75-.68-10.96-2.05-3.21-1.36-5.93-3.23-8.14-5.58-2.22-2.36-3.93-5.07-5.12-8.14-1.2-3.07-1.79-6.38-1.79-9.94,0-4.71,1.09-8.91,3.28-12.6,2.18-3.69,5.23-6.61,9.12-8.76,3.88-2.15,8.33-3.23,13.31-3.23,3.41,0,6.47,.53,9.17,1.59,2.69,1.06,5,2.48,6.91,4.25,1.91,1.78,3.38,3.75,4.41,5.94,1.02,2.19,1.53,4.37,1.53,6.56,0,3.48-.82,5.94-2.46,7.37s-3.65,2.15-6.04,2.15h-29.6c-.08,2.94,.73,5.48,2.4,7.63,1.68,2.15,3.79,3.81,6.35,4.97,2.57,1.16,5.14,1.74,7.73,1.74,1.84,0,3.47-.1,4.87-.31,1.4-.2,2.61-.48,3.63-.82s1.89-.68,2.61-1.03,1.38-.68,2-1.03,1.19-.58,1.74-.72c.54-.13,1.13-.08,1.74,.15,.61,.24,1.09,.7,1.43,1.38,.41,.55,.68,1.06,.82,1.54,.13,.48,.21,.99,.21,1.53,0,1.03-.83,2.1-2.46,3.23-1.64,1.13-3.91,2.1-6.81,2.92-2.91,.82-6.2,1.23-9.89,1.23Zm-16.39-28.58h25.7c1.23,0,2.18-.17,2.87-.51s1.03-1.26,1.03-2.76c0-1.85-.58-3.55-1.74-5.12-1.16-1.57-2.75-2.83-4.76-3.79-2.02-.95-4.36-1.43-7.02-1.43-2.93,0-5.65,.6-8.14,1.79-2.49,1.2-4.45,2.82-5.89,4.87-1.43,2.05-2.12,4.37-2.04,6.96Z"/>
      <path class="cls-1" d="M462.4,400.88c-3.34,0-6.4-.6-9.17-1.79-2.77-1.19-5.17-2.88-7.22-5.07-2.05-2.18-3.63-4.75-4.76-7.68-1.13-2.94-1.69-6.15-1.69-9.63s.56-6.69,1.69-9.63c1.13-2.93,2.71-5.49,4.76-7.68,2.05-2.18,4.45-3.88,7.22-5.07,2.77-1.2,5.75-1.79,8.96-1.79s5.84,.58,8.3,1.74c2.46,1.16,4.53,2.82,6.24,4.97,1.71,2.15,3.03,4.7,3.94,7.63,.93,2.94,1.38,6.21,1.38,9.83,0,4.92-.8,9.18-2.4,12.8-1.61,3.62-3.86,6.42-6.76,8.4-2.91,1.98-6.4,2.97-10.5,2.97Zm.31,21.2c-2.46,0-4.76-.28-6.92-.82-2.15-.55-4.04-1.26-5.68-2.15-1.63-.89-2.93-1.84-3.88-2.87-.96-1.03-1.44-1.98-1.44-2.87,0-.68,.11-1.25,.31-1.69,.21-.45,.52-.9,.93-1.38,.68-.68,1.23-1.16,1.64-1.43,.41-.27,.95-.41,1.63-.41s1.37,.29,2.05,.87c.68,.58,1.52,1.23,2.51,1.95,.99,.72,2.22,1.36,3.68,1.95,1.47,.58,3.29,.87,5.48,.87s4.18-.34,5.99-1.03c1.81-.68,3.34-1.71,4.61-3.07,1.26-1.37,2.25-3.02,2.97-4.97,.72-1.95,1.08-4.15,1.08-6.61l-.21-42.61c.07-1.3,.47-2.22,1.18-2.77,.72-.55,1.86-.82,3.43-.82,1.23,0,2.15,.19,2.77,.56s1.01,.89,1.18,1.54c.18,.65,.26,1.45,.26,2.4v42.4c0,3.62-.58,6.84-1.74,9.68-1.16,2.83-2.8,5.24-4.92,7.22-2.12,1.98-4.61,3.48-7.48,4.5-2.87,1.03-6.01,1.54-9.42,1.54Zm.1-29.6c2.8,0,5.29-.68,7.48-2.05,2.18-1.37,3.93-3.24,5.23-5.63,1.29-2.39,1.94-5.16,1.94-8.3s-.65-5.78-1.94-8.14c-1.3-2.36-3.06-4.18-5.28-5.48s-4.73-1.95-7.53-1.95-5.29,.67-7.48,2c-2.18,1.33-3.88,3.16-5.07,5.48-1.2,2.32-1.79,5.06-1.79,8.19s.61,5.89,1.84,8.24c1.23,2.36,2.93,4.22,5.12,5.58s4.68,2.05,7.48,2.05Z"/>
      <path class="cls-1" d="M504.7,340.14c-1.5,0-2.63-.22-3.38-.67-.75-.44-1.25-1.08-1.48-1.9-.24-.82-.36-1.77-.36-2.87s.12-2.03,.36-2.82c.23-.78,.75-1.36,1.53-1.74,.78-.38,1.93-.56,3.43-.56s2.53,.2,3.28,.61,1.24,1.03,1.48,1.84c.24,.82,.36,1.81,.36,2.97,0,1.03-.12,1.93-.36,2.71-.24,.79-.73,1.38-1.48,1.79-.75,.41-1.88,.62-3.38,.62Zm0,61.86c-1.29,0-2.28-.19-2.97-.56-.68-.38-1.11-.9-1.28-1.59-.17-.68-.25-1.5-.25-2.46v-40.46c0-.88,.1-1.69,.3-2.4,.21-.72,.63-1.25,1.28-1.59s1.66-.51,3.03-.51c1.29,0,2.25,.19,2.87,.56,.61,.38,1.02,.92,1.23,1.64s.31,1.55,.31,2.51v40.35c0,.96-.1,1.78-.31,2.46-.21,.68-.63,1.2-1.28,1.54-.64,.34-1.62,.51-2.92,.51Z"/>
      <path class="cls-1" d="M545.06,402.62c-3.34,0-6.53-.65-9.58-1.95-3.03-1.3-5.75-3.09-8.14-5.38-2.38-2.29-4.28-4.97-5.68-8.04s-2.09-6.42-2.09-10.04,.66-6.84,1.99-9.88c1.33-3.04,3.16-5.72,5.48-8.04,2.32-2.32,5-4.15,8.03-5.48,3.04-1.33,6.3-2,9.79-2,4.71,0,8.96,1.11,12.74,3.33,3.79,2.22,6.82,5.24,9.07,9.06,2.25,3.83,3.38,8.13,3.38,12.91,0,3.75-.68,7.18-2.04,10.29-1.37,3.1-3.21,5.78-5.53,8.04-2.32,2.25-4.98,4.01-7.98,5.28-3.01,1.26-6.15,1.89-9.43,1.89Zm-.2-8.91c2.87,0,5.53-.72,7.98-2.15,2.46-1.43,4.44-3.41,5.94-5.94,1.5-2.53,2.25-5.39,2.25-8.61s-.7-6.04-2.1-8.5c-1.4-2.45-3.33-4.37-5.78-5.73-2.46-1.36-5.26-2.05-8.4-2.05s-5.72,.72-8.14,2.15c-2.42,1.43-4.37,3.38-5.83,5.84-1.47,2.45-2.2,5.26-2.2,8.4s.75,6.16,2.25,8.65c1.5,2.5,3.5,4.44,5.99,5.84,2.49,1.4,5.18,2.1,8.04,2.1Z"/>
      <path class="cls-1" d="M627.2,403.03c-2.59,0-5.03-.31-7.33-.93-2.28-.61-4.37-1.45-6.24-2.51-1.88-1.06-3.55-2.23-5.02-3.53-1.47-1.3-2.62-2.59-3.43-3.89-.68-1.09-1.14-2-1.38-2.71s-.2-1.42,.11-2.1c.3-.68,.97-1.43,1.99-2.25,1.09-.82,2.05-1.21,2.87-1.18,.83,.04,1.59,.36,2.31,.98,.72,.61,1.45,1.43,2.2,2.45,1.71,2.33,3.79,4.01,6.24,5.07,2.46,1.06,4.88,1.59,7.28,1.59,3.08,0,5.8-.41,8.19-1.23s4.28-2.06,5.68-3.74c1.4-1.67,2.1-3.84,2.1-6.51,0-2.18-.55-4.03-1.64-5.53-1.09-1.5-2.56-2.76-4.4-3.79-1.84-1.03-3.89-1.93-6.14-2.71-2.26-.79-4.58-1.59-6.97-2.41-1.78-.61-3.57-1.3-5.38-2.05-1.81-.75-3.48-1.64-5.02-2.66-1.54-1.03-2.91-2.22-4.1-3.59-1.19-1.36-2.13-2.97-2.82-4.81-.68-1.84-1.03-3.99-1.03-6.45,0-3.75,.93-7.05,2.77-9.88,1.84-2.83,4.41-5.07,7.68-6.71s7.03-2.46,11.26-2.46c2.6,0,4.95,.24,7.07,.72,2.12,.48,4,1.11,5.63,1.9,1.64,.78,3.04,1.6,4.2,2.45,1.16,.86,2.05,1.66,2.66,2.41,1.23,1.3,1.92,2.39,2.05,3.28,.14,.89-.38,1.98-1.53,3.28-1.16,1.23-2.23,1.88-3.23,1.95s-2.1-.41-3.33-1.43c-1.29-1.5-2.64-2.66-4.04-3.48-1.4-.82-2.87-1.38-4.4-1.69-1.54-.31-3.27-.46-5.18-.46-1.71,0-3.33,.22-4.86,.67-1.54,.45-2.88,1.11-4,2s-1.99,1.96-2.61,3.23c-.62,1.27-.93,2.71-.93,4.35,0,1.91,.5,3.52,1.49,4.81,.98,1.3,2.3,2.39,3.94,3.28,1.63,.89,3.48,1.69,5.53,2.41s4.2,1.42,6.45,2.1c2.46,.75,4.88,1.65,7.28,2.71,2.38,1.06,4.53,2.35,6.45,3.89,1.91,1.53,3.44,3.46,4.61,5.78,1.16,2.32,1.74,5.19,1.74,8.61s-.67,6.42-2,9.01c-1.33,2.6-3.16,4.76-5.48,6.51-2.33,1.74-4.97,3.05-7.94,3.94-2.97,.89-6.09,1.33-9.37,1.33Z"/>
      <path class="cls-1" d="M704.83,401.9c-1.5,0-2.6-.31-3.28-.92-.68-.61-1.07-1.57-1.13-2.87l.42-5.12c-.68,1.09-1.74,2.34-3.18,3.74s-3.33,2.63-5.68,3.69c-2.36,1.06-5.18,1.59-8.45,1.59s-6.33-.65-9.17-1.95c-2.83-1.3-5.33-3.11-7.48-5.43-2.15-2.32-3.84-4.98-5.07-7.99-1.23-3-1.84-6.21-1.84-9.63s.61-6.5,1.84-9.47c1.23-2.97,2.93-5.58,5.12-7.83,2.18-2.25,4.69-4.03,7.53-5.33,2.83-1.3,5.86-1.95,9.07-1.95,3,0,5.56,.39,7.68,1.18,2.12,.78,3.95,1.81,5.48,3.07,1.53,1.26,2.88,2.68,4.04,4.25l-.31-4.3c0-1.5,.36-2.58,1.08-3.23,.72-.65,1.87-.97,3.43-.97,1.3,0,2.23,.2,2.82,.61,.58,.41,.98,.99,1.18,1.74,.21,.75,.31,1.68,.31,2.77v39.53c0,.96-.1,1.81-.31,2.56-.2,.75-.61,1.31-1.23,1.69s-1.58,.56-2.87,.56Zm-19.87-8.5c2.8,0,5.33-.72,7.58-2.15,2.26-1.43,4.07-3.36,5.43-5.78,1.36-2.43,2.04-5.21,2.04-8.35s-.7-6.03-2.1-8.45c-1.4-2.42-3.24-4.32-5.53-5.68-2.29-1.36-4.83-2.05-7.63-2.05-3.14,0-5.88,.72-8.24,2.15-2.35,1.43-4.22,3.38-5.58,5.84-1.36,2.46-2.04,5.26-2.04,8.4s.68,5.82,2.04,8.24c1.37,2.43,3.27,4.34,5.68,5.74,2.43,1.4,5.21,2.1,8.35,2.1Z"/>
      <path class="cls-1" d="M725.93,401.9c-1.3,0-2.28-.19-2.92-.56-.65-.38-1.06-.9-1.23-1.59-.17-.68-.26-1.5-.26-2.46v-40.66c0-.89,.09-1.64,.26-2.25,.18-.62,.6-1.09,1.28-1.43s1.67-.51,2.97-.51c1.03,0,1.83,.12,2.41,.36,.58,.24,.99,.56,1.23,.97,.24,.41,.39,.86,.47,1.33,.07,.48,.1,.92,.1,1.33l-.21,4.71c.68-1.16,1.54-2.27,2.57-3.33,1.02-1.06,2.22-2.01,3.58-2.87,1.36-.85,2.85-1.52,4.45-2,1.61-.48,3.33-.72,5.18-.72,3,0,5.77,.53,8.29,1.59,2.53,1.06,4.69,2.6,6.5,4.61s3.21,4.42,4.2,7.22c.99,2.8,1.48,5.98,1.48,9.53v22.22c0,.95-.08,1.78-.25,2.46-.18,.68-.58,1.19-1.23,1.53s-1.66,.51-3.02,.51-2.29-.19-2.98-.56-1.11-.9-1.28-1.59c-.18-.68-.26-1.5-.26-2.46v-22.22c0-2.87-.5-5.36-1.48-7.48-.99-2.11-2.43-3.75-4.3-4.91-1.88-1.16-4.29-1.74-7.23-1.74s-5.23,.58-7.32,1.74c-2.08,1.16-3.69,2.8-4.82,4.91-1.13,2.12-1.69,4.61-1.69,7.48v22.33c0,.95-.1,1.78-.3,2.46-.21,.68-.63,1.19-1.28,1.53s-1.63,.51-2.92,.51Z"/>
      <path class="cls-1" d="M809.7,402c-1.23,0-2.18-.2-2.87-.62-.68-.41-1.15-.97-1.38-1.69-.24-.72-.36-1.52-.36-2.41v-62.17c0-.89,.12-1.68,.36-2.36,.23-.68,.7-1.23,1.38-1.64s1.7-.61,3.07-.61c1.03,0,1.85,.07,2.46,.2,.62,.14,1.11,.33,1.48,.56,.38,.24,.78,.6,1.18,1.08l26.73,38.72h-3.18l27.04-39.02c.41-.41,.82-.72,1.23-.92,.41-.2,.93-.36,1.58-.46,.65-.1,1.42-.15,2.3-.15,1.3,0,2.28,.2,2.93,.61,.64,.41,1.11,.98,1.38,1.69,.27,.72,.41,1.55,.41,2.51v62.17c0,.82-.14,1.58-.41,2.25-.28,.68-.76,1.23-1.43,1.64-.68,.41-1.68,.62-2.98,.62-1.23,0-2.17-.2-2.82-.62-.65-.41-1.09-.97-1.33-1.69-.24-.72-.36-1.52-.36-2.41v-51.31l-21.92,32.26c-.21,.28-.48,.56-.82,.87-.35,.31-.78,.58-1.28,.82-.51,.24-1.18,.36-2,.36-.75,0-1.37-.12-1.84-.36-.48-.24-.87-.51-1.18-.82s-.63-.67-.98-1.08l-21.81-32.06v51.51c0,.82-.13,1.58-.36,2.25-.24,.68-.68,1.23-1.33,1.64-.65,.41-1.63,.62-2.92,.62Z"/>
      <path class="cls-1" d="M893.99,340.14c-1.5,0-2.63-.22-3.38-.67-.75-.44-1.25-1.08-1.48-1.9-.24-.82-.36-1.77-.36-2.87s.12-2.03,.36-2.82c.23-.78,.75-1.36,1.53-1.74s1.93-.56,3.43-.56,2.53,.2,3.28,.61,1.24,1.03,1.48,1.84c.24,.82,.36,1.81,.36,2.97,0,1.03-.12,1.93-.36,2.71-.24,.79-.73,1.38-1.48,1.79-.75,.41-1.88,.62-3.38,.62Zm0,61.86c-1.29,0-2.28-.19-2.97-.56-.68-.38-1.11-.9-1.28-1.59-.17-.68-.25-1.5-.25-2.46v-40.46c0-.88,.1-1.69,.3-2.4,.21-.72,.63-1.25,1.28-1.59s1.66-.51,3.03-.51c1.29,0,2.25,.19,2.87,.56,.61,.38,1.02,.92,1.23,1.64,.21,.72,.31,1.55,.31,2.51v40.35c0,.96-.1,1.78-.31,2.46-.21,.68-.63,1.2-1.28,1.54-.64,.34-1.62,.51-2.92,.51Z"/>
      <path class="cls-1" d="M932.5,400.88c-3.34,0-6.4-.6-9.17-1.79-2.77-1.19-5.17-2.88-7.22-5.07-2.05-2.18-3.63-4.75-4.76-7.68-1.13-2.94-1.69-6.15-1.69-9.63s.56-6.69,1.69-9.63c1.13-2.93,2.71-5.49,4.76-7.68,2.05-2.18,4.45-3.88,7.22-5.07,2.77-1.2,5.75-1.79,8.96-1.79s5.84,.58,8.3,1.74c2.46,1.16,4.53,2.82,6.24,4.97,1.71,2.15,3.03,4.7,3.94,7.63,.93,2.94,1.38,6.21,1.38,9.83,0,4.92-.8,9.18-2.4,12.8-1.61,3.62-3.86,6.42-6.76,8.4-2.91,1.98-6.4,2.97-10.5,2.97Zm.31,21.2c-2.46,0-4.76-.28-6.92-.82-2.15-.55-4.04-1.26-5.68-2.15-1.63-.89-2.93-1.84-3.88-2.87-.96-1.03-1.44-1.98-1.44-2.87,0-.68,.11-1.25,.31-1.69,.21-.45,.52-.9,.93-1.38,.68-.68,1.23-1.16,1.64-1.43,.41-.27,.95-.41,1.63-.41s1.37,.29,2.05,.87,1.52,1.23,2.51,1.95c.99,.72,2.22,1.36,3.68,1.95,1.47,.58,3.29,.87,5.48,.87s4.18-.34,5.99-1.03c1.81-.68,3.34-1.71,4.61-3.07,1.26-1.37,2.25-3.02,2.97-4.97,.72-1.95,1.08-4.15,1.08-6.61l-.21-42.61c.07-1.3,.47-2.22,1.18-2.77,.72-.55,1.86-.82,3.43-.82,1.23,0,2.15,.19,2.77,.56s1.01,.89,1.18,1.54c.18,.65,.26,1.45,.26,2.4v42.4c0,3.62-.58,6.84-1.74,9.68-1.16,2.83-2.8,5.24-4.92,7.22-2.12,1.98-4.61,3.48-7.48,4.5-2.87,1.03-6.01,1.54-9.42,1.54Zm.1-29.6c2.8,0,5.29-.68,7.48-2.05,2.18-1.37,3.93-3.24,5.23-5.63,1.29-2.39,1.94-5.16,1.94-8.3s-.65-5.78-1.94-8.14c-1.3-2.36-3.06-4.18-5.28-5.48-2.22-1.3-4.73-1.95-7.53-1.95s-5.29,.67-7.48,2c-2.18,1.33-3.88,3.16-5.07,5.48-1.2,2.32-1.79,5.06-1.79,8.19s.61,5.89,1.84,8.24c1.23,2.36,2.93,4.22,5.12,5.58s4.68,2.05,7.48,2.05Z"/>
      <path class="cls-1" d="M989.45,402.1c-3.07,0-5.87-.55-8.39-1.64s-4.75-2.63-6.66-4.61c-1.91-1.98-3.4-4.37-4.45-7.17-1.07-2.8-1.59-5.98-1.59-9.53v-22.22c0-.95,.08-1.78,.26-2.46,.17-.68,.59-1.21,1.28-1.58s1.68-.57,2.98-.57,2.27,.21,2.92,.62,1.08,.95,1.28,1.64c.2,.68,.3,1.5,.3,2.46v22.22c0,2.8,.48,5.28,1.43,7.43,.96,2.15,2.41,3.8,4.36,4.97,1.94,1.16,4.32,1.74,7.12,1.74s5.34-.58,7.43-1.74c2.08-1.16,3.68-2.82,4.81-4.97,1.13-2.15,1.69-4.63,1.69-7.43v-22.33c0-.95,.08-1.78,.26-2.46,.17-.68,.59-1.21,1.28-1.58,.68-.38,1.68-.57,2.98-.57s2.27,.21,2.92,.62,1.06,.95,1.23,1.64c.18,.68,.26,1.5,.26,2.46v40.66c0,.82-.08,1.55-.26,2.2-.17,.65-.58,1.14-1.23,1.48s-1.63,.51-2.92,.51c-.96,0-1.73-.1-2.31-.31-.58-.2-1.01-.48-1.28-.82-.28-.34-.47-.73-.57-1.18-.1-.44-.16-.9-.16-1.38l.42-4.4c-.68,.89-1.51,1.79-2.46,2.71-.96,.92-2.07,1.81-3.33,2.66-1.26,.85-2.68,1.55-4.25,2.1-1.57,.55-3.34,.82-5.33,.82Z"/>
      <path class="cls-1" d="M1048.75,402.52c-4.1,0-7.75-.68-10.96-2.05-3.21-1.36-5.93-3.23-8.14-5.58-2.22-2.36-3.93-5.07-5.12-8.14-1.2-3.07-1.79-6.38-1.79-9.94,0-4.71,1.09-8.91,3.28-12.6,2.18-3.69,5.23-6.61,9.12-8.76,3.88-2.15,8.33-3.23,13.31-3.23,3.41,0,6.47,.53,9.17,1.59,2.69,1.06,5,2.48,6.91,4.25s3.38,3.75,4.41,5.94c1.02,2.19,1.53,4.37,1.53,6.56,0,3.48-.82,5.94-2.46,7.37-1.64,1.43-3.65,2.15-6.04,2.15h-29.6c-.08,2.94,.73,5.48,2.4,7.63,1.68,2.15,3.79,3.81,6.35,4.97,2.57,1.16,5.14,1.74,7.73,1.74,1.84,0,3.47-.1,4.87-.31,1.4-.2,2.61-.48,3.63-.82s1.89-.68,2.61-1.03,1.38-.68,2-1.03,1.19-.58,1.74-.72c.54-.13,1.13-.08,1.74,.15,.61,.24,1.09,.7,1.43,1.38,.41,.55,.68,1.06,.82,1.54,.13,.48,.21,.99,.21,1.53,0,1.03-.83,2.1-2.46,3.23-1.64,1.13-3.91,2.1-6.81,2.92-2.91,.82-6.2,1.23-9.89,1.23Zm-16.39-28.58h25.7c1.23,0,2.18-.17,2.87-.51s1.03-1.26,1.03-2.76c0-1.85-.58-3.55-1.74-5.12-1.16-1.57-2.75-2.83-4.76-3.79-2.02-.95-4.36-1.43-7.02-1.43-2.93,0-5.65,.6-8.14,1.79-2.49,1.2-4.45,2.82-5.89,4.87-1.43,2.05-2.12,4.37-2.04,6.96Z"/>
      <path class="cls-1" d="M1096.27,402c-2.18,0-4.17-.17-5.94-.51s-3.29-.92-4.56-1.74c-1.26-.82-2.32-1.9-3.18-3.23-.85-1.33-1.48-2.92-1.89-4.76-.41-1.84-.62-3.99-.62-6.45v-51.21c0-1.03,.11-1.88,.31-2.56,.21-.68,.63-1.21,1.28-1.58s1.62-.57,2.92-.57c1.37,0,2.38,.17,3.03,.51,.64,.34,1.08,.85,1.28,1.54,.21,.68,.31,1.5,.31,2.46v51.31c0,1.37,.13,2.55,.41,3.53,.28,.99,.7,1.83,1.28,2.51,.58,.68,1.31,1.16,2.2,1.43,.88,.28,1.94,.41,3.18,.41,.82,0,1.52,.1,2.1,.3,.58,.21,1.04,.62,1.38,1.23,.34,.62,.51,1.57,.51,2.87,0,1.37-.17,2.38-.51,3.02-.34,.65-.81,1.06-1.38,1.23-.58,.17-1.28,.26-2.1,.26Z"/>
    </g>
    <g class="cls-7">
      <g class="cls-4">
        <g>
          <path class="cls-1" d="M1349.66,198.03c-.35-3.19-.85-3.62-3.9-2.65-6.46,2.05-13.07,3.68-19.8,4.14-13.33,.92-26.51-.34-39.21-4.73-13.27-4.59-25.51-11.1-36.08-20.47-.81-.71-1.21-.56-1.87,.08-2.43,2.39-5.14,4.47-7.89,6.46-9.22,6.67-19.19,11.85-30.14,15.08-6.76,2-13.63,3.2-20.68,3.81-6.55,.57-13.06,.4-19.52-.29-6.97-.74-13.87-2.21-20.5-4.67-1.3-.48-1.87-.38-2.13,1.25-.96,5.85-2.12,11.65-2.81,17.55-1.03,8.85-1.73,17.7-1.81,26.6-.08,5.9,.48,11.75,.88,17.62,.5,7.33,1.57,14.58,3.04,21.74,3.26,15.87,8.46,31.13,15.75,45.63,4.42,8.78,9.45,17.19,15.1,25.25,6.19,8.82,13.03,17.1,20.42,24.92,5.81,6.15,12.09,11.81,18.58,17.27,9.68,8.14,20.01,15.33,30.91,21.72,1.16,.68,2.16,.68,3.45-.07,11.26-6.63,21.71-14.36,31.66-22.81,8.24-7,15.73-14.75,22.54-23.11,9.49-11.66,17.55-24.25,24.14-37.82,6.35-13.09,11.16-26.7,14.75-40.75,2.68-10.46,4.57-21.06,5.68-31.82,.85-8.23,1.49-16.47,1.72-24.72,.34-11.8-.98-23.52-2.27-35.23Zm-136,8.77c8.37-2.88,16.16-6.88,23.48-11.83,3.93-2.66,7.65-5.61,11.14-8.81,1.05-.96,1.72-1.15,2.9-.1,9.14,8.2,19.65,14.16,31.01,18.68,1.47,.59,2.05,1.22,2,2.83-.12,3.73-.04,7.46-.04,11.2h.44c0,8.16-.09,16.32,.06,24.47,.04,2.38-.77,2.96-2.94,2.65-3.4-.49-6.7-1.32-9.99-2.27-7.18-2.09-14.14-4.81-20.99-7.76-1.28-.55-2.25-.51-3.47,.11-9.82,4.98-20.1,8.69-30.87,11.04-.45,.1-.92,.14-1.37,.27-2.02,.58-2.43-.28-2.46-2.21-.14-12.12-.35-24.24-.68-36.36-.04-1.58,.92-1.61,1.79-1.91Zm-56.76,41.4c-1.76-10.79-.6-21.56,.02-32.33,.09-1.63,.35-3.25,.36-4.88,.01-1.41,.56-1.43,1.73-1.14,8.61,2.11,17.36,2.75,26.19,2.32,6.54-.32,13.01-1.28,19.37-2.8,1.33-.32,1.94-.39,1.97,1.32,.25,11.89,.55,23.79,.98,35.67,.07,2-.65,2.72-2.42,3.16-8.2,2.07-16.53,3.01-24.04,2.93-8.04,0-15.08-.65-22.08-1.84-1.63-.28-1.87-1.02-2.09-2.42Zm181.46,11.12c-1.04,10.97-2.8,21.59-5.56,32.04-2.88,10.93-6.71,21.51-11.66,31.67-6.16,12.63-13.81,24.3-22.88,35.06-9.63,11.43-20.67,21.3-32.85,29.93-4.57,3.24-9.29,6.26-14.09,9.16-1.48,.89-2.61,.77-4.06-.04-9.96-5.54-19.26-12.05-27.99-19.35-13.93-11.65-25.99-24.99-35.86-40.27-11.88-18.4-19.71-38.35-23.27-59.97-1.05-6.37-1.57-12.77-2.09-19.19-.12-1.45,.65-1.39,1.54-1.19,7.37,1.62,14.86,1.49,22.32,1.32,15.72-.36,31.04-3.23,46.09-7.67,6.8-2,13.47-4.37,20.03-7.03,1.37-.55,2.58-.62,4.01,.01,14.32,6.31,29.3,10.38,44.74,12.66,11.18,1.65,22.44,2.32,33.75,1.94,2.02-.07,4.03-.29,6.05-.44q1.8-.14,1.77,1.36Zm1.72-15.45c-.29,6.93-.42,6.9-7.31,7.25-11.47,.58-22.86,.05-34.21-1.75-2.3-.36-4.55-.99-6.87-1.17-1.54-.12-1.84-1.07-1.83-2.4,.03-5.99,.01-11.98,.01-17.97h-.12c0-5.91,.05-11.82-.03-17.73-.02-1.77,.4-1.96,2.13-1.57,11.24,2.58,22.59,3.17,34.05,1.7,4.01-.51,7.99-1.02,11.89-2.1,1.66-.46,2.38,.07,2.4,1.92,.11,11.28,.36,22.55-.11,33.83Z"/>
          <path class="cls-1" d="M1177.15,242.86c6.15,4,14.33,1.16,16.03-5.58,.16-.64,.57-1.37-.16-1.91-1.15-.85-4.31,.1-4.82,1.45-.79,2.09-2.2,3.36-4.49,3.47-2.4,.12-4.32-.83-5.35-3.01-1.54-3.29-1.51-6.65,.39-9.81,1.98-3.29,6.92-3.25,9.02-.03,.83,1.27,3.64,2.11,4.98,1.54,.65-.27,.43-.67,.34-1.12-.51-2.4-1.73-4.31-3.88-5.55-3.82-2.21-7.78-2.25-11.55-.1-4.14,2.37-5.48,6.33-5.45,9.19,.25,6.37,1.76,9.39,4.94,11.45Z"/>
        </g>
        <path class="cls-1" d="M1249.23,204.29c3.45-.1,6.46,.62,8.12,3.96,.52,1.05,1.35,2.33,.03,3.32-1.03,.77-3.82-.07-4.48-1.12-1.33-2.12-3.29-2.79-5.59-1.99-1.05,.36-1.84,.95-1.9,2.1-.07,1.21,.75,1.82,1.8,2.13,2.24,.65,4.49,1.24,6.73,1.9,2.68,.78,4.53,2.4,4.92,5.28,.41,3.04-.84,5.57-3.67,6.92-4.03,1.92-8.12,1.9-12.1-.29-1.12-.61-2.06-1.53-2.55-2.66-.53-1.24-1.8-2.75-.19-3.93,1.31-.96,3.84,.19,4.58,1.77,1.25,2.66,6.95,3.3,8.5,.87,.94-1.48,.32-2.79-1.26-3.36-2.04-.74-4.16-1.26-6.25-1.86-5.01-1.45-7.15-5.78-4.6-9.56,1.87-2.77,4.7-3.67,7.89-3.46"/>
        <path class="cls-1" d="M1172.21,231.4c-.03-2.87,1.31-6.83,5.45-9.19,3.77-2.16,7.73-2.12,11.55,.1,2.15,1.24,3.37,3.15,3.88,5.55,.09,.45,.31,.85-.34,1.12-1.34,.57-4.15-.27-4.98-1.54-2.1-3.22-7.04-3.26-9.02,.03-1.9,3.15-1.93,6.51-.39,9.81,1.02,2.18,2.94,3.13,5.35,3.01,2.29-.11,3.7-1.38,4.49-3.47,.51-1.35,3.67-2.3,4.82-1.45,.74,.54,.33,1.27,.16,1.91-1.7,6.74-9.87,9.58-16.03,5.58-3.18-2.06-4.69-5.09-4.94-11.45"/>
        <path class="cls-1" d="M1323.72,229.5c-1.42,2.45-1.86,5.3-3.01,7.86-.44,.98-.76,2.03-.98,3.08-.34,1.6-1.11,2.29-2.86,2.31-1.83,.02-2.34-.91-2.8-2.39-.97-3.09-2.06-6.14-3.18-9.18-.21-.56-.22-1.41-1.47-1.66,0,3.38,0,6.66,0,9.94-.01,3.45-.1,3.47-3.46,3.25-1.06-.07-1.32-.51-1.32-1.43,.01-6.61,.02-13.21,.01-19.82,0-.93,.23-1.53,1.33-1.33,.08,.01,.16,0,.23,0,5.87-.26,5.9-.17,7.85,6.46,.82,2.79,1.59,5.61,3.15,8.54,1.52-4.64,3.04-8.92,4.28-13.27,.42-1.48,1.08-1.77,2.43-1.77,5.21,.03,5.2,0,5.2,5.19,0,5.13-.07,10.26,.06,15.39,.04,1.72-.57,2.17-2.14,2.02-1.32-.13-2.8,.42-2.68-1.96,.19-3.68,.05-7.39,.05-11.08-.23-.05-.46-.1-.69-.14"/>
        <path class="cls-2" d="M1234.72,285.26c-.38-11.04,2.83-20.79,10.9-28.65,4.13-4.03,4.44-4.02,7.89,.59,7.95,10.61,11.03,22.54,9.68,35.71-1.18,11.47-5.03,22.02-10.67,31.99-.76,1.34-1.49,2.31-3.36,2.27-1.81-.04-2.41-1.08-3.07-2.32-5.5-10.44-9.77-21.3-11.32-33.07-.28-2.14-.04-4.34-.04-6.51"/>
        <path class="cls-2" d="M1202.83,288.68c12.71,.44,20.85,6.1,26.75,15.42,3.75,5.92,5.93,12.46,7.4,19.26,.23,1.06,1.12,2.61-.24,3.04-1.37,.43-3.21,.87-4.47-.8-2.74-3.6-5.93-6.81-9.32-9.79-3.23-2.83-6.78-5.26-11.16-5.98-5.33-.87-8.98,1.67-11.57,6.06-1.54,2.62-2.73,5.41-3.51,8.36-.28,1.07-.59,1.81-1.87,1.02-4.85-2.98-9.18-6.5-11.5-11.86-2.52-5.81-.72-11.82,4.8-16.64,2.52-2.2,5.22-4.14,8.09-5.9,2.49-1.52,5.01-2.5,6.6-2.19"/>
        <path class="cls-2" d="M1314.15,307.99c.04,4.14-1.52,7.22-3.83,9.95-2.42,2.86-5.3,5.21-8.48,7.24-1.34,.85-1.69,.33-2.07-.87-1.15-3.72-2.52-7.34-4.97-10.46-3.05-3.89-7.72-5.2-12.33-3.48-5.79,2.17-10.16,6.22-14.3,10.58-1.33,1.4-2.6,2.89-3.74,4.46-1.37,1.87-3.23,1.16-4.92,1.07-.83-.04-.57-.93-.44-1.53,2.06-9.41,5.02-18.43,11.53-25.86,6.65-7.59,15.04-10.99,25.13-10.19,2.05,.16,3.55,1.52,5.2,2.49,4.19,2.45,8.05,5.34,10.82,9.41,1.56,2.29,2.61,4.78,2.39,7.21"/>
        <path class="cls-2" d="M1261.23,366.92c-.23,7.38-4.08,15.06-10.08,21.82-.76,.86-1.49,1.34-2.5,.29-6.57-6.83-11.71-14.43-11.65-24.33,.06-9.63,4.81-17.11,11.69-23.45,.81-.75,1.45-.67,2.17,.13,6.11,6.75,10.42,14.28,10.37,25.55"/>
        <path class="cls-6" d="M1249.07,337.33c-5.6,0-11.21-.05-16.81,.03-1.68,.02-2.33-.47-2.34-2.24-.03-5.57-.1-5.58,5.35-5.58,10.04,0,20.08,.03,30.12-.04,1.75-.01,2.44,.35,2.42,2.29-.07,5.53,.02,5.54-5.43,5.55-4.44,0-8.87,0-13.31,0"/>
        <path class="cls-6" d="M1272.21,358.88c-6.95,0-11.17-3.3-12.91-10.11-.54-2.11-.86-4.25-.88-6.44-.01-1.23,.44-1.69,1.63-1.61,.93,.06,1.87,.03,2.8,.02,.77,0,1.35,.19,1.58,1.05,2.24,8.46,9.76,9.53,15.83,8.32,2.05-.41,4.09-.95,6.08-1.6,1.32-.43,1.76-.15,1.49,1.19-.29,1.44-.67,2.87-.88,4.33-.14,.96-.79,1.24-1.49,1.6-3.49,1.8-9.32,3.23-13.26,3.24"/>
        <path class="cls-6" d="M1208.06,347.98c4.34,1.37,8.22,2.68,12.44,2.53,5.46-.19,9.24-2.81,11.05-7.98,.54-1.54,4.66-2.6,5.82-1.46,.24,.24,.41,.7,.38,1.04-.35,5.58-1,11.05-6.05,14.7-3.19,2.31-6.86,2.34-10.53,1.94-3.41-.37-6.65-1.44-9.82-2.76-1.39-.58-2.12-1.32-2.3-2.81-.2-1.6-.6-3.17-.99-5.2"/>
      </g>
    </g>
  </g>
</svg>