<?xml version="1.0" encoding="UTF-8"?>
<svg id="Capa_1" data-name="Capa 1" xmlns="http://www.w3.org/2000/svg" xmlns:xlink="http://www.w3.org/1999/xlink" viewBox="0 0 3881.91 1817.4">
  <defs>
    <style>
      .cls-1 {
        fill: #7aa0dd;
      }

      .cls-1, .cls-2, .cls-3, .cls-4, .cls-5, .cls-6, .cls-7 {
        fill-rule: evenodd;
      }

      .cls-2 {
        fill: #ff9854;
      }

      .cls-8 {
        fill: #fcfdfd;
      }

      .cls-9 {
        clip-path: url(#clippath-2);
      }

      .cls-10 {
        stroke: #332c2b;
        stroke-width: 1.77px;
      }

      .cls-10, .cls-11 {
        fill: none;
      }

      .cls-12 {
        fill: #f3fafb;
      }

      .cls-13 {
        clip-path: url(#clippath-1);
      }

      .cls-14 {
        clip-path: url(#clippath-4);
      }

      .cls-15 {
        fill: #fe3b1f;
      }

      .cls-16 {
        clip-path: url(#clippath);
      }

      .cls-3 {
        fill: #ffa66b;
      }

      .cls-4 {
        fill: #e8ba00;
      }

      .cls-17 {
        clip-path: url(#clippath-3);
      }

      .cls-5 {
        fill: #bfbfbf;
      }

      .cls-18 {
        clip-path: url(#clippath-5);
      }

      .cls-6 {
        fill: #f60;
      }

      .cls-19 {
        fill: #0082cb;
      }

      .cls-20 {
        fill: #001b71;
      }
    </style>
    <clipPath id="clippath">
      <rect class="cls-11" x="1408.44" y="944.08" width="110.5" height="110.5"/>
    </clipPath>
    <clipPath id="clippath-1">
      <rect class="cls-11" x="1408.49" y="944.13" width="110.4" height="110.4"/>
    </clipPath>
    <clipPath id="clippath-2">
      <rect class="cls-11" x="2375.23" y="668.83" width="110.5" height="110.5"/>
    </clipPath>
    <clipPath id="clippath-3">
      <rect class="cls-11" x="2375.28" y="668.88" width="110.4" height="110.4"/>
    </clipPath>
    <clipPath id="clippath-4">
      <rect class="cls-11" x="3322.03" y="683.93" width="110.5" height="110.5" transform="translate(-42.09 1249.37) rotate(-20.83)"/>
    </clipPath>
    <clipPath id="clippath-5">
      <rect class="cls-11" x="3322.08" y="683.98" width="110.4" height="110.4" transform="translate(-42.09 1249.37) rotate(-20.83)"/>
    </clipPath>
  </defs>
  <g>
    <path class="cls-4" d="M191.16,795.75c7.5-32.25,21.75-69,5.25-100.5-18,3-33.75,66.75-33,78,.75,5.25,14.25,33,27.75,22.5h0Zm0,0"/>
    <path class="cls-3" d="M251.91,940.5s-89.25,56.25-117.75,88.5c0,0-69,26.25-67.5-37.5,1.5-64.5,81.75-113.25,72.75-138s-19.5-34.5,15-75c0,0,.75-33-3-38.25,0,0,19.5-25.5,29.25,36,0,0,64.5,14.25,5.25,83.25-60,68.25-30.75,57-30.75,57,0,0,21.75-14.25,39-24.75,18-9.75,72.75-13.5,72.75-13.5,0,0-1.5,33.75-15,62.25h0Zm0,0"/>
    <path class="cls-3" d="M662.91,612.75s15.75-.75,34.5,3c0,0,8.25-40.5,216.75-72.75,0,0,26.25-2.25,33.75-25.5s-11.25-39,31.5-58.5c0,0,3-10.5,6.75-12.75s9.75-9.75,9.75-9.75c0,0,17.25-25.5,18-30.75,.75-4.5,20.25,8.25,7.5,24.75,0,0,28.5-3.75,27.75,3.75s-9.75,18.75-33.75,23.25c12,24-30,115.5-63.75,126.75-57.75,19.5-153.75,66-153.75,66,0,0-65.25,23.25-91.5,24s-75,31.5-75,31.5l-25.5-29.25s21.75-51.75,57-63.75h0Zm0,0"/>
    <path class="cls-7" d="M701.16,1054.5c5.25-4.5,51,217.5-21,409.5,0,0-68.25,6-159-8.25l-8.25-21-.75,15s-36-8.25-50.25-27-65.25-180-34.5-241.5c30.75-62.25,208.5-148.5,273.75-126.75h0Zm0,0"/>
    <path class="cls-1" d="M489.66,645.75s84-33.75,117.75-23.25c0,0,18-22.5,63-25.5,0,0-40.5,78-23.25,91.5,0,0-16.5,29.25-51,29.25,0,0-5.25,69,24,106.5,28.5,37.5,48.75,169.5,48.75,169.5,0,0,39,61.5,43.5,60.75s-126,149.25-285,126.75c0,0-2.25-55.5,15-81.75,0,0,1.5-28.5-38.25-72-39-43.5-81.75-100.5-81.75-100.5,0,0,18,.75-23.25-12,0,0-28.5,1.5-47.25,25.5,0,0-36.75-52.5-57.75-48.75,0,0,40.5-51,68.25-71.25,27-21,89.25-36.75,90-80.25s7.5-66,7.5-66c0,0,43.5-70.5,129.75-28.5h0Zm0,0"/>
    <path class="cls-3" d="M399.66,501s24,28.5,27,42.75l33-.75-4.5,17.25,22.5,15.75s-16.5,28.5-1.5,33.75c3.75,.75,5.25,.75,7.5,4.5,5.25,12,6,31.5,6,31.5,0,0-16.5,15.75-42.75,15.75,0,0-60.75,26.25-79.5,43.5l-6-9.75s10.5-42,34.5-52.5c-39.75-24-59.25-38.25-59.25-38.25,0,0-21-85.5,38.25-101.25l3.75-6s7.5-1.5,21,3.75h0Zm0,0"/>
    <path class="cls-7" d="M399.66,501s-27.75,8.25-27.75,21.75c0,14.25,51,56.25,48.75,63-2.25,7.5-8.25,19.5-42,24-33,3.75,28.5,40.5,28.5,40.5,0,0-27.75,2.25-31.5,25.5-3.75,22.5-6,36.75-25.5,41.25-18.75,4.5-108-61.5-106.5-119.25,.75-57.75,103.5-181.5,156-96.75h0Zm0,0"/>
    <path class="cls-7" d="M308.91,279c-24-7.5-60,39-79.5,104.25-18.75,60.75-17.25,115.5,3,128.25l-47.25,195.75,15,3,45.75-195.75c23.25-4.5,53.25-47.25,70.5-104.25,20.25-65.25,16.5-123.75-7.5-131.25h0Zm0,0"/>
    <path class="cls-3" d="M680.16,1464s-63,138.75-91.5,161.25c-27.75,21.75-306.75,4.5-306.75,4.5,0,0-104.25,6-114,8.25s-10.5-61.5,39-68.25l7.5-15,69.75-5.25s86.25-2.25,101.25-24c0,0-15.75,16.5-72,17.25s-99.75-2.25-99.75-2.25l-42-24.75s30-34.5,50.25-45.75c21-11.25,142.5-8.25,142.5-8.25,0,0,66-36.75,116.25,9.75l16.5-48s128.25-23.25,183,40.5h0Zm0,0"/>
    <path class="cls-7" d="M291.66,1542.75c-45.75,0-78-2.25-78-2.25l-42-24.75s30-34.5,50.25-45.75c9.75-5.25,38.25-7.5,68.25-8.25l1.5,81Zm0,0"/>
    <path class="cls-7" d="M293.91,1630.5c-7.5-.75-12-.75-12-.75,0,0-104.25,6-114,8.25s-10.5-61.5,39-68.25l7.5-15,69.75-5.25h7.5l2.25,81Zm0,0"/>
    <path class="cls-7" d="M185.91,1510.5s7.5-3.75,15-9.75l9.75-7.5c9-9,16.5-19.5,12-28.5-9.75-20.25-36.75-98.25-90.75-46.5-54,51.75-36.75,52.5-36.75,52.5,0,0-104.25,52.5-83.25,117,0,0-.75,29.25,15,29.25,0,0-54,55.5-9,83.25,0,0,24,24.75,65.25-33.75,0,0,63-23.25,81.75-30-6.75-9-3-60.75,42-66.75l7.5-15,14.25-1.5c1.5-9.75,3.75-23.25,3.75-27,0-5.25-46.5-15.75-46.5-15.75h0Zm0,0"/>
    <path class="cls-7" d="M2166.66,1479.75s-15,3.75-10.5,66c4.5,62.25-6.75,74.25-6.75,74.25,0,0,4.5,52.5,44.25,42.75,39.75-9,47.25-31.5,42.75-48.75-5.25-17.25-11.25-20.25-14.25-38.25-2.25-18,2.25-59.25,0-69.75-1.5-10.5-23.25-5.25-55.5-26.25h0Zm0,0"/>
    <path class="cls-3" d="M2594.91,773.25s15.75,30,18,63c1.5,33,18.75,124.5-11.25,189.75,0,0-9.75,21-3.75,45,6,23.25-4.5,40.5-4.5,40.5,0,0,15.75,15.75,24.75,.75,0,0,14.25,18,27-2.25,12.75-19.5,19.5-15.75,21-41.25,2.25-26.25,.75-13.5,1.5-35.25,0-21.75,5.25-60,5.25-60,0,0,2.25-56.25,6-66.75,3-10.5,2.25-72,2.25-72,0,0,18-72-51.75-112.5l-23.25,13.5s-18.75,9.75-11.25,37.5h0Zm0,0"/>
    <path class="cls-7" d="M1931.91,1632s-61.5,83.25-63,99.75c-1.5,15.75,19.5,37.5,72.75,19.5,53.25-18.75,53.25-86.25,51-107.25-1.5-21-27-21.75-60.75-12h0Zm0,0"/>
    <path class="cls-10" d="M1931.91,1632s-61.5,83.25-63,99.75c-1.5,15.75,19.5,37.5,72.75,19.5,53.25-18.75,53.25-86.25,51-107.25-1.5-21-27-21.75-60.75-12h0Zm0,0"/>
    <path class="cls-1" d="M2300.91,528.75s-114.75,39.75-135.75,36c0,0-24.75,36.75-30.75,40.5-5.25,3.75,5.25,56.25-28.5,100.5,0,0-12,25.5-16.5,24.75l6,13.5s12-18.75,44.25-8.25c33,10.5,39,17.25,39,17.25l30.75-31.5s-44.25,42.75-44.25,135.75-34.5,152.25-34.5,152.25c0,0-9.75,17.25-34.5,33.75,0,0,183.75,118.5,344.25,72,0,0,19.5-18,20.25-40.5,.75-23.25-1.5-154.5,10.5-189.75,12-35.25,35.25-163.5,35.25-163.5,0,0,17.25-12,25.5,4.5,7.5,16.5,21.75,45,21.75,45,0,0,42.75,9.75,56.25-3.75,14.25-13.5,31.5-42,31.5-42l-44.25-63-64.5-79.5s-93.75-32.25-117-53.25c-24-20.25-72.75-26.25-114.75-.75h0Zm0,0"/>
    <path class="cls-5" d="M2003.91,1363.5s-62.25,64.5-59.25,133.5c3,69-5.25,127.5-14.25,132.75,0,0,32.25,39.75,64.5,12.75,0,0-1.5-33,16.5-65.25,17.25-32.25,53.25-32.25,63-122.25,9-89.25-32.25-99.75-70.5-91.5h0Zm0,0"/>
    <path class="cls-2" d="M2305.41,509.25l-5.25,23.25s-.75,58.5,42,79.5c42,21,58.5-27,58.5-27,0,0-30-88.5-95.25-75.75h0Zm0,0"/>
    <path class="cls-3" d="M2038.41,1233s-22.5,72.75-13.5,103.5c0,0-18.75,9-21,27-3,18.75-4.5,69,38.25,65.25,42.75-4.5,47.25-33.75,47.25-33.75,0,0,33-56.25,54-79.5,20.25-24-34.5-120-105-82.5h0Zm0,0"/>
    <path class="cls-3" d="M2296.41,459s-34.5,0,6.75,41.25c0,0,11.25,43.5,22.5,57.75,12,15,29.25,48.75,63,36.75,0,0,20.25-5.25,35.25-61.5,15-55.5,24.75-62.25,26.25-78s-39.75-33-39.75-33c0,0-73.5-21.75-114,36.75h0Zm0,0"/>
    <path class="cls-5" d="M2256.66,1324.5s-43.5,5.25-48,87c0,0-25.5,59.25-43.5,66,0,0,16.5,47.25,51,36.75l26.25-33s84-50.25,93.75-86.25c9-36.75,9-48,3-55.5-6-6.75-42,51-82.5-15h0Zm0,0"/>
    <path class="cls-3" d="M2270.16,1251s-21.75,44.25-12,79.5c0,0-4.5,62.25,36,57,40.5-4.5,54-25.5,53.25-41.25-.75-15,24-21,33.75-32.25s22.5-38.25,21-57-91.5-78.75-132-6h0Zm0,0"/>
    <path class="cls-7" d="M2105.91,1044.75s-77.25,131.25-81.75,186c0,0,59.25,41.25,82.5,62.25s45.75,32.25,45.75,32.25l40.5-43.5s54.75-115.5,59.25-123,12,0,9.75,23.25c-2.25,22.5,10.5,60.75,8.25,69-3,8.25,99-78,127.5,27.75,0,0-12,33.75-24,42.75,0,0,31.5-29.25,39-57.75s14.25-72,14.25-72c0,0-4.5-24,6.75-39s21-27.75,6.75-45.75-234-113.25-334.5-62.25h0Zm0,0"/>
    <path class="cls-7" d="M2337.66,456s-6.75,21.75-21,32.25c0,0-3-27.75-20.25-29.25,0,0-12-65.25,35.25-89.25,48-24.75,113.25,15.75,116.25,38.25,3,23.25,10.5,60-10.5,53.25s-51,18.75-51,18.75c0,0-23.25-9.75-24-30,0-19.5-27-20.25-24.75,6h0Zm0,0"/>
    <path class="cls-10" d="M2337.66,456s-6.75,21.75-21,32.25c0,0-3-27.75-20.25-29.25,0,0-12-65.25,35.25-89.25,48-24.75,113.25,15.75,116.25,38.25,3,23.25,10.5,60-10.5,53.25s-51,18.75-51,18.75c0,0-23.25-9.75-24-30,0-19.5-27-20.25-24.75,6h0Zm0,0"/>
    <path class="cls-3" d="M2101.41,738s-34.5,72.75-23.25,98.25c12,25.5,27,35.25,69.75,18.75,0,0,8.25-4.5,18-9.75,10.5-6.75,43.5-11.25,52.5-15.75,5.25-3,10.5-12.75,15-15,16.5-7.5,7.5-11.25,12.75-20.25,6-10.5-27.75-90-36-51-1.5,5.25,1.5,5.25,.75,6.75,0,0-18,10.5-16.5,18,.75,8.25-11.25,21-11.25,21,0,0-25.5-4.5-27-9s-1.5-15.75,16.5-30.75c-5.25-3-15-7.5-33-13.5-19.5-6-31.5-2.25-38.25,2.25h0Zm0,0"/>
    <path class="cls-7" d="M2504.91,1569c51.75,0,94.5,42,94.5,93.75s-42.75,94.5-94.5,94.5-93.75-42.75-93.75-94.5,42-93.75,93.75-93.75h0Zm0,0"/>
    <path class="cls-7" d="M938.91,1578s-37.5,15-39.75,49.5c0,0-48,34.5-48,59.25,.75,24-5.25,36.75-5.25,36.75,0,0,66,35.25,98.25,15,0,0,10.5-13.5,11.25-21.75,0-7.5,22.5-16.5,27-24,4.5-6.75,9-67.5,8.25-80.25-1.5-12-10.5-49.5-51.75-34.5h0Zm0,0"/>
    <path class="cls-7" d="M1597.41,1538.25s21.75,54,16.5,73.5c-4.5,18.75-21.75,102.75,22.5,96.75s78,0,76.5-39.75-14.25-121.5-41.25-141.75c-27-19.5-48-24-74.25,11.25h0Zm0,0"/>
    <path class="cls-3" d="M1520.16,1322.25c6-3.75,29.25,30,29.25,30,0,0-6.75,33,30.75,97.5,0,0,28.5,24.75,17.25,88.5,0,0,51.75-21.75,74.25-11.25,0,0-13.5-22.5-14.25-33.75,0-11.25,11.25-129-27.75-204-39-75-77.25-132-77.25-132,0,0-144.75,22.5-32.25,165h0Zm0,0"/>
    <path class="cls-3" d="M1055.16,1268.25s-115.5,222.75-116.25,309.75c0,0,49.5,9.75,51.75,34.5,0,0,46.5-110.25,69.75-133.5,23.25-24,72.75-127.5,84-165,11.25-38.25-48-42.75-89.25-45.75h0Zm0,0"/>
    <path class="cls-6" d="M1159.41,1107.75c65.25,2.25,116.25,57,114,122.25s-57.75,116.25-123,114-116.25-57-114-122.25,57.75-116.25,123-114h0Zm0,0"/>
    <path class="cls-3" d="M1206.66,930.75l-3.75-15s-55.5,90-77.25,112.5c0,0,19.5,30,41.25,71.25,0,0,3-6,10.5-5.25s52.5,42.75,52.5,42.75c0,0,15,42-23.25,17.25-37.5-24-54.75-27-42,17.25,12.75,45,11.25,60,3,60.75-8.25,0-34.5-76.5-34.5-76.5v85.5s-17.25,13.5-18.75-6.75c-1.5-19.5-9-74.25-9-74.25,0,0-21,32.25-27.75,69.75,0,0-7.5,10.5-11.25,0-3-9.75,2.25-59.25,10.5-70.5,0,0-9.75-12-30.75,32.25,0,0-10.5-2.25-6.75-11.25,4.5-9,21-54,33-63.75,11.25-10.5,9-34.5,9-34.5,0,0-42-26.25-39.75-46.5,2.25-21,78-154.5,109.5-175.5,0,0,19.5-105,87.75-107.25l45,12,20.25,69-52.5,128.25s-33.75,7.5-39.75,11.25-9-1.5-5.25-42.75h0Zm0,0"/>
    <path class="cls-3" d="M1508.91,956.25s59.25,82.5,68.25,116.25c9,33.75,33.75,76.5,5.25,115.5,0,0-36-9.75-36,22.5l10.5,3.75s-1.5,32.25,18,24,23.25-12,23.25-12c0,0-27,34.5-5.25,30.75s27-5.25,27-5.25l-26.25,15.75s7.5,15,10.5,15c3.75,.75,15,7.5,25.5,6.75s14.25,12.75,14.25-3.75,5.25-12.75-.75-24c-6-10.5-8.25,.75-9.75-22.5-2.25-23.25,24-73.5,24-73.5,0,0-9-86.25-24.75-131.25-15.75-45.75-36.75-75-35.25-102,.75-27.75-27-116.25-84.75-144l-44.25,49.5-2.25,92.25s-40.5,36,42.75,26.25h0Zm0,0"/>
    <path class="cls-1" d="M1337.91,741s-76.5-12-99,12c0,0,50.25-3,32.25,99.75-18,103.5-63.75,117.75-59.25,69.75,0,0-28.5,29.25,0,63.75,0,0-30,35.25-30,57.75-.75,22.5-24,18.75-18,46.5,5.25,28.5,46.5,31.5,63,48s54.75,60,27,150c0,0-26.25,36-45.75,40.5,0,0,30.75,31.5,59.25,3.75,27.75-27,103.5-141,103.5-141,0,0,51.75,68.25,60,101.25,8.25,33,54,78,102.75,36.75,0,0-42.75-62.25-42-89.25,1.5-26.25-9.75-56.25,90.75-52.5,0,0-3.75-33.75-13.5-90-9.75-56.25-26.25-53.25-26.25-53.25,0,0,15.75-11.25,10.5-30.75-5.25-18.75-24-15-24-21-.75-6.75-15-19.5-16.5-28.5-1.5-9.75-30.75-33.75-9-105,21.75-70.5,19.5-75,19.5-75,0,0-34.5-29.25-67.5-24-33,5.25-51,257.25-117.75-19.5h0Zm0,0"/>
    <path class="cls-10" d="M1337.91,741s-76.5-12-99,12c0,0,50.25-3,32.25,99.75-18,103.5-63.75,117.75-59.25,69.75,0,0-28.5,29.25,0,63.75,0,0-30,35.25-30,57.75-.75,22.5-24,18.75-18,46.5,5.25,28.5,46.5,31.5,63,48s54.75,60,27,150c0,0-26.25,36-45.75,40.5,0,0,30.75,31.5,59.25,3.75,27.75-27,103.5-141,103.5-141,0,0,51.75,68.25,60,101.25,8.25,33,54,78,102.75,36.75,0,0-42.75-62.25-42-89.25,1.5-26.25-9.75-56.25,90.75-52.5,0,0-3.75-33.75-13.5-90-9.75-56.25-26.25-53.25-26.25-53.25,0,0,15.75-11.25,10.5-30.75-5.25-18.75-24-15-24-21-.75-6.75-15-19.5-16.5-28.5-1.5-9.75-30.75-33.75-9-105,21.75-70.5,19.5-75,19.5-75,0,0-34.5-29.25-67.5-24-33,5.25-51,257.25-117.75-19.5h0Zm0,0"/>
    <path class="cls-2" d="M1337.91,741s-16.5,69,2.25,108c0,0,12,73.5,25.5,82.5,12.75,9.75,40.5,7.5,40.5,7.5,0,0,38.25-64.5,41.25-92.25,3.75-27.75-3.75-45-3.75-45,0,0-69.75-72.75-105.75-60.75h0Zm0,0"/>
    <path class="cls-3" d="M1308.66,688.5s-24.75,52.5,29.25,52.5c0,0,8.25,42.75,27.75,63.75,18.75,20.25,39.75,42,71.25,22.5,0,0,27.75-25.5,37.5-56.25,9.75-31.5,27.75-54.75,21-71.25-7.5-16.5-107.25-91.5-186.75-11.25h0Zm0,0"/>
    <path class="cls-7" d="M1397.16,667.5s-41.25,52.5-63.75,56.25c0,0-6.75-47.25-24.75-35.25,0,0-25.5-82.5,39-108,65.25-24.75,148.5-6.75,159.75,51.75,11.25,58.5,5.25,68.25-10.5,79.5,0,0-58.5,18.75-82.5-29.25l-11.25-19.5-6,4.5Zm0,0"/>
    <path class="cls-10" d="M1397.16,667.5s-41.25,52.5-63.75,56.25c0,0-6.75-47.25-24.75-35.25,0,0-25.5-82.5,39-108,65.25-24.75,148.5-6.75,159.75,51.75,11.25,58.5,5.25,68.25-10.5,79.5,0,0-58.5,18.75-82.5-29.25l-11.25-19.5-6,4.5Zm0,0"/>
    <path class="cls-7" d="M3074.91,1629s-31.5,56.25-29.25,74.25c1.5,17.25,21,30,21,30,0,0,3.75,6,19.5-11.25,15.75-18,42.75-65.25,58.5-53.25,15,11.25,33.75-6,33.75-6l-.75-57s-75,.75-102.75,23.25h0Zm0,0"/>
    <path class="cls-10" d="M3074.91,1629s-31.5,56.25-29.25,74.25c1.5,17.25,21,30,21,30,0,0,3.75,6,19.5-11.25,15.75-18,42.75-65.25,58.5-53.25,15,11.25,33.75-6,33.75-6l-.75-57s-75,.75-102.75,23.25h0Zm0,0"/>
    <path class="cls-3" d="M2934.66,711.75s-7.5,0-21.75,4.5c0,0,10.5-6,15-17.25,4.5-10.5,3-73.5,3-73.5,0,0,30.75-57.75,26.25-70.5,0,0,24-21,36.75-30,12.75-9.75,6-3,6-3,0,0,10.5-19.5,8.25-26.25-1.5-6,0,4.5,0,4.5,0,0,6-48,9.75-60.75,4.5-12.75,10.5-45.75,10.5-45.75,0,0,3-24-12.75-9.75-15.75,13.5-19.5,21.75-21,31.5-.75,9-6.75,3.75-6.75,3.75,0,0-4.5-17.25-9-33.75-3.75-17.25-35.25,48-33,66,2.25,17.25-22.5,75.75-22.5,75.75,0,0-60,104.25-69,120-8.25,15.75-17.25,81.75-26.25,84.75-8.25,3.75-18.75,71.25,121.5,69,140.25-3,48.75-45.75-15-89.25h0Zm0,0"/>
    <path class="cls-3" d="M3460.41,566.25s105-69,113.25-78c9-8.25,59.25-54,78-63.75,19.5-10.5,106.5-62.25,114-73.5,6.75-10.5,12-98.25,98.25-113.25,0,0-26.25,33.75-27.75,42.75l40.5-21.75,5.25,4.5s-27.75,26.25-41.25,39.75-27.75,66.75-27.75,66.75l-18.75,9c-95.25,143.25-159.75,138.75-212.25,193.5-30.75,31.5-88.5,64.5-87,66.75s-74.25-39.75-34.5-72.75h0Zm0,0"/>
    <path class="cls-7" d="M2958.66,1632s1.5-28.5-20.25-35.25c-21-6.75-65.25,12-73.5,75,0,0-51,27-50.25,65.25,1.5,38.25,13.5,93,47.25,76.5,34.5-16.5,23.25-35.25,63-65.25,39.75-30.75,50.25-61.5,50.25-61.5,0,0-43.5-6.75-16.5-54.75h0Zm0,0"/>
    <path class="cls-10" d="M2958.66,1632s1.5-28.5-20.25-35.25c-21-6.75-65.25,12-73.5,75,0,0-51,27-50.25,65.25,1.5,38.25,13.5,93,47.25,76.5,34.5-16.5,23.25-35.25,63-65.25,39.75-30.75,50.25-61.5,50.25-61.5,0,0-43.5-6.75-16.5-54.75h0Zm0,0"/>
    <path class="cls-3" d="M3174.66,1445.25s-31.5,70.5-30,81c0,0-79.5-7.5-135,51-55.5,57.75-77.25,60.75-77.25,60.75,0,0-21.75,88.5,29.25,65.25s56.25-60.75,147.75-69.75c92.25-9.75,117-39,143.25-77.25,27-38.25,51-83.25,51-83.25,0,0-79.5-72.75-129-27.75h0Zm0,0"/>
    <path class="cls-3" d="M3344.91,1398s-12.75,83.25-1.5,109.5c0,0-33.75-11.25-74.25-6-40.5,6-129.75,109.5-129.75,109.5,0,0,.75,30.75,38.25,25.5s48.75-33.75,141.75-42c92.25-9,102.75-9.75,120.75-59.25,18.75-48.75,35.25-64.5,33-84.75-1.5-20.25-104.25-101.25-104.25-101.25,0,0-29.25,9.75-24,48.75h0Zm0,0"/>
    <path class="cls-7" d="M3241.41,1084.5l-30,33,21.75,51s-49.5,243-65.25,269.25c0,0,60.75,78,167.25,58.5,0,0-4.5-75,24.75-101.25,0,0,20.25,54.75,44.25,70.5,24,16.5,66,5.25,66,5.25,0,0,51-132.75,51-195.75s0-70.5,2.25-80.25c3-9.75-20.25-61.5-26.25-73.5s-123-13.5-255.75-36.75h0Zm0,0"/>
    <path class="cls-10" d="M3241.41,1084.5l-30,33,21.75,51s-49.5,243-65.25,269.25c0,0,60.75,78,167.25,58.5,0,0-4.5-75,24.75-101.25,0,0,20.25,54.75,44.25,70.5,24,16.5,66,5.25,66,5.25,0,0,51-132.75,51-195.75s0-70.5,2.25-80.25c3-9.75-20.25-61.5-26.25-73.5s-123-13.5-255.75-36.75h0Zm0,0"/>
    <path class="cls-3" d="M3249.66,1018.5s-18,48-6,69.75c12,21.75,165.75,63.75,261.75,51,0,0,6.75-21.75-6-50.25-12.75-28.5-18.75-47.25-1.5-83.25l-187.5,2.25s-48-16.5-60.75,10.5h0Zm0,0"/>
    <path class="cls-1" d="M3170.16,681l-45.75,3.75s-68.25,17.25-69.75,37.5c0,0-34.5-3-37.5-10.5h-83.25s12.75,97.5,3.75,120c0,0,166.5,1.5,173.25,12,6,10.5,90.75,162,90.75,201,0,0,30,13.5,48.75-14.25,0,0,85.5,38.25,154.5,4.5,68.25-33,84.75-22.5,82.5,10.5l26.25-31.5s-8.25-79.5-37.5-114c0,0,12.75-55.5-22.5-96,0,0-26.25-67.5-4.5-140.25,0,0,43.5-15,56.25-30,0,0-17.25-27-18-42.75,0-16.5-31.5-52.5-31.5-52.5,0,0-35.25,35.25-92.25,57-56.25,21.75-105,72-105,72,0,0-51.75-29.25-88.5,13.5h0Zm0,0"/>
    <path class="cls-3" d="M3107.91,642s42.75,12,48.75,20.25c6.75,8.25,13.5,18.75,13.5,18.75,0,0,54.75,5.25,64.5,12.75,0,0,38.25,4.5,45.75-28.5,0,0-15.75-3.75-15-27,.75-24,6.75-24,6.75-24,0,0-13.5-41.25-26.25-50.25l-5.25-17.25-22.5-13.5s2.25-12.75-23.25-21c-24.75-7.5-57-.75-57-.75,0,0-29.25,14.25-25.5,31.5,3,16.5-26.25,67.5-4.5,99h0Zm0,0"/>
    <path class="cls-7" d="M3194.91,512.25s-82.5,4.5-69.75,39.75l15.75,9-1.5,33.75s-45,12-31.5,47.25c0,0-24.75-10.5-24.75-40.5s29.25-156,111.75-89.25h0Zm0,0"/>
    <path class="cls-7" d="M3584.91,0c54,0,97.5,43.5,97.5,98.25s-43.5,97.5-97.5,97.5-98.25-43.5-98.25-97.5S3530.16,0,3584.91,0h0Zm0,0"/>
  </g>
  <g class="cls-16">
    <g class="cls-13">
      <path class="cls-20" d="M1421.53,977.7c.03-3.6,.32-7.17,.73-10.75,.28-2.38,.75-4.73,1.13-7.09,.11-.66,.34-.7,.86-.5,2.68,.99,5.46,1.59,8.28,1.89,2.61,.28,5.24,.34,7.89,.12,2.85-.25,5.62-.73,8.35-1.54,4.42-1.31,8.45-3.4,12.18-6.09,1.11-.81,2.21-1.64,3.19-2.61,.26-.26,.43-.32,.75-.03,4.27,3.79,9.22,6.42,14.58,8.27,5.13,1.77,10.46,2.28,15.84,1.91,2.72-.19,5.39-.84,8-1.67,1.23-.39,1.44-.22,1.58,1.07,.52,4.73,1.05,9.47,.92,14.24-.09,3.34-.35,6.66-.7,9.99-.45,4.35-1.21,8.63-2.29,12.86-1.45,5.68-3.39,11.18-5.96,16.46-2.66,5.48-5.92,10.57-9.75,15.28-2.75,3.38-5.78,6.51-9.11,9.34-4.02,3.41-8.24,6.54-12.79,9.21-.52,.3-.92,.3-1.39,.03-4.4-2.58-8.58-5.48-12.49-8.78-2.62-2.2-5.16-4.49-7.51-6.98-2.99-3.16-5.75-6.5-8.25-10.07-2.29-3.26-4.32-6.65-6.1-10.2-2.95-5.86-5.05-12.02-6.36-18.44-.59-2.89-1.03-5.82-1.23-8.78-.16-2.37-.39-4.74-.36-7.12m57.08-8.66h-.18c0-1.51-.03-3.02,.02-4.52,.02-.65-.21-.91-.81-1.14-4.59-1.83-8.84-4.24-12.53-7.55-.48-.43-.75-.35-1.17,.04-1.41,1.3-2.91,2.49-4.5,3.56-2.96,2-6.11,3.62-9.49,4.78-.35,.12-.74,.13-.72,.77,.13,4.9,.22,9.79,.27,14.69,0,.78,.17,1.13,.99,.89,.18-.05,.37-.07,.55-.11,4.35-.95,8.5-2.45,12.47-4.46,.49-.25,.89-.27,1.4-.04,2.77,1.19,5.58,2.29,8.48,3.14,1.33,.39,2.66,.72,4.04,.92,.88,.13,1.21-.11,1.19-1.07-.06-3.29-.02-6.59-.02-9.89m-41.82,13.61c3.04,.03,6.4-.35,9.71-1.18,.72-.18,1.01-.47,.98-1.28-.17-4.8-.29-9.61-.4-14.41-.02-.69-.26-.66-.8-.53-2.57,.62-5.18,1-7.83,1.13-3.57,.17-7.1-.08-10.58-.94-.47-.12-.69-.11-.7,.46,0,.66-.11,1.31-.15,1.97-.25,4.35-.72,8.71,0,13.06,.09,.57,.19,.86,.85,.98,2.83,.48,5.67,.74,8.92,.74m63.55,2.77q.01-.6-.71-.55c-.81,.06-1.63,.15-2.44,.18-4.57,.16-9.12-.12-13.64-.78-6.24-.92-12.29-2.57-18.08-5.12-.58-.25-1.07-.23-1.62,0-2.65,1.07-5.35,2.03-8.09,2.84-6.08,1.79-12.27,2.95-18.62,3.1-3.02,.07-6.04,.12-9.02-.53-.36-.08-.67-.1-.62,.48,.21,2.59,.42,5.18,.85,7.75,1.44,8.74,4.6,16.8,9.4,24.23,3.99,6.17,8.86,11.56,14.49,16.27,3.53,2.95,7.28,5.58,11.31,7.82,.58,.33,1.04,.38,1.64,.01,1.94-1.17,3.84-2.39,5.69-3.7,4.92-3.49,9.38-7.47,13.27-12.09,3.66-4.35,6.75-9.07,9.24-14.17,2-4.1,3.55-8.38,4.71-12.79,1.11-4.22,1.83-8.52,2.24-12.95m-19.64-12.72h.05c0,2.42,0,4.84,0,7.26,0,.54,.12,.92,.74,.97,.94,.07,1.85,.32,2.78,.47,4.59,.73,9.19,.94,13.82,.71,2.78-.14,2.83-.13,2.95-2.93,.19-4.55,.09-9.11,.04-13.67,0-.75-.3-.96-.97-.77-1.57,.44-3.19,.64-4.8,.85-4.63,.59-9.22,.35-13.76-.69-.7-.16-.87-.08-.86,.63,.03,2.39,.01,4.78,.01,7.16"/>
      <path class="cls-8" d="M1478.61,969.04c0,3.3-.04,6.59,.02,9.89,.02,.96-.31,1.2-1.19,1.07-1.37-.2-2.71-.53-4.04-.92-2.9-.85-5.71-1.94-8.48-3.14-.52-.22-.91-.21-1.4,.04-3.97,2.01-8.12,3.51-12.47,4.46-.18,.04-.37,.06-.55,.11-.82,.24-.98-.11-.99-.89-.05-4.9-.14-9.8-.27-14.69-.02-.64,.37-.65,.72-.77,3.38-1.16,6.53-2.78,9.49-4.78,1.59-1.07,3.09-2.26,4.5-3.56,.42-.39,.7-.47,1.17-.04,3.69,3.31,7.94,5.72,12.53,7.55,.59,.24,.83,.49,.81,1.14-.05,1.51-.02,3.02-.02,4.52h.18Zm-14.29-5.85c-1.29-.09-2.43,.28-3.19,1.4-1.03,1.53-.17,3.27,1.86,3.86,.84,.24,1.7,.45,2.53,.75,.64,.23,.89,.76,.51,1.36-.62,.98-2.93,.72-3.43-.35-.3-.64-1.32-1.1-1.85-.71-.65,.48-.14,1.09,.08,1.59,.2,.46,.58,.83,1.03,1.08,1.61,.88,3.26,.89,4.89,.12,1.14-.54,1.65-1.57,1.48-2.79-.15-1.17-.91-1.82-1.99-2.13-.9-.26-1.82-.5-2.72-.77-.42-.12-.76-.37-.73-.86,.03-.46,.35-.7,.77-.85,.93-.32,1.72-.05,2.26,.81,.27,.42,1.39,.76,1.81,.45,.53-.4,.2-.92-.01-1.34-.67-1.35-1.89-1.64-3.28-1.6"/>
      <path class="cls-19" d="M1436.79,982.65c-3.25,0-6.09-.26-8.92-.74-.66-.11-.75-.41-.85-.98-.71-4.36-.24-8.71,0-13.06,.04-.66,.14-1.31,.15-1.97,0-.57,.22-.58,.7-.46,3.48,.85,7.02,1.11,10.58,.94,2.64-.13,5.25-.52,7.83-1.13,.54-.13,.78-.16,.8,.53,.1,4.81,.22,9.61,.4,14.41,.03,.81-.26,1.1-.98,1.28-3.31,.84-6.68,1.22-9.71,1.18m-3.59-8.51c.1,2.57,.71,3.79,2,4.63,2.49,1.62,5.79,.47,6.48-2.25,.07-.26,.23-.55-.07-.77-.47-.34-1.74,.04-1.95,.59-.32,.84-.89,1.36-1.81,1.4-.97,.05-1.75-.33-2.16-1.22-.62-1.33-.61-2.69,.16-3.96,.8-1.33,2.8-1.31,3.65-.01,.34,.51,1.47,.85,2.01,.62,.26-.11,.18-.27,.14-.45-.2-.97-.7-1.74-1.57-2.24-1.54-.89-3.14-.91-4.67-.04-1.67,.96-2.21,2.56-2.2,3.72"/>
      <path class="cls-12" d="M1500.34,985.43c-.42,4.43-1.13,8.72-2.24,12.95-1.17,4.42-2.71,8.69-4.71,12.79-2.49,5.1-5.58,9.82-9.24,14.17-3.89,4.62-8.35,8.61-13.27,12.09-1.85,1.31-3.75,2.53-5.69,3.7-.6,.36-1.06,.31-1.64-.01-4.03-2.24-7.78-4.87-11.31-7.82-5.63-4.71-10.5-10.1-14.49-16.27-4.8-7.44-7.96-15.5-9.4-24.23-.42-2.57-.64-5.16-.85-7.75-.05-.59,.26-.56,.62-.48,2.98,.65,6,.6,9.02,.53,6.35-.15,12.54-1.31,18.62-3.1,2.75-.81,5.44-1.76,8.09-2.84,.55-.22,1.04-.25,1.62,0,5.78,2.55,11.84,4.19,18.08,5.12,4.52,.67,9.07,.94,13.64,.78,.82-.03,1.63-.12,2.44-.18q.73-.06,.71,.55m-1.5,1.93c0-.64,.21-1.21-.67-1.13-4.41,.42-8.8,.08-13.17-.45-5.79-.7-11.49-1.92-16.86-4.18-2.52-1.06-4.59-.98-7.11-.02-6.8,2.59-13.87,4.21-21.18,4.68-3.3,.21-6.61,.29-9.89-.11-1-.12-1.13,.14-1.04,.97,.36,3.65,.93,7.26,1.84,10.83,2.75,10.78,8.19,20.07,15.74,28.15,5.01,5.36,10.7,9.89,17.09,13.53,.57,.32,.98,.34,1.54,0,3.2-1.95,6.25-4.09,9.16-6.46,5.01-4.08,9.36-8.76,13-14.08,4.24-6.2,7.31-12.95,9.32-20.18,1.07-3.84,1.8-7.75,2.24-11.55"/>
      <path class="cls-15" d="M1480.7,972.7c0-2.39,.02-4.78-.01-7.16,0-.72,.16-.79,.86-.63,4.54,1.04,9.13,1.28,13.76,.69,1.62-.21,3.23-.41,4.8-.85,.67-.19,.96,.03,.97,.77,.04,4.56,.15,9.11-.04,13.67-.12,2.8-.17,2.79-2.95,2.93-4.63,.24-9.24,.02-13.82-.71-.93-.15-1.84-.4-2.78-.47-.62-.05-.74-.43-.74-.97,.01-2.42,0-4.84,0-7.26h-.05Zm13.72,.68c.09,.02,.19,.04,.28,.06,0,1.49,.06,2.99-.02,4.48-.05,.96,.55,.74,1.08,.79,.63,.06,.88-.12,.86-.82-.05-2.07-.03-4.15-.02-6.22,0-2.1,0-2.08-2.1-2.1-.55,0-.81,.11-.98,.71-.5,1.76-1.11,3.48-1.73,5.36-.63-1.18-.94-2.32-1.27-3.45-.79-2.68-.8-2.71-3.17-2.61-.03,0-.06,0-.09,0-.44-.08-.54,.16-.54,.54,0,2.67,0,5.34,0,8.01,0,.37,.1,.55,.53,.58,1.36,.09,1.39,.08,1.4-1.31,0-1.33,0-2.65,0-4.02,.51,.1,.51,.44,.59,.67,.45,1.23,.89,2.46,1.29,3.71,.19,.59,.39,.97,1.13,.96,.71,0,1.02-.29,1.15-.93,.09-.42,.22-.85,.4-1.24,.46-1.03,.64-2.19,1.22-3.17"/>
      <path class="cls-20" d="M1464.32,963.19c1.39-.04,2.61,.25,3.28,1.6,.21,.42,.55,.94,.01,1.34-.41,.31-1.54-.03-1.81-.45-.54-.86-1.33-1.13-2.26-.81-.42,.15-.74,.38-.77,.85-.03,.49,.3,.74,.73,.86,.9,.26,1.82,.5,2.72,.77,1.08,.32,1.83,.97,1.99,2.13,.16,1.23-.34,2.25-1.48,2.79-1.63,.78-3.28,.77-4.89-.12-.45-.25-.83-.62-1.03-1.08-.22-.5-.73-1.11-.08-1.59,.53-.39,1.55,.08,1.85,.71,.5,1.08,2.81,1.33,3.43,.35,.38-.6,.13-1.13-.51-1.36-.82-.3-1.68-.51-2.53-.75-2.03-.59-2.89-2.33-1.86-3.86,.76-1.12,1.9-1.48,3.19-1.4"/>
      <path class="cls-20" d="M1433.2,974.15c-.01-1.16,.53-2.76,2.2-3.72,1.52-.87,3.12-.86,4.67,.04,.87,.5,1.36,1.27,1.57,2.24,.04,.18,.13,.34-.14,.45-.54,.23-1.68-.11-2.01-.62-.85-1.3-2.85-1.32-3.65,.01-.77,1.27-.78,2.63-.16,3.96,.41,.88,1.19,1.26,2.16,1.22,.92-.05,1.49-.56,1.81-1.4,.21-.54,1.48-.93,1.95-.59,.3,.22,.13,.51,.07,.77-.69,2.72-3.99,3.87-6.48,2.25-1.28-.83-1.89-2.05-2-4.63"/>
      <path class="cls-20" d="M1498.84,987.36c-.45,3.79-1.17,7.7-2.24,11.55-2.01,7.23-5.08,13.98-9.32,20.18-3.64,5.32-7.99,10-13,14.08-2.91,2.37-5.96,4.51-9.16,6.46-.56,.34-.97,.33-1.54,0-6.39-3.65-12.08-8.17-17.09-13.53-7.55-8.09-12.99-17.37-15.74-28.15-.91-3.57-1.48-7.18-1.84-10.83-.08-.83,.04-1.09,1.04-.97,3.28,.4,6.58,.32,9.89,.11,7.31-.47,14.37-2.09,21.18-4.68,2.52-.96,4.59-1.04,7.11,.02,5.37,2.26,11.08,3.49,16.86,4.18,4.37,.53,8.76,.87,13.17,.45,.88-.08,.68,.48,.67,1.13m-40.38,8.55c0,.88-.1,1.77,.02,2.63,.63,4.76,2.35,9.15,4.58,13.36,.26,.5,.51,.92,1.24,.94,.76,.02,1.05-.38,1.36-.92,2.28-4.03,3.84-8.29,4.31-12.92,.55-5.32-.7-10.14-3.91-14.43-1.4-1.86-1.52-1.86-3.19-.24-3.26,3.17-4.56,7.11-4.4,11.57m-12.97,2.3c-.64-.12-1.27-.11-2.38,.32-1.26,.5-2.45,1.14-3.47,2.02-2.23,1.95-2.96,4.38-1.94,6.72,.94,2.17,2.69,3.59,4.65,4.79,.52,.32,.64,.02,.75-.41,.32-1.19,.79-2.32,1.42-3.38,1.05-1.77,2.52-2.8,4.67-2.45,1.77,.29,3.21,1.27,4.51,2.42,1.37,1.2,2.88,2.31,3.99,3.77,.51,.67,.94,.27,1.49,.09,.55-.17-1.21-.85-1.3-1.28-.59-2.75-.7-4.89-2.22-7.29-2.38-3.76-4.63-5.12-9.76-5.3m44.66,6.84c.09-.98-.34-1.99-.97-2.91-1.12-1.64-2.68-2.81-4.37-3.8-.67-.39-1.26-.66-2.09-.72-4.07-.32-7.47,.76-10.16,3.83-2.63,3-3.29,5.68-4.12,9.48-.05,.24-.6,1.17-.27,1.19,.68,.04,1.35,.73,1.9-.03,.46-.63,.97-1.23,1.51-1.8,1.67-1.76,3.44-3.4,5.78-4.27,1.86-.7,3.75-.17,4.98,1.41,.99,1.26,1.54,2.72,2.01,4.23,.15,.49,.3,.7,.84,.35,1.28-.82,2.45-1.77,3.43-2.92,.93-1.1,1.56-2.35,1.55-4.02m-21.38,23.81c.02-4.55-1.72-7.6-4.19-10.32-.29-.32-.55-.35-.87-.05-2.78,2.56-4.7,5.59-4.72,9.48-.02,4,2.05,7.07,4.71,9.83,.41,.43,.7,.23,1.01-.12,2.42-2.73,3.98-5.84,4.07-8.82m-4.91-11.96c1.79,0,3.58,0,5.38,0,2.2,0,2.17,0,2.19-2.24,0-.78-.27-.93-.98-.93-4.06,.03-8.11,.01-12.17,.02-2.2,0-2.18,0-2.16,2.26,0,.72,.27,.91,.95,.91,2.26-.03,4.53-.01,6.79-.01m9.35,8.7c1.59,0,3.95-.58,5.36-1.31,.28-.14,.55-.26,.6-.65,.08-.59,.24-1.17,.35-1.75,.11-.54-.07-.66-.6-.48-.8,.26-1.63,.48-2.45,.65-2.46,.49-5.49,.05-6.4-3.36-.09-.35-.33-.43-.64-.42-.38,0-.76,.02-1.13,0-.48-.03-.67,.15-.66,.65,0,.89,.14,1.75,.36,2.6,.7,2.75,2.41,4.09,5.22,4.08m-25.92-4.4c.16,.82,.32,1.45,.4,2.1,.08,.6,.37,.9,.93,1.13,1.28,.54,2.59,.97,3.97,1.12,1.48,.16,2.96,.15,4.25-.78,2.04-1.47,2.3-3.68,2.44-5.94,0-.14-.06-.32-.16-.42-.47-.46-2.14-.03-2.35,.59-.73,2.09-2.26,3.15-4.47,3.23-1.7,.06-3.27-.47-5.02-1.02"/>
      <path class="cls-20" d="M1494.42,973.38c-.57,.99-.75,2.14-1.22,3.17-.18,.4-.31,.82-.4,1.24-.14,.65-.45,.92-1.15,.93-.74,0-.95-.37-1.13-.96-.39-1.25-.83-2.48-1.29-3.71-.08-.23-.09-.57-.59-.67,0,1.37,0,2.69,0,4.02,0,1.39-.04,1.4-1.4,1.31-.43-.03-.53-.2-.53-.58,0-2.67,0-5.34,0-8.01,0-.38,.09-.62,.54-.54,.03,0,.06,0,.09,0,2.37-.1,2.39-.07,3.17,2.61,.33,1.13,.64,2.27,1.27,3.45,.61-1.88,1.23-3.6,1.73-5.36,.17-.6,.44-.72,.98-.71,2.11,.01,2.1,0,2.1,2.1,0,2.07-.03,4.15,.02,6.22,.02,.7-.23,.88-.86,.82-.53-.05-1.13,.17-1.08-.79,.08-1.49,.02-2.98,.02-4.48-.09-.02-.19-.04-.28-.06"/>
      <path class="cls-8" d="M1458.46,995.91c-.15-4.46,1.15-8.4,4.4-11.57,1.67-1.63,1.79-1.63,3.19,.24,3.21,4.29,4.46,9.11,3.91,14.43-.48,4.64-2.03,8.9-4.31,12.92-.31,.54-.6,.93-1.36,.92-.73-.02-.97-.43-1.24-.94-2.22-4.22-3.95-8.61-4.57-13.36-.11-.86-.02-1.75-.02-2.63"/>
      <path class="cls-8" d="M1445.48,998.14c5.13,.18,8.57,1.3,10.36,5.38,1.09,2.49,1.89,5.01,3.54,7.77,.22,.38,.36,.64-.19,.81-.55,.18-.89,.5-1.4-.17-1.11-1.46-2.71-2.49-4.08-3.69-1.3-1.14-2.74-2.13-4.51-2.42-2.15-.35-3.63,.68-4.67,2.45-.62,1.06-1.1,2.19-1.42,3.38-.12,.43-.24,.73-.75,.41-1.96-1.2-3.71-2.63-4.65-4.79-1.02-2.35-.29-4.78,1.94-6.72,1.02-.89,2.07-1.57,3.37-1.96,1.2-.36,1.06-.33,1.82-.48"/>
      <path class="cls-8" d="M1490.56,1005.09c.02,1.67-.62,2.92-1.55,4.02-.98,1.16-2.14,2.11-3.43,2.92-.54,.34-.68,.13-.84-.35-.47-1.5-1.02-2.97-2.01-4.23-1.23-1.57-3.12-2.1-4.98-1.41-2.34,.88-4.1,2.51-5.78,4.27-.54,.57-1.05,1.17-1.51,1.8-.55,.75-1.18,.2-1.86,.16-.34-.02-.21-.26-.15-.5,.83-3.8,1.88-7.3,4.51-10.3,2.69-3.07,5.99-4.1,10.06-3.77,.83,.07,1.52,.27,2.19,.66,1.69,.99,3.25,2.16,4.37,3.8,.63,.92,1.06,1.93,.97,2.91"/>
      <path class="cls-8" d="M1469.17,1028.9c-.09,2.98-1.65,6.08-4.07,8.82-.31,.35-.6,.54-1.01,.12-2.66-2.76-4.73-5.83-4.71-9.83,.02-3.89,1.95-6.91,4.72-9.48,.33-.3,.58-.27,.88,.05,2.47,2.73,4.21,5.77,4.19,10.32"/>
      <path class="cls-12" d="M1464.26,1016.95c-2.26,0-4.53-.02-6.79,.01-.68,0-.94-.19-.95-.91-.01-2.25-.04-2.25,2.16-2.26,4.06,0,8.11,.01,12.17-.02,.71,0,.99,.14,.98,.93-.03,2.23,0,2.24-2.19,2.24-1.79,0-3.58,0-5.38,0"/>
      <path class="cls-12" d="M1473.61,1025.65c-2.81,0-4.52-1.33-5.22-4.08-.22-.85-.35-1.72-.36-2.6,0-.5,.18-.68,.66-.65,.38,.02,.75,.01,1.13,0,.31,0,.55,.08,.64,.42,.9,3.42,3.94,3.85,6.4,3.36,.83-.17,1.65-.38,2.45-.65,.53-.17,.71-.06,.6,.48-.12,.58-.27,1.16-.35,1.75-.05,.39-.32,.5-.6,.65-1.41,.73-3.76,1.31-5.36,1.31"/>
      <path class="cls-12" d="M1447.69,1021.25c1.75,.55,3.32,1.08,5.02,1.02,2.21-.08,3.74-1.13,4.47-3.23,.22-.62,1.88-1.05,2.35-.59,.1,.1,.16,.28,.16,.42-.14,2.25-.41,4.46-2.44,5.94-1.29,.93-2.77,.95-4.25,.78-1.38-.15-2.69-.58-3.97-1.12-.56-.23-.86-.53-.93-1.13-.08-.64-.24-1.28-.4-2.1"/>
    </g>
  </g>
  <g class="cls-9">
    <g class="cls-17">
      <path class="cls-20" d="M2388.32,702.45c.03-3.6,.32-7.17,.73-10.75,.28-2.38,.75-4.73,1.13-7.09,.11-.66,.34-.7,.86-.5,2.68,.99,5.46,1.59,8.28,1.89,2.61,.28,5.24,.34,7.89,.12,2.85-.25,5.62-.73,8.35-1.54,4.42-1.31,8.45-3.4,12.18-6.09,1.11-.81,2.21-1.64,3.19-2.61,.26-.26,.43-.32,.75-.03,4.27,3.79,9.22,6.42,14.58,8.27,5.13,1.77,10.46,2.28,15.84,1.91,2.72-.19,5.39-.84,8-1.67,1.23-.39,1.44-.22,1.58,1.07,.52,4.73,1.05,9.47,.92,14.24-.09,3.34-.35,6.66-.7,9.99-.45,4.35-1.21,8.63-2.29,12.86-1.45,5.68-3.39,11.18-5.96,16.46-2.66,5.48-5.92,10.57-9.75,15.28-2.75,3.38-5.78,6.51-9.11,9.34-4.02,3.41-8.24,6.54-12.79,9.21-.52,.3-.92,.3-1.39,.03-4.4-2.58-8.58-5.48-12.49-8.78-2.62-2.2-5.16-4.49-7.51-6.98-2.99-3.16-5.75-6.5-8.25-10.07-2.29-3.26-4.32-6.65-6.1-10.2-2.95-5.86-5.05-12.02-6.36-18.44-.59-2.89-1.03-5.82-1.23-8.78-.16-2.37-.39-4.74-.36-7.12m57.08-8.66h-.18c0-1.51-.03-3.02,.02-4.52,.02-.65-.21-.91-.81-1.14-4.59-1.83-8.84-4.24-12.53-7.55-.48-.43-.75-.35-1.17,.04-1.41,1.3-2.91,2.49-4.5,3.56-2.96,2-6.11,3.62-9.49,4.78-.35,.12-.74,.13-.72,.77,.13,4.9,.22,9.79,.27,14.69,0,.78,.17,1.13,.99,.89,.18-.05,.37-.07,.55-.11,4.35-.95,8.5-2.45,12.47-4.46,.49-.25,.89-.27,1.4-.04,2.77,1.19,5.58,2.29,8.48,3.14,1.33,.39,2.66,.72,4.04,.92,.88,.13,1.21-.11,1.19-1.07-.06-3.29-.02-6.59-.02-9.89m-41.82,13.61c3.04,.03,6.4-.35,9.71-1.18,.72-.18,1.01-.47,.98-1.28-.17-4.8-.29-9.61-.4-14.41-.02-.69-.26-.66-.8-.53-2.57,.62-5.18,1-7.83,1.13-3.57,.17-7.1-.08-10.58-.94-.47-.12-.69-.11-.7,.46,0,.66-.11,1.31-.15,1.97-.25,4.35-.72,8.71,0,13.06,.09,.57,.19,.86,.85,.98,2.83,.48,5.67,.74,8.92,.74m63.55,2.77q.01-.6-.71-.55c-.81,.06-1.63,.15-2.44,.18-4.57,.16-9.12-.12-13.64-.78-6.24-.92-12.29-2.57-18.08-5.12-.58-.25-1.07-.23-1.62,0-2.65,1.07-5.35,2.03-8.09,2.84-6.08,1.79-12.27,2.95-18.62,3.1-3.02,.07-6.04,.12-9.02-.53-.36-.08-.67-.1-.62,.48,.21,2.59,.42,5.18,.85,7.75,1.44,8.74,4.6,16.8,9.4,24.23,3.99,6.17,8.86,11.56,14.49,16.27,3.53,2.95,7.28,5.58,11.31,7.82,.58,.33,1.04,.38,1.64,.01,1.94-1.17,3.84-2.39,5.69-3.7,4.92-3.49,9.38-7.47,13.27-12.09,3.66-4.35,6.75-9.07,9.24-14.17,2-4.1,3.55-8.38,4.71-12.79,1.11-4.22,1.83-8.52,2.24-12.95m-19.64-12.72h.05c0,2.42,0,4.84,0,7.26,0,.54,.12,.92,.74,.97,.94,.07,1.85,.32,2.78,.47,4.59,.73,9.19,.94,13.82,.71,2.78-.14,2.83-.13,2.95-2.93,.19-4.55,.09-9.11,.04-13.67,0-.75-.3-.96-.97-.77-1.57,.44-3.19,.64-4.8,.85-4.63,.59-9.22,.35-13.76-.69-.7-.16-.87-.08-.86,.63,.03,2.39,.01,4.78,.01,7.16"/>
      <path class="cls-8" d="M2445.4,693.79c0,3.3-.04,6.59,.02,9.89,.02,.96-.31,1.2-1.19,1.07-1.37-.2-2.71-.53-4.04-.92-2.9-.85-5.71-1.94-8.48-3.14-.52-.22-.91-.21-1.4,.04-3.97,2.01-8.12,3.51-12.47,4.46-.18,.04-.37,.06-.55,.11-.82,.24-.98-.11-.99-.89-.05-4.9-.14-9.8-.27-14.69-.02-.64,.37-.65,.72-.77,3.38-1.16,6.53-2.78,9.49-4.78,1.59-1.07,3.09-2.26,4.5-3.56,.42-.39,.7-.47,1.17-.04,3.69,3.31,7.94,5.72,12.53,7.55,.59,.24,.83,.49,.81,1.14-.05,1.51-.02,3.02-.02,4.52h.18Zm-14.29-5.85c-1.29-.09-2.43,.28-3.19,1.4-1.03,1.53-.17,3.27,1.86,3.86,.84,.24,1.7,.45,2.53,.75,.64,.23,.89,.76,.51,1.36-.62,.98-2.93,.72-3.43-.35-.3-.64-1.32-1.1-1.85-.71-.65,.48-.14,1.09,.08,1.59,.2,.46,.58,.83,1.03,1.08,1.61,.88,3.26,.89,4.89,.12,1.14-.54,1.65-1.57,1.48-2.79-.15-1.17-.91-1.82-1.99-2.13-.9-.26-1.82-.5-2.72-.77-.42-.12-.76-.37-.73-.86,.03-.46,.35-.7,.77-.85,.93-.32,1.72-.05,2.26,.81,.27,.42,1.39,.76,1.81,.45,.53-.4,.2-.92-.01-1.34-.67-1.35-1.89-1.64-3.28-1.6"/>
      <path class="cls-19" d="M2403.57,707.4c-3.25,0-6.09-.26-8.92-.74-.66-.11-.75-.41-.85-.98-.71-4.36-.24-8.71,0-13.06,.04-.66,.14-1.31,.15-1.97,0-.57,.22-.58,.7-.46,3.48,.85,7.02,1.11,10.58,.94,2.64-.13,5.25-.52,7.83-1.13,.54-.13,.78-.16,.8,.53,.1,4.81,.22,9.61,.4,14.41,.03,.81-.26,1.1-.98,1.28-3.31,.84-6.68,1.22-9.71,1.18m-3.59-8.51c.1,2.57,.71,3.79,2,4.63,2.49,1.62,5.79,.47,6.48-2.25,.07-.26,.23-.55-.07-.77-.47-.34-1.74,.04-1.95,.59-.32,.84-.89,1.36-1.81,1.4-.97,.05-1.75-.33-2.16-1.22-.62-1.33-.61-2.69,.16-3.96,.8-1.33,2.8-1.31,3.65-.01,.34,.51,1.47,.85,2.01,.62,.26-.11,.18-.27,.14-.45-.2-.97-.7-1.74-1.57-2.24-1.54-.89-3.14-.91-4.67-.04-1.67,.96-2.21,2.56-2.2,3.72"/>
      <path class="cls-12" d="M2467.12,710.18c-.42,4.43-1.13,8.72-2.24,12.95-1.17,4.42-2.71,8.69-4.71,12.79-2.49,5.1-5.58,9.82-9.24,14.17-3.89,4.62-8.35,8.61-13.27,12.09-1.85,1.31-3.75,2.53-5.69,3.7-.6,.36-1.06,.31-1.64-.01-4.03-2.24-7.78-4.87-11.31-7.82-5.63-4.71-10.5-10.1-14.49-16.27-4.8-7.44-7.96-15.5-9.4-24.23-.42-2.57-.64-5.16-.85-7.75-.05-.59,.26-.56,.62-.48,2.98,.65,6,.6,9.02,.53,6.35-.15,12.54-1.31,18.62-3.1,2.75-.81,5.44-1.76,8.09-2.84,.55-.22,1.04-.25,1.62,0,5.78,2.55,11.84,4.19,18.08,5.12,4.52,.67,9.07,.94,13.64,.78,.82-.03,1.63-.12,2.44-.18q.73-.06,.71,.55m-1.5,1.93c0-.64,.21-1.21-.67-1.13-4.41,.42-8.8,.08-13.17-.45-5.79-.7-11.49-1.92-16.86-4.18-2.52-1.06-4.59-.98-7.11-.02-6.8,2.59-13.87,4.21-21.18,4.68-3.3,.21-6.61,.29-9.89-.11-1-.12-1.13,.14-1.04,.97,.36,3.65,.93,7.26,1.84,10.83,2.75,10.78,8.19,20.07,15.74,28.15,5.01,5.36,10.7,9.89,17.09,13.53,.57,.32,.98,.34,1.54,0,3.2-1.95,6.25-4.09,9.16-6.46,5.01-4.08,9.36-8.76,13-14.08,4.24-6.2,7.31-12.95,9.32-20.18,1.07-3.84,1.8-7.75,2.24-11.55"/>
      <path class="cls-15" d="M2447.48,697.45c0-2.39,.02-4.78-.01-7.16,0-.72,.16-.79,.86-.63,4.54,1.04,9.13,1.28,13.76,.69,1.62-.21,3.23-.41,4.8-.85,.67-.19,.96,.03,.97,.77,.04,4.56,.15,9.11-.04,13.67-.12,2.8-.17,2.79-2.95,2.93-4.63,.24-9.24,.02-13.82-.71-.93-.15-1.84-.4-2.78-.47-.62-.05-.74-.43-.74-.97,.01-2.42,0-4.84,0-7.26h-.05Zm13.72,.68c.09,.02,.19,.04,.28,.06,0,1.49,.06,2.99-.02,4.48-.05,.96,.55,.74,1.08,.79,.63,.06,.88-.12,.86-.82-.05-2.07-.03-4.15-.02-6.22,0-2.1,0-2.08-2.1-2.1-.55,0-.81,.11-.98,.71-.5,1.76-1.11,3.48-1.73,5.36-.63-1.18-.94-2.32-1.27-3.45-.79-2.68-.8-2.71-3.17-2.61-.03,0-.06,0-.09,0-.44-.08-.54,.16-.54,.54,0,2.67,0,5.34,0,8.01,0,.37,.1,.55,.53,.58,1.36,.09,1.39,.08,1.4-1.31,0-1.33,0-2.65,0-4.02,.51,.1,.51,.44,.59,.67,.45,1.23,.89,2.46,1.29,3.71,.19,.59,.39,.97,1.13,.96,.71,0,1.02-.29,1.15-.93,.09-.42,.22-.85,.4-1.24,.46-1.03,.64-2.19,1.22-3.17"/>
      <path class="cls-20" d="M2431.11,687.94c1.39-.04,2.61,.25,3.28,1.6,.21,.42,.55,.94,.01,1.34-.41,.31-1.54-.03-1.81-.45-.54-.86-1.33-1.13-2.26-.81-.42,.15-.74,.38-.77,.85-.03,.49,.3,.74,.73,.86,.9,.26,1.82,.5,2.72,.77,1.08,.32,1.83,.97,1.99,2.13,.16,1.23-.34,2.25-1.48,2.79-1.63,.78-3.28,.77-4.89-.12-.45-.25-.83-.62-1.03-1.08-.22-.5-.73-1.11-.08-1.59,.53-.39,1.55,.08,1.85,.71,.5,1.08,2.81,1.33,3.43,.35,.38-.6,.13-1.13-.51-1.36-.82-.3-1.68-.51-2.53-.75-2.03-.59-2.89-2.33-1.86-3.86,.76-1.12,1.9-1.48,3.19-1.4"/>
      <path class="cls-20" d="M2399.99,698.9c-.01-1.16,.53-2.76,2.2-3.72,1.52-.87,3.12-.86,4.67,.04,.87,.5,1.36,1.27,1.57,2.24,.04,.18,.13,.34-.14,.45-.54,.23-1.68-.11-2.01-.62-.85-1.3-2.85-1.32-3.65,.01-.77,1.27-.78,2.63-.16,3.96,.41,.88,1.19,1.26,2.16,1.22,.92-.05,1.49-.56,1.81-1.4,.21-.54,1.48-.93,1.95-.59,.3,.22,.13,.51,.07,.77-.69,2.72-3.99,3.87-6.48,2.25-1.28-.83-1.89-2.05-2-4.63"/>
      <path class="cls-20" d="M2465.63,712.11c-.45,3.79-1.17,7.7-2.24,11.55-2.01,7.23-5.08,13.98-9.32,20.18-3.64,5.32-7.99,10-13,14.08-2.91,2.37-5.96,4.51-9.16,6.46-.56,.34-.97,.33-1.54,0-6.39-3.65-12.08-8.17-17.09-13.53-7.55-8.09-12.99-17.37-15.74-28.15-.91-3.57-1.48-7.18-1.84-10.83-.08-.83,.04-1.09,1.04-.97,3.28,.4,6.58,.32,9.89,.11,7.31-.47,14.37-2.09,21.18-4.68,2.52-.96,4.59-1.04,7.11,.02,5.37,2.26,11.08,3.49,16.86,4.18,4.37,.53,8.76,.87,13.17,.45,.88-.08,.68,.48,.67,1.13m-40.38,8.55c0,.88-.1,1.77,.02,2.63,.63,4.76,2.35,9.15,4.58,13.36,.26,.5,.51,.92,1.24,.94,.76,.02,1.05-.38,1.36-.92,2.28-4.03,3.84-8.29,4.31-12.92,.55-5.32-.7-10.14-3.91-14.43-1.4-1.86-1.52-1.86-3.19-.24-3.26,3.17-4.56,7.11-4.4,11.57m-12.97,2.3c-.64-.12-1.27-.11-2.38,.32-1.26,.5-2.45,1.14-3.47,2.02-2.23,1.95-2.96,4.38-1.94,6.72,.94,2.17,2.69,3.59,4.65,4.79,.52,.32,.64,.02,.75-.41,.32-1.19,.79-2.32,1.42-3.38,1.05-1.77,2.52-2.8,4.67-2.45,1.77,.29,3.21,1.27,4.51,2.42,1.37,1.2,2.88,2.31,3.99,3.77,.51,.67,.94,.27,1.49,.09,.55-.17-1.21-.85-1.3-1.28-.59-2.75-.7-4.89-2.22-7.29-2.38-3.76-4.63-5.12-9.76-5.3m44.66,6.84c.09-.98-.34-1.99-.97-2.91-1.12-1.64-2.68-2.81-4.37-3.8-.67-.39-1.26-.66-2.09-.72-4.07-.32-7.47,.76-10.16,3.83-2.63,3-3.29,5.68-4.12,9.48-.05,.24-.6,1.17-.27,1.19,.68,.04,1.35,.73,1.9-.03,.46-.63,.97-1.23,1.51-1.8,1.67-1.76,3.44-3.4,5.78-4.27,1.86-.7,3.75-.17,4.98,1.41,.99,1.26,1.54,2.72,2.01,4.23,.15,.49,.3,.7,.84,.35,1.28-.82,2.45-1.77,3.43-2.92,.93-1.1,1.56-2.35,1.55-4.02m-21.38,23.81c.02-4.55-1.72-7.6-4.19-10.32-.29-.32-.55-.35-.87-.05-2.78,2.56-4.7,5.59-4.72,9.48-.02,4,2.05,7.07,4.71,9.83,.41,.43,.7,.23,1.01-.12,2.42-2.73,3.98-5.84,4.07-8.82m-4.91-11.96c1.79,0,3.58,0,5.38,0,2.2,0,2.17,0,2.19-2.24,0-.78-.27-.93-.98-.93-4.06,.03-8.11,.01-12.17,.02-2.2,0-2.18,0-2.16,2.26,0,.72,.27,.91,.95,.91,2.26-.03,4.53-.01,6.79-.01m9.35,8.7c1.59,0,3.95-.58,5.36-1.31,.28-.14,.55-.26,.6-.65,.08-.59,.24-1.17,.35-1.75,.11-.54-.07-.66-.6-.48-.8,.26-1.63,.48-2.45,.65-2.46,.49-5.49,.05-6.4-3.36-.09-.35-.33-.43-.64-.42-.38,0-.76,.02-1.13,0-.48-.03-.67,.15-.66,.65,0,.89,.14,1.75,.36,2.6,.7,2.75,2.41,4.09,5.22,4.08m-25.92-4.4c.16,.82,.32,1.45,.4,2.1,.08,.6,.37,.9,.93,1.13,1.28,.54,2.59,.97,3.97,1.12,1.48,.16,2.96,.15,4.25-.78,2.04-1.47,2.3-3.68,2.44-5.94,0-.14-.06-.32-.16-.42-.47-.46-2.14-.03-2.35,.59-.73,2.09-2.26,3.15-4.47,3.23-1.7,.06-3.27-.47-5.02-1.02"/>
      <path class="cls-20" d="M2461.21,698.13c-.57,.99-.75,2.14-1.22,3.17-.18,.4-.31,.82-.4,1.24-.14,.65-.45,.92-1.15,.93-.74,0-.95-.37-1.13-.96-.39-1.25-.83-2.48-1.29-3.71-.08-.23-.09-.57-.59-.67,0,1.37,0,2.69,0,4.02,0,1.39-.04,1.4-1.4,1.31-.43-.03-.53-.2-.53-.58,0-2.67,0-5.34,0-8.01,0-.38,.09-.62,.54-.54,.03,0,.06,0,.09,0,2.37-.1,2.39-.07,3.17,2.61,.33,1.13,.64,2.27,1.27,3.45,.61-1.88,1.23-3.6,1.73-5.36,.17-.6,.44-.72,.98-.71,2.11,.01,2.1,0,2.1,2.1,0,2.07-.03,4.15,.02,6.22,.02,.7-.23,.88-.86,.82-.53-.05-1.13,.17-1.08-.79,.08-1.49,.02-2.98,.02-4.48-.09-.02-.19-.04-.28-.06"/>
      <path class="cls-8" d="M2425.25,720.66c-.15-4.46,1.15-8.4,4.4-11.57,1.67-1.63,1.79-1.63,3.19,.24,3.21,4.29,4.46,9.11,3.91,14.43-.48,4.64-2.03,8.9-4.31,12.92-.31,.54-.6,.93-1.36,.92-.73-.02-.97-.43-1.24-.94-2.22-4.22-3.95-8.61-4.57-13.36-.11-.86-.02-1.75-.02-2.63"/>
      <path class="cls-8" d="M2412.26,722.89c5.13,.18,8.57,1.3,10.36,5.38,1.09,2.49,1.89,5.01,3.54,7.77,.22,.38,.36,.64-.19,.81-.55,.18-.89,.5-1.4-.17-1.11-1.46-2.71-2.49-4.08-3.69-1.3-1.14-2.74-2.13-4.51-2.42-2.15-.35-3.63,.68-4.67,2.45-.62,1.06-1.1,2.19-1.42,3.38-.12,.43-.24,.73-.75,.41-1.96-1.2-3.71-2.63-4.65-4.79-1.02-2.35-.29-4.78,1.94-6.72,1.02-.89,2.07-1.57,3.37-1.96,1.2-.36,1.06-.33,1.82-.48"/>
      <path class="cls-8" d="M2457.34,729.84c.02,1.67-.62,2.92-1.55,4.02-.98,1.16-2.14,2.11-3.43,2.92-.54,.34-.68,.13-.84-.35-.47-1.5-1.02-2.97-2.01-4.23-1.23-1.57-3.12-2.1-4.98-1.41-2.34,.88-4.1,2.51-5.78,4.27-.54,.57-1.05,1.17-1.51,1.8-.55,.75-1.18,.2-1.86,.16-.34-.02-.21-.26-.15-.5,.83-3.8,1.88-7.3,4.51-10.3,2.69-3.07,5.99-4.1,10.06-3.77,.83,.07,1.52,.27,2.19,.66,1.69,.99,3.25,2.16,4.37,3.8,.63,.92,1.06,1.93,.97,2.91"/>
      <path class="cls-8" d="M2435.96,753.65c-.09,2.98-1.65,6.08-4.07,8.82-.31,.35-.6,.54-1.01,.12-2.66-2.76-4.73-5.83-4.71-9.83,.02-3.89,1.95-6.91,4.72-9.48,.33-.3,.58-.27,.88,.05,2.47,2.73,4.21,5.77,4.19,10.32"/>
      <path class="cls-12" d="M2431.05,741.7c-2.26,0-4.53-.02-6.79,.01-.68,0-.94-.19-.95-.91-.01-2.25-.04-2.25,2.16-2.26,4.06,0,8.11,.01,12.17-.02,.71,0,.99,.14,.98,.93-.03,2.23,0,2.24-2.19,2.24-1.79,0-3.58,0-5.38,0"/>
      <path class="cls-12" d="M2440.39,750.4c-2.81,0-4.52-1.33-5.22-4.08-.22-.85-.35-1.72-.36-2.6,0-.5,.18-.68,.66-.65,.38,.02,.75,.01,1.13,0,.31,0,.55,.08,.64,.42,.9,3.42,3.94,3.85,6.4,3.36,.83-.17,1.65-.38,2.45-.65,.53-.17,.71-.06,.6,.48-.12,.58-.27,1.16-.35,1.75-.05,.39-.32,.5-.6,.65-1.41,.73-3.76,1.31-5.36,1.31"/>
      <path class="cls-12" d="M2414.48,746c1.75,.55,3.32,1.08,5.02,1.02,2.21-.08,3.74-1.13,4.47-3.23,.22-.62,1.88-1.05,2.35-.59,.1,.1,.16,.28,.16,.42-.14,2.25-.41,4.46-2.44,5.94-1.29,.93-2.77,.95-4.25,.78-1.38-.15-2.69-.58-3.97-1.12-.56-.23-.86-.53-.93-1.13-.08-.64-.24-1.28-.4-2.1"/>
    </g>
  </g>
  <g class="cls-14">
    <g class="cls-18">
      <path class="cls-20" d="M3330.19,733.96c-1.25-3.37-2.26-6.82-3.14-10.31-.59-2.33-.98-4.69-1.46-7.03-.13-.65,.06-.77,.63-.78,2.86-.02,5.67-.46,8.41-1.18,2.54-.67,5.02-1.54,7.41-2.7,2.58-1.24,4.99-2.68,7.26-4.41,3.67-2.79,6.69-6.18,9.21-10.03,.75-1.15,1.48-2.32,2.05-3.57,.15-.34,.29-.45,.69-.3,5.34,2.02,10.9,2.72,16.57,2.55,5.42-.17,10.58-1.58,15.48-3.85,2.47-1.14,4.74-2.71,6.88-4.41,1.01-.81,1.26-.72,1.85,.44,2.17,4.24,4.35,8.47,5.92,12.98,1.1,3.15,2.04,6.35,2.9,9.58,1.13,4.22,1.94,8.5,2.43,12.83,.66,5.82,.8,11.65,.28,17.51-.54,6.07-1.77,11.98-3.68,17.75-1.37,4.13-3.09,8.14-5.19,11.96-2.54,4.62-5.38,9.04-8.68,13.16-.38,.47-.76,.61-1.29,.52-5.03-.85-9.97-2.08-14.79-3.76-3.23-1.13-6.42-2.37-9.5-3.85-3.91-1.89-7.69-4.03-11.29-6.48-3.29-2.23-6.4-4.68-9.33-7.37-4.84-4.43-8.99-9.44-12.5-14.97-1.58-2.49-3.03-5.08-4.27-7.77-1-2.16-2.05-4.29-2.87-6.53m50.27-28.39l-.17,.06c-.54-1.41-1.1-2.81-1.59-4.23-.21-.61-.52-.77-1.16-.78-4.94-.08-9.77-.82-14.39-2.6-.6-.23-.82-.06-1.08,.45-.86,1.71-1.84,3.36-2.94,4.93-2.05,2.92-4.42,5.55-7.17,7.84-.28,.24-.64,.39-.4,.98,1.86,4.53,3.69,9.08,5.48,13.63,.28,.72,.56,.99,1.24,.48,.15-.11,.32-.2,.48-.3,3.73-2.44,7.08-5.32,10.07-8.61,.37-.41,.73-.56,1.3-.54,3.01,.13,6.03,.16,9.04-.09,1.38-.11,2.75-.27,4.1-.58,.87-.19,1.09-.53,.73-1.42-1.23-3.06-2.37-6.15-3.54-9.23m-34.25,27.59c2.85-1.05,5.86-2.6,8.66-4.56,.6-.42,.77-.8,.46-1.54-1.87-4.43-3.69-8.88-5.5-13.33-.26-.64-.48-.53-.94-.22-2.19,1.49-4.49,2.78-6.91,3.84-3.27,1.43-6.67,2.45-10.22,2.89-.48,.06-.69,.15-.49,.68,.23,.62,.36,1.27,.56,1.89,1.31,4.16,2.43,8.39,4.64,12.21,.29,.5,.48,.74,1.14,.61,2.82-.56,5.57-1.33,8.6-2.48m60.38-20.01q-.2-.57-.86-.26c-.74,.35-1.47,.72-2.22,1.04-4.21,1.77-8.57,3.14-13.02,4.12-6.16,1.36-12.4,1.97-18.72,1.65-.63-.03-1.08,.16-1.51,.57-2.1,1.95-4.28,3.8-6.56,5.53-5.05,3.84-10.42,7.12-16.3,9.52-2.79,1.14-5.6,2.26-8.62,2.71-.36,.05-.66,.14-.41,.67,1.12,2.35,2.24,4.69,3.55,6.94,4.45,7.65,10.28,14.06,17.41,19.3,5.92,4.35,12.39,7.66,19.33,10.05,4.34,1.5,8.79,2.62,13.35,3.28,.66,.1,1.11-.02,1.54-.57,1.4-1.78,2.74-3.6,4-5.48,3.36-5.01,6.11-10.32,8.1-16.02,1.88-5.37,3.09-10.88,3.6-16.53,.41-4.55,.34-9.09-.15-13.63-.46-4.34-1.32-8.61-2.51-12.9m-22.88-4.91l.04-.02c.86,2.26,1.73,4.52,2.58,6.79,.19,.5,.44,.82,1.04,.64,.9-.27,1.84-.35,2.76-.55,4.54-.95,8.93-2.39,13.17-4.25,2.55-1.12,2.6-1.13,1.72-3.79-1.44-4.32-3.16-8.55-4.82-12.79-.27-.7-.62-.79-1.18-.38-1.32,.97-2.75,1.73-4.19,2.5-4.12,2.2-8.49,3.61-13.1,4.25-.71,.1-.84,.23-.58,.9,.88,2.22,1.71,4.46,2.56,6.69"/>
      <path class="cls-8" d="M3380.45,705.57c1.17,3.08,2.31,6.17,3.54,9.23,.36,.89,.14,1.23-.73,1.42-1.35,.3-2.72,.47-4.1,.58-3.01,.24-6.03,.22-9.04,.09-.56-.02-.92,.13-1.3,.54-2.99,3.29-6.34,6.17-10.07,8.61-.16,.1-.33,.19-.48,.3-.68,.51-.96,.24-1.24-.48-1.79-4.56-3.62-9.1-5.48-13.63-.24-.59,.12-.74,.4-.98,2.75-2.29,5.12-4.92,7.17-7.84,1.1-1.57,2.08-3.22,2.94-4.93,.26-.52,.49-.68,1.08-.45,4.63,1.78,9.46,2.52,14.39,2.6,.64,0,.95,.17,1.16,.78,.49,1.43,1.06,2.82,1.59,4.23l.17-.06Zm-15.43-.39c-1.23,.38-2.17,1.13-2.48,2.44-.42,1.79,1.01,3.12,3.11,2.95,.88-.07,1.75-.18,2.63-.19,.68-.01,1.1,.39,.96,1.09-.23,1.14-2.48,1.72-3.33,.89-.51-.49-1.62-.56-1.98,0-.44,.68,.26,1.06,.64,1.46,.35,.36,.83,.57,1.34,.64,1.82,.26,3.36-.32,4.61-1.63,.87-.91,.98-2.05,.39-3.14-.56-1.03-1.49-1.38-2.62-1.29-.94,.07-1.88,.18-2.81,.25-.44,.04-.84-.08-.99-.55-.14-.44,.07-.78,.42-1.06,.75-.63,1.59-.66,2.4-.05,.4,.3,1.57,.22,1.85-.22,.36-.56-.14-.93-.49-1.25-1.11-1.02-2.35-.86-3.63-.33"/>
      <path class="cls-19" d="M3346.21,733.17c-3.04,1.15-5.79,1.92-8.6,2.48-.66,.13-.85-.12-1.14-.61-2.21-3.82-3.32-8.05-4.64-12.21-.2-.63-.34-1.28-.56-1.89-.2-.53,0-.62,.49-.68,3.55-.44,6.95-1.46,10.22-2.89,2.42-1.06,4.73-2.35,6.91-3.84,.46-.31,.68-.43,.94,.22,1.8,4.46,3.63,8.9,5.5,13.33,.31,.75,.14,1.12-.46,1.54-2.8,1.96-5.81,3.51-8.66,4.56m-6.38-6.67c1.01,2.37,2.01,3.29,3.51,3.62,2.9,.63,5.58-1.62,5.25-4.41-.03-.26,.02-.6-.34-.7-.56-.15-1.61,.66-1.61,1.24,0,.9-.35,1.58-1.2,1.96-.89,.39-1.75,.31-2.45-.37-1.06-1.02-1.52-2.3-1.26-3.76,.27-1.52,2.15-2.22,3.4-1.31,.5,.36,1.68,.27,2.1-.13,.21-.2,.07-.32-.03-.47-.54-.83-1.27-1.38-2.26-1.54-1.76-.29-3.26,.27-4.38,1.62-1.22,1.49-1.16,3.18-.74,4.26"/>
      <path class="cls-12" d="M3406.59,713.16c1.19,4.29,2.05,8.55,2.51,12.9,.48,4.54,.56,9.09,.15,13.63-.51,5.65-1.72,11.16-3.6,16.53-1.99,5.7-4.74,11.01-8.1,16.02-1.26,1.88-2.61,3.7-4,5.48-.43,.55-.88,.67-1.54,.57-4.56-.66-9.01-1.78-13.35-3.28-6.94-2.4-13.41-5.7-19.33-10.05-7.13-5.24-12.95-11.65-17.41-19.3-1.31-2.25-2.43-4.6-3.55-6.95-.25-.53,.05-.62,.41-.67,3.02-.45,5.82-1.57,8.62-2.71,5.88-2.39,11.26-5.68,16.3-9.52,2.28-1.73,4.46-3.58,6.56-5.53,.44-.41,.88-.6,1.51-.57,6.31,.32,12.55-.29,18.72-1.65,4.46-.98,8.81-2.35,13.02-4.12,.75-.32,1.48-.69,2.22-1.04q.66-.31,.86,.26m-.71,2.34c-.22-.6-.24-1.21-1.03-.81-3.97,1.96-8.2,3.2-12.47,4.26-5.66,1.41-11.42,2.29-17.25,2.09-2.74-.1-4.64,.72-6.65,2.51-5.44,4.84-11.47,8.87-18.13,11.9-3.01,1.37-6.07,2.62-9.28,3.41-.98,.24-1,.54-.63,1.28,1.64,3.29,3.45,6.46,5.57,9.47,6.41,9.1,14.79,15.84,24.73,20.71,6.59,3.23,13.52,5.43,20.78,6.57,.65,.1,1.03-.03,1.44-.55,2.3-2.96,4.39-6.05,6.26-9.3,3.23-5.59,5.63-11.51,7.14-17.78,1.76-7.3,2.22-14.7,1.53-22.18-.37-3.97-1.08-7.88-2.01-11.59"/>
      <path class="cls-15" d="M3383.7,708.25c-.85-2.23-1.68-4.47-2.56-6.69-.26-.67-.13-.8,.58-.9,4.61-.64,8.98-2.05,13.1-4.25,1.44-.77,2.87-1.53,4.19-2.5,.56-.41,.91-.32,1.18,.38,1.66,4.24,3.38,8.47,4.82,12.79,.89,2.66,.83,2.67-1.72,3.79-4.25,1.87-8.63,3.3-13.17,4.25-.92,.19-1.86,.28-2.76,.55-.6,.18-.85-.14-1.04-.64-.85-2.27-1.72-4.52-2.58-6.79l-.04,.02Zm13.07-4.25c.09-.02,.19-.03,.28-.05,.53,1.4,1.12,2.77,1.57,4.19,.29,.92,.78,.5,1.29,.36,.61-.17,.78-.42,.52-1.07-.78-1.92-1.5-3.87-2.23-5.8-.74-1.96-.74-1.95-2.71-1.21-.51,.19-.72,.4-.67,1.02,.16,1.82,.2,3.65,.29,5.62-1.01-.88-1.71-1.84-2.42-2.77-1.69-2.22-1.71-2.25-3.89-1.31-.03,.01-.06,.03-.09,.03-.44,.08-.45,.34-.31,.69,.95,2.49,1.9,4.99,2.84,7.49,.13,.35,.29,.47,.7,.35,1.3-.4,1.33-.42,.84-1.72-.47-1.24-.94-2.48-1.43-3.75,.51-.09,.63,.23,.79,.41,.86,.99,1.71,1.98,2.52,3.01,.38,.49,.71,.77,1.4,.5,.66-.26,.85-.63,.75-1.28-.07-.43-.1-.87-.07-1.3,.07-1.13-.18-2.27,0-3.4"/>
      <path class="cls-20" d="M3365.02,705.19c1.29-.53,2.53-.69,3.63,.33,.35,.32,.85,.69,.49,1.25-.28,.44-1.45,.52-1.85,.22-.81-.61-1.65-.58-2.4,.05-.34,.29-.56,.62-.42,1.06,.15,.47,.55,.58,.99,.55,.94-.08,1.88-.18,2.81-.25,1.12-.09,2.06,.25,2.62,1.29,.59,1.09,.48,2.22-.39,3.14-1.25,1.3-2.79,1.88-4.61,1.63-.51-.07-1-.28-1.34-.64-.38-.39-1.07-.78-.64-1.46,.36-.55,1.48-.48,1.98,0,.85,.83,3.1,.25,3.33-.89,.14-.69-.28-1.1-.96-1.09-.88,.01-1.75,.12-2.63,.19-2.1,.17-3.53-1.15-3.11-2.95,.31-1.31,1.25-2.06,2.48-2.44"/>
      <path class="cls-20" d="M3339.83,726.49c-.42-1.08-.48-2.77,.74-4.26,1.11-1.36,2.61-1.91,4.38-1.62,.99,.16,1.73,.71,2.26,1.54,.1,.16,.24,.28,.03,.47-.43,.41-1.61,.5-2.1,.13-1.26-.91-3.13-.22-3.4,1.31-.26,1.46,.21,2.74,1.26,3.76,.7,.68,1.56,.76,2.45,.37,.85-.37,1.2-1.05,1.2-1.96,0-.58,1.06-1.39,1.61-1.24,.36,.1,.31,.43,.34,.7,.33,2.79-2.35,5.04-5.25,4.41-1.5-.32-2.5-1.25-3.51-3.62"/>
      <path class="cls-20" d="M3405.87,715.5c.93,3.71,1.64,7.62,2.01,11.59,.69,7.47,.23,14.87-1.53,22.18-1.51,6.27-3.91,12.19-7.14,17.78-1.87,3.25-3.96,6.34-6.26,9.3-.4,.52-.79,.65-1.44,.55-7.27-1.14-14.2-3.34-20.79-6.57-9.93-4.87-18.32-11.61-24.73-20.71-2.12-3.01-3.93-6.18-5.57-9.47-.37-.74-.35-1.04,.63-1.28,3.21-.8,6.27-2.04,9.28-3.41,6.66-3.04,12.69-7.06,18.13-11.9,2.01-1.79,3.92-2.61,6.65-2.51,5.83,.21,11.59-.68,17.25-2.09,4.27-1.06,8.5-2.3,12.47-4.26,.79-.39,.81,.21,1.03,.81m-34.7,22.35c.31,.82,.54,1.69,.95,2.45,2.28,4.22,5.45,7.71,9.03,10.86,.43,.37,.8,.68,1.49,.43,.71-.25,.85-.73,.94-1.34,.7-4.58,.64-9.11-.57-13.61-1.38-5.17-4.26-9.23-8.78-12.09-1.97-1.25-2.08-1.2-3.06,.91-1.92,4.13-1.73,8.27,0,12.38m-11.3,6.76c-.65,.11-1.23,.34-2.11,1.15-1,.92-1.89,1.93-2.52,3.13-1.39,2.61-1.21,5.14,.58,6.97,1.65,1.69,3.79,2.4,6.05,2.83,.59,.11,.6-.21,.56-.65-.13-1.22-.08-2.45,.12-3.66,.35-2.03,1.36-3.51,3.5-3.95,1.76-.36,3.45,.05,5.07,.65,1.71,.64,3.51,1.14,5.07,2.1,.72,.45,.98-.08,1.43-.44,.45-.36-1.43-.36-1.67-.73-1.53-2.36-2.4-4.32-4.66-6.02-3.57-2.67-6.15-3.14-11.01-1.48m44.17-9.49c-.26-.95-1.02-1.74-1.94-2.38-1.63-1.14-3.5-1.67-5.44-2-.76-.13-1.41-.16-2.21,.07-3.92,1.15-6.71,3.37-8.13,7.19-1.39,3.74-1.06,6.48-.48,10.33,.04,.24-.15,1.31,.17,1.2,.65-.21,1.52,.2,1.77-.7,.21-.75,.47-1.5,.77-2.22,.94-2.24,2.01-4.4,3.88-6.05,1.49-1.31,3.45-1.49,5.15-.46,1.37,.83,2.41,2,3.38,3.24,.31,.4,.52,.55,.91,.03,.91-1.22,1.66-2.52,2.16-3.95,.48-1.36,.63-2.75,.02-4.31m-11.52,29.86c-1.6-4.26-4.31-6.49-7.59-8.16-.39-.2-.64-.14-.84,.26-1.69,3.38-2.41,6.89-1.04,10.54,1.4,3.75,4.43,5.88,7.89,7.52,.53,.25,.74-.04,.9-.47,1.29-3.42,1.65-6.87,.67-9.69m-8.84-9.43c1.67-.64,3.35-1.27,5.02-1.91,2.06-.79,2.02-.78,1.25-2.88-.27-.73-.58-.77-1.24-.52-3.78,1.47-7.58,2.9-11.37,4.34-2.06,.79-2.03,.78-1.22,2.88,.26,.67,.57,.76,1.21,.51,2.1-.83,4.23-1.62,6.34-2.42m11.83,4.81c1.49-.57,3.48-1.94,4.54-3.13,.21-.24,.42-.44,.33-.82-.13-.58-.19-1.17-.29-1.76-.09-.54-.3-.59-.73-.23-.66,.53-1.35,1.03-2.06,1.48-2.12,1.33-5.12,2-7.18-.87-.21-.29-.46-.28-.75-.17-.35,.14-.7,.28-1.06,.39-.46,.14-.57,.38-.39,.84,.32,.82,.75,1.58,1.26,2.3,1.63,2.32,3.7,2.96,6.33,1.96m-25.79,5.1c.44,.71,.82,1.25,1.12,1.82,.28,.53,.67,.71,1.27,.73,1.39,.04,2.77-.02,4.11-.37,1.44-.38,2.82-.92,3.7-2.25,1.38-2.1,.84-4.26,.17-6.42-.04-.13-.17-.28-.29-.34-.6-.26-2.01,.73-1.99,1.39,.06,2.21-.99,3.74-3.03,4.6-1.57,.66-3.22,.73-5.06,.83"/>
      <path class="cls-20" d="M3396.77,704c-.18,1.13,.06,2.27,0,3.4-.02,.43,0,.87,.07,1.3,.1,.65-.09,1.02-.75,1.28-.69,.27-1.02,0-1.4-.5-.81-1.03-1.66-2.02-2.52-3.01-.16-.18-.28-.5-.79-.41,.49,1.28,.96,2.51,1.43,3.75,.49,1.3,.46,1.33-.84,1.72-.41,.13-.57,0-.7-.35-.94-2.5-1.89-4.99-2.84-7.49-.13-.35-.13-.61,.31-.69,.03,0,.06-.02,.09-.03,2.18-.94,2.21-.91,3.89,1.31,.71,.93,1.41,1.89,2.42,2.77-.09-1.97-.13-3.8-.29-5.62-.05-.62,.15-.82,.67-1.02,1.97-.74,1.96-.75,2.71,1.21,.74,1.94,1.45,3.89,2.23,5.8,.26,.64,.1,.9-.52,1.07-.52,.14-1,.56-1.29-.36-.46-1.42-1.04-2.8-1.57-4.19-.09,.02-.19,.03-.28,.05"/>
      <path class="cls-8" d="M3371.17,737.85c-1.73-4.12-1.92-8.26,0-12.38,.98-2.11,1.1-2.16,3.06-.91,4.53,2.87,7.4,6.93,8.78,12.09,1.2,4.5,1.26,9.04,.57,13.61-.09,.61-.23,1.08-.94,1.34-.69,.25-1.07-.06-1.49-.43-3.58-3.15-6.75-6.64-9.03-10.86-.41-.77-.64-1.63-.95-2.45"/>
      <path class="cls-8" d="M3359.84,744.55c4.86-1.66,8.47-1.83,11.59,1.35,1.91,1.94,3.55,4.01,6.07,6.01,.34,.27,.56,.47,.11,.82-.45,.36-.65,.79-1.37,.34-1.55-.97-3.42-1.36-5.13-2-1.63-.61-3.32-1.01-5.07-.65-2.14,.44-3.15,1.92-3.5,3.95-.21,1.21-.25,2.44-.12,3.66,.05,.45,.04,.77-.56,.65-2.26-.43-4.4-1.14-6.05-2.83-1.79-1.83-1.97-4.36-.58-6.97,.64-1.19,1.38-2.21,2.45-3.04,1-.77,.88-.68,1.53-1.09"/>
      <path class="cls-8" d="M3404.44,735.02c.61,1.56,.46,2.95-.02,4.31-.5,1.43-1.25,2.73-2.16,3.95-.38,.51-.59,.37-.91-.03-.97-1.24-2.01-2.41-3.38-3.24-1.71-1.03-3.66-.86-5.16,.46-1.87,1.65-2.94,3.81-3.88,6.05-.3,.72-.57,1.47-.77,2.22-.25,.9-1.03,.6-1.68,.81-.32,.1-.28-.17-.32-.41-.58-3.85-.84-7.49,.55-11.23,1.42-3.82,4.14-5.96,8.06-7.11,.8-.23,1.52-.29,2.28-.16,1.94,.32,3.81,.86,5.44,2,.92,.64,1.67,1.43,1.94,2.38"/>
      <path class="cls-8" d="M3392.92,764.88c.98,2.82,.62,6.27-.67,9.69-.16,.43-.37,.72-.9,.47-3.46-1.64-6.49-3.77-7.89-7.52-1.36-3.64-.64-7.15,1.04-10.54,.2-.4,.45-.46,.84-.26,3.28,1.67,5.98,3.89,7.59,8.16"/>
      <path class="cls-12" d="M3384.08,755.45c-2.12,.8-4.24,1.59-6.34,2.43-.63,.25-.95,.16-1.21-.51-.81-2.1-.84-2.09,1.22-2.88,3.79-1.45,7.59-2.87,11.37-4.34,.66-.26,.97-.22,1.24,.52,.77,2.1,.8,2.09-1.25,2.88-1.67,.64-3.35,1.28-5.03,1.91"/>
      <path class="cls-12" d="M3395.91,760.26c-2.62,1-4.69,.36-6.33-1.96-.51-.72-.93-1.48-1.26-2.3-.18-.46-.08-.7,.39-.84,.36-.11,.71-.26,1.06-.39,.29-.11,.54-.12,.75,.17,2.06,2.87,5.05,2.2,7.18,.87,.72-.45,1.41-.95,2.06-1.48,.44-.35,.64-.31,.73,.23,.1,.59,.16,1.18,.29,1.76,.09,.38-.12,.58-.33,.82-1.06,1.18-3.05,2.56-4.54,3.13"/>
      <path class="cls-12" d="M3370.12,765.36c1.84-.11,3.49-.17,5.06-.83,2.03-.86,3.09-2.39,3.03-4.6-.02-.66,1.39-1.65,1.99-1.39,.13,.05,.25,.2,.29,.34,.67,2.16,1.21,4.32-.17,6.42-.87,1.33-2.26,1.87-3.7,2.25-1.34,.35-2.72,.41-4.11,.37-.61-.02-.99-.2-1.27-.73-.3-.57-.68-1.11-1.12-1.82"/>
    </g>
  </g>
</svg>