<?xml version="1.0" encoding="UTF-8"?>
<svg id="Capa_1" data-name="Capa 1" xmlns="http://www.w3.org/2000/svg" xmlns:xlink="http://www.w3.org/1999/xlink" viewBox="0 0 3881.91 1817.4">
  <defs>
    <style>
      .cls-1 {
        fill: #7aa0dd;
      }

      .cls-1, .cls-2, .cls-3, .cls-4, .cls-5, .cls-6, .cls-7 {
        fill-rule: evenodd;
      }

      .cls-2 {
        fill: #ff9854;
      }

      .cls-8 {
        fill: #fcfdfd;
      }

      .cls-9 {
        clip-path: url(#clippath-2);
      }

      .cls-10 {
        stroke: #332c2b;
        stroke-width: 1.77px;
      }

      .cls-10, .cls-11 {
        fill: none;
      }

      .cls-12 {
        fill: #f3fafb;
      }

      .cls-13 {
        clip-path: url(#clippath-1);
      }

      .cls-14 {
        clip-path: url(#clippath-4);
      }

      .cls-15 {
        clip-path: url(#clippath);
      }

      .cls-3 {
        fill: #ffa66b;
      }

      .cls-4 {
        fill: #e8ba00;
      }

      .cls-16 {
        clip-path: url(#clippath-3);
      }

      .cls-17 {
        fill: #cad1ea;
      }

      .cls-5 {
        fill: #bfbfbf;
      }

      .cls-18 {
        clip-path: url(#clippath-5);
      }

      .cls-6 {
        fill: #f60;
      }

      .cls-19 {
        fill: #001b71;
      }

      .cls-20 {
        fill: #efb8a9;
      }
    </style>
    <clipPath id="clippath">
      <rect class="cls-11" x="1406.16" y="939" width="90.73" height="90.73"/>
    </clipPath>
    <clipPath id="clippath-1">
      <rect class="cls-11" x="1406.16" y="939" width="90.73" height="90.73"/>
    </clipPath>
    <clipPath id="clippath-2">
      <rect class="cls-11" x="2400.21" y="643.14" width="90.73" height="90.73" transform="translate(-2.71 9.71) rotate(-.23)"/>
    </clipPath>
    <clipPath id="clippath-3">
      <rect class="cls-11" x="2400.21" y="643.14" width="90.73" height="90.73" transform="translate(-2.71 9.71) rotate(-.23)"/>
    </clipPath>
    <clipPath id="clippath-4">
      <rect class="cls-11" x="3324.41" y="659.76" width="90.73" height="90.73" transform="translate(-19.77 1308.1) rotate(-21.91)"/>
    </clipPath>
    <clipPath id="clippath-5">
      <rect class="cls-11" x="3324.41" y="659.76" width="90.73" height="90.73" transform="translate(-19.77 1308.1) rotate(-21.91)"/>
    </clipPath>
  </defs>
  <path class="cls-4" d="M191.16,795.75c7.5-32.25,21.75-69,5.25-100.5-18,3-33.75,66.75-33,78,.75,5.25,14.25,33,27.75,22.5h0Zm0,0"/>
  <path class="cls-3" d="M251.91,940.5s-89.25,56.25-117.75,88.5c0,0-69,26.25-67.5-37.5,1.5-64.5,81.75-113.25,72.75-138s-19.5-34.5,15-75c0,0,.75-33-3-38.25,0,0,19.5-25.5,29.25,36,0,0,64.5,14.25,5.25,83.25-60,68.25-30.75,57-30.75,57,0,0,21.75-14.25,39-24.75,18-9.75,72.75-13.5,72.75-13.5,0,0-1.5,33.75-15,62.25h0Zm0,0"/>
  <path class="cls-3" d="M662.91,612.75s15.75-.75,34.5,3c0,0,8.25-40.5,216.75-72.75,0,0,26.25-2.25,33.75-25.5s-11.25-39,31.5-58.5c0,0,3-10.5,6.75-12.75s9.75-9.75,9.75-9.75c0,0,17.25-25.5,18-30.75,.75-4.5,20.25,8.25,7.5,24.75,0,0,28.5-3.75,27.75,3.75s-9.75,18.75-33.75,23.25c12,24-30,115.5-63.75,126.75-57.75,19.5-153.75,66-153.75,66,0,0-65.25,23.25-91.5,24s-75,31.5-75,31.5l-25.5-29.25s21.75-51.75,57-63.75h0Zm0,0"/>
  <path class="cls-7" d="M701.16,1054.5c5.25-4.5,51,217.5-21,409.5,0,0-68.25,6-159-8.25l-8.25-21-.75,15s-36-8.25-50.25-27-65.25-180-34.5-241.5c30.75-62.25,208.5-148.5,273.75-126.75h0Zm0,0"/>
  <path class="cls-1" d="M489.66,645.75s84-33.75,117.75-23.25c0,0,18-22.5,63-25.5,0,0-40.5,78-23.25,91.5,0,0-16.5,29.25-51,29.25,0,0-5.25,69,24,106.5,28.5,37.5,48.75,169.5,48.75,169.5,0,0,39,61.5,43.5,60.75s-126,149.25-285,126.75c0,0-2.25-55.5,15-81.75,0,0,1.5-28.5-38.25-72-39-43.5-81.75-100.5-81.75-100.5,0,0,18,.75-23.25-12,0,0-28.5,1.5-47.25,25.5,0,0-36.75-52.5-57.75-48.75,0,0,40.5-51,68.25-71.25,27-21,89.25-36.75,90-80.25s7.5-66,7.5-66c0,0,43.5-70.5,129.75-28.5h0Zm0,0"/>
  <path class="cls-3" d="M399.66,501s24,28.5,27,42.75l33-.75-4.5,17.25,22.5,15.75s-16.5,28.5-1.5,33.75c3.75,.75,5.25,.75,7.5,4.5,5.25,12,6,31.5,6,31.5,0,0-16.5,15.75-42.75,15.75,0,0-60.75,26.25-79.5,43.5l-6-9.75s10.5-42,34.5-52.5c-39.75-24-59.25-38.25-59.25-38.25,0,0-21-85.5,38.25-101.25l3.75-6s7.5-1.5,21,3.75h0Zm0,0"/>
  <path class="cls-7" d="M399.66,501s-27.75,8.25-27.75,21.75c0,14.25,51,56.25,48.75,63-2.25,7.5-8.25,19.5-42,24-33,3.75,28.5,40.5,28.5,40.5,0,0-27.75,2.25-31.5,25.5-3.75,22.5-6,36.75-25.5,41.25-18.75,4.5-108-61.5-106.5-119.25,.75-57.75,103.5-181.5,156-96.75h0Zm0,0"/>
  <path class="cls-7" d="M308.91,279c-24-7.5-60,39-79.5,104.25-18.75,60.75-17.25,115.5,3,128.25l-47.25,195.75,15,3,45.75-195.75c23.25-4.5,53.25-47.25,70.5-104.25,20.25-65.25,16.5-123.75-7.5-131.25h0Zm0,0"/>
  <path class="cls-3" d="M680.16,1464s-63,138.75-91.5,161.25c-27.75,21.75-306.75,4.5-306.75,4.5,0,0-104.25,6-114,8.25s-10.5-61.5,39-68.25l7.5-15,69.75-5.25s86.25-2.25,101.25-24c0,0-15.75,16.5-72,17.25s-99.75-2.25-99.75-2.25l-42-24.75s30-34.5,50.25-45.75c21-11.25,142.5-8.25,142.5-8.25,0,0,66-36.75,116.25,9.75l16.5-48s128.25-23.25,183,40.5h0Zm0,0"/>
  <path class="cls-7" d="M291.66,1542.75c-45.75,0-78-2.25-78-2.25l-42-24.75s30-34.5,50.25-45.75c9.75-5.25,38.25-7.5,68.25-8.25l1.5,81Zm0,0"/>
  <path class="cls-7" d="M293.91,1630.5c-7.5-.75-12-.75-12-.75,0,0-104.25,6-114,8.25s-10.5-61.5,39-68.25l7.5-15,69.75-5.25h7.5l2.25,81Zm0,0"/>
  <path class="cls-7" d="M185.91,1510.5s7.5-3.75,15-9.75l9.75-7.5c9-9,16.5-19.5,12-28.5-9.75-20.25-36.75-98.25-90.75-46.5-54,51.75-36.75,52.5-36.75,52.5,0,0-104.25,52.5-83.25,117,0,0-.75,29.25,15,29.25,0,0-54,55.5-9,83.25,0,0,24,24.75,65.25-33.75,0,0,63-23.25,81.75-30-6.75-9-3-60.75,42-66.75l7.5-15,14.25-1.5c1.5-9.75,3.75-23.25,3.75-27,0-5.25-46.5-15.75-46.5-15.75h0Zm0,0"/>
  <path class="cls-7" d="M2166.66,1479.75s-15,3.75-10.5,66c4.5,62.25-6.75,74.25-6.75,74.25,0,0,4.5,52.5,44.25,42.75,39.75-9,47.25-31.5,42.75-48.75-5.25-17.25-11.25-20.25-14.25-38.25-2.25-18,2.25-59.25,0-69.75-1.5-10.5-23.25-5.25-55.5-26.25h0Zm0,0"/>
  <path class="cls-3" d="M2594.91,773.25s15.75,30,18,63c1.5,33,18.75,124.5-11.25,189.75,0,0-9.75,21-3.75,45,6,23.25-4.5,40.5-4.5,40.5,0,0,15.75,15.75,24.75,.75,0,0,14.25,18,27-2.25,12.75-19.5,19.5-15.75,21-41.25,2.25-26.25,.75-13.5,1.5-35.25,0-21.75,5.25-60,5.25-60,0,0,2.25-56.25,6-66.75,3-10.5,2.25-72,2.25-72,0,0,18-72-51.75-112.5l-23.25,13.5s-18.75,9.75-11.25,37.5h0Zm0,0"/>
  <path class="cls-7" d="M1931.91,1632s-61.5,83.25-63,99.75c-1.5,15.75,19.5,37.5,72.75,19.5,53.25-18.75,53.25-86.25,51-107.25-1.5-21-27-21.75-60.75-12h0Zm0,0"/>
  <path class="cls-10" d="M1931.91,1632s-61.5,83.25-63,99.75c-1.5,15.75,19.5,37.5,72.75,19.5,53.25-18.75,53.25-86.25,51-107.25-1.5-21-27-21.75-60.75-12h0Zm0,0"/>
  <path class="cls-1" d="M2300.91,528.75s-114.75,39.75-135.75,36c0,0-24.75,36.75-30.75,40.5-5.25,3.75,5.25,56.25-28.5,100.5,0,0-12,25.5-16.5,24.75l6,13.5s12-18.75,44.25-8.25c33,10.5,39,17.25,39,17.25l30.75-31.5s-44.25,42.75-44.25,135.75-34.5,152.25-34.5,152.25c0,0-9.75,17.25-34.5,33.75,0,0,183.75,118.5,344.25,72,0,0,19.5-18,20.25-40.5,.75-23.25-1.5-154.5,10.5-189.75,12-35.25,35.25-163.5,35.25-163.5,0,0,17.25-12,25.5,4.5,7.5,16.5,21.75,45,21.75,45,0,0,42.75,9.75,56.25-3.75,14.25-13.5,31.5-42,31.5-42l-44.25-63-64.5-79.5s-93.75-32.25-117-53.25c-24-20.25-72.75-26.25-114.75-.75h0Zm0,0"/>
  <path class="cls-5" d="M2003.91,1363.5s-62.25,64.5-59.25,133.5c3,69-5.25,127.5-14.25,132.75,0,0,32.25,39.75,64.5,12.75,0,0-1.5-33,16.5-65.25,17.25-32.25,53.25-32.25,63-122.25,9-89.25-32.25-99.75-70.5-91.5h0Zm0,0"/>
  <path class="cls-2" d="M2305.41,509.25l-5.25,23.25s-.75,58.5,42,79.5c42,21,58.5-27,58.5-27,0,0-30-88.5-95.25-75.75h0Zm0,0"/>
  <path class="cls-3" d="M2038.41,1233s-22.5,72.75-13.5,103.5c0,0-18.75,9-21,27-3,18.75-4.5,69,38.25,65.25,42.75-4.5,47.25-33.75,47.25-33.75,0,0,33-56.25,54-79.5,20.25-24-34.5-120-105-82.5h0Zm0,0"/>
  <path class="cls-3" d="M2296.41,459s-34.5,0,6.75,41.25c0,0,11.25,43.5,22.5,57.75,12,15,29.25,48.75,63,36.75,0,0,20.25-5.25,35.25-61.5,15-55.5,24.75-62.25,26.25-78s-39.75-33-39.75-33c0,0-73.5-21.75-114,36.75h0Zm0,0"/>
  <path class="cls-5" d="M2256.66,1324.5s-43.5,5.25-48,87c0,0-25.5,59.25-43.5,66,0,0,16.5,47.25,51,36.75l26.25-33s84-50.25,93.75-86.25c9-36.75,9-48,3-55.5-6-6.75-42,51-82.5-15h0Zm0,0"/>
  <path class="cls-3" d="M2270.16,1251s-21.75,44.25-12,79.5c0,0-4.5,62.25,36,57,40.5-4.5,54-25.5,53.25-41.25-.75-15,24-21,33.75-32.25s22.5-38.25,21-57-91.5-78.75-132-6h0Zm0,0"/>
  <path class="cls-7" d="M2105.91,1044.75s-77.25,131.25-81.75,186c0,0,59.25,41.25,82.5,62.25s45.75,32.25,45.75,32.25l40.5-43.5s54.75-115.5,59.25-123,12,0,9.75,23.25c-2.25,22.5,10.5,60.75,8.25,69-3,8.25,99-78,127.5,27.75,0,0-12,33.75-24,42.75,0,0,31.5-29.25,39-57.75s14.25-72,14.25-72c0,0-4.5-24,6.75-39s21-27.75,6.75-45.75-234-113.25-334.5-62.25h0Zm0,0"/>
  <path class="cls-7" d="M2337.66,456s-6.75,21.75-21,32.25c0,0-3-27.75-20.25-29.25,0,0-12-65.25,35.25-89.25,48-24.75,113.25,15.75,116.25,38.25,3,23.25,10.5,60-10.5,53.25s-51,18.75-51,18.75c0,0-23.25-9.75-24-30,0-19.5-27-20.25-24.75,6h0Zm0,0"/>
  <path class="cls-10" d="M2337.66,456s-6.75,21.75-21,32.25c0,0-3-27.75-20.25-29.25,0,0-12-65.25,35.25-89.25,48-24.75,113.25,15.75,116.25,38.25,3,23.25,10.5,60-10.5,53.25s-51,18.75-51,18.75c0,0-23.25-9.75-24-30,0-19.5-27-20.25-24.75,6h0Zm0,0"/>
  <path class="cls-3" d="M2101.41,738s-34.5,72.75-23.25,98.25c12,25.5,27,35.25,69.75,18.75,0,0,8.25-4.5,18-9.75,10.5-6.75,43.5-11.25,52.5-15.75,5.25-3,10.5-12.75,15-15,16.5-7.5,7.5-11.25,12.75-20.25,6-10.5-27.75-90-36-51-1.5,5.25,1.5,5.25,.75,6.75,0,0-18,10.5-16.5,18,.75,8.25-11.25,21-11.25,21,0,0-25.5-4.5-27-9s-1.5-15.75,16.5-30.75c-5.25-3-15-7.5-33-13.5-19.5-6-31.5-2.25-38.25,2.25h0Zm0,0"/>
  <path class="cls-7" d="M2504.91,1569c51.75,0,94.5,42,94.5,93.75s-42.75,94.5-94.5,94.5-93.75-42.75-93.75-94.5,42-93.75,93.75-93.75h0Zm0,0"/>
  <path class="cls-7" d="M938.91,1578s-37.5,15-39.75,49.5c0,0-48,34.5-48,59.25,.75,24-5.25,36.75-5.25,36.75,0,0,66,35.25,98.25,15,0,0,10.5-13.5,11.25-21.75,0-7.5,22.5-16.5,27-24,4.5-6.75,9-67.5,8.25-80.25-1.5-12-10.5-49.5-51.75-34.5h0Zm0,0"/>
  <path class="cls-7" d="M1597.41,1538.25s21.75,54,16.5,73.5c-4.5,18.75-21.75,102.75,22.5,96.75s78,0,76.5-39.75-14.25-121.5-41.25-141.75c-27-19.5-48-24-74.25,11.25h0Zm0,0"/>
  <path class="cls-3" d="M1520.16,1322.25c6-3.75,29.25,30,29.25,30,0,0-6.75,33,30.75,97.5,0,0,28.5,24.75,17.25,88.5,0,0,51.75-21.75,74.25-11.25,0,0-13.5-22.5-14.25-33.75,0-11.25,11.25-129-27.75-204-39-75-77.25-132-77.25-132,0,0-144.75,22.5-32.25,165h0Zm0,0"/>
  <path class="cls-3" d="M1055.16,1268.25s-115.5,222.75-116.25,309.75c0,0,49.5,9.75,51.75,34.5,0,0,46.5-110.25,69.75-133.5,23.25-24,72.75-127.5,84-165,11.25-38.25-48-42.75-89.25-45.75h0Zm0,0"/>
  <path class="cls-6" d="M1159.41,1107.75c65.25,2.25,116.25,57,114,122.25s-57.75,116.25-123,114-116.25-57-114-122.25,57.75-116.25,123-114h0Zm0,0"/>
  <path class="cls-3" d="M1206.66,930.75l-3.75-15s-55.5,90-77.25,112.5c0,0,19.5,30,41.25,71.25,0,0,3-6,10.5-5.25s52.5,42.75,52.5,42.75c0,0,15,42-23.25,17.25-37.5-24-54.75-27-42,17.25,12.75,45,11.25,60,3,60.75-8.25,0-34.5-76.5-34.5-76.5v85.5s-17.25,13.5-18.75-6.75c-1.5-19.5-9-74.25-9-74.25,0,0-21,32.25-27.75,69.75,0,0-7.5,10.5-11.25,0-3-9.75,2.25-59.25,10.5-70.5,0,0-9.75-12-30.75,32.25,0,0-10.5-2.25-6.75-11.25,4.5-9,21-54,33-63.75,11.25-10.5,9-34.5,9-34.5,0,0-42-26.25-39.75-46.5,2.25-21,78-154.5,109.5-175.5,0,0,19.5-105,87.75-107.25l45,12,20.25,69-52.5,128.25s-33.75,7.5-39.75,11.25-9-1.5-5.25-42.75h0Zm0,0"/>
  <path class="cls-3" d="M1508.91,956.25s59.25,82.5,68.25,116.25c9,33.75,33.75,76.5,5.25,115.5,0,0-36-9.75-36,22.5l10.5,3.75s-1.5,32.25,18,24,23.25-12,23.25-12c0,0-27,34.5-5.25,30.75s27-5.25,27-5.25l-26.25,15.75s7.5,15,10.5,15c3.75,.75,15,7.5,25.5,6.75s14.25,12.75,14.25-3.75,5.25-12.75-.75-24c-6-10.5-8.25,.75-9.75-22.5-2.25-23.25,24-73.5,24-73.5,0,0-9-86.25-24.75-131.25-15.75-45.75-36.75-75-35.25-102,.75-27.75-27-116.25-84.75-144l-44.25,49.5-2.25,92.25s-40.5,36,42.75,26.25h0Zm0,0"/>
  <path class="cls-1" d="M1337.91,741s-76.5-12-99,12c0,0,50.25-3,32.25,99.75-18,103.5-63.75,117.75-59.25,69.75,0,0-28.5,29.25,0,63.75,0,0-30,35.25-30,57.75-.75,22.5-24,18.75-18,46.5,5.25,28.5,46.5,31.5,63,48s54.75,60,27,150c0,0-26.25,36-45.75,40.5,0,0,30.75,31.5,59.25,3.75,27.75-27,103.5-141,103.5-141,0,0,51.75,68.25,60,101.25,8.25,33,54,78,102.75,36.75,0,0-42.75-62.25-42-89.25,1.5-26.25-9.75-56.25,90.75-52.5,0,0-3.75-33.75-13.5-90-9.75-56.25-26.25-53.25-26.25-53.25,0,0,15.75-11.25,10.5-30.75-5.25-18.75-24-15-24-21-.75-6.75-15-19.5-16.5-28.5-1.5-9.75-30.75-33.75-9-105,21.75-70.5,19.5-75,19.5-75,0,0-34.5-29.25-67.5-24-33,5.25-51,257.25-117.75-19.5h0Zm0,0"/>
  <path class="cls-10" d="M1337.91,741s-76.5-12-99,12c0,0,50.25-3,32.25,99.75-18,103.5-63.75,117.75-59.25,69.75,0,0-28.5,29.25,0,63.75,0,0-30,35.25-30,57.75-.75,22.5-24,18.75-18,46.5,5.25,28.5,46.5,31.5,63,48s54.75,60,27,150c0,0-26.25,36-45.75,40.5,0,0,30.75,31.5,59.25,3.75,27.75-27,103.5-141,103.5-141,0,0,51.75,68.25,60,101.25,8.25,33,54,78,102.75,36.75,0,0-42.75-62.25-42-89.25,1.5-26.25-9.75-56.25,90.75-52.5,0,0-3.75-33.75-13.5-90-9.75-56.25-26.25-53.25-26.25-53.25,0,0,15.75-11.25,10.5-30.75-5.25-18.75-24-15-24-21-.75-6.75-15-19.5-16.5-28.5-1.5-9.75-30.75-33.75-9-105,21.75-70.5,19.5-75,19.5-75,0,0-34.5-29.25-67.5-24-33,5.25-51,257.25-117.75-19.5h0Zm0,0"/>
  <path class="cls-2" d="M1337.91,741s-16.5,69,2.25,108c0,0,12,73.5,25.5,82.5,12.75,9.75,40.5,7.5,40.5,7.5,0,0,38.25-64.5,41.25-92.25,3.75-27.75-3.75-45-3.75-45,0,0-69.75-72.75-105.75-60.75h0Zm0,0"/>
  <path class="cls-3" d="M1308.66,688.5s-24.75,52.5,29.25,52.5c0,0,8.25,42.75,27.75,63.75,18.75,20.25,39.75,42,71.25,22.5,0,0,27.75-25.5,37.5-56.25,9.75-31.5,27.75-54.75,21-71.25-7.5-16.5-107.25-91.5-186.75-11.25h0Zm0,0"/>
  <path class="cls-7" d="M1397.16,667.5s-41.25,52.5-63.75,56.25c0,0-6.75-47.25-24.75-35.25,0,0-25.5-82.5,39-108,65.25-24.75,148.5-6.75,159.75,51.75,11.25,58.5,5.25,68.25-10.5,79.5,0,0-58.5,18.75-82.5-29.25l-11.25-19.5-6,4.5Zm0,0"/>
  <path class="cls-10" d="M1397.16,667.5s-41.25,52.5-63.75,56.25c0,0-6.75-47.25-24.75-35.25,0,0-25.5-82.5,39-108,65.25-24.75,148.5-6.75,159.75,51.75,11.25,58.5,5.25,68.25-10.5,79.5,0,0-58.5,18.75-82.5-29.25l-11.25-19.5-6,4.5Zm0,0"/>
  <path class="cls-7" d="M3074.91,1629s-31.5,56.25-29.25,74.25c1.5,17.25,21,30,21,30,0,0,3.75,6,19.5-11.25,15.75-18,42.75-65.25,58.5-53.25,15,11.25,33.75-6,33.75-6l-.75-57s-75,.75-102.75,23.25h0Zm0,0"/>
  <path class="cls-10" d="M3074.91,1629s-31.5,56.25-29.25,74.25c1.5,17.25,21,30,21,30,0,0,3.75,6,19.5-11.25,15.75-18,42.75-65.25,58.5-53.25,15,11.25,33.75-6,33.75-6l-.75-57s-75,.75-102.75,23.25h0Zm0,0"/>
  <path class="cls-3" d="M2934.66,711.75s-7.5,0-21.75,4.5c0,0,10.5-6,15-17.25,4.5-10.5,3-73.5,3-73.5,0,0,30.75-57.75,26.25-70.5,0,0,24-21,36.75-30,12.75-9.75,6-3,6-3,0,0,10.5-19.5,8.25-26.25-1.5-6,0,4.5,0,4.5,0,0,6-48,9.75-60.75,4.5-12.75,10.5-45.75,10.5-45.75,0,0,3-24-12.75-9.75-15.75,13.5-19.5,21.75-21,31.5-.75,9-6.75,3.75-6.75,3.75,0,0-4.5-17.25-9-33.75-3.75-17.25-35.25,48-33,66,2.25,17.25-22.5,75.75-22.5,75.75,0,0-60,104.25-69,120-8.25,15.75-17.25,81.75-26.25,84.75-8.25,3.75-18.75,71.25,121.5,69,140.25-3,48.75-45.75-15-89.25h0Zm0,0"/>
  <path class="cls-3" d="M3460.41,566.25s105-69,113.25-78c9-8.25,59.25-54,78-63.75,19.5-10.5,106.5-62.25,114-73.5,6.75-10.5,12-98.25,98.25-113.25,0,0-26.25,33.75-27.75,42.75l40.5-21.75,5.25,4.5s-27.75,26.25-41.25,39.75-27.75,66.75-27.75,66.75l-18.75,9c-95.25,143.25-159.75,138.75-212.25,193.5-30.75,31.5-88.5,64.5-87,66.75s-74.25-39.75-34.5-72.75h0Zm0,0"/>
  <path class="cls-7" d="M2958.66,1632s1.5-28.5-20.25-35.25c-21-6.75-65.25,12-73.5,75,0,0-51,27-50.25,65.25,1.5,38.25,13.5,93,47.25,76.5,34.5-16.5,23.25-35.25,63-65.25,39.75-30.75,50.25-61.5,50.25-61.5,0,0-43.5-6.75-16.5-54.75h0Zm0,0"/>
  <path class="cls-10" d="M2958.66,1632s1.5-28.5-20.25-35.25c-21-6.75-65.25,12-73.5,75,0,0-51,27-50.25,65.25,1.5,38.25,13.5,93,47.25,76.5,34.5-16.5,23.25-35.25,63-65.25,39.75-30.75,50.25-61.5,50.25-61.5,0,0-43.5-6.75-16.5-54.75h0Zm0,0"/>
  <path class="cls-3" d="M3174.66,1445.25s-31.5,70.5-30,81c0,0-79.5-7.5-135,51-55.5,57.75-77.25,60.75-77.25,60.75,0,0-21.75,88.5,29.25,65.25s56.25-60.75,147.75-69.75c92.25-9.75,117-39,143.25-77.25,27-38.25,51-83.25,51-83.25,0,0-79.5-72.75-129-27.75h0Zm0,0"/>
  <path class="cls-3" d="M3344.91,1398s-12.75,83.25-1.5,109.5c0,0-33.75-11.25-74.25-6-40.5,6-129.75,109.5-129.75,109.5,0,0,.75,30.75,38.25,25.5s48.75-33.75,141.75-42c92.25-9,102.75-9.75,120.75-59.25,18.75-48.75,35.25-64.5,33-84.75-1.5-20.25-104.25-101.25-104.25-101.25,0,0-29.25,9.75-24,48.75h0Zm0,0"/>
  <path class="cls-7" d="M3241.41,1084.5l-30,33,21.75,51s-49.5,243-65.25,269.25c0,0,60.75,78,167.25,58.5,0,0-4.5-75,24.75-101.25,0,0,20.25,54.75,44.25,70.5,24,16.5,66,5.25,66,5.25,0,0,51-132.75,51-195.75s0-70.5,2.25-80.25c3-9.75-20.25-61.5-26.25-73.5s-123-13.5-255.75-36.75h0Zm0,0"/>
  <path class="cls-10" d="M3241.41,1084.5l-30,33,21.75,51s-49.5,243-65.25,269.25c0,0,60.75,78,167.25,58.5,0,0-4.5-75,24.75-101.25,0,0,20.25,54.75,44.25,70.5,24,16.5,66,5.25,66,5.25,0,0,51-132.75,51-195.75s0-70.5,2.25-80.25c3-9.75-20.25-61.5-26.25-73.5s-123-13.5-255.75-36.75h0Zm0,0"/>
  <path class="cls-3" d="M3249.66,1018.5s-18,48-6,69.75c12,21.75,165.75,63.75,261.75,51,0,0,6.75-21.75-6-50.25-12.75-28.5-18.75-47.25-1.5-83.25l-187.5,2.25s-48-16.5-60.75,10.5h0Zm0,0"/>
  <path class="cls-1" d="M3170.16,681l-45.75,3.75s-68.25,17.25-69.75,37.5c0,0-34.5-3-37.5-10.5h-83.25s12.75,97.5,3.75,120c0,0,166.5,1.5,173.25,12,6,10.5,90.75,162,90.75,201,0,0,30,13.5,48.75-14.25,0,0,85.5,38.25,154.5,4.5,68.25-33,84.75-22.5,82.5,10.5l26.25-31.5s-8.25-79.5-37.5-114c0,0,12.75-55.5-22.5-96,0,0-26.25-67.5-4.5-140.25,0,0,43.5-15,56.25-30,0,0-17.25-27-18-42.75,0-16.5-31.5-52.5-31.5-52.5,0,0-35.25,35.25-92.25,57-56.25,21.75-105,72-105,72,0,0-51.75-29.25-88.5,13.5h0Zm0,0"/>
  <path class="cls-3" d="M3107.91,642s42.75,12,48.75,20.25c6.75,8.25,13.5,18.75,13.5,18.75,0,0,54.75,5.25,64.5,12.75,0,0,38.25,4.5,45.75-28.5,0,0-15.75-3.75-15-27,.75-24,6.75-24,6.75-24,0,0-13.5-41.25-26.25-50.25l-5.25-17.25-22.5-13.5s2.25-12.75-23.25-21c-24.75-7.5-57-.75-57-.75,0,0-29.25,14.25-25.5,31.5,3,16.5-26.25,67.5-4.5,99h0Zm0,0"/>
  <path class="cls-7" d="M3194.91,512.25s-82.5,4.5-69.75,39.75l15.75,9-1.5,33.75s-45,12-31.5,47.25c0,0-24.75-10.5-24.75-40.5s29.25-156,111.75-89.25h0Zm0,0"/>
  <path class="cls-7" d="M3584.91,0c54,0,97.5,43.5,97.5,98.25s-43.5,97.5-97.5,97.5-98.25-43.5-98.25-97.5S3530.16,0,3584.91,0h0Zm0,0"/>
  <g class="cls-15">
    <g class="cls-13">
      <path class="cls-19" d="M1416.87,966.59c.03-2.96,.26-5.89,.6-8.83,.23-1.96,.61-3.89,.93-5.83,.09-.54,.28-.58,.71-.41,2.2,.82,4.49,1.31,6.81,1.55,2.14,.23,4.31,.28,6.48,.1,2.34-.2,4.62-.6,6.87-1.26,3.64-1.07,6.95-2.79,10.01-5.01,.92-.66,1.81-1.35,2.62-2.14,.22-.21,.35-.26,.62-.03,3.51,3.11,7.57,5.27,11.98,6.8,4.21,1.46,8.59,1.88,13.02,1.57,2.23-.16,4.43-.69,6.57-1.38,1.01-.32,1.18-.18,1.3,.88,.43,3.89,.87,7.78,.75,11.7-.08,2.74-.29,5.48-.57,8.21-.37,3.57-1,7.09-1.89,10.57-1.19,4.67-2.79,9.18-4.9,13.53-2.19,4.5-4.86,8.69-8.01,12.56-2.26,2.77-4.75,5.35-7.48,7.67-3.3,2.81-6.77,5.37-10.51,7.57-.43,.25-.76,.25-1.14,.02-3.62-2.12-7.05-4.51-10.26-7.21-2.15-1.81-4.24-3.69-6.17-5.73-2.45-2.6-4.72-5.34-6.78-8.27-1.88-2.68-3.55-5.47-5.01-8.38-2.42-4.82-4.15-9.88-5.23-15.15-.49-2.38-.84-4.78-1.01-7.22-.13-1.95-.32-3.89-.29-5.85m46.9-7.12h-.15c0-1.24-.03-2.48,.01-3.72,.02-.53-.18-.74-.66-.94-3.77-1.5-7.26-3.48-10.3-6.2-.39-.35-.61-.29-.96,.03-1.16,1.07-2.39,2.04-3.7,2.93-2.43,1.64-5.02,2.97-7.8,3.93-.29,.1-.61,.11-.59,.63,.11,4.02,.18,8.05,.23,12.07,0,.64,.14,.93,.82,.73,.15-.04,.3-.06,.45-.09,3.57-.78,6.99-2.01,10.25-3.67,.41-.21,.73-.22,1.15-.04,2.28,.98,4.59,1.88,6.97,2.58,1.09,.32,2.19,.59,3.32,.75,.72,.1,.99-.09,.98-.88-.05-2.71-.02-5.42-.02-8.13m-34.37,11.18c2.49,.03,5.26-.28,7.98-.97,.59-.15,.83-.39,.8-1.05-.14-3.95-.24-7.9-.33-11.85-.01-.57-.21-.55-.66-.44-2.11,.51-4.26,.83-6.43,.93-2.93,.14-5.84-.07-8.7-.77-.39-.1-.57-.09-.57,.38,0,.54-.09,1.08-.12,1.62-.21,3.58-.59,7.15,0,10.74,.08,.46,.15,.71,.7,.8,2.33,.39,4.66,.61,7.33,.61m52.22,2.28q.01-.5-.59-.45c-.67,.05-1.34,.12-2.01,.15-3.75,.13-7.5-.09-11.21-.64-5.13-.76-10.1-2.11-14.86-4.2-.47-.21-.88-.19-1.33,0-2.18,.88-4.39,1.67-6.65,2.33-5,1.47-10.08,2.43-15.3,2.55-2.48,.06-4.96,.1-7.41-.44-.3-.06-.55-.09-.51,.4,.17,2.13,.35,4.26,.7,6.37,1.18,7.18,3.78,13.8,7.73,19.91,3.28,5.07,7.28,9.5,11.91,13.37,2.9,2.42,5.99,4.58,9.29,6.42,.48,.27,.86,.31,1.35,.01,1.59-.96,3.16-1.97,4.68-3.04,4.04-2.86,7.71-6.14,10.91-9.94,3.01-3.57,5.55-7.45,7.6-11.64,1.65-3.37,2.92-6.89,3.87-10.51,.92-3.47,1.5-7,1.84-10.64m-16.14-10.46h.04c0,1.99,0,3.98,0,5.97,0,.44,.1,.76,.61,.8,.77,.06,1.52,.27,2.28,.39,3.77,.6,7.55,.78,11.36,.58,2.29-.12,2.33-.11,2.43-2.41,.16-3.74,.07-7.49,.04-11.23,0-.61-.25-.79-.8-.64-1.29,.36-2.62,.53-3.95,.7-3.81,.49-7.57,.29-11.31-.56-.58-.13-.72-.07-.71,.52,.03,1.96,.01,3.93,.01,5.89"/>
      <path class="cls-8" d="M1463.78,959.48c0,2.71-.03,5.42,.02,8.13,.01,.79-.25,.98-.98,.88-1.13-.16-2.23-.44-3.32-.75-2.38-.69-4.69-1.6-6.97-2.58-.43-.18-.75-.17-1.15,.04-3.26,1.65-6.68,2.88-10.25,3.67-.15,.03-.31,.05-.45,.09-.67,.19-.81-.09-.82-.73-.05-4.02-.12-8.05-.23-12.07-.01-.52,.31-.53,.59-.63,2.78-.96,5.37-2.28,7.8-3.93,1.31-.88,2.54-1.86,3.7-2.93,.35-.32,.57-.38,.96-.03,3.03,2.72,6.52,4.7,10.3,6.2,.49,.19,.68,.41,.66,.94-.04,1.24-.01,2.48-.01,3.72h.15m-11.74-4.81c-1.06-.07-2,.23-2.62,1.15-.85,1.25-.14,2.69,1.53,3.17,.69,.2,1.4,.37,2.08,.62,.52,.19,.73,.62,.42,1.12-.51,.81-2.41,.6-2.82-.29-.25-.52-1.08-.9-1.52-.59-.54,.39-.11,.89,.06,1.3,.16,.38,.48,.68,.85,.88,1.32,.73,2.68,.73,4.02,.1,.94-.45,1.35-1.29,1.22-2.3-.13-.96-.74-1.49-1.63-1.75-.74-.22-1.49-.41-2.24-.63-.35-.1-.62-.31-.6-.71,.02-.38,.28-.58,.63-.7,.76-.27,1.41-.04,1.86,.66,.22,.35,1.15,.63,1.49,.37,.44-.33,.16-.75-.01-1.1-.55-1.11-1.55-1.35-2.7-1.31"/>
      <path class="cls-17" d="M1429.41,970.66c-2.67,0-5.01-.22-7.33-.61-.54-.09-.62-.34-.7-.8-.58-3.58-.2-7.16,0-10.74,.03-.54,.12-1.08,.12-1.62,0-.47,.18-.47,.57-.38,2.86,.7,5.77,.91,8.7,.77,2.17-.11,4.32-.42,6.43-.93,.44-.11,.64-.13,.66,.44,.08,3.95,.18,7.9,.33,11.85,.02,.66-.22,.9-.8,1.05-2.72,.69-5.49,1-7.98,.97m-2.95-6.99c.08,2.11,.59,3.12,1.64,3.8,2.04,1.33,4.76,.38,5.32-1.85,.05-.21,.19-.45-.05-.64-.38-.28-1.43,.03-1.6,.48-.26,.69-.73,1.11-1.49,1.15-.8,.04-1.44-.27-1.78-1-.51-1.09-.5-2.21,.13-3.26,.66-1.09,2.3-1.08,3-.01,.28,.42,1.21,.7,1.65,.51,.22-.09,.14-.22,.11-.37-.17-.8-.58-1.43-1.29-1.84-1.27-.73-2.58-.75-3.84-.03-1.37,.79-1.82,2.1-1.81,3.05"/>
      <path class="cls-12" d="M1481.64,972.94c-.34,3.64-.93,7.17-1.84,10.64-.96,3.63-2.23,7.14-3.87,10.51-2.05,4.19-4.59,8.07-7.6,11.64-3.2,3.8-6.86,7.07-10.91,9.94-1.52,1.08-3.08,2.08-4.68,3.04-.49,.3-.87,.26-1.35-.01-3.31-1.84-6.4-4-9.29-6.42-4.63-3.87-8.63-8.3-11.91-13.37-3.94-6.11-6.54-12.73-7.73-19.91-.35-2.11-.52-4.24-.7-6.37-.04-.48,.22-.46,.51-.4,2.45,.54,4.93,.49,7.41,.44,5.22-.12,10.31-1.07,15.3-2.55,2.26-.67,4.47-1.45,6.65-2.33,.45-.18,.86-.2,1.33,0,4.75,2.09,9.73,3.45,14.86,4.2,3.71,.55,7.45,.77,11.21,.64,.67-.02,1.34-.1,2.01-.15q.6-.05,.59,.45m-1.23,1.59c0-.53,.17-.99-.55-.93-3.62,.34-7.23,.06-10.82-.37-4.76-.57-9.44-1.58-13.86-3.44-2.07-.87-3.77-.8-5.84-.02-5.59,2.13-11.4,3.46-17.4,3.84-2.72,.17-5.43,.24-8.13-.09-.82-.1-.92,.12-.86,.8,.3,3,.76,5.97,1.51,8.9,2.26,8.86,6.73,16.49,12.94,23.14,4.12,4.41,8.8,8.13,14.04,11.12,.47,.27,.8,.28,1.26,0,2.63-1.6,5.14-3.37,7.52-5.31,4.12-3.35,7.69-7.2,10.68-11.57,3.48-5.09,6-10.64,7.66-16.58,.88-3.16,1.48-6.37,1.84-9.49"/>
      <path class="cls-20" d="M1465.49,962.48c0-1.96,.02-3.93-.01-5.89,0-.59,.13-.65,.71-.52,3.73,.86,7.5,1.05,11.31,.56,1.33-.17,2.65-.34,3.95-.7,.55-.15,.79,.02,.8,.64,.04,3.74,.12,7.49-.04,11.23-.1,2.3-.14,2.29-2.43,2.41-3.81,.19-7.59,.01-11.36-.58-.76-.12-1.51-.33-2.28-.39-.51-.04-.61-.36-.61-.8,.01-1.99,0-3.98,0-5.97h-.04Zm11.28,.56c.08,.02,.15,.03,.23,.05,0,1.23,.05,2.46-.02,3.68-.04,.79,.45,.61,.89,.65,.52,.05,.72-.1,.71-.67-.04-1.7-.02-3.41-.02-5.11,0-1.72,0-1.71-1.73-1.72-.45,0-.67,.09-.81,.59-.41,1.45-.92,2.86-1.42,4.41-.52-.97-.77-1.91-1.05-2.83-.65-2.2-.66-2.23-2.61-2.14-.03,0-.05,0-.08,0-.36-.07-.44,.13-.44,.44,0,2.19,0,4.39,0,6.58,0,.3,.09,.45,.44,.47,1.11,.07,1.14,.07,1.15-1.08,0-1.09,0-2.18,0-3.3,.42,.08,.42,.36,.49,.55,.37,1.01,.74,2.02,1.06,3.05,.15,.49,.32,.8,.93,.79,.58,0,.84-.23,.95-.77,.07-.35,.18-.7,.33-1.02,.38-.85,.53-1.8,1-2.61"/>
      <path class="cls-19" d="M1452.04,954.67c1.14-.03,2.14,.21,2.7,1.31,.17,.35,.45,.78,.01,1.1-.34,.25-1.27-.02-1.49-.37-.44-.7-1.09-.93-1.86-.66-.35,.12-.61,.32-.63,.7-.02,.4,.25,.61,.6,.71,.74,.22,1.49,.41,2.24,.63,.89,.26,1.51,.8,1.63,1.75,.13,1.01-.28,1.85-1.22,2.3-1.34,.64-2.7,.63-4.02-.1-.37-.2-.68-.51-.85-.88-.18-.41-.6-.91-.06-1.3,.44-.32,1.27,.06,1.52,.59,.41,.88,2.31,1.1,2.82,.29,.31-.49,.11-.93-.42-1.12-.68-.25-1.38-.42-2.08-.62-1.66-.48-2.37-1.92-1.53-3.17,.62-.92,1.56-1.22,2.62-1.15"/>
      <path class="cls-19" d="M1426.46,963.67c0-.95,.44-2.27,1.81-3.05,1.25-.72,2.57-.7,3.84,.03,.71,.41,1.12,1.05,1.29,1.84,.03,.15,.1,.28-.11,.37-.45,.19-1.38-.09-1.65-.51-.7-1.07-2.34-1.08-3,.01-.63,1.05-.64,2.16-.13,3.26,.34,.72,.98,1.04,1.78,1,.76-.04,1.23-.46,1.49-1.15,.17-.45,1.22-.76,1.6-.48,.24,.18,.11,.42,.05,.64-.56,2.24-3.28,3.18-5.32,1.85-1.06-.69-1.56-1.69-1.64-3.8"/>
      <path class="cls-19" d="M1480.41,974.53c-.37,3.12-.97,6.33-1.84,9.49-1.65,5.94-4.17,11.49-7.66,16.58-2.99,4.37-6.57,8.22-10.68,11.57-2.39,1.95-4.9,3.71-7.52,5.31-.46,.28-.8,.27-1.26,0-5.25-3-9.93-6.72-14.04-11.12-6.21-6.65-10.68-14.27-12.94-23.14-.75-2.93-1.21-5.9-1.51-8.9-.07-.68,.03-.9,.86-.8,2.7,.33,5.41,.26,8.13,.09,6-.38,11.81-1.72,17.4-3.84,2.07-.79,3.77-.86,5.84,.02,4.41,1.86,9.1,2.86,13.86,3.44,3.59,.43,7.2,.71,10.82,.37,.72-.07,.56,.4,.55,.93m-33.19,7.03c0,.72-.08,1.45,.01,2.16,.52,3.91,1.93,7.52,3.76,10.98,.22,.41,.42,.76,1.02,.77,.62,.01,.87-.31,1.12-.75,1.87-3.31,3.15-6.81,3.54-10.62,.45-4.37-.57-8.33-3.21-11.86-1.15-1.53-1.25-1.53-2.62-.2-2.68,2.61-3.74,5.84-3.62,9.51m-10.59,1.13c-.53-.1-1.37,.22-2.19,.73-.95,.58-1.85,1.23-2.69,1.96-1.83,1.6-2.43,3.6-1.59,5.53,.77,1.78,2.21,2.95,3.82,3.94,.42,.26,.52,.02,.62-.34,.26-.98,.65-1.9,1.17-2.77,.86-1.46,2.07-2.3,3.84-2.01,1.45,.24,2.63,1.04,3.71,1.99,1.13,.99,2.18,2.05,3.09,3.25,.42,.55,1.03,.41,1.49,.26,.45-.14,.16-.66,.08-1.01-.49-2.26-1.21-4.43-2.46-6.4-1.96-3.09-4.66-4.97-8.88-5.12m36.96,6.41c.07-.81-.28-1.63-.79-2.39-.92-1.35-2.2-2.31-3.59-3.12-.55-.32-1.05-.77-1.73-.83-3.35-.27-6.13,.86-8.34,3.38-2.16,2.47-3.14,5.46-3.83,8.59-.04,.2-.13,.49,.15,.51,.56,.03,1.18,.27,1.63-.35,.38-.52,.8-1.01,1.24-1.48,1.37-1.45,2.83-2.79,4.75-3.51,1.53-.57,3.08-.14,4.09,1.15,.81,1.04,1.27,2.24,1.65,3.47,.12,.4,.24,.57,.69,.29,1.05-.67,2.01-1.45,2.82-2.4,.77-.91,1.29-1.93,1.27-3.3m-17.57,19.57c.02-3.74-1.41-6.24-3.44-8.48-.24-.26-.45-.29-.72-.04-2.28,2.11-3.86,4.59-3.88,7.79-.02,3.29,1.68,5.81,3.87,8.08,.34,.35,.58,.19,.83-.1,1.99-2.25,3.27-4.8,3.35-7.25m-4.04-9.83c1.47,0,2.95,0,4.42,0,1.81,0,1.78,0,1.8-1.84,0-.64-.22-.77-.8-.76-3.33,.02-6.67,.01-10,.01-1.81,0-1.79,0-1.78,1.85,0,.59,.22,.75,.78,.74,1.86-.03,3.72,0,5.58,0m7.68,7.15c1.31,0,3.24-.48,4.4-1.07,.23-.12,.45-.21,.49-.53,.07-.48,.2-.96,.29-1.44,.09-.44-.06-.54-.5-.39-.66,.22-1.34,.39-2.02,.53-2.02,.4-4.51,.04-5.26-2.76-.08-.28-.27-.35-.52-.35-.31,0-.62,.01-.93,0-.4-.03-.55,.13-.54,.54,0,.73,.11,1.44,.29,2.14,.58,2.26,1.98,3.36,4.29,3.36m-21.3-3.62c.13,.67,.26,1.2,.33,1.73,.06,.49,.3,.74,.76,.93,1.05,.44,2.13,.79,3.26,.92,1.22,.13,2.44,.12,3.5-.64,1.67-1.21,1.89-3.03,2.01-4.88,0-.11-.05-.27-.13-.35-.39-.38-1.75-.03-1.93,.49-.6,1.72-1.86,2.59-3.67,2.65-1.4,.05-2.69-.38-4.13-.84"/>
      <path class="cls-19" d="M1476.77,963.04c-.47,.81-.62,1.76-1,2.61-.15,.32-.25,.67-.33,1.02-.11,.53-.37,.76-.95,.77-.61,0-.78-.3-.93-.79-.32-1.03-.68-2.04-1.06-3.05-.07-.19-.07-.47-.49-.55,0,1.12,0,2.21,0,3.3,0,1.15-.03,1.15-1.15,1.08-.35-.02-.44-.17-.44-.47,0-2.19,0-4.39,0-6.58,0-.31,.08-.51,.44-.44,.02,0,.05,0,.08,0,1.95-.09,1.96-.06,2.61,2.14,.27,.92,.53,1.86,1.05,2.83,.5-1.54,1.01-2.96,1.42-4.41,.14-.49,.36-.59,.81-.59,1.73,0,1.73,0,1.73,1.72,0,1.7-.02,3.41,.02,5.11,.01,.57-.19,.72-.71,.67-.44-.04-.93,.14-.89-.65,.06-1.22,.02-2.45,.02-3.68-.08-.02-.15-.03-.23-.05"/>
      <path class="cls-8" d="M1447.22,981.55c-.13-3.67,.94-6.9,3.62-9.51,1.37-1.34,1.47-1.34,2.62,.2,2.64,3.52,3.66,7.48,3.21,11.86-.39,3.81-1.67,7.31-3.54,10.62-.25,.44-.49,.77-1.12,.75-.6-.01-.8-.36-1.02-.77-1.83-3.46-3.24-7.07-3.76-10.98-.09-.71-.01-1.44-.01-2.16"/>
      <path class="cls-8" d="M1436.63,982.69c4.22,.15,6.92,2.03,8.88,5.12,1.25,1.97,1.97,4.14,2.46,6.4,.08,.35,.37,.87-.08,1.01-.45,.14-1.07,.29-1.49-.26-.91-1.2-1.97-2.26-3.09-3.25-1.07-.94-2.25-1.75-3.71-1.99-1.77-.29-2.98,.56-3.84,2.01-.51,.87-.91,1.8-1.17,2.77-.09,.36-.2,.6-.62,.34-1.61-.99-3.05-2.16-3.82-3.94-.84-1.93-.24-3.93,1.59-5.53,.84-.73,1.73-1.38,2.69-1.96,.83-.5,1.66-.83,2.19-.73"/>
      <path class="cls-8" d="M1473.6,989.1c.01,1.37-.51,2.4-1.27,3.3-.8,.95-1.76,1.73-2.82,2.4-.44,.28-.56,.11-.69-.29-.38-1.24-.84-2.44-1.65-3.47-1.01-1.29-2.56-1.73-4.09-1.16-1.92,.72-3.37,2.07-4.75,3.51-.44,.47-.86,.96-1.24,1.48-.45,.62-1.07,.38-1.63,.35-.28-.01-.19-.31-.15-.51,.68-3.13,1.67-6.12,3.83-8.59,2.21-2.52,5-3.65,8.34-3.38,.68,.05,1.18,.51,1.73,.83,1.39,.81,2.67,1.77,3.59,3.12,.52,.76,.87,1.59,.79,2.39"/>
      <path class="cls-8" d="M1456.02,1008.67c-.07,2.45-1.35,5-3.35,7.25-.25,.28-.5,.45-.83,.1-2.18-2.27-3.89-4.79-3.87-8.08,.02-3.2,1.6-5.68,3.88-7.79,.27-.25,.48-.22,.72,.04,2.03,2.24,3.46,4.74,3.44,8.48"/>
      <path class="cls-12" d="M1451.99,998.84c-1.86,0-3.72-.02-5.58,0-.56,0-.77-.16-.78-.74-.01-1.85-.03-1.85,1.78-1.85,3.33,0,6.67,0,10-.01,.58,0,.81,.12,.8,.76-.02,1.84,0,1.84-1.8,1.84-1.47,0-2.95,0-4.42,0"/>
      <path class="cls-12" d="M1459.67,1006c-2.31,0-3.71-1.1-4.29-3.36-.18-.7-.29-1.41-.29-2.14,0-.41,.15-.56,.54-.54,.31,.02,.62,0,.93,0,.26,0,.45,.06,.52,.35,.74,2.81,3.24,3.17,5.26,2.76,.68-.14,1.36-.31,2.02-.53,.44-.14,.58-.05,.5,.4-.1,.48-.22,.95-.29,1.44-.04,.32-.26,.41-.49,.53-1.16,.6-3.09,1.07-4.4,1.07"/>
      <path class="cls-12" d="M1438.37,1002.38c1.44,.46,2.73,.89,4.13,.84,1.81-.06,3.07-.93,3.67-2.65,.18-.51,1.55-.86,1.93-.49,.08,.08,.13,.23,.13,.35-.11,1.85-.33,3.67-2.01,4.88-1.06,.77-2.28,.78-3.5,.64-1.13-.12-2.21-.48-3.26-.92-.46-.19-.7-.44-.76-.93-.07-.53-.2-1.05-.33-1.73"/>
    </g>
  </g>
  <g class="cls-9">
    <g class="cls-16">
      <path class="cls-19" d="M2410.86,670.87c.01-2.96,.24-5.9,.57-8.83,.22-1.96,.6-3.89,.91-5.83,.09-.54,.27-.58,.71-.42,2.2,.81,4.5,1.29,6.81,1.52,2.15,.22,4.31,.27,6.48,.07,2.34-.21,4.62-.62,6.86-1.29,3.63-1.09,6.94-2.82,9.99-5.05,.91-.67,1.81-1.36,2.61-2.16,.22-.22,.35-.27,.62-.03,3.52,3.1,7.59,5.24,12.01,6.75,4.22,1.44,8.6,1.84,13.02,1.52,2.23-.16,4.43-.71,6.57-1.4,1.01-.33,1.18-.18,1.3,.87,.44,3.89,.9,7.78,.8,11.69-.07,2.74-.27,5.48-.54,8.21-.35,3.57-.97,7.1-1.84,10.57-1.18,4.67-2.75,9.19-4.85,13.55-2.17,4.51-4.83,8.7-7.97,12.59-2.25,2.78-4.73,5.37-7.45,7.7-3.29,2.82-6.75,5.4-10.48,7.61-.42,.25-.76,.25-1.14,.03-3.63-2.11-7.07-4.48-10.29-7.17-2.16-1.8-4.25-3.68-6.19-5.71-2.46-2.59-4.74-5.33-6.81-8.25-1.89-2.67-3.57-5.45-5.05-8.36-2.44-4.81-4.19-9.86-5.29-15.13-.5-2.38-.86-4.78-1.04-7.21-.14-1.95-.34-3.89-.32-5.85m46.88-7.3h-.15c0-1.24-.04-2.48,0-3.72,.02-.53-.18-.74-.67-.94-3.78-1.49-7.28-3.45-10.32-6.16-.39-.35-.62-.28-.96,.04-1.16,1.07-2.39,2.05-3.69,2.94-2.42,1.65-5.01,2.99-7.78,3.96-.29,.1-.61,.11-.59,.64,.12,4.02,.21,8.05,.27,12.07,0,.64,.15,.92,.82,.73,.15-.04,.3-.06,.45-.09,3.57-.8,6.98-2.04,10.24-3.71,.41-.21,.73-.22,1.15-.04,2.28,.97,4.59,1.86,6.98,2.55,1.09,.31,2.19,.58,3.32,.74,.72,.1,.99-.09,.97-.88-.06-2.71-.04-5.42-.05-8.13m-34.32,11.32c2.49,.02,5.26-.31,7.98-1,.59-.15,.83-.39,.8-1.05-.16-3.95-.27-7.9-.37-11.84-.01-.57-.22-.54-.66-.44-2.11,.51-4.26,.84-6.43,.96-2.93,.15-5.84-.05-8.7-.73-.39-.09-.57-.09-.57,.38,0,.54-.09,1.08-.11,1.62-.19,3.58-.56,7.16,.04,10.74,.08,.46,.16,.71,.7,.8,2.33,.39,4.66,.59,7.33,.58m52.23,2.07q0-.5-.59-.45c-.67,.05-1.34,.13-2.01,.15-3.75,.14-7.5-.06-11.21-.6-5.13-.74-10.11-2.07-14.87-4.15-.48-.21-.88-.19-1.33,0-2.18,.89-4.39,1.69-6.64,2.36-4.99,1.49-10.08,2.47-15.29,2.61-2.48,.07-4.96,.12-7.41-.41-.3-.06-.55-.08-.51,.4,.18,2.13,.36,4.26,.72,6.37,1.21,7.17,3.84,13.79,7.81,19.88,3.3,5.06,7.32,9.47,11.96,13.32,2.91,2.41,6,4.56,9.32,6.39,.48,.27,.86,.31,1.35,0,1.59-.97,3.15-1.98,4.66-3.06,4.03-2.88,7.68-6.17,10.87-9.98,3-3.59,5.52-7.47,7.55-11.67,1.63-3.38,2.89-6.9,3.83-10.53,.9-3.48,1.47-7,1.8-10.65m-16.18-10.39h.04c0,1.99,.02,3.98,.02,5.96,0,.44,.1,.76,.61,.8,.77,.06,1.52,.26,2.28,.38,3.77,.58,7.56,.75,11.36,.54,2.29-.13,2.33-.11,2.42-2.42,.14-3.74,.04-7.49,0-11.23,0-.61-.25-.79-.8-.63-1.29,.37-2.62,.54-3.94,.71-3.8,.5-7.57,.32-11.31-.52-.58-.13-.72-.06-.71,.52,.03,1.96,.03,3.93,.03,5.89"/>
      <path class="cls-8" d="M2457.74,663.56c.01,2.71,0,5.42,.05,8.13,.02,.79-.25,.98-.97,.88-1.13-.16-2.23-.43-3.32-.74-2.39-.69-4.7-1.58-6.98-2.55-.43-.18-.75-.17-1.15,.04-3.25,1.67-6.66,2.91-10.24,3.71-.15,.03-.31,.05-.45,.09-.67,.2-.81-.09-.82-.73-.06-4.02-.15-8.05-.27-12.07-.02-.52,.3-.54,.59-.64,2.77-.97,5.36-2.3,7.78-3.96,1.3-.89,2.53-1.87,3.69-2.94,.35-.32,.57-.39,.96-.04,3.04,2.71,6.54,4.68,10.32,6.16,.49,.19,.68,.4,.67,.94-.04,1.24,0,2.48,0,3.72h.15m-11.76-4.76c-1.06-.07-2,.24-2.62,1.16-.84,1.26-.13,2.69,1.54,3.17,.69,.2,1.4,.37,2.08,.61,.52,.19,.73,.62,.42,1.11-.51,.81-2.41,.6-2.82-.28-.25-.52-1.09-.9-1.52-.58-.53,.39-.11,.89,.07,1.3,.16,.38,.48,.68,.85,.88,1.32,.72,2.68,.72,4.02,.08,.94-.45,1.35-1.29,1.21-2.3-.13-.96-.75-1.49-1.64-1.75-.74-.21-1.49-.41-2.24-.62-.35-.1-.62-.3-.6-.7,.02-.38,.28-.58,.63-.7,.76-.27,1.41-.05,1.86,.65,.22,.35,1.15,.62,1.49,.37,.44-.33,.16-.75-.02-1.1-.56-1.11-1.56-1.34-2.7-1.3"/>
      <path class="cls-17" d="M2423.41,674.88c-2.67,0-5.01-.2-7.33-.58-.54-.09-.62-.34-.7-.8-.6-3.58-.23-7.16-.04-10.74,.03-.54,.11-1.08,.11-1.62,0-.47,.18-.47,.57-.38,2.86,.69,5.77,.89,8.7,.73,2.17-.11,4.32-.44,6.43-.96,.44-.11,.64-.13,.66,.44,.1,3.95,.21,7.9,.37,11.84,.03,.66-.21,.9-.8,1.05-2.72,.7-5.48,1.02-7.98,1m-2.98-6.98c.09,2.11,.6,3.12,1.66,3.8,2.05,1.32,4.76,.37,5.31-1.87,.05-.21,.19-.46-.06-.63-.38-.28-1.43,.04-1.6,.49-.26,.69-.73,1.12-1.49,1.16-.8,.04-1.44-.27-1.78-.99-.52-1.09-.51-2.21,.12-3.26,.65-1.09,2.29-1.09,3-.02,.28,.42,1.21,.69,1.66,.5,.22-.09,.14-.22,.11-.37-.17-.8-.58-1.43-1.3-1.84-1.27-.73-2.59-.74-3.84-.02-1.37,.79-1.81,2.11-1.8,3.06"/>
      <path class="cls-12" d="M2475.65,676.96c-.33,3.64-.9,7.17-1.8,10.65-.94,3.63-2.2,7.15-3.83,10.53-2.03,4.2-4.55,8.09-7.55,11.67-3.18,3.81-6.83,7.1-10.87,9.98-1.51,1.08-3.07,2.09-4.66,3.06-.49,.3-.87,.26-1.35,0-3.32-1.83-6.41-3.98-9.32-6.39-4.64-3.85-8.66-8.26-11.96-13.32-3.97-6.09-6.59-12.71-7.81-19.88-.36-2.11-.54-4.24-.72-6.37-.04-.48,.22-.46,.51-.4,2.45,.53,4.93,.47,7.41,.41,5.22-.14,10.3-1.11,15.29-2.61,2.25-.67,4.47-1.47,6.64-2.36,.45-.19,.85-.21,1.33,0,4.76,2.07,9.74,3.41,14.87,4.15,3.71,.53,7.45,.74,11.21,.6,.67-.03,1.34-.1,2.01-.15q.6-.05,.59,.45m-1.22,1.59c0-.53,.17-1-.56-.92-3.62,.36-7.23,.09-10.83-.33-4.76-.55-9.45-1.54-13.87-3.38-2.08-.87-3.78-.79-5.84,0-5.58,2.15-11.38,3.5-17.39,3.91-2.72,.18-5.43,.26-8.13-.06-.83-.1-.92,.12-.85,.8,.31,3,.79,5.97,1.55,8.89,2.3,8.85,6.8,16.46,13.03,23.08,4.13,4.39,8.83,8.09,14.09,11.07,.47,.26,.8,.27,1.26,0,2.62-1.61,5.12-3.39,7.5-5.34,4.1-3.37,7.66-7.23,10.64-11.61,3.46-5.11,5.96-10.67,7.59-16.61,.87-3.16,1.45-6.38,1.81-9.5"/>
      <path class="cls-20" d="M2459.46,666.56c0-1.96,0-3.93-.03-5.89-.01-.59,.13-.65,.71-.52,3.73,.84,7.5,1.02,11.31,.52,1.33-.18,2.65-.35,3.94-.71,.55-.16,.79,.02,.8,.63,.05,3.74,.15,7.49,0,11.23-.09,2.3-.13,2.29-2.42,2.42-3.81,.21-7.59,.05-11.36-.54-.76-.12-1.51-.32-2.28-.38-.51-.04-.61-.35-.61-.8,0-1.99-.01-3.98-.02-5.96h-.04Zm11.28,.51c.08,.02,.15,.03,.23,.05,0,1.23,.06,2.46,0,3.68-.04,.79,.45,.61,.89,.65,.52,.05,.72-.1,.71-.67-.05-1.7-.03-3.41-.04-5.11,0-1.72,0-1.71-1.73-1.72-.45,0-.67,.1-.81,.59-.41,1.45-.9,2.87-1.4,4.41-.52-.97-.78-1.91-1.06-2.83-.65-2.2-.67-2.23-2.61-2.13-.03,0-.05,0-.08,0-.36-.07-.44,.13-.44,.44,.01,2.19,.02,4.39,.02,6.58,0,.3,.09,.45,.44,.47,1.12,.07,1.14,.06,1.14-1.08,0-1.09,0-2.18-.01-3.3,.42,.08,.42,.36,.49,.55,.38,1.01,.74,2.02,1.07,3.04,.15,.49,.33,.8,.93,.79,.58,0,.84-.24,.95-.77,.07-.35,.18-.7,.32-1.02,.38-.85,.52-1.8,.99-2.61"/>
      <path class="cls-19" d="M2445.98,658.8c1.14-.04,2.15,.2,2.7,1.3,.17,.35,.45,.77,.02,1.1-.34,.26-1.27-.02-1.49-.37-.44-.7-1.1-.92-1.86-.65-.35,.12-.61,.32-.63,.7-.02,.4,.25,.6,.6,.7,.74,.21,1.49,.41,2.24,.62,.89,.26,1.51,.79,1.64,1.75,.14,1.01-.27,1.85-1.21,2.3-1.34,.64-2.69,.64-4.02-.08-.37-.2-.68-.5-.85-.88-.18-.41-.6-.91-.07-1.3,.43-.32,1.28,.06,1.52,.58,.42,.88,2.31,1.09,2.82,.28,.31-.49,.1-.93-.42-1.11-.68-.24-1.38-.41-2.08-.61-1.67-.48-2.38-1.91-1.54-3.17,.62-.92,1.56-1.23,2.62-1.16"/>
      <path class="cls-19" d="M2420.44,667.91c-.01-.95,.43-2.27,1.8-3.06,1.25-.72,2.56-.71,3.84,.02,.71,.41,1.12,1.04,1.3,1.84,.03,.15,.1,.28-.11,.37-.45,.19-1.38-.08-1.66-.5-.7-1.07-2.34-1.07-3,.02-.63,1.05-.63,2.17-.12,3.26,.34,.72,.98,1.03,1.78,.99,.76-.04,1.23-.46,1.49-1.16,.17-.45,1.22-.77,1.6-.49,.25,.18,.11,.42,.06,.63-.56,2.24-3.27,3.19-5.31,1.87-1.06-.68-1.56-1.68-1.66-3.8"/>
      <path class="cls-19" d="M2474.42,678.55c-.36,3.12-.94,6.33-1.81,9.5-1.63,5.95-4.13,11.51-7.59,16.61-2.97,4.39-6.53,8.25-10.64,11.61-2.38,1.95-4.88,3.73-7.5,5.34-.46,.28-.8,.27-1.26,0-5.26-2.98-9.96-6.68-14.09-11.07-6.23-6.62-10.73-14.23-13.03-23.08-.76-2.93-1.24-5.89-1.55-8.89-.07-.68,.03-.9,.85-.8,2.7,.32,5.41,.24,8.13,.06,6-.41,11.8-1.76,17.39-3.91,2.07-.8,3.77-.87,5.84,0,4.42,1.84,9.11,2.83,13.87,3.38,3.59,.42,7.2,.69,10.83,.33,.72-.07,.56,.39,.56,.92m-33.16,7.16c0,.72-.07,1.45,.02,2.16,.53,3.91,1.96,7.51,3.8,10.97,.22,.41,.42,.76,1.02,.77,.62,.01,.86-.31,1.11-.76,1.86-3.32,3.12-6.82,3.5-10.63,.43-4.37-.61-8.33-3.26-11.84-1.15-1.53-1.25-1.53-2.62-.18-2.67,2.62-3.72,5.86-3.58,9.53m-10.58,1.18c-.53-.1-1.36,.23-2.19,.74-.95,.59-1.84,1.23-2.68,1.97-1.83,1.61-2.42,3.61-1.57,5.53,.78,1.78,2.22,2.94,3.84,3.92,.42,.26,.52,.01,.62-.34,.26-.98,.64-1.91,1.15-2.78,.85-1.46,2.06-2.31,3.83-2.03,1.45,.23,2.64,1.03,3.71,1.97,1.13,.98,2.19,2.05,3.11,3.24,.42,.55,1.03,.4,1.49,.26,.45-.15,.15-.66,.08-1.01-.5-2.26-1.23-4.43-2.48-6.39-1.97-3.09-4.68-4.95-8.9-5.08m36.99,6.26c.07-.81-.28-1.63-.8-2.39-.93-1.35-2.21-2.3-3.61-3.11-.55-.32-1.05-.77-1.73-.82-3.35-.25-6.13,.89-8.33,3.42-2.15,2.47-3.12,5.47-3.79,8.6-.04,.2-.13,.49,.15,.51,.56,.03,1.18,.26,1.63-.36,.38-.52,.8-1.02,1.24-1.48,1.37-1.45,2.82-2.8,4.73-3.53,1.53-.58,3.08-.15,4.1,1.14,.82,1.03,1.28,2.23,1.66,3.47,.13,.4,.24,.57,.69,.29,1.05-.68,2-1.46,2.81-2.41,.76-.91,1.28-1.93,1.26-3.31m-17.49,19.64c0-3.74-1.44-6.24-3.48-8.47-.24-.26-.45-.29-.72-.04-2.28,2.12-3.84,4.61-3.85,7.8,0,3.29,1.71,5.8,3.9,8.06,.34,.35,.58,.19,.83-.1,1.98-2.26,3.25-4.81,3.32-7.26m-4.08-9.81c1.47,0,2.95,0,4.42-.02,1.81-.01,1.78-.01,1.8-1.85,0-.64-.22-.76-.81-.76-3.33,.04-6.67,.04-10,.05-1.81,0-1.79,.01-1.77,1.86,0,.59,.22,.75,.78,.74,1.86-.03,3.72-.02,5.58-.03m7.71,7.12c1.31,0,3.24-.49,4.4-1.09,.23-.12,.45-.22,.49-.53,.07-.48,.19-.96,.29-1.44,.09-.44-.06-.54-.5-.39-.66,.22-1.33,.4-2.02,.54-2.02,.41-4.51,.06-5.27-2.74-.08-.28-.27-.35-.52-.35-.31,0-.62,.02-.93,0-.4-.02-.55,.13-.54,.54,.01,.73,.12,1.44,.3,2.14,.59,2.26,1.99,3.35,4.3,3.34m-21.31-3.53c.14,.67,.27,1.19,.34,1.72,.06,.49,.31,.74,.77,.93,1.06,.44,2.13,.79,3.26,.9,1.22,.13,2.44,.11,3.49-.66,1.67-1.22,1.88-3.04,1.99-4.89,0-.11-.05-.27-.13-.34-.39-.38-1.75-.02-1.93,.49-.59,1.72-1.85,2.59-3.66,2.66-1.4,.06-2.69-.37-4.13-.82"/>
      <path class="cls-19" d="M2470.74,667.08c-.47,.81-.61,1.76-.99,2.61-.14,.33-.25,.67-.32,1.02-.11,.53-.37,.76-.95,.77-.61,0-.78-.3-.93-.79-.33-1.02-.69-2.04-1.07-3.04-.07-.19-.07-.47-.49-.55,0,1.12,.01,2.21,.01,3.3,0,1.15-.03,1.15-1.14,1.08-.35-.02-.44-.17-.44-.47,0-2.19-.01-4.39-.02-6.58,0-.31,.08-.51,.44-.44,.03,0,.05,0,.08,0,1.95-.09,1.96-.06,2.61,2.13,.27,.92,.54,1.86,1.06,2.83,.5-1.54,1-2.96,1.4-4.41,.14-.49,.36-.59,.81-.59,1.73,0,1.73,0,1.73,1.72,0,1.7,0,3.41,.04,5.11,.02,.57-.19,.72-.71,.67-.44-.04-.93,.14-.89-.65,.06-1.22,0-2.45,0-3.68-.08-.02-.15-.03-.23-.05"/>
      <path class="cls-8" d="M2441.27,685.71c-.14-3.67,.91-6.91,3.58-9.53,1.37-1.34,1.47-1.34,2.62,.18,2.65,3.51,3.69,7.47,3.26,11.84-.38,3.81-1.64,7.32-3.5,10.63-.25,.44-.49,.77-1.11,.76-.6-.01-.8-.35-1.02-.77-1.84-3.46-3.27-7.06-3.8-10.97-.1-.71-.02-1.44-.02-2.16"/>
      <path class="cls-8" d="M2430.68,686.88c4.22,.13,6.93,2,8.9,5.08,1.25,1.96,1.99,4.13,2.48,6.39,.08,.35,.38,.86-.08,1.01-.45,.15-1.06,.29-1.49-.26-.92-1.19-1.98-2.25-3.11-3.24-1.08-.94-2.26-1.74-3.71-1.97-1.77-.28-2.98,.57-3.83,2.03-.51,.87-.9,1.8-1.15,2.78-.09,.36-.19,.6-.62,.34-1.61-.98-3.06-2.15-3.84-3.92-.84-1.93-.26-3.92,1.57-5.53,.83-.73,1.73-1.38,2.68-1.97,.82-.51,1.66-.84,2.19-.74"/>
      <path class="cls-8" d="M2467.67,693.15c.02,1.37-.5,2.4-1.26,3.31-.8,.95-1.75,1.74-2.81,2.41-.44,.28-.56,.11-.69-.29-.39-1.23-.85-2.43-1.66-3.47-1.02-1.29-2.57-1.72-4.1-1.14-1.92,.73-3.37,2.08-4.73,3.53-.44,.47-.86,.96-1.24,1.48-.45,.62-1.07,.39-1.63,.36-.28-.01-.19-.31-.15-.51,.67-3.13,1.64-6.13,3.79-8.6,2.2-2.53,4.98-3.67,8.33-3.42,.68,.05,1.18,.5,1.73,.82,1.39,.81,2.68,1.76,3.61,3.11,.52,.76,.87,1.58,.8,2.39"/>
      <path class="cls-8" d="M2450.18,712.79c-.06,2.45-1.33,5-3.32,7.26-.25,.29-.49,.45-.83,.1-2.19-2.26-3.91-4.78-3.9-8.06,0-3.2,1.58-5.69,3.85-7.8,.27-.25,.48-.22,.72,.04,2.04,2.23,3.48,4.73,3.48,8.47"/>
      <path class="cls-12" d="M2446.1,702.98c-1.86,0-3.72,0-5.58,.03-.56,0-.77-.15-.78-.74-.02-1.85-.04-1.85,1.77-1.86,3.33-.02,6.67-.02,10-.05,.58,0,.81,.11,.81,.76-.02,1.84,.02,1.84-1.8,1.85-1.47,0-2.95,.01-4.42,.02"/>
      <path class="cls-12" d="M2453.81,710.1c-2.31,.01-3.71-1.08-4.3-3.34-.18-.7-.29-1.41-.3-2.14,0-.41,.14-.56,.54-.54,.31,.02,.62,0,.93,0,.26,0,.45,.06,.52,.35,.75,2.81,3.25,3.15,5.27,2.74,.68-.14,1.36-.32,2.02-.54,.44-.15,.58-.05,.5,.39-.09,.48-.22,.96-.29,1.44-.04,.32-.26,.41-.49,.53-1.16,.6-3.09,1.09-4.4,1.09"/>
      <path class="cls-12" d="M2432.5,706.57c1.44,.45,2.73,.88,4.13,.82,1.81-.07,3.07-.94,3.66-2.66,.18-.51,1.54-.87,1.93-.49,.08,.08,.14,.23,.13,.34-.11,1.85-.32,3.67-1.99,4.89-1.06,.77-2.28,.79-3.49,.66-1.13-.12-2.21-.47-3.26-.9-.46-.19-.7-.44-.77-.93-.07-.53-.2-1.05-.34-1.72"/>
    </g>
  </g>
  <g class="cls-14">
    <g class="cls-18">
      <path class="cls-19" d="M3331,701.56c-1.08-2.75-1.96-5.57-2.74-8.42-.52-1.9-.88-3.84-1.31-5.75-.12-.53,.04-.64,.5-.65,2.35-.06,4.65-.46,6.89-1.1,2.07-.59,4.1-1.34,6.05-2.33,2.1-1.06,4.06-2.28,5.9-3.73,2.97-2.35,5.4-5.18,7.42-8.38,.6-.96,1.18-1.93,1.63-2.97,.12-.28,.23-.38,.57-.26,4.42,1.58,8.99,2.07,13.65,1.84,4.45-.22,8.67-1.46,12.66-3.4,2.02-.98,3.85-2.3,5.58-3.73,.82-.68,1.03-.61,1.53,.33,1.85,3.45,3.71,6.9,5.06,10.57,.95,2.57,1.77,5.19,2.53,7.83,.99,3.45,1.72,6.95,2.19,10.51,.63,4.77,.84,9.56,.5,14.38-.35,4.99-1.27,9.87-2.75,14.64-1.06,3.42-2.41,6.73-4.08,9.91-2.02,3.84-4.28,7.51-6.93,10.95-.3,.39-.61,.51-1.05,.45-4.15-.62-8.22-1.55-12.21-2.86-2.67-.88-5.31-1.85-7.86-3.02-3.25-1.49-6.38-3.2-9.38-5.15-2.74-1.78-5.33-3.75-7.78-5.91-4.04-3.56-7.53-7.62-10.5-12.11-1.34-2.02-2.57-4.12-3.63-6.32-.85-1.76-1.75-3.49-2.46-5.32m40.86-24.1l-.14,.05c-.46-1.15-.95-2.29-1.38-3.45-.18-.5-.44-.62-.97-.62-4.06,.01-8.04-.52-11.87-1.92-.49-.18-.68-.04-.88,.39-.68,1.42-1.46,2.79-2.34,4.1-1.64,2.43-3.55,4.63-5.77,6.55-.23,.2-.52,.33-.31,.81,1.6,3.69,3.17,7.4,4.71,11.12,.24,.59,.48,.81,1.03,.37,.12-.09,.26-.17,.39-.25,3.02-2.06,5.73-4.48,8.14-7.23,.3-.34,.59-.47,1.06-.46,2.48,.06,4.96,.04,7.43-.21,1.13-.11,2.25-.27,3.36-.54,.71-.17,.89-.45,.58-1.18-1.06-2.49-2.04-5.02-3.05-7.53m-27.71,23.2c2.32-.9,4.77-2.23,7.04-3.88,.49-.36,.62-.67,.35-1.27-1.61-3.61-3.17-7.24-4.72-10.87-.22-.52-.4-.43-.77-.16-1.77,1.26-3.65,2.36-5.62,3.26-2.67,1.23-5.44,2.11-8.36,2.53-.4,.06-.56,.13-.39,.56,.2,.5,.32,1.03,.49,1.55,1.14,3.4,2.12,6.86,4,9.96,.24,.4,.41,.6,.95,.49,2.31-.5,4.55-1.17,7.03-2.17m49.3-17.37q-.18-.46-.71-.2c-.6,.3-1.2,.61-1.81,.89-3.44,1.52-6.99,2.71-10.64,3.58-5.04,1.21-10.16,1.81-15.35,1.64-.52-.02-.88,.15-1.24,.49-1.69,1.63-3.45,3.19-5.3,4.65-4.09,3.23-8.45,6.01-13.25,8.07-2.28,.98-4.57,1.95-7.04,2.36-.3,.05-.54,.13-.33,.56,.96,1.91,1.91,3.82,3.02,5.65,3.78,6.22,8.66,11.4,14.6,15.59,4.93,3.49,10.3,6.1,16.03,7.96,3.59,1.17,7.26,2.02,11.02,2.49,.55,.07,.91-.03,1.26-.49,1.12-1.49,2.2-3,3.2-4.57,2.68-4.17,4.86-8.57,6.41-13.29,1.46-4.44,2.37-8.98,2.7-13.64,.27-3.74,.14-7.48-.33-11.2-.45-3.56-1.22-7.05-2.26-10.56m-18.88-3.68h.04c.74,1.83,1.49,3.67,2.22,5.52,.16,.41,.37,.67,.86,.51,.74-.23,1.51-.32,2.26-.49,3.72-.85,7.3-2.1,10.76-3.7,2.08-.96,2.12-.97,1.35-3.14-1.25-3.53-2.73-6.97-4.16-10.43-.23-.57-.52-.64-.98-.29-1.07,.82-2.23,1.47-3.4,2.12-3.35,1.87-6.92,3.1-10.7,3.69-.58,.09-.69,.2-.46,.75,.76,1.81,1.47,3.64,2.21,5.46"/>
      <path class="cls-8" d="M3371.86,677.46c1.01,2.51,1.99,5.04,3.05,7.53,.31,.73,.13,1.01-.58,1.18-1.11,.27-2.23,.43-3.36,.54-2.47,.25-4.95,.27-7.43,.21-.46-.01-.76,.12-1.06,.46-2.41,2.75-5.12,5.17-8.14,7.23-.13,.09-.27,.16-.39,.25-.55,.43-.79,.21-1.03-.38-1.54-3.72-3.11-7.43-4.71-11.12-.21-.48,.08-.61,.31-.81,2.22-1.92,4.13-4.12,5.77-6.55,.88-1.31,1.66-2.67,2.34-4.1,.2-.43,.39-.57,.88-.39,3.83,1.39,7.81,1.93,11.87,1.92,.53,0,.78,.12,.97,.62,.42,1.16,.91,2.3,1.38,3.45l.14-.05m-12.69-.08c-1.01,.33-1.77,.96-2,2.04-.32,1.48,.88,2.55,2.6,2.37,.72-.07,1.44-.18,2.16-.2,.56-.02,.91,.31,.8,.88-.17,.94-2.01,1.45-2.73,.78-.42-.39-1.34-.43-1.63,.02-.35,.56,.23,.87,.54,1.19,.29,.29,.69,.45,1.11,.5,1.5,.18,2.76-.32,3.76-1.41,.7-.76,.77-1.7,.27-2.58-.48-.84-1.25-1.11-2.17-1.02-.77,.08-1.54,.17-2.31,.25-.36,.04-.69-.05-.82-.43-.12-.36,.05-.64,.33-.88,.61-.53,1.3-.57,1.97-.08,.33,.24,1.3,.15,1.52-.21,.28-.47-.13-.76-.42-1.02-.92-.82-1.94-.67-2.99-.21"/>
      <path class="cls-17" d="M3344.15,700.66c-2.48,.99-4.72,1.67-7.03,2.17-.54,.12-.7-.08-.94-.49-1.88-3.11-2.86-6.57-4-9.96-.17-.51-.3-1.04-.49-1.55-.17-.43,0-.51,.39-.57,2.91-.42,5.69-1.3,8.36-2.53,1.97-.91,3.85-2,5.62-3.26,.37-.26,.55-.36,.77,.16,1.55,3.63,3.12,7.26,4.72,10.87,.27,.61,.14,.92-.35,1.27-2.27,1.65-4.72,2.97-7.04,3.88m-5.34-5.39c.87,1.93,1.71,2.67,2.94,2.92,2.39,.47,4.56-1.42,4.25-3.7-.03-.22,0-.49-.29-.57-.46-.12-1.32,.57-1.31,1.04,.02,.74-.26,1.31-.95,1.63-.73,.33-1.43,.28-2.02-.26-.88-.82-1.29-1.86-1.09-3.07,.2-1.26,1.73-1.86,2.78-1.13,.41,.29,1.38,.2,1.73-.14,.17-.16,.05-.26-.03-.39-.45-.68-1.07-1.11-1.88-1.23-1.45-.21-2.68,.27-3.57,1.4-.98,1.24-.9,2.63-.54,3.51"/>
      <path class="cls-12" d="M3393.45,683.29c1.04,3.51,1.81,7,2.26,10.56,.47,3.72,.6,7.46,.33,11.2-.33,4.65-1.24,9.2-2.7,13.64-1.55,4.71-3.73,9.12-6.41,13.29-1.01,1.56-2.09,3.08-3.2,4.57-.35,.46-.71,.56-1.26,.49-3.76-.47-7.43-1.33-11.02-2.49-5.74-1.86-11.1-4.48-16.03-7.96-5.94-4.2-10.82-9.37-14.6-15.59-1.11-1.83-2.07-3.74-3.02-5.65-.22-.43,.03-.51,.33-.56,2.47-.41,4.76-1.38,7.04-2.36,4.8-2.06,9.16-4.84,13.25-8.07,1.85-1.46,3.61-3.01,5.3-4.65,.35-.34,.72-.51,1.24-.49,5.19,.17,10.31-.43,15.35-1.64,3.65-.88,7.2-2.06,10.64-3.58,.61-.27,1.21-.59,1.81-.89q.54-.27,.71,.2m-.55,1.93c-.19-.49-.21-.99-.86-.65-3.23,1.67-6.69,2.76-10.18,3.69-4.63,1.24-9.35,2.06-14.14,1.98-2.25-.04-3.8,.66-5.43,2.17-4.4,4.06-9.28,7.46-14.71,10.06-2.46,1.17-4.95,2.24-7.57,2.95-.8,.22-.81,.46-.5,1.06,1.39,2.67,2.94,5.25,4.72,7.69,5.4,7.38,12.4,12.79,20.64,16.64,5.46,2.55,11.19,4.26,17.18,5.08,.53,.07,.85-.04,1.17-.47,1.84-2.47,3.51-5.04,5-7.73,2.57-4.65,4.45-9.55,5.59-14.72,1.33-6.03,1.6-12.11,.92-18.24-.36-3.26-1.01-6.46-1.83-9.49"/>
      <path class="cls-20" d="M3374.58,679.61c-.73-1.82-1.45-3.65-2.21-5.46-.23-.54-.12-.65,.46-.75,3.78-.6,7.35-1.82,10.7-3.69,1.17-.65,2.34-1.3,3.4-2.12,.45-.35,.74-.27,.98,.29,1.43,3.46,2.91,6.9,4.16,10.43,.77,2.17,.73,2.18-1.35,3.14-3.46,1.6-7.04,2.85-10.76,3.7-.75,.17-1.52,.26-2.26,.49-.49,.16-.7-.1-.86-.51-.73-1.85-1.48-3.69-2.22-5.54h-.04Zm10.67-3.68c.08-.01,.15-.03,.23-.04,.46,1.14,.96,2.26,1.36,3.42,.26,.75,.65,.4,1.07,.27,.5-.15,.63-.36,.41-.89-.67-1.56-1.29-3.15-1.92-4.73-.64-1.6-.64-1.59-2.24-.95-.42,.17-.58,.34-.53,.85,.16,1.49,.22,3,.33,4.62-.84-.71-1.43-1.48-2.03-2.24-1.42-1.8-1.44-1.82-3.22-1.02-.02,.01-.05,.02-.07,.03-.36,.07-.36,.29-.25,.57,.82,2.03,1.64,4.07,2.45,6.11,.11,.28,.25,.39,.58,.28,1.06-.35,1.09-.36,.66-1.43-.4-1.01-.81-2.02-1.23-3.06,.42-.08,.52,.18,.66,.33,.72,.8,1.44,1.6,2.12,2.43,.32,.4,.6,.62,1.16,.39,.54-.22,.69-.53,.6-1.06-.06-.35-.09-.71-.08-1.07,.04-.93-.18-1.86-.05-2.79"/>
      <path class="cls-19" d="M3359.18,677.38c1.05-.46,2.07-.61,2.99,.21,.29,.26,.71,.55,.42,1.02-.22,.36-1.18,.45-1.52,.21-.67-.49-1.36-.45-1.97,.08-.28,.24-.45,.52-.33,.88,.13,.38,.46,.47,.82,.43,.77-.08,1.54-.17,2.31-.25,.92-.09,1.69,.18,2.17,1.02,.5,.89,.43,1.82-.27,2.58-1,1.09-2.27,1.59-3.76,1.41-.42-.05-.82-.22-1.11-.5-.32-.32-.89-.62-.54-1.19,.29-.46,1.21-.42,1.63-.02,.71,.67,2.55,.16,2.73-.78,.11-.57-.25-.9-.8-.88-.72,.02-1.44,.13-2.16,.2-1.72,.17-2.92-.89-2.6-2.37,.23-1.08,.99-1.71,2-2.04"/>
      <path class="cls-19" d="M3338.81,695.28c-.36-.88-.44-2.27,.54-3.51,.89-1.13,2.12-1.61,3.57-1.4,.81,.12,1.43,.55,1.88,1.23,.08,.13,.2,.22,.03,.39-.34,.34-1.31,.43-1.73,.14-1.05-.73-2.57-.13-2.78,1.13-.19,1.21,.21,2.25,1.09,3.07,.59,.55,1.29,.6,2.02,.26,.69-.32,.97-.88,.95-1.63,0-.48,.85-1.16,1.31-1.04,.29,.08,.26,.35,.29,.57,.31,2.29-1.86,4.17-4.25,3.7-1.23-.24-2.07-.99-2.94-2.92"/>
      <path class="cls-19" d="M3392.9,685.22c.82,3.03,1.47,6.23,1.83,9.49,.68,6.13,.41,12.22-.92,18.24-1.14,5.17-3.03,10.08-5.59,14.72-1.49,2.7-3.16,5.27-5,7.73-.32,.43-.64,.55-1.17,.47-5.99-.82-11.72-2.53-17.18-5.08-8.24-3.85-15.23-9.26-20.64-16.64-1.79-2.44-3.33-5.02-4.72-7.69-.32-.61-.3-.85,.5-1.06,2.62-.7,5.12-1.77,7.57-2.95,5.43-2.6,10.32-6,14.71-10.06,1.63-1.5,3.18-2.2,5.43-2.17,4.79,.08,9.51-.74,14.14-1.98,3.49-.94,6.95-2.02,10.18-3.69,.65-.33,.66,.16,.86,.65m-28.17,18.9c.27,.67,.47,1.38,.82,2,1.94,3.43,4.6,6.25,7.58,8.78,.36,.3,.67,.55,1.23,.33,.58-.22,.69-.61,.75-1.12,.5-3.77,.38-7.5-.67-11.18-1.21-4.22-3.64-7.52-7.4-9.8-1.64-.99-1.73-.96-2.5,.8-1.51,3.42-1.29,6.82,.19,10.18m-9.4,5c-.53,.1-1.18,.72-1.76,1.49-.67,.9-1.26,1.83-1.76,2.82-1.1,2.17-.91,4.24,.58,5.72,1.38,1.36,3.15,1.91,5.01,2.23,.49,.08,.49-.18,.45-.55-.12-1-.11-2.01,.05-3.01,.25-1.67,1.06-2.91,2.81-3.3,1.44-.32,2.83-.01,4.18,.46,1.41,.5,2.79,1.09,4.08,1.86,.6,.36,1.11,0,1.48-.31,.37-.3-.1-.67-.3-.97-1.3-1.91-2.78-3.66-4.67-5.02-2.97-2.14-6.18-2.87-10.15-1.44m36.69-7.84c-.23-.78-.86-1.41-1.63-1.92-1.36-.91-2.9-1.32-4.5-1.56-.63-.09-1.26-.33-1.91-.12-3.21,1-5.37,3.09-6.48,6.25-1.08,3.09-.88,6.24-.35,9.4,.03,.2,.06,.51,.32,.42,.53-.18,1.19-.19,1.38-.94,.16-.62,.36-1.24,.6-1.84,.74-1.86,1.58-3.65,3.09-5.03,1.21-1.1,2.81-1.28,4.23-.46,1.14,.66,2.01,1.6,2.83,2.61,.26,.33,.44,.44,.75,.01,.73-1.02,1.32-2.1,1.72-3.28,.37-1.13,.47-2.27-.05-3.54m-9,24.71c-1.38-3.48-3.64-5.26-6.36-6.59-.32-.16-.53-.1-.68,.23-1.33,2.81-1.87,5.7-.7,8.67,1.21,3.06,3.73,4.76,6.6,6.05,.44,.2,.61-.04,.74-.4,1.01-2.83,1.25-5.67,.4-7.97m-7.41-7.61c1.37-.55,2.73-1.1,4.1-1.65,1.68-.68,1.65-.67,.99-2.38-.23-.6-.49-.63-1.03-.41-3.08,1.27-6.18,2.5-9.27,3.74-1.68,.68-1.66,.67-.96,2.38,.22,.54,.48,.62,1,.4,1.72-.72,3.45-1.4,5.18-2.09m9.79,3.77c1.21-.49,2.83-1.65,3.68-2.64,.17-.2,.34-.37,.26-.68-.12-.47-.18-.96-.27-1.44-.08-.44-.25-.48-.61-.18-.53,.45-1.09,.86-1.67,1.25-1.72,1.13-4.17,1.73-5.91-.6-.18-.24-.38-.22-.62-.13-.29,.12-.57,.24-.87,.34-.38,.12-.46,.32-.3,.7,.28,.67,.64,1.29,1.07,1.87,1.38,1.88,3.09,2.38,5.23,1.51m-21.11,4.59c.37,.58,.69,1.01,.95,1.48,.24,.43,.56,.57,1.06,.58,1.14,.01,2.27-.06,3.37-.37,1.18-.33,2.31-.8,3-1.9,1.1-1.75,.63-3.52,.04-5.28-.04-.11-.14-.23-.25-.27-.5-.21-1.64,.63-1.61,1.17,.08,1.82-.76,3.09-2.42,3.83-1.28,.57-2.64,.65-4.14,.76"/>
      <path class="cls-19" d="M3385.25,675.92c-.13,.93,.08,1.86,.05,2.79-.01,.36,.02,.72,.08,1.07,.09,.53-.06,.84-.6,1.06-.56,.23-.83,0-1.16-.39-.68-.83-1.4-1.64-2.12-2.43-.13-.15-.24-.41-.66-.33,.42,1.04,.83,2.05,1.23,3.06,.42,1.06,.4,1.08-.66,1.43-.34,.11-.47,0-.58-.28-.81-2.04-1.63-4.07-2.45-6.11-.12-.29-.12-.5,.25-.57,.02,0,.05-.02,.07-.03,1.78-.81,1.8-.78,3.22,1.02,.6,.76,1.19,1.53,2.03,2.24-.11-1.62-.17-3.12-.33-4.62-.05-.51,.11-.68,.53-.85,1.61-.64,1.6-.65,2.24,.95,.63,1.58,1.25,3.17,1.92,4.73,.23,.53,.09,.74-.41,.89-.42,.12-.81,.48-1.07-.27-.4-1.16-.9-2.28-1.36-3.42-.08,.01-.15,.03-.23,.04"/>
      <path class="cls-8" d="M3364.74,704.12c-1.48-3.36-1.7-6.76-.19-10.18,.77-1.75,.87-1.79,2.5-.8,3.76,2.29,6.19,5.58,7.4,9.8,1.06,3.68,1.18,7.41,.67,11.18-.07,.51-.17,.9-.75,1.12-.56,.21-.88-.03-1.23-.33-2.99-2.53-5.65-5.35-7.58-8.79-.35-.62-.55-1.33-.82-2"/>
      <path class="cls-8" d="M3355.34,709.13c3.97-1.44,7.18-.7,10.15,1.44,1.89,1.36,3.37,3.1,4.67,5.02,.2,.3,.67,.66,.3,.97-.37,.3-.88,.66-1.48,.31-1.29-.77-2.67-1.36-4.08-1.86-1.35-.47-2.74-.78-4.18-.46-1.75,.39-2.56,1.63-2.81,3.3-.15,1-.17,2.01-.05,3.01,.04,.37,.04,.63-.45,.55-1.86-.32-3.63-.87-5.01-2.23-1.5-1.48-1.69-3.55-.58-5.72,.5-.99,1.1-1.92,1.76-2.82,.58-.78,1.23-1.39,1.76-1.49"/>
      <path class="cls-8" d="M3392.02,701.28c.53,1.27,.43,2.41,.05,3.54-.39,1.18-.99,2.26-1.72,3.28-.31,.43-.48,.31-.75-.01-.82-1-1.69-1.95-2.83-2.61-1.42-.82-3.02-.65-4.23,.46-1.51,1.38-2.36,3.18-3.09,5.03-.24,.6-.44,1.21-.6,1.84-.19,.74-.85,.76-1.38,.94-.26,.09-.29-.22-.32-.42-.53-3.15-.74-6.3,.35-9.4,1.11-3.16,3.27-5.25,6.48-6.25,.65-.2,1.28,.03,1.91,.12,1.59,.24,3.14,.65,4.5,1.56,.76,.51,1.4,1.15,1.63,1.92"/>
      <path class="cls-8" d="M3383.02,726c.84,2.3,.61,5.14-.4,7.97-.13,.36-.29,.6-.74,.4-2.87-1.29-5.39-3-6.6-6.05-1.17-2.97-.64-5.87,.7-8.67,.16-.33,.36-.38,.68-.23,2.72,1.32,4.98,3.11,6.36,6.59"/>
      <path class="cls-12" d="M3375.61,718.39c-1.73,.69-3.46,1.37-5.17,2.09-.52,.22-.78,.14-1-.4-.7-1.71-.72-1.71,.96-2.38,3.09-1.25,6.19-2.48,9.27-3.74,.54-.22,.8-.19,1.03,.41,.66,1.71,.69,1.7-.99,2.38-1.37,.55-2.73,1.1-4.1,1.65"/>
      <path class="cls-12" d="M3385.41,722.16c-2.14,.86-3.85,.37-5.23-1.51-.43-.58-.79-1.2-1.07-1.87-.16-.38-.07-.58,.3-.7,.29-.1,.58-.22,.87-.34,.24-.1,.44-.11,.62,.13,1.74,2.33,4.19,1.73,5.91,.6,.58-.38,1.14-.8,1.67-1.25,.35-.3,.52-.26,.61,.18,.09,.48,.15,.97,.27,1.44,.08,.31-.09,.48-.26,.68-.85,.99-2.47,2.15-3.68,2.64"/>
      <path class="cls-12" d="M3364.3,726.75c1.51-.11,2.86-.19,4.14-.76,1.66-.74,2.5-2.01,2.42-3.83-.03-.54,1.11-1.38,1.61-1.17,.1,.04,.21,.16,.25,.27,.58,1.76,1.06,3.53-.04,5.28-.7,1.11-1.82,1.57-3,1.9-1.09,.31-2.23,.38-3.37,.37-.5,0-.82-.15-1.06-.58-.26-.47-.58-.9-.95-1.48"/>
    </g>
  </g>
</svg>