<?xml version="1.0" encoding="UTF-8"?>
<svg id="Capa_1" data-name="Capa 1" xmlns="http://www.w3.org/2000/svg" xmlns:xlink="http://www.w3.org/1999/xlink" viewBox="0 0 1212.67 726.75">
  <defs>
    <style>
      .cls-1 {
        fill: #2200c9;
      }

      .cls-2 {
        fill: #00044c;
      }

      .cls-3 {
        fill: #ff3d6a;
      }

      .cls-4 {
        fill: #01332b;
      }

      .cls-5 {
        clip-path: url(#clippath-1);
      }

      .cls-6 {
        fill: #ffd19f;
      }

      .cls-7 {
        fill: #35cad9;
      }

      .cls-8 {
        fill: #603302;
      }

      .cls-9 {
        clip-path: url(#clippath);
      }

      .cls-10 {
        fill: #010007;
        fill-rule: evenodd;
      }

      .cls-11 {
        fill: none;
      }

      .cls-12 {
        fill: #6ee5d7;
      }

      .cls-13 {
        fill: #3c114f;
      }

      .cls-14 {
        fill: #e8b16d;
      }

      .cls-15 {
        fill: #ffc13b;
      }
    </style>
    <clipPath id="clippath">
      <rect class="cls-11" x="524.87" y="140.25" width="586.5" height="586.5"/>
    </clipPath>
    <clipPath id="clippath-1">
      <rect class="cls-11" x="524.87" y="140.25" width="586.5" height="586.5"/>
    </clipPath>
  </defs>
  <g>
    <g>
      <path class="cls-1" d="M280.91,389.99c2.69-2.14,6.49-2.25,9.76-2.47l-15.46-15.32-15.32,15.46c-.21-3.27-.33-7.07-2.46-9.76-1.99-2.5-5.31-3-8.24-2.1-1.83,.56-3.53,1.72-4.87,3.19-1.46,1.35-2.6,3.07-3.14,4.91-.88,2.94-.34,6.26,2.18,8.22,2.71,2.11,6.51,2.19,9.78,2.37l-15.32,15.46,15.46,15.32c.18-3.27,.26-7.07,2.37-9.78,1.96-2.52,5.28-3.05,8.22-2.18,1.84,.55,3.55,1.69,4.9,3.14,1.47,1.34,2.62,3.04,3.19,4.87,.9,2.93,.4,6.26-2.1,8.24-2.69,2.14-6.49,2.25-9.76,2.46l15.46,15.32,15.32-15.46c.21,3.27,.33,7.07,2.46,9.76,1.99,2.5,5.31,3.01,8.24,2.1,1.83-.56,3.53-1.72,4.87-3.19,1.46-1.35,2.6-3.07,3.14-4.91,.88-2.94,.34-6.26-2.18-8.22-2.71-2.11-6.51-2.19-9.78-2.37l15.32-15.46-15.46-15.32c-.18,3.27-.26,7.07-2.37,9.78-1.96,2.52-5.28,3.06-8.22,2.18-1.84-.55-3.55-1.69-4.9-3.14-1.47-1.34-2.62-3.04-3.19-4.88-.9-2.93-.4-6.26,2.1-8.24h0Z"/>
      <path class="cls-1" d="M291.6,406.37c1.18,1.59,1.75,3.43,1.03,5.6-.72,2.16-3.57,4.56-5.77,5.1-2.51,.61-4.49-.38-5.78-2.59-1.62-2.76-2.33-5.91-4.53-8.32-1.58-1.74-3.41-3.46-5.87-3.62-1.45-.1-2.98,.05-4.41-.29-4.98-1.18-2.53-5.75-1.53-9.01,.64-2.1-.55-3.81-2.47-4.58-5.42-2.14-13.98-1.99-15.11-9.31-.17-1.1,.09-2.09,.6-2.97-1.28,.63-2.46,1.54-3.44,2.61-1.46,1.35-2.6,3.07-3.14,4.91-.88,2.94-.34,6.26,2.18,8.22,2.71,2.11,6.51,2.19,9.78,2.37l-15.32,15.46,15.46,15.32c.18-3.27,.26-7.07,2.37-9.78,1.96-2.52,5.28-3.05,8.22-2.18,1.84,.55,3.55,1.69,4.9,3.14,1.47,1.34,2.62,3.04,3.19,4.87,.9,2.93,.4,6.26-2.1,8.24-2.69,2.14-6.49,2.25-9.76,2.46l15.46,15.32,15.32-15.46c.21,3.27,.33,7.07,2.46,9.76,1.99,2.5,5.31,3.01,8.24,2.1,1.83-.56,3.53-1.72,4.87-3.19,1.46-1.35,2.6-3.07,3.14-4.91,.88-2.94,.34-6.26-2.18-8.22-2.71-2.11-6.51-2.19-9.78-2.37l15.32-15.46-15.46-15.32c-.18,3.27-.26,7.07-2.37,9.78-.93,1.19-2.17,1.94-3.53,2.3h0Z"/>
      <path class="cls-1" d="M300.53,412.97c-2.46,3.5-6.29,5.76-9.11,8.93-1.91,2.15-3.46,4.59-5.3,6.8-1.2,1.44-3.04,3.93-5.13,4.02-1.71,.07-3.69-.23-3.99-2.22-.29-1.89,.77-3.93,1.4-5.64,.81-2.2,.95-3.81-.12-5.98-1.33-2.68-3.24-5.08-5.36-7.16-2.08-2.06-4.52-4.2-7.33-5.19-1.61-.57-3.4-.71-4.9,.25-1.31,.84-2.23,2.04-3.31,3.13-1.54,1.57-3.79,2.73-5.92,1.46-1.58-.94-.88-3.3-.29-4.59,.98-2.16,2.37-3.81,4.14-5.37,2.47-2.18,5.24-4.96,3.04-8.44-1.84-2.92-6.06-4.59-9.35-5.03-1.35-.18-2.73-.28-3.86-1.11-1.04-.77-1.63-2.28-1.87-3.51-.21-1.11-.19-2.22,.02-3.28-.98,1.15-1.73,2.47-2.15,3.86-.88,2.94-.34,6.26,2.18,8.22,2.71,2.11,6.51,2.19,9.78,2.37l-15.32,15.46,15.46,15.32c.18-3.27,.26-7.07,2.37-9.78,1.96-2.52,5.28-3.05,8.22-2.18,1.84,.55,3.55,1.69,4.9,3.14,1.47,1.34,2.62,3.04,3.19,4.87,.9,2.93,.4,6.26-2.1,8.24-2.69,2.14-6.49,2.25-9.76,2.46l15.46,15.32,15.32-15.46c.21,3.27,.33,7.07,2.46,9.76,1.99,2.5,5.31,3.01,8.24,2.1,1.83-.56,3.53-1.72,4.87-3.19,1.46-1.35,2.6-3.07,3.14-4.91,.88-2.94,.34-6.26-2.18-8.22-2.71-2.11-6.51-2.19-9.78-2.37l15.32-15.46-15.46-15.32c-.15,2.58-.23,5.49-1.29,7.93,4.03,2.52,7.63,6.07,4.33,10.76h0Z"/>
      <path class="cls-1" d="M265.48,384.98c-.45,1.37,.4,2.48,1.35,3.37,1.16,1.08,2.51,2.02,3.85,2.85,1.05,.65,2.19,1.19,3.46,.95,1.49-.29,2.85-1.33,4.01-2.25,1.27-1,2.7-2.18,3.42-3.67,1.41-2.9-2.25-5.82-4.19-7.44-1.18-.98-2.7-2.14-4.33-1.71-1.46,.38-2.57,1.61-3.5,2.72-.39,.46-.66,1.02-1.08,1.47-.53,.56-1.15,1.02-1.67,1.6-.55,.63-1.06,1.3-1.32,2.1h0Z"/>
    </g>
    <g>
      <path class="cls-14" d="M247.97,258.6c-1.28-3.19-.3-6.86,.43-10.06l-19.1,10.43,10.43,19.1c-3.2-.73-6.87-1.71-10.06-.43-2.96,1.19-4.4,4.23-4.37,7.3,.02,1.92,.64,3.88,1.66,5.58,.88,1.79,2.2,3.37,3.8,4.42,2.57,1.68,5.9,2.12,8.5,.27,2.8-1.99,3.96-5.61,5.07-8.69l10.43,19.1,19.1-10.43c-3.08-1.11-6.7-2.28-8.69-5.08-1.85-2.6-1.41-5.94,.27-8.5,1.05-1.6,2.63-2.92,4.42-3.8,1.7-1.03,3.67-1.64,5.58-1.66,3.07-.03,6.11,1.41,7.3,4.37,1.28,3.19,.3,6.86-.43,10.06l19.1-10.43-10.43-19.1c3.2,.73,6.87,1.71,10.06,.43,2.96-1.19,4.4-4.23,4.37-7.3-.02-1.92-.64-3.88-1.66-5.58-.88-1.79-2.2-3.37-3.8-4.42-2.57-1.68-5.9-2.12-8.5-.27-2.8,1.99-3.96,5.61-5.07,8.7l-10.43-19.1-19.1,10.43c3.08,1.11,6.7,2.28,8.69,5.08,1.85,2.6,1.42,5.94-.27,8.5-1.05,1.6-2.63,2.92-4.42,3.8-1.7,1.03-3.67,1.64-5.58,1.66-3.07,.03-6.11-1.41-7.3-4.37h0Z"/>
      <path class="cls-14" d="M266.73,253.05c1.86-.68,3.79-.69,5.66,.62,1.87,1.31,3.35,4.73,3.24,6.98-.13,2.58-1.65,4.2-4.13,4.8-3.11,.76-6.33,.54-9.27,1.96-2.12,1.02-4.29,2.28-5.15,4.59-.51,1.36-.81,2.87-1.54,4.14-2.56,4.44-6.24,.77-9.07-1.11-1.83-1.21-3.81-.57-5.09,1.06-3.6,4.58-5.91,12.82-13.25,11.81-1.1-.15-1.97-.68-2.68-1.42,.24,1.41,.77,2.8,1.52,4.05,.88,1.79,2.2,3.37,3.8,4.42,2.57,1.68,5.9,2.12,8.5,.27,2.8-1.99,3.96-5.61,5.07-8.69l10.43,19.1,19.1-10.43c-3.08-1.11-6.7-2.28-8.69-5.08-1.85-2.6-1.41-5.94,.27-8.5,1.05-1.6,2.63-2.92,4.42-3.8,1.7-1.03,3.67-1.64,5.58-1.66,3.07-.03,6.11,1.41,7.3,4.37,1.28,3.19,.3,6.86-.43,10.06l19.1-10.43-10.43-19.1c3.2,.73,6.87,1.71,10.06,.43,2.96-1.19,4.4-4.23,4.37-7.3-.02-1.92-.64-3.88-1.66-5.58-.88-1.79-2.2-3.37-3.8-4.42-2.57-1.68-5.9-2.12-8.5-.27-2.8,1.99-3.96,5.61-5.07,8.7l-10.43-19.1-19.1,10.43c3.08,1.11,6.7,2.28,8.69,5.08,.88,1.23,1.24,2.63,1.2,4.04h0Z"/>
      <path class="cls-14" d="M275.62,246.37c2.64,3.36,3.72,7.68,5.95,11.28,1.51,2.44,3.41,4.63,4.99,7.02,1.03,1.56,2.9,4.03,2.38,6.07-.42,1.66-1.27,3.47-3.27,3.19-1.89-.26-3.55-1.87-5.01-2.96-1.88-1.4-3.38-2-5.76-1.6-2.94,.51-5.79,1.65-8.4,3.09-2.57,1.41-5.32,3.13-7.07,5.54-1,1.38-1.66,3.05-1.16,4.77,.43,1.49,1.32,2.72,2.06,4.07,1.06,1.92,1.53,4.41-.29,6.09-1.35,1.24-3.41-.1-4.49-1.04-1.79-1.56-2.97-3.36-3.97-5.5-1.38-2.99-3.25-6.43-7.21-5.33-3.33,.93-6.13,4.49-7.5,7.52-.56,1.24-1.04,2.53-2.17,3.38-1.04,.78-2.65,.91-3.89,.78-1.12-.11-2.18-.45-3.14-.96,.82,1.26,1.87,2.36,3.09,3.16,2.57,1.68,5.9,2.12,8.5,.27,2.8-1.99,3.96-5.61,5.07-8.69l10.43,19.1,19.1-10.43c-3.08-1.11-6.7-2.28-8.69-5.08-1.85-2.6-1.41-5.94,.27-8.5,1.05-1.6,2.63-2.92,4.42-3.8,1.7-1.03,3.67-1.64,5.58-1.66,3.07-.03,6.11,1.41,7.3,4.37,1.28,3.19,.3,6.86-.43,10.06l19.1-10.43-10.43-19.1c3.2,.73,6.87,1.71,10.06,.43,2.96-1.19,4.4-4.23,4.37-7.3-.02-1.92-.64-3.88-1.66-5.58-.88-1.79-2.2-3.37-3.8-4.42-2.57-1.68-5.9-2.12-8.5-.27-2.8,1.99-3.96,5.61-5.07,8.7l-10.43-19.1-19.1,10.43c2.43,.88,5.19,1.79,7.23,3.51,3.57-3.14,8-5.58,11.55-1.07h0Z"/>
      <path class="cls-14" d="M238.76,271.94c1.18,.82,2.49,.33,3.62-.33,1.36-.81,2.65-1.82,3.83-2.88,.92-.82,1.77-1.76,1.9-3.04,.15-1.51-.46-3.11-1.01-4.49-.6-1.51-1.32-3.21-2.53-4.33-2.37-2.19-6.22,.49-8.33,1.89-1.28,.85-2.82,1.98-2.88,3.66-.05,1.5,.81,2.92,1.61,4.13,.33,.51,.79,.92,1.1,1.45,.39,.67,.65,1.4,1.06,2.06,.44,.71,.94,1.39,1.63,1.87h0Z"/>
    </g>
    <g>
      <path class="cls-2" d="M231.89,103.23c1.97-2.81,5.58-4,8.66-5.14l-19.18-10.29-10.29,19.18c-1.14-3.08-2.32-6.69-5.14-8.66-2.61-1.83-5.95-1.37-8.5,.33-1.6,1.06-2.9,2.65-3.77,4.44-1.01,1.71-1.62,3.68-1.62,5.6,0,3.07,1.45,6.1,4.43,7.26,3.2,1.25,6.86,.25,10.05-.5l-10.29,19.18,19.18,10.29c-.75-3.19-1.76-6.86-.5-10.05,1.16-2.97,4.2-4.43,7.26-4.43,1.92,0,3.88,.61,5.6,1.62,1.79,.87,3.38,2.17,4.44,3.77,1.7,2.55,2.16,5.89,.33,8.5-1.97,2.81-5.58,4-8.66,5.14l19.18,10.29,10.29-19.18c1.14,3.08,2.32,6.69,5.14,8.66,2.61,1.83,5.95,1.37,8.5-.33,1.6-1.06,2.9-2.65,3.77-4.44,1.01-1.71,1.62-3.68,1.62-5.6,0-3.07-1.45-6.1-4.42-7.27-3.2-1.25-6.86-.25-10.06,.51l10.29-19.18-19.18-10.29c.75,3.19,1.76,6.86,.5,10.06-1.16,2.97-4.2,4.43-7.27,4.43-1.92,0-3.88-.61-5.6-1.62-1.79-.87-3.38-2.17-4.44-3.77-1.7-2.55-2.16-5.89-.33-8.5h0Z"/>
      <path class="cls-2" d="M246.8,115.91c1.59,1.18,2.65,2.8,2.58,5.08-.07,2.28-2.13,5.39-4.08,6.53-2.23,1.3-4.42,.91-6.28-.84-2.34-2.19-3.91-5-6.71-6.69-2.01-1.22-4.25-2.35-6.66-1.81-1.42,.32-2.84,.89-4.31,.97-5.11,.29-4.06-4.8-4.03-8.2,.02-2.19-1.61-3.5-3.67-3.68-5.81-.51-13.97,2.06-17.13-4.63-.47-1-.51-2.03-.27-3.02-1.05,.97-1.92,2.17-2.56,3.49-1.01,1.71-1.62,3.68-1.62,5.6,0,3.07,1.45,6.1,4.43,7.26,3.2,1.25,6.86,.25,10.05-.5l-10.29,19.18,19.18,10.29c-.75-3.19-1.76-6.86-.5-10.05,1.16-2.97,4.2-4.43,7.26-4.43,1.92,0,3.88,.61,5.6,1.62,1.79,.87,3.38,2.17,4.44,3.77,1.7,2.55,2.16,5.89,.33,8.5-1.97,2.81-5.58,4-8.66,5.14l19.18,10.29,10.29-19.18c1.14,3.08,2.32,6.69,5.14,8.66,2.61,1.83,5.95,1.37,8.5-.33,1.6-1.06,2.9-2.65,3.77-4.44,1.01-1.71,1.62-3.68,1.62-5.6,0-3.07-1.45-6.1-4.42-7.27-3.2-1.25-6.86-.25-10.06,.51l10.29-19.18-19.18-10.29c.75,3.19,1.76,6.86,.5,10.06-.55,1.41-1.53,2.47-2.73,3.21h0Z"/>
      <path class="cls-2" d="M257.24,119.7c-1.37,4.05-4.4,7.31-6.19,11.15-1.22,2.6-2.01,5.38-3.15,8.02-.74,1.72-1.79,4.63-3.78,5.31-1.62,.56-3.6,.83-4.46-1-.81-1.73-.38-3.99-.26-5.81,.15-2.34-.17-3.92-1.81-5.7-2.03-2.19-4.55-3.95-7.18-5.35-2.58-1.38-5.53-2.74-8.5-2.89-1.7-.09-3.46,.28-4.63,1.63-1.01,1.18-1.56,2.59-2.28,3.94-1.03,1.94-2.85,3.7-5.26,3.09-1.78-.45-1.78-2.91-1.58-4.32,.33-2.35,1.19-4.33,2.44-6.33,1.74-2.79,3.61-6.24,.52-8.95-2.6-2.28-7.11-2.68-10.4-2.17-1.35,.21-2.69,.51-4.01,.03-1.22-.45-2.21-1.72-2.79-2.83-.52-1-.82-2.07-.91-3.15-.61,1.38-.96,2.86-.96,4.31,0,3.07,1.45,6.1,4.43,7.26,3.2,1.25,6.86,.25,10.05-.5l-10.29,19.18,19.18,10.29c-.75-3.19-1.76-6.86-.5-10.05,1.16-2.97,4.2-4.43,7.26-4.43,1.92,0,3.88,.61,5.6,1.62,1.79,.87,3.38,2.17,4.44,3.77,1.7,2.55,2.16,5.89,.33,8.5-1.97,2.81-5.58,4-8.66,5.14l19.18,10.29,10.29-19.18c1.14,3.08,2.32,6.69,5.14,8.66,2.61,1.83,5.95,1.37,8.5-.33,1.6-1.06,2.9-2.65,3.77-4.44,1.01-1.71,1.62-3.68,1.62-5.6,0-3.07-1.45-6.1-4.42-7.27-3.2-1.25-6.86-.25-10.06,.51l10.29-19.18-19.18-10.29c.59,2.52,1.34,5.33,1.02,7.97,4.58,1.27,9.04,3.65,7.21,9.09h0Z"/>
      <path class="cls-2" d="M215.68,102.81c-.04,1.44,1.09,2.27,2.26,2.85,1.42,.7,2.98,1.23,4.51,1.64,1.19,.32,2.44,.52,3.58-.08,1.35-.7,2.35-2.08,3.21-3.3,.93-1.32,1.97-2.86,2.24-4.49,.53-3.18-3.81-4.94-6.13-5.94-1.41-.61-3.2-1.28-4.64-.4-1.29,.78-2,2.27-2.58,3.6-.24,.56-.34,1.17-.62,1.71-.35,.69-.81,1.31-1.14,2.01-.35,.76-.65,1.55-.67,2.39h0Z"/>
    </g>
    <g>
      <path class="cls-1" d="M101.71,219.6c-1.95-2.83-1.81-6.62-1.81-9.9l-16.32,14.4,14.4,16.32c-3.28,0-7.08-.15-9.9,1.81-2.62,1.81-3.35,5.1-2.65,8.09,.44,1.86,1.48,3.64,2.86,5.08,1.25,1.55,2.89,2.8,4.68,3.47,2.87,1.07,6.22,.76,8.35-1.62,2.29-2.56,2.62-6.35,3.02-9.6l14.4,16.32,16.32-14.4c-3.25-.4-7.04-.74-9.6-3.02-2.38-2.12-2.69-5.48-1.62-8.35,.67-1.8,1.92-3.43,3.47-4.68,1.44-1.38,3.21-2.42,5.08-2.86,2.99-.71,6.27,.02,8.08,2.65,1.95,2.83,1.81,6.62,1.81,9.9l16.32-14.4-14.4-16.32c3.28,0,7.08,.15,9.9-1.81,2.63-1.81,3.36-5.1,2.65-8.09-.44-1.86-1.48-3.64-2.86-5.08-1.25-1.55-2.89-2.8-4.68-3.46-2.87-1.07-6.22-.76-8.35,1.62-2.29,2.56-2.62,6.35-3.02,9.6l-14.4-16.32-16.32,14.4c3.25,.4,7.04,.74,9.6,3.02,2.38,2.12,2.69,5.48,1.62,8.35-.67,1.8-1.92,3.43-3.47,4.68-1.44,1.38-3.21,2.42-5.08,2.86-2.98,.71-6.27-.02-8.08-2.65h0Z"/>
      <path class="cls-1" d="M118.77,210.03c1.66-1.08,3.54-1.51,5.66-.65,2.11,.86,4.31,3.87,4.7,6.09,.45,2.55-.68,4.46-2.97,5.6-2.86,1.43-6.05,1.93-8.61,3.96-1.84,1.46-3.68,3.17-4.01,5.61-.19,1.44-.15,2.98-.59,4.38-1.51,4.89-5.91,2.14-9.09,.93-2.05-.78-3.84,.29-4.73,2.16-2.5,5.27-2.92,13.81-10.3,14.45-1.1,.1-2.08-.23-2.93-.79,.54,1.32,1.37,2.56,2.38,3.61,1.25,1.55,2.89,2.8,4.68,3.47,2.87,1.07,6.22,.76,8.35-1.62,2.29-2.56,2.62-6.35,3.02-9.6l14.4,16.32,16.32-14.4c-3.25-.4-7.04-.74-9.6-3.02-2.38-2.12-2.69-5.48-1.62-8.35,.67-1.8,1.92-3.43,3.47-4.68,1.44-1.38,3.21-2.42,5.08-2.86,2.99-.71,6.27,.02,8.08,2.65,1.95,2.83,1.81,6.62,1.81,9.9l16.32-14.4-14.4-16.32c3.28,0,7.08,.15,9.9-1.81,2.63-1.81,3.36-5.1,2.65-8.09-.44-1.86-1.48-3.64-2.86-5.08-1.25-1.55-2.89-2.8-4.68-3.46-2.87-1.07-6.22-.76-8.35,1.62-2.29,2.56-2.62,6.35-3.02,9.6l-14.4-16.32-16.32,14.4c3.25,.4,7.04,.74,9.6,3.02,1.13,1.01,1.79,2.29,2.06,3.67h0Z"/>
      <path class="cls-1" d="M125.96,201.56c3.32,2.69,5.33,6.66,8.3,9.68,2.02,2.05,4.35,3.76,6.43,5.74,1.35,1.29,3.72,3.29,3.67,5.39-.04,1.71-.47,3.66-2.49,3.83-1.9,.16-3.87-1.03-5.54-1.78-2.14-.95-3.74-1.21-5.97-.28-2.76,1.14-5.28,2.9-7.51,4.87-2.19,1.94-4.49,4.23-5.66,6.97-.67,1.57-.94,3.34-.08,4.91,.75,1.36,1.89,2.36,2.91,3.51,1.46,1.64,2.47,3.96,1.06,6-1.04,1.51-3.35,.65-4.6-.02-2.09-1.12-3.64-2.62-5.09-4.49-2.01-2.61-4.59-5.56-8.21-3.6-3.04,1.64-4.98,5.74-5.65,8.99-.27,1.34-.46,2.7-1.37,3.77-.84,.99-2.38,1.47-3.62,1.63-1.12,.14-2.23,.05-3.27-.24,1.08,1.05,2.35,1.89,3.71,2.4,2.87,1.07,6.22,.76,8.35-1.62,2.29-2.56,2.62-6.35,3.02-9.6l14.4,16.32,16.32-14.4c-3.25-.4-7.04-.74-9.6-3.02-2.38-2.12-2.69-5.48-1.62-8.35,.67-1.8,1.92-3.43,3.47-4.68,1.44-1.38,3.21-2.42,5.08-2.86,2.99-.71,6.27,.02,8.08,2.65,1.95,2.83,1.81,6.62,1.81,9.9l16.32-14.4-14.4-16.32c3.28,0,7.08,.15,9.9-1.81,2.63-1.81,3.36-5.1,2.65-8.09-.44-1.86-1.48-3.64-2.86-5.08-1.25-1.55-2.89-2.8-4.68-3.46-2.87-1.07-6.22-.76-8.35,1.62-2.29,2.56-2.62,6.35-3.02,9.6l-14.4-16.32-16.32,14.4c2.57,.32,5.46,.6,7.82,1.82,2.79-3.85,6.57-7.21,11.02-3.6h0Z"/>
      <path class="cls-1" d="M95.68,234.65c1.33,.54,2.51-.23,3.45-1.13,1.15-1.09,2.18-2.37,3.1-3.65,.72-1.01,1.34-2.11,1.17-3.39-.19-1.51-1.13-2.93-1.98-4.15-.92-1.34-2-2.84-3.43-3.66-2.8-1.61-5.96,1.86-7.7,3.69-1.06,1.11-2.31,2.55-1.99,4.21,.29,1.48,1.44,2.67,2.48,3.68,.44,.42,.98,.72,1.39,1.17,.53,.57,.94,1.22,1.49,1.77,.59,.59,1.22,1.14,2.01,1.46h0Z"/>
    </g>
    <path class="cls-1" d="M178.9,475.01c23.42-27.59,34.73-58.58,33.56-94.7-.72-21.97-7.84-43.8-23.78-59.47-15.63-15.36-40.51-24.97-62.13-27.49-13.87-1.62-29.86-1.82-43.48,2.07-29.33,8.37-57.68,35.09-58.29,67.2-.11,5.86,1.73,12.2,.9,17.98-.51,3.57-1.67,6.79-2.89,10.21-1.34,3.79-4.99,8.93-7.6,12.38-4.09,5.4-6.75,8.13-11.76,12.72-3.35,3.06-5.22,9.07-.89,12.33,3.71,2.79,3.93,2.97,7.75,4.93,3.63,1.86,8.9,2.69,10.99,6.56,2.56,4.75-1.3,7.73-2.29,12.1,0,0-2.92,4.65,5.17,6.96l-3.47,3.08s-4.24,1.54-.77,8.09c0,0,6.93,2.18,2.31,16.78,0,0-5.78,14.25,8.47,18.87l38.9,.17s.72,26.56-1.68,49.14h99.8c-5.6-15.19-8.45-41.32-5.79-54.11,2.23-10.74,10.18-17.78,16.99-25.8Zm-29.53-53.39c1.31,2.91,.24,6.1-1.91,8.29-1.34,1.37-3.14,2.36-5.07,2.88-1.87,.68-3.92,.9-5.8,.55-3.02-.57-5.72-2.57-6.31-5.7-.64-3.37,1.03-6.79,2.37-9.78l-20.76,6.54-6.54-20.76c3,1.34,6.41,3.01,9.78,2.37,3.13-.59,5.14-3.3,5.7-6.31,.35-1.89,.13-3.93-.55-5.8-.52-1.92-1.5-3.73-2.87-5.07-2.19-2.15-5.38-3.22-8.29-1.91-3.13,1.41-4.97,4.74-6.66,7.55l-6.54-20.76,20.76-6.54c-2.81-1.69-6.14-3.53-7.55-6.66-1.31-2.91-.24-6.1,1.91-8.29,.3-.31,.63-.59,.98-.86,.11-.08,.22-.16,.34-.24,.25-.18,.52-.35,.79-.51,.12-.07,.24-.15,.37-.22,.35-.19,.7-.36,1.07-.51,.05-.02,.09-.04,.14-.06,0,0,.02,0,.02-.01,0,0,0,0,0,0,.45-.18,.91-.33,1.37-.46,.31-.11,.62-.21,.94-.29,.08-.02,.15-.04,.23-.06,.31-.08,.62-.15,.94-.2,0,0,0,0,.01,0,.34-.06,.67-.09,1.01-.12,.05,0,.1,0,.14,0,.86-.06,1.71-.02,2.53,.14,3.01,.57,5.72,2.57,6.32,5.7,.64,3.38-1.03,6.79-2.37,9.78l20.76-6.54,6.54,20.76c-2.99-1.33-6.41-3-9.78-2.37-3.13,.59-5.14,3.3-5.7,6.31-.36,1.89-.13,3.93,.55,5.8,.52,1.92,1.5,3.73,2.87,5.07,1.15,1.13,2.58,1.95,4.1,2.3,0,0,0,0,0,0,.34,.08,.69,.13,1.03,.16,0,0,.02,0,.02,0,.16,.01,.33,.02,.5,.02,.02,0,.04,0,.06,0,.15,0,.31,0,.46-.02,.04,0,.08,0,.12-.01,.14-.01,.27-.03,.41-.05,.06-.01,.12-.03,.18-.04,.12-.02,.23-.04,.35-.07,.09-.02,.18-.05,.28-.08,.09-.03,.17-.05,.26-.08,.18-.06,.36-.13,.53-.21,.66-.3,1.27-.69,1.82-1.14h0c1.82-1.46,3.14-3.57,4.33-5.56,.05-.09,.1-.17,.15-.26,.12-.2,.24-.4,.35-.59l6.54,20.76-20.76,6.54c2.81,1.69,6.14,3.53,7.55,6.66Z"/>
  </g>
  <path class="cls-1" d="M1105.06,0c-59.43,0-107.6,48.18-107.6,107.61s48.18,107.61,107.6,107.61,107.61-48.18,107.61-107.61S1164.49,0,1105.06,0Zm-46.06,114.96c2.06,2.36,3.88,5.25,5.3,8.77,1.89,4.69,3.07,10.46,3.36,17.67,.09,2.31-1.7,4.25-4.01,4.35-2.31,.09-4.25-1.7-4.34-4.01-.29-7.3-1.59-12.46-3.33-16.18-1.75-3.72-3.9-6.08-6.36-7.96-1.64-1.24-3.44-2.24-5.33-3.14-1.4-.67-2.85-1.28-4.32-1.92-1.79,.77-3.57,1.52-5.25,2.38-2.79,1.41-5.32,3.07-7.48,5.55-1.44,1.65-2.75,3.69-3.84,6.39-1.45,3.59-2.5,8.39-2.76,14.88-.09,2.31-2.04,4.1-4.34,4.01-2.31-.09-4.1-2.04-4.01-4.35,.33-8.12,1.78-14.41,4.1-19.38,2.31-4.97,5.52-8.55,8.9-11.09,1.72-1.3,3.48-2.34,5.19-3.23-4.24-2.56-7.59-5.19-10.18-7.84-3.7-3.79-5.89-7.64-7-11.17-.75-2.35-1.02-4.55-1.02-6.46,0-2.26,.38-4.13,.77-5.46,.39-1.34,.8-2.16,.91-2.36h0c1.07-2.04,3.6-2.83,5.64-1.75,2.02,1.06,2.81,3.55,1.78,5.58h0s0,0,0,0l-.06,.13c-.06,.14-.16,.4-.26,.75-.21,.7-.43,1.78-.43,3.11,0,1.13,.16,2.45,.63,3.94,.47,1.49,1.26,3.16,2.59,4.99,2.63,3.63,7.45,7.94,16.12,12.21,6.48-3.19,10.83-6.42,13.69-9.36,2.89-2.97,4.3-5.62,5.01-7.85,.47-1.49,.63-2.81,.63-3.94,0-2.12-.57-3.59-.72-3.92l-.03-.06h0s0,0,0,0h0c-1.03-2.04-.24-4.52,1.78-5.59,2.04-1.07,4.57-.29,5.64,1.76,.11,.2,.52,1.02,.91,2.35,.39,1.34,.77,3.2,.77,5.46,0,1.91-.27,4.11-1.02,6.46-.74,2.35-1.96,4.85-3.79,7.37-2.84,3.92-7.12,7.86-13.39,11.64,3.2,1.66,6.59,3.88,9.53,7.26Zm64.92-2.71c2.06,2.35,3.88,5.25,5.29,8.76,1.89,4.69,3.07,10.46,3.36,17.67,.09,2.31-1.7,4.25-4.01,4.35-2.31,.09-4.25-1.7-4.34-4.01-.29-7.31-1.59-12.46-3.33-16.18-1.75-3.72-3.91-6.08-6.37-7.96-1.64-1.24-3.44-2.24-5.33-3.14-1.4-.67-2.85-1.28-4.32-1.91-1.79,.77-3.57,1.52-5.25,2.37-2.79,1.41-5.32,3.07-7.48,5.54-1.44,1.65-2.75,3.69-3.84,6.39-1.45,3.59-2.5,8.39-2.76,14.88-.09,2.31-2.04,4.1-4.35,4.01-2.31-.09-4.1-2.04-4.01-4.35,.33-8.12,1.78-14.41,4.1-19.38,2.31-4.97,5.52-8.55,8.9-11.09,1.72-1.3,3.48-2.34,5.19-3.23-4.24-2.56-7.59-5.19-10.18-7.85-3.7-3.78-5.89-7.64-7-11.17-.75-2.35-1.02-4.55-1.02-6.46,0-2.26,.38-4.13,.77-5.46,.39-1.34,.8-2.15,.91-2.35,1.07-2.04,3.6-2.83,5.64-1.75,2.02,1.06,2.81,3.55,1.78,5.58h0s0,0,0,0l-.06,.13c-.06,.14-.16,.4-.26,.75-.2,.7-.43,1.77-.43,3.11,0,1.13,.16,2.45,.63,3.94,.47,1.49,1.26,3.16,2.59,4.99,2.63,3.63,7.45,7.94,16.12,12.21,6.48-3.2,10.83-6.42,13.69-9.36,2.89-2.97,4.3-5.62,5.02-7.85,.47-1.49,.63-2.81,.63-3.94,0-2.12-.57-3.59-.72-3.92l-.03-.07h0c-1.03-2.04-.24-4.52,1.78-5.59,2.04-1.07,4.57-.29,5.64,1.76,.1,.2,.52,1.02,.91,2.35s.77,3.2,.77,5.46c0,1.91-.27,4.11-1.02,6.46-.74,2.35-1.96,4.85-3.79,7.37-2.84,3.92-7.12,7.86-13.39,11.64,3.2,1.66,6.59,3.88,9.54,7.26Zm69.91,30.78c-2.31,.09-4.25-1.7-4.34-4.01-.29-7.31-1.59-12.46-3.33-16.18-1.75-3.72-3.91-6.08-6.37-7.96-1.64-1.24-3.44-2.24-5.33-3.14-1.4-.67-2.85-1.28-4.32-1.91-1.79,.77-3.57,1.52-5.26,2.37-2.79,1.41-5.32,3.07-7.48,5.54-1.44,1.65-2.75,3.69-3.84,6.39-1.45,3.59-2.5,8.39-2.76,14.88-.09,2.31-2.04,4.1-4.35,4.01-2.31-.09-4.1-2.04-4.01-4.35,.33-8.12,1.78-14.41,4.1-19.38,2.31-4.97,5.52-8.55,8.9-11.09,1.72-1.3,3.48-2.34,5.19-3.23-4.24-2.56-7.59-5.19-10.18-7.85-3.7-3.78-5.89-7.63-7-11.17-.75-2.35-1.02-4.55-1.02-6.46,0-2.26,.38-4.13,.77-5.46,.39-1.34,.8-2.15,.91-2.36h0c1.07-2.04,3.6-2.83,5.64-1.75,2.02,1.06,2.81,3.55,1.78,5.58h0s0,0,0,0l-.06,.13c-.06,.14-.16,.4-.26,.75-.21,.7-.43,1.77-.43,3.11,0,1.13,.16,2.45,.63,3.94,.47,1.49,1.26,3.16,2.59,4.99,2.63,3.63,7.45,7.94,16.12,12.21,6.48-3.2,10.83-6.42,13.69-9.36,2.89-2.97,4.3-5.62,5.02-7.85,.47-1.49,.63-2.81,.63-3.94,0-2.12-.57-3.59-.71-3.92l-.03-.06h0s0,0,0,0h0c-1.03-2.04-.24-4.52,1.78-5.59,2.04-1.07,4.57-.29,5.64,1.76,.1,.2,.52,1.02,.91,2.35,.39,1.34,.77,3.2,.77,5.46,0,1.91-.27,4.11-1.02,6.46-.74,2.35-1.96,4.85-3.79,7.37-2.84,3.92-7.12,7.86-13.39,11.65,3.2,1.66,6.59,3.88,9.53,7.26,2.06,2.35,3.88,5.25,5.3,8.76,1.89,4.69,3.07,10.46,3.36,17.67,.09,2.31-1.7,4.25-4.01,4.35Z"/>
  <g class="cls-9">
    <g class="cls-5">
      <path class="cls-8" d="M979.68,367.27c.16-4-2.95-7.37-6.95-7.53-4-.16-7.37,2.95-7.53,6.95-.16,4,2.95,7.37,6.95,7.53,4,.16,7.37-2.95,7.53-6.95"/>
      <path class="cls-8" d="M1009.52,365.39c.16-4-2.95-7.37-6.95-7.53-4-.16-7.37,2.95-7.53,6.95-.16,4,2.95,7.37,6.95,7.53,4,.16,7.37-2.95,7.53-6.95"/>
      <path class="cls-6" d="M971.95,388.78c0-7.97,6.46-14.43,14.43-14.43s14.43,6.46,14.43,14.43-6.46,14.43-14.43,14.43-14.43-6.46-14.43-14.43"/>
      <path class="cls-6" d="M997.98,388.5s-5.09,41.87,2.83,49.23c7.92,7.35-27.16,3.96-27.16,3.96,0,0,10.75-14.15,11.88-46.4,1.13-32.25,12.45-6.79,12.45-6.79"/>
      <path class="cls-6" d="M894.86,390.06c0-7.97,6.46-14.43,14.43-14.43s14.43,6.46,14.43,14.43-6.46,14.43-14.43,14.43-14.43-6.46-14.43-14.43"/>
      <path class="cls-6" d="M919.6,389.77s-5.09,41.87,2.83,49.23c7.92,7.36-27.16,3.96-27.16,3.96,0,0,10.75-14.15,11.88-46.4,1.13-32.25,12.45-6.79,12.45-6.79"/>
      <path class="cls-3" d="M831.92,390.06c0-7.97-6.46-14.43-14.43-14.43s-14.43,6.46-14.43,14.43,6.46,14.43,14.43,14.43,14.43-6.46,14.43-14.43"/>
      <path class="cls-3" d="M809.73,389.77s5.09,41.87-2.83,49.23c-7.92,7.36,27.16,3.96,27.16,3.96,0,0-10.75-14.15-11.88-46.4-1.13-32.25-12.45-6.79-12.45-6.79"/>
      <path class="cls-3" d="M737.99,390.06c0-7.97-6.46-14.43-14.43-14.43s-14.43,6.46-14.43,14.43,6.46,14.43,14.43,14.43,14.43-6.46,14.43-14.43"/>
      <path class="cls-6" d="M713.24,389.77s5.09,41.87-2.83,49.23c-7.92,7.36,27.16,3.96,27.16,3.96,0,0-10.75-14.15-11.88-46.4-1.13-32.25-12.45-6.79-12.45-6.79"/>
      <path class="cls-6" d="M655.49,390.06c0-7.97-6.46-14.43-14.43-14.43s-14.43,6.46-14.43,14.43,6.46,14.43,14.43,14.43,14.43-6.46,14.43-14.43"/>
      <path class="cls-6" d="M629.46,389.77s5.09,41.87-2.83,49.23c-7.92,7.36,27.16,3.96,27.16,3.96,0,0-10.75-14.15-11.88-46.4-1.13-32.25-12.45-6.79-12.45-6.79"/>
      <path class="cls-6" d="M593.64,342.66c3.71-.18,7.33-1.86,9.86-4.59-1.74,.39-3.47,.78-5.21,1.17,2.8-3.66,4.16-8.4,3.73-12.99-.52,2.88-1.71,5.64-3.44,8,.6-3.49,.38-7.12-.64-10.51-.61,2.73-1.21,5.46-1.82,8.19-.15-3.46-1.14-6.89-2.88-9.89,.35,3.53-.04,7.13-1.16,10.5-.56,1.69-1.31,3.39-1.26,5.17,.04,1.78,1.19,3.71,2.97,3.89"/>
      <path class="cls-4" d="M639.91,560.08h32.16c.97-2.12,1.51-4.57,1.91-6.87,1.66-9.6,3.04-19.41,1.6-29.04-1.44-9.63-6.07-19.19-14.22-24.53-6.35-4.16-17.09-5.29-24.66-4.79"/>
      <path class="cls-4" d="M637.99,494.86c-7.03,.66-13.88,2.63-20.68,4.59l-2.62,3.89c-8.66,17.41-10.28,38.18-4.49,56.74h29.71"/>
      <path class="cls-7" d="M634.43,494.74c-.52,.03-1.03,.08-1.55,.12"/>
      <path class="cls-4" d="M1022.78,505.26l-2.62-3.89c-7.29-2.1-14.65-4.22-22.23-4.72-7.57-.5-15.48,.75-21.83,4.91-8.14,5.34-12.78,14.9-14.21,24.53-1.44,9.63-.05,19.44,1.6,29.04,.28,1.63,.63,3.34,1.15,4.95h63.2c5.09-18.06,3.29-38-5.06-54.82"/>
      <path class="cls-4" d="M816.21,560.08h32.36c.32-1.35,.56-2.72,.77-4.05,1.7-10.86,3.11-21.97,1.64-32.86-1.47-10.9-6.21-21.72-14.55-27.76-6.5-4.71-14.59-6.11-22.34-5.55"/>
      <path class="cls-4" d="M814.09,489.85c-7.75,.56-15.29,2.96-22.75,5.34l-2.68,4.4c-8.34,18.55-10.3,40.46-5.57,60.49h33.12"/>
      <path class="cls-4" d="M753.67,518.13c-.79-3.67-1.71-7.44-3.97-10.44-2.72-3.62-7.04-5.67-11.35-7.07-11.51-3.74-24.2-3.74-35.71,0l-.94,.97c-6.19,4.98-7.82,13.59-8.81,21.48-1.54,12.29-2.49,24.64-2.93,37.01h69.3c-.76-14.1-2.62-28.14-5.6-41.95"/>
      <path class="cls-4" d="M941.69,518.13c-.79-3.67-1.71-7.44-3.97-10.44-2.72-3.62-7.04-5.67-11.35-7.07-11.51-3.74-24.2-3.74-35.71,0l-.94,.97c-6.19,4.98-7.82,13.59-8.81,21.48-1.54,12.29-2.49,24.64-2.93,37.01h69.3c-.76-14.1-2.62-28.14-5.6-41.95"/>
      <path class="cls-12" d="M915.2,475.68c-26.55,0-40.13-18.82-48.15-32.78-8.03-13.96-16.87-18.62-40.74-21.25-3.88-.43-16.57-2.06-20.37-1.21-26.55,5.87-31.94,8.5-39.96,22.46-8.02,13.96-21.61,32.78-48.15,32.78s-43.38-10.93-43.38-10.93c46.69,67.2,106.18,2.83,106.18,2.83-1.24,27.92,.99,46.13,35.89,46.13s34.9-13.35,35.72-43.3c0,0,62.99,56.09,106.8-8.09,0,0-17.29,13.35-43.83,13.35"/>
      <path class="cls-12" d="M616.25,427.45c-9.8,2.7-20.28-1.68-25.34-10.48-2.06-3.57-3.62-7.86-4.08-12.93-2-21.7,23.66-46.69,9.59-61.4-16.99-17.76-48.27,12.74-41.44,63.95,5.63,42.21,47.84,54.36,47.84,54.36,0,0-17.91,67.79,42.85,62.03,28.13-2.67,36.45-20.47,38.37-31.98,1.92-11.51,.64-45.41-13.43-52.44-12.28-6.14-32.21-17.22-54.35-11.12"/>
      <path class="cls-12" d="M849.04,418.32s-12.15-10.45-42.21-2.77c-26.25,6.7-53.95-2.2-77.16-.73-6.97,.44-13.96-.23-20.68-2.11-22.19-6.21-73.36-15.85-106.17,15,0,0,14.07,1.28,55.64,10.23,41.57,8.95-7.12,71.42,44.77,79.94,42.85,7.04,62.74-14.09,55-39.01-11.51-37.09,19.82-27.5,42.85-33.9,24.54-6.82,30.06-23.45,47.97-26.65"/>
      <path class="cls-6" d="M1037.52,344.37c-3.71-.18-7.33-1.86-9.86-4.59,1.74,.39,3.48,.78,5.21,1.17-2.8-3.66-4.16-8.4-3.73-12.99,.53,2.88,1.71,5.64,3.44,8-.6-3.49-.38-7.12,.64-10.51,.61,2.73,1.21,5.46,1.82,8.19,.15-3.46,1.14-6.89,2.88-9.89-.35,3.53,.04,7.13,1.15,10.5,.56,1.69,1.31,3.39,1.26,5.17s-1.19,3.71-2.97,3.89"/>
      <path class="cls-12" d="M1015.12,427.45c9.8,2.7,20.28-1.68,25.34-10.48,2.05-3.57,3.62-7.86,4.08-12.93,2-21.7-23.66-46.69-9.59-61.4,16.99-17.76,48.27,12.74,41.44,63.95-5.63,42.21-47.84,54.36-47.84,54.36,0,0,17.91,67.79-42.85,62.03-28.13-2.67-29.01-21.1-30.93-32.62-1.92-11.51-8.08-44.77,5.99-51.8,12.28-6.14,32.21-17.22,54.35-11.12"/>
      <path class="cls-12" d="M786.36,418.32s8.12-10.45,38.18-2.77c26.24,6.7,53.95-2.2,77.16-.73,6.97,.44,13.96-.23,20.68-2.11,22.19-6.21,73.36-15.85,106.17,15,0,0-14.07,1.28-55.64,10.23-41.57,8.95,7.12,71.42-44.77,79.94-42.85,7.04-62.73-14.09-55-39.01,11.51-37.09-19.82-27.5-42.85-33.9-24.54-6.82-26.03-23.45-43.94-26.65"/>
      <path class="cls-13" d="M656.74,393.7c.41,1.03,.95,2.08,1.55,3.09,1.65-.66,3.31-1.41,4.98-2.23-1.76-2.91-2.78-6.39-2.78-6.39,1.73,1.87,4.17,3.56,6.03,4.71,4.51-2.47,9.09-5.54,13.67-9.31,0,0-10.19,1.88-21.09-9.16-14.18-14.37-29.38-17.73-42.84-.22-11.91,15.5-21.21,17.91-21.21,17.91,0,0,4.9,3.15,13.06,5.88,.54-.67,1.05-1.37,1.47-2.07,0,0-.09,1.01-.34,2.44,3.34,1.06,7.19,2.03,11.43,2.69,.71-1.68,1.4-3.59,1.74-5.38,0,0,.74,2.74,.93,5.75,9.66,1.15,21.13,.58,33.37-4.01-.11-2.08,0-3.69,0-3.69"/>
      <path class="cls-6" d="M738.62,384.18c.02,.13,.04,.27,.05,.41,1.29,10.66-5.65,20.27-15.49,21.46-9.84,1.19-18.86-6.49-20.15-17.16l-.61-5.05,9.99-1.2"/>
      <path d="M704.05,385.34l.51,4.26,3.6-.47c-.07-1.75,.65-2.55,.65-2.55l.29,2.42,33.79-4.44c-1.67-11.75-12.44-20.07-24.28-18.64-12,1.45-20.55,12.34-19.1,24.34l3.31-.44c-.03-2.72,1.21-4.49,1.21-4.49"/>
      <path class="cls-15" d="M930.58,390.27s10.25-16.81-8.61-25.42c-14.16-6.46-13.94-15.17-13.94-15.17,0,0-3.69,6.15-1.64,11.48,0,0-3.28-2.87-4.1-4.51,0,0-1.64,4.51-.82,7.38,0,0-11.48,6.97-9.02,21.33,2.94,17.15,19.27,12.71,19.27,20.5,0,0,2.87-2.46,2.87-4.51,0,0,2.87,1.64,1.23,4.92,0,0,4.1-1.64,3.69-5.74,0,0,7.38-2.46,11.07-10.25"/>
      <path class="cls-8" d="M989.76,400.77c10.04-1.34,17.08-10.57,15.74-20.6-1.34-10.04-10.57-17.08-20.6-15.74"/>
      <path class="cls-8" d="M989.76,400.77c-10.04,1.34-19.26-5.7-20.6-15.74-1.34-10.03,5.7-19.26,15.74-20.6,0,0,5.43,8.29,6.2,17.65,.78,9.36-1.34,18.69-1.34,18.69"/>
      <path class="cls-10" d="M801.43,448.26s.68,2.57,.43,5.28c2.26,.33,4.84,.6,7.77,.75,1.1-1.6,2.28-3.97,2.28-6.78,0,0,.71,3.19,.66,6.88,.93,.02,1.89,.04,2.89,.04,2.58,0,4.94-.08,7.12-.22,.31-2.25,.51-4.88,.17-7.07,0,0,1.78,3.39,2.76,6.84,4.38-.42,7.88-1.09,10.64-1.83-.42-1.4-.88-3.15-1.07-4.64,0,0,.87,2.35,2.32,4.28,5.72-1.71,7.78-3.62,7.78-3.62,0,0-6.73-3.75-6.73-13.76s2.24-63.02-10.1-62.56c0,0-7.67-9.56-20.76-3.26-11.22,5.4-12.34,15.77-12.34,39.13s2.81,36.7-8.42,40.46c0,0,2.59,2.88,11.43,4.73,1.13-.8,2.91-2.38,3.16-4.65"/>
      <path class="cls-6" d="M702.6,482.31c-1.97-3.15-5.21-5.48-8.83-6.35,1.19,1.33,2.38,2.65,3.57,3.98-4.57-.65-9.36,.48-13.15,3.1,2.77-.95,5.75-1.26,8.65-.91-3.34,1.18-6.4,3.15-8.86,5.7,2.68-.81,5.35-1.62,8.03-2.42-2.95,1.82-5.45,4.37-7.22,7.35,2.91-2.03,6.24-3.45,9.73-4.13,1.75-.34,3.59-.52,5.13-1.43,1.54-.91,2.66-2.86,1.94-4.49"/>
      <path class="cls-12" d="M759.82,454.88c-2.66,2.56-8.51,4.86-11.41,5.65-6.66,1.82-12.85,2.64-19.75,3.02-6.9,.37-14.02,1.32-19.9,4.95-5.88,3.63-10.21,10.56-8.88,17.34,1.16,5.96,6.44,10.51,12.26,12.24,5.82,1.73,12.09,1.07,18.01-.28,17.4-3.96,33.38-13.87,44.67-27.69,.75-.92,1.52-1.93,1.64-3.12,.21-2.12-1.67-3.83-3.47-4.98-3.72-2.37-7.89-4.02-12.22-4.84"/>
      <path class="cls-6" d="M929.25,482.31c1.97-3.15,5.21-5.48,8.83-6.35l-3.57,3.98c4.57-.65,9.36,.48,13.15,3.1-2.77-.95-5.75-1.26-8.66-.91,3.34,1.18,6.4,3.15,8.86,5.7-2.68-.81-5.35-1.62-8.03-2.42,2.95,1.82,5.45,4.37,7.22,7.35-2.91-2.03-6.24-3.45-9.73-4.13-1.75-.34-3.59-.52-5.13-1.43-1.54-.91-2.66-2.86-1.94-4.49"/>
      <path class="cls-12" d="M872.03,454.88c2.67,2.56,8.51,4.86,11.41,5.65,6.66,1.82,12.85,2.64,19.75,3.02,6.9,.37,14.02,1.32,19.9,4.95,5.88,3.63,10.21,10.56,8.88,17.34-1.16,5.96-6.44,10.51-12.26,12.24-5.82,1.73-12.09,1.07-18.01-.28-17.4-3.96-33.38-13.87-44.67-27.69-.76-.92-1.52-1.93-1.64-3.12-.21-2.12,1.67-3.83,3.47-4.98,3.72-2.37,7.89-4.02,12.22-4.84"/>
    </g>
  </g>
</svg>