<?xml version="1.0" encoding="utf-8"?>
<!-- Generator: Adobe Illustrator 26.5.0, SVG Export Plug-In . SVG Version: 6.00 Build 0)  -->
<svg version="1.1" id="Capa_1" xmlns="http://www.w3.org/2000/svg" xmlns:xlink="http://www.w3.org/1999/xlink" x="0px" y="0px"
	 viewBox="0 0 1212.7 726.8" style="enable-background:new 0 0 1212.7 726.8;" xml:space="preserve">
<style type="text/css">
	.st0{fill:#2200C9;}
	.st1{fill:#FE3B1F;}
	.st2{fill:#0082CB;}
	.st3{clip-path:url(#SVGID_00000043452418604647777630000004264899214620765846_);}
	.st4{clip-path:url(#SVGID_00000074432872443406654170000012661885493395587766_);}
	.st5{fill:#603302;}
	.st6{fill:#FFD19F;}
	.st7{fill:#FF3D6A;}
	.st8{fill:#01332B;}
	.st9{fill:#35CAD9;}
	.st10{fill:#6EE5D7;}
	.st11{fill:#3C114F;}
	.st12{fill:#FFC13B;}
	.st13{fill-rule:evenodd;clip-rule:evenodd;fill:#010007;}
</style>
<g>
	<g>
		<path class="st0" d="M280.9,390c2.7-2.1,6.5-2.2,9.8-2.5l-15.5-15.3l-15.3,15.5c-0.2-3.3-0.3-7.1-2.5-9.8c-2-2.5-5.3-3-8.2-2.1
			c-1.8,0.6-3.5,1.7-4.9,3.2c-1.5,1.4-2.6,3.1-3.1,4.9c-0.9,2.9-0.3,6.3,2.2,8.2c2.7,2.1,6.5,2.2,9.8,2.4l-15.3,15.5l15.5,15.3
			c0.2-3.3,0.3-7.1,2.4-9.8c2-2.5,5.3-3,8.2-2.2c1.8,0.5,3.5,1.7,4.9,3.1c1.5,1.3,2.6,3,3.2,4.9c0.9,2.9,0.4,6.3-2.1,8.2
			c-2.7,2.1-6.5,2.2-9.8,2.5l15.5,15.3l15.3-15.5c0.2,3.3,0.3,7.1,2.5,9.8c2,2.5,5.3,3,8.2,2.1c1.8-0.6,3.5-1.7,4.9-3.2
			c1.5-1.4,2.6-3.1,3.1-4.9c0.9-2.9,0.3-6.3-2.2-8.2c-2.7-2.1-6.5-2.2-9.8-2.4l15.3-15.5l-15.5-15.3c-0.2,3.3-0.3,7.1-2.4,9.8
			c-2,2.5-5.3,3.1-8.2,2.2c-1.8-0.5-3.5-1.7-4.9-3.1c-1.5-1.3-2.6-3-3.2-4.9C277.9,395.3,278.4,391.9,280.9,390L280.9,390L280.9,390
			z"/>
		<path class="st0" d="M291.6,406.4c1.2,1.6,1.8,3.4,1,5.6c-0.7,2.2-3.6,4.6-5.8,5.1c-2.5,0.6-4.5-0.4-5.8-2.6
			c-1.6-2.8-2.3-5.9-4.5-8.3c-1.6-1.7-3.4-3.5-5.9-3.6c-1.5-0.1-3,0-4.4-0.3c-5-1.2-2.5-5.8-1.5-9c0.6-2.1-0.5-3.8-2.5-4.6
			c-5.4-2.1-14-2-15.1-9.3c-0.2-1.1,0.1-2.1,0.6-3c-1.3,0.6-2.5,1.5-3.4,2.6c-1.5,1.4-2.6,3.1-3.1,4.9c-0.9,2.9-0.3,6.3,2.2,8.2
			c2.7,2.1,6.5,2.2,9.8,2.4l-15.3,15.5l15.5,15.3c0.2-3.3,0.3-7.1,2.4-9.8c2-2.5,5.3-3,8.2-2.2c1.8,0.5,3.5,1.7,4.9,3.1
			c1.5,1.3,2.6,3,3.2,4.9c0.9,2.9,0.4,6.3-2.1,8.2c-2.7,2.1-6.5,2.2-9.8,2.5l15.5,15.3l15.3-15.5c0.2,3.3,0.3,7.1,2.5,9.8
			c2,2.5,5.3,3,8.2,2.1c1.8-0.6,3.5-1.7,4.9-3.2c1.5-1.4,2.6-3.1,3.1-4.9c0.9-2.9,0.3-6.3-2.2-8.2c-2.7-2.1-6.5-2.2-9.8-2.4
			l15.3-15.5l-15.5-15.3c-0.2,3.3-0.3,7.1-2.4,9.8C294.2,405.2,292.9,406,291.6,406.4L291.6,406.4L291.6,406.4z"/>
		<path class="st0" d="M300.5,413c-2.5,3.5-6.3,5.8-9.1,8.9c-1.9,2.1-3.5,4.6-5.3,6.8c-1.2,1.4-3,3.9-5.1,4c-1.7,0.1-3.7-0.2-4-2.2
			c-0.3-1.9,0.8-3.9,1.4-5.6c0.8-2.2,1-3.8-0.1-6c-1.3-2.7-3.2-5.1-5.4-7.2c-2.1-2.1-4.5-4.2-7.3-5.2c-1.6-0.6-3.4-0.7-4.9,0.2
			c-1.3,0.8-2.2,2-3.3,3.1c-1.5,1.6-3.8,2.7-5.9,1.5c-1.6-0.9-0.9-3.3-0.3-4.6c1-2.2,2.4-3.8,4.1-5.4c2.5-2.2,5.2-5,3-8.4
			c-1.8-2.9-6.1-4.6-9.4-5c-1.4-0.2-2.7-0.3-3.9-1.1c-1-0.8-1.6-2.3-1.9-3.5c-0.2-1.1-0.2-2.2,0-3.3c-1,1.1-1.7,2.5-2.1,3.9
			c-0.9,2.9-0.3,6.3,2.2,8.2c2.7,2.1,6.5,2.2,9.8,2.4l-15.3,15.5l15.5,15.3c0.2-3.3,0.3-7.1,2.4-9.8c2-2.5,5.3-3,8.2-2.2
			c1.8,0.5,3.5,1.7,4.9,3.1c1.5,1.3,2.6,3,3.2,4.9c0.9,2.9,0.4,6.3-2.1,8.2c-2.7,2.1-6.5,2.2-9.8,2.5l15.5,15.3l15.3-15.5
			c0.2,3.3,0.3,7.1,2.5,9.8c2,2.5,5.3,3,8.2,2.1c1.8-0.6,3.5-1.7,4.9-3.2c1.5-1.4,2.6-3.1,3.1-4.9c0.9-2.9,0.3-6.3-2.2-8.2
			c-2.7-2.1-6.5-2.2-9.8-2.4l15.3-15.5l-15.5-15.3c-0.1,2.6-0.2,5.5-1.3,7.9C300.2,404.7,303.8,408.3,300.5,413L300.5,413L300.5,413
			z"/>
		<path class="st0" d="M265.5,385c-0.5,1.4,0.4,2.5,1.4,3.4c1.2,1.1,2.5,2,3.9,2.9c1,0.6,2.2,1.2,3.5,1c1.5-0.3,2.9-1.3,4-2.2
			c1.3-1,2.7-2.2,3.4-3.7c1.4-2.9-2.2-5.8-4.2-7.4c-1.2-1-2.7-2.1-4.3-1.7c-1.5,0.4-2.6,1.6-3.5,2.7c-0.4,0.5-0.7,1-1.1,1.5
			c-0.5,0.6-1.1,1-1.7,1.6C266.3,383.5,265.7,384.2,265.5,385L265.5,385L265.5,385z"/>
	</g>
	<g>
		<path class="st1" d="M248,258.6c-1.3-3.2-0.3-6.9,0.4-10.1L229.3,259l10.4,19.1c-3.2-0.7-6.9-1.7-10.1-0.4c-3,1.2-4.4,4.2-4.4,7.3
			c0,1.9,0.6,3.9,1.7,5.6c0.9,1.8,2.2,3.4,3.8,4.4c2.6,1.7,5.9,2.1,8.5,0.3c2.8-2,4-5.6,5.1-8.7l10.4,19.1l19.1-10.4
			c-3.1-1.1-6.7-2.3-8.7-5.1c-1.9-2.6-1.4-5.9,0.3-8.5c1-1.6,2.6-2.9,4.4-3.8c1.7-1,3.7-1.6,5.6-1.7c3.1,0,6.1,1.4,7.3,4.4
			c1.3,3.2,0.3,6.9-0.4,10.1l19.1-10.4L291,261.1c3.2,0.7,6.9,1.7,10.1,0.4c3-1.2,4.4-4.2,4.4-7.3c0-1.9-0.6-3.9-1.7-5.6
			c-0.9-1.8-2.2-3.4-3.8-4.4c-2.6-1.7-5.9-2.1-8.5-0.3c-2.8,2-4,5.6-5.1,8.7L276,233.5l-19.1,10.4c3.1,1.1,6.7,2.3,8.7,5.1
			c1.9,2.6,1.4,5.9-0.3,8.5c-1,1.6-2.6,2.9-4.4,3.8c-1.7,1-3.7,1.6-5.6,1.7C252.2,263,249.2,261.6,248,258.6L248,258.6L248,258.6z"
			/>
		<path class="st1" d="M266.7,253.1c1.9-0.7,3.8-0.7,5.7,0.6s3.4,4.7,3.2,7c-0.1,2.6-1.6,4.2-4.1,4.8c-3.1,0.8-6.3,0.5-9.3,2
			c-2.1,1-4.3,2.3-5.1,4.6c-0.5,1.4-0.8,2.9-1.5,4.1c-2.6,4.4-6.2,0.8-9.1-1.1c-1.8-1.2-3.8-0.6-5.1,1.1
			c-3.6,4.6-5.9,12.8-13.2,11.8c-1.1-0.1-2-0.7-2.7-1.4c0.2,1.4,0.8,2.8,1.5,4c0.9,1.8,2.2,3.4,3.8,4.4c2.6,1.7,5.9,2.1,8.5,0.3
			c2.8-2,4-5.6,5.1-8.7l10.4,19.1l19.1-10.4c-3.1-1.1-6.7-2.3-8.7-5.1c-1.9-2.6-1.4-5.9,0.3-8.5c1-1.6,2.6-2.9,4.4-3.8
			c1.7-1,3.7-1.6,5.6-1.7c3.1,0,6.1,1.4,7.3,4.4c1.3,3.2,0.3,6.9-0.4,10.1l19.1-10.4L291,261.1c3.2,0.7,6.9,1.7,10.1,0.4
			c3-1.2,4.4-4.2,4.4-7.3c0-1.9-0.6-3.9-1.7-5.6c-0.9-1.8-2.2-3.4-3.8-4.4c-2.6-1.7-5.9-2.1-8.5-0.3c-2.8,2-4,5.6-5.1,8.7L276,233.5
			l-19.1,10.4c3.1,1.1,6.7,2.3,8.7,5.1C266.4,250.3,266.8,251.7,266.7,253.1L266.7,253.1L266.7,253.1z"/>
		<path class="st1" d="M275.6,246.4c2.6,3.4,3.7,7.7,6,11.3c1.5,2.4,3.4,4.6,5,7c1,1.6,2.9,4,2.4,6.1c-0.4,1.7-1.3,3.5-3.3,3.2
			c-1.9-0.3-3.5-1.9-5-3c-1.9-1.4-3.4-2-5.8-1.6c-2.9,0.5-5.8,1.6-8.4,3.1c-2.6,1.4-5.3,3.1-7.1,5.5c-1,1.4-1.7,3-1.2,4.8
			c0.4,1.5,1.3,2.7,2.1,4.1c1.1,1.9,1.5,4.4-0.3,6.1c-1.4,1.2-3.4-0.1-4.5-1c-1.8-1.6-3-3.4-4-5.5c-1.4-3-3.2-6.4-7.2-5.3
			c-3.3,0.9-6.1,4.5-7.5,7.5c-0.6,1.2-1,2.5-2.2,3.4c-1,0.8-2.6,0.9-3.9,0.8c-1.1-0.1-2.2-0.5-3.1-1c0.8,1.3,1.9,2.4,3.1,3.2
			c2.6,1.7,5.9,2.1,8.5,0.3c2.8-2,4-5.6,5.1-8.7l10.4,19.1l19.1-10.4c-3.1-1.1-6.7-2.3-8.7-5.1c-1.9-2.6-1.4-5.9,0.3-8.5
			c1-1.6,2.6-2.9,4.4-3.8c1.7-1,3.7-1.6,5.6-1.7c3.1,0,6.1,1.4,7.3,4.4c1.3,3.2,0.3,6.9-0.4,10.1l19.1-10.4L291,261.1
			c3.2,0.7,6.9,1.7,10.1,0.4c3-1.2,4.4-4.2,4.4-7.3c0-1.9-0.6-3.9-1.7-5.6c-0.9-1.8-2.2-3.4-3.8-4.4c-2.6-1.7-5.9-2.1-8.5-0.3
			c-2.8,2-4,5.6-5.1,8.7l-10.4-19.1l-19.1,10.4c2.4,0.9,5.2,1.8,7.2,3.5C267.6,244.3,272.1,241.9,275.6,246.4L275.6,246.4
			L275.6,246.4z"/>
		<path class="st1" d="M238.8,271.9c1.2,0.8,2.5,0.3,3.6-0.3c1.4-0.8,2.6-1.8,3.8-2.9c0.9-0.8,1.8-1.8,1.9-3c0.1-1.5-0.5-3.1-1-4.5
			c-0.6-1.5-1.3-3.2-2.5-4.3c-2.4-2.2-6.2,0.5-8.3,1.9c-1.3,0.9-2.8,2-2.9,3.7c-0.1,1.5,0.8,2.9,1.6,4.1c0.3,0.5,0.8,0.9,1.1,1.5
			c0.4,0.7,0.6,1.4,1.1,2.1C237.6,270.8,238.1,271.5,238.8,271.9L238.8,271.9L238.8,271.9z"/>
	</g>
	<g>
		<path class="st2" d="M231.9,103.2c2-2.8,5.6-4,8.7-5.1l-19.2-10.3L211.1,107c-1.1-3.1-2.3-6.7-5.1-8.7c-2.6-1.8-5.9-1.4-8.5,0.3
			c-1.6,1.1-2.9,2.7-3.8,4.4c-1,1.7-1.6,3.7-1.6,5.6c0,3.1,1.4,6.1,4.4,7.3c3.2,1.2,6.9,0.2,10.1-0.5l-10.3,19.2l19.2,10.3
			c-0.8-3.2-1.8-6.9-0.5-10.1c1.2-3,4.2-4.4,7.3-4.4c1.9,0,3.9,0.6,5.6,1.6c1.8,0.9,3.4,2.2,4.4,3.8c1.7,2.6,2.2,5.9,0.3,8.5
			c-2,2.8-5.6,4-8.7,5.1l19.2,10.3l10.3-19.2c1.1,3.1,2.3,6.7,5.1,8.7c2.6,1.8,6,1.4,8.5-0.3c1.6-1.1,2.9-2.6,3.8-4.4
			c1-1.7,1.6-3.7,1.6-5.6c0-3.1-1.5-6.1-4.4-7.3c-3.2-1.2-6.9-0.2-10.1,0.5l10.3-19.2L249,102.6c0.8,3.2,1.8,6.9,0.5,10.1
			c-1.2,3-4.2,4.4-7.3,4.4c-1.9,0-3.9-0.6-5.6-1.6c-1.8-0.9-3.4-2.2-4.4-3.8C230.5,109.2,230,105.8,231.9,103.2L231.9,103.2
			L231.9,103.2z"/>
		<path class="st2" d="M246.8,115.9c1.6,1.2,2.6,2.8,2.6,5.1c-0.1,2.3-2.1,5.4-4.1,6.5c-2.2,1.3-4.4,0.9-6.3-0.8
			c-2.3-2.2-3.9-5-6.7-6.7c-2-1.2-4.2-2.3-6.7-1.8c-1.4,0.3-2.8,0.9-4.3,1c-5.1,0.3-4.1-4.8-4-8.2c0-2.2-1.6-3.5-3.7-3.7
			c-5.8-0.5-14,2.1-17.1-4.6c-0.5-1-0.5-2-0.3-3c-1.1,1-1.9,2.2-2.6,3.5c-1,1.7-1.6,3.7-1.6,5.6c0,3.1,1.4,6.1,4.4,7.3
			c3.2,1.2,6.9,0.2,10.1-0.5l-10.3,19.2l19.2,10.3c-0.8-3.2-1.8-6.9-0.5-10.1c1.2-3,4.2-4.4,7.3-4.4c1.9,0,3.9,0.6,5.6,1.6
			c1.8,0.9,3.4,2.2,4.4,3.8c1.7,2.6,2.2,5.9,0.3,8.5c-2,2.8-5.6,4-8.7,5.1l19.2,10.3l10.3-19.2c1.1,3.1,2.3,6.7,5.1,8.7
			c2.6,1.8,6,1.4,8.5-0.3c1.6-1.1,2.9-2.6,3.8-4.4c1-1.7,1.6-3.7,1.6-5.6c0-3.1-1.5-6.1-4.4-7.3c-3.2-1.2-6.9-0.2-10.1,0.5
			l10.3-19.2L249,102.7c0.8,3.2,1.8,6.9,0.5,10.1C249,114.1,248,115.2,246.8,115.9L246.8,115.9L246.8,115.9z"/>
		<path class="st2" d="M257.2,119.7c-1.4,4.1-4.4,7.3-6.2,11.1c-1.2,2.6-2,5.4-3.1,8c-0.7,1.7-1.8,4.6-3.8,5.3
			c-1.6,0.6-3.6,0.8-4.5-1c-0.8-1.7-0.4-4-0.3-5.8c0.1-2.3-0.2-3.9-1.8-5.7c-2-2.2-4.6-3.9-7.2-5.3c-2.6-1.4-5.5-2.7-8.5-2.9
			c-1.7-0.1-3.5,0.3-4.6,1.6c-1,1.2-1.6,2.6-2.3,3.9c-1,1.9-2.9,3.7-5.3,3.1c-1.8-0.4-1.8-2.9-1.6-4.3c0.3-2.3,1.2-4.3,2.4-6.3
			c1.7-2.8,3.6-6.2,0.5-8.9c-2.6-2.3-7.1-2.7-10.4-2.2c-1.4,0.2-2.7,0.5-4,0c-1.2-0.4-2.2-1.7-2.8-2.8c-0.5-1-0.8-2.1-0.9-3.2
			c-0.6,1.4-1,2.9-1,4.3c0,3.1,1.4,6.1,4.4,7.3c3.2,1.2,6.9,0.2,10.1-0.5l-10.3,19.2l19.2,10.3c-0.8-3.2-1.8-6.9-0.5-10.1
			c1.2-3,4.2-4.4,7.3-4.4c1.9,0,3.9,0.6,5.6,1.6c1.8,0.9,3.4,2.2,4.4,3.8c1.7,2.6,2.2,5.9,0.3,8.5c-2,2.8-5.6,4-8.7,5.1l19.2,10.3
			l10.3-19.2c1.1,3.1,2.3,6.7,5.1,8.7c2.6,1.8,6,1.4,8.5-0.3c1.6-1.1,2.9-2.6,3.8-4.4c1-1.7,1.6-3.7,1.6-5.6c0-3.1-1.5-6.1-4.4-7.3
			c-3.2-1.2-6.9-0.2-10.1,0.5l10.3-19.2L249,102.6c0.6,2.5,1.3,5.3,1,8C254.6,111.9,259.1,114.2,257.2,119.7L257.2,119.7
			L257.2,119.7z"/>
		<path class="st2" d="M215.7,102.8c0,1.4,1.1,2.3,2.3,2.8c1.4,0.7,3,1.2,4.5,1.6c1.2,0.3,2.4,0.5,3.6-0.1c1.4-0.7,2.4-2.1,3.2-3.3
			c0.9-1.3,2-2.9,2.2-4.5c0.5-3.2-3.8-4.9-6.1-5.9c-1.4-0.6-3.2-1.3-4.6-0.4c-1.3,0.8-2,2.3-2.6,3.6c-0.2,0.6-0.3,1.2-0.6,1.7
			c-0.4,0.7-0.8,1.3-1.1,2C216,101.2,215.7,102,215.7,102.8L215.7,102.8L215.7,102.8z"/>
	</g>
	<g>
		<path class="st0" d="M101.7,219.6c-1.9-2.8-1.8-6.6-1.8-9.9l-16.3,14.4L98,240.4c-3.3,0-7.1-0.1-9.9,1.8c-2.6,1.8-3.3,5.1-2.7,8.1
			c0.4,1.9,1.5,3.6,2.9,5.1c1.2,1.6,2.9,2.8,4.7,3.5c2.9,1.1,6.2,0.8,8.3-1.6c2.3-2.6,2.6-6.4,3-9.6l14.4,16.3l16.3-14.4
			c-3.2-0.4-7-0.7-9.6-3c-2.4-2.1-2.7-5.5-1.6-8.4c0.7-1.8,1.9-3.4,3.5-4.7c1.4-1.4,3.2-2.4,5.1-2.9c3-0.7,6.3,0,8.1,2.6
			c1.9,2.8,1.8,6.6,1.8,9.9l16.3-14.4l-14.4-16.3c3.3,0,7.1,0.1,9.9-1.8c2.6-1.8,3.4-5.1,2.6-8.1c-0.4-1.9-1.5-3.6-2.9-5.1
			c-1.2-1.6-2.9-2.8-4.7-3.5c-2.9-1.1-6.2-0.8-8.4,1.6c-2.3,2.6-2.6,6.4-3,9.6l-14.4-16.3l-16.3,14.4c3.2,0.4,7,0.7,9.6,3
			c2.4,2.1,2.7,5.5,1.6,8.4c-0.7,1.8-1.9,3.4-3.5,4.7c-1.4,1.4-3.2,2.4-5.1,2.9C106.8,223,103.5,222.2,101.7,219.6L101.7,219.6
			L101.7,219.6z"/>
		<path class="st0" d="M118.8,210c1.7-1.1,3.5-1.5,5.7-0.6c2.1,0.9,4.3,3.9,4.7,6.1c0.4,2.6-0.7,4.5-3,5.6c-2.9,1.4-6.1,1.9-8.6,4
			c-1.8,1.5-3.7,3.2-4,5.6c-0.2,1.4-0.2,3-0.6,4.4c-1.5,4.9-5.9,2.1-9.1,0.9c-2.1-0.8-3.8,0.3-4.7,2.2c-2.5,5.3-2.9,13.8-10.3,14.4
			c-1.1,0.1-2.1-0.2-2.9-0.8c0.5,1.3,1.4,2.6,2.4,3.6c1.2,1.6,2.9,2.8,4.7,3.5c2.9,1.1,6.2,0.8,8.3-1.6c2.3-2.6,2.6-6.4,3-9.6
			l14.4,16.3l16.3-14.4c-3.2-0.4-7-0.7-9.6-3c-2.4-2.1-2.7-5.5-1.6-8.4c0.7-1.8,1.9-3.4,3.5-4.7c1.4-1.4,3.2-2.4,5.1-2.9
			c3-0.7,6.3,0,8.1,2.6c1.9,2.8,1.8,6.6,1.8,9.9l16.3-14.4l-14.4-16.3c3.3,0,7.1,0.1,9.9-1.8c2.6-1.8,3.4-5.1,2.6-8.1
			c-0.4-1.9-1.5-3.6-2.9-5.1c-1.2-1.6-2.9-2.8-4.7-3.5c-2.9-1.1-6.2-0.8-8.4,1.6c-2.3,2.6-2.6,6.4-3,9.6l-14.4-16.3l-16.3,14.4
			c3.2,0.4,7,0.7,9.6,3C117.8,207.4,118.5,208.6,118.8,210L118.8,210L118.8,210z"/>
		<path class="st0" d="M126,201.6c3.3,2.7,5.3,6.7,8.3,9.7c2,2.1,4.4,3.8,6.4,5.7c1.4,1.3,3.7,3.3,3.7,5.4c0,1.7-0.5,3.7-2.5,3.8
			c-1.9,0.2-3.9-1-5.5-1.8c-2.1-0.9-3.7-1.2-6-0.3c-2.8,1.1-5.3,2.9-7.5,4.9c-2.2,1.9-4.5,4.2-5.7,7c-0.7,1.6-0.9,3.3-0.1,4.9
			c0.8,1.4,1.9,2.4,2.9,3.5c1.5,1.6,2.5,4,1.1,6c-1,1.5-3.3,0.6-4.6,0c-2.1-1.1-3.6-2.6-5.1-4.5c-2-2.6-4.6-5.6-8.2-3.6
			c-3,1.6-5,5.7-5.7,9c-0.3,1.3-0.5,2.7-1.4,3.8c-0.8,1-2.4,1.5-3.6,1.6c-1.1,0.1-2.2,0-3.3-0.2c1.1,1,2.3,1.9,3.7,2.4
			c2.9,1.1,6.2,0.8,8.3-1.6c2.3-2.6,2.6-6.4,3-9.6l14.4,16.3l16.3-14.4c-3.2-0.4-7-0.7-9.6-3c-2.4-2.1-2.7-5.5-1.6-8.4
			c0.7-1.8,1.9-3.4,3.5-4.7c1.4-1.4,3.2-2.4,5.1-2.9c3-0.7,6.3,0,8.1,2.6c1.9,2.8,1.8,6.6,1.8,9.9l16.3-14.4l-14.4-16.3
			c3.3,0,7.1,0.1,9.9-1.8c2.6-1.8,3.4-5.1,2.6-8.1c-0.4-1.9-1.5-3.6-2.9-5.1c-1.2-1.6-2.9-2.8-4.7-3.5c-2.9-1.1-6.2-0.8-8.4,1.6
			c-2.3,2.6-2.6,6.4-3,9.6l-14.4-16.3l-16.3,14.4c2.6,0.3,5.5,0.6,7.8,1.8C117.7,201.3,121.5,197.9,126,201.6L126,201.6L126,201.6z"
			/>
		<path class="st0" d="M95.7,234.6c1.3,0.5,2.5-0.2,3.4-1.1c1.2-1.1,2.2-2.4,3.1-3.6c0.7-1,1.3-2.1,1.2-3.4c-0.2-1.5-1.1-2.9-2-4.1
			c-0.9-1.3-2-2.8-3.4-3.7c-2.8-1.6-6,1.9-7.7,3.7c-1.1,1.1-2.3,2.6-2,4.2c0.3,1.5,1.4,2.7,2.5,3.7c0.4,0.4,1,0.7,1.4,1.2
			c0.5,0.6,0.9,1.2,1.5,1.8C94.2,233.8,94.9,234.3,95.7,234.6L95.7,234.6L95.7,234.6z"/>
	</g>
	<path class="st0" d="M178.9,475c23.4-27.6,34.7-58.6,33.6-94.7c-0.7-22-7.8-43.8-23.8-59.5c-15.6-15.4-40.5-25-62.1-27.5
		c-13.9-1.6-29.9-1.8-43.5,2.1c-29.3,8.4-57.7,35.1-58.3,67.2c-0.1,5.9,1.7,12.2,0.9,18c-0.5,3.6-1.7,6.8-2.9,10.2
		c-1.3,3.8-5,8.9-7.6,12.4c-4.1,5.4-6.8,8.1-11.8,12.7c-3.3,3.1-5.2,9.1-0.9,12.3c3.7,2.8,3.9,3,7.8,4.9c3.6,1.9,8.9,2.7,11,6.6
		c2.6,4.8-1.3,7.7-2.3,12.1c0,0-2.9,4.6,5.2,7l-3.5,3.1c0,0-4.2,1.5-0.8,8.1c0,0,6.9,2.2,2.3,16.8c0,0-5.8,14.2,8.5,18.9l38.9,0.2
		c0,0,0.7,26.6-1.7,49.1h99.8c-5.6-15.2-8.4-41.3-5.8-54.1C164.2,490.1,172.1,483,178.9,475L178.9,475z M149.4,421.6
		c1.3,2.9,0.2,6.1-1.9,8.3c-1.3,1.4-3.1,2.4-5.1,2.9c-1.9,0.7-3.9,0.9-5.8,0.5c-3-0.6-5.7-2.6-6.3-5.7c-0.6-3.4,1-6.8,2.4-9.8
		l-20.8,6.5l-6.5-20.8c3,1.3,6.4,3,9.8,2.4c3.1-0.6,5.1-3.3,5.7-6.3c0.3-1.9,0.1-3.9-0.6-5.8c-0.5-1.9-1.5-3.7-2.9-5.1
		c-2.2-2.1-5.4-3.2-8.3-1.9c-3.1,1.4-5,4.7-6.7,7.5l-6.5-20.8l20.8-6.5c-2.8-1.7-6.1-3.5-7.6-6.7c-1.3-2.9-0.2-6.1,1.9-8.3
		c0.3-0.3,0.6-0.6,1-0.9c0.1-0.1,0.2-0.2,0.3-0.2c0.2-0.2,0.5-0.4,0.8-0.5c0.1-0.1,0.2-0.1,0.4-0.2c0.3-0.2,0.7-0.4,1.1-0.5
		c0.1,0,0.1,0,0.1-0.1c0,0,0,0,0,0l0,0c0.4-0.2,0.9-0.3,1.4-0.5c0.3-0.1,0.6-0.2,0.9-0.3c0.1,0,0.2,0,0.2-0.1
		c0.3-0.1,0.6-0.1,0.9-0.2c0,0,0,0,0,0c0.3-0.1,0.7-0.1,1-0.1c0.1,0,0.1,0,0.1,0c0.9-0.1,1.7,0,2.5,0.1c3,0.6,5.7,2.6,6.3,5.7
		c0.6,3.4-1,6.8-2.4,9.8l20.8-6.5l6.5,20.8c-3-1.3-6.4-3-9.8-2.4c-3.1,0.6-5.1,3.3-5.7,6.3c-0.4,1.9-0.1,3.9,0.6,5.8
		c0.5,1.9,1.5,3.7,2.9,5.1c1.1,1.1,2.6,2,4.1,2.3l0,0c0.3,0.1,0.7,0.1,1,0.2h0c0.2,0,0.3,0,0.5,0c0,0,0,0,0.1,0c0.1,0,0.3,0,0.5,0
		c0,0,0.1,0,0.1,0c0.1,0,0.3,0,0.4,0c0.1,0,0.1,0,0.2,0c0.1,0,0.2,0,0.4-0.1c0.1,0,0.2,0,0.3-0.1c0.1,0,0.2,0,0.3-0.1
		c0.2-0.1,0.4-0.1,0.5-0.2c0.7-0.3,1.3-0.7,1.8-1.1l0,0c1.8-1.5,3.1-3.6,4.3-5.6c0.1-0.1,0.1-0.2,0.1-0.3c0.1-0.2,0.2-0.4,0.4-0.6
		l6.5,20.8l-20.8,6.5C144.6,416.7,148,418.5,149.4,421.6L149.4,421.6z"/>
</g>
<path class="st0" d="M1105.1,0c-59.4,0-107.6,48.2-107.6,107.6s48.2,107.6,107.6,107.6s107.6-48.2,107.6-107.6S1164.5,0,1105.1,0z
	 M1059,115c2.1,2.4,3.9,5.2,5.3,8.8c1.9,4.7,3.1,10.5,3.4,17.7c0.1,2.3-1.7,4.2-4,4.4c-2.3,0.1-4.2-1.7-4.3-4
	c-0.3-7.3-1.6-12.5-3.3-16.2c-1.8-3.7-3.9-6.1-6.4-8c-1.6-1.2-3.4-2.2-5.3-3.1c-1.4-0.7-2.8-1.3-4.3-1.9c-1.8,0.8-3.6,1.5-5.2,2.4
	c-2.8,1.4-5.3,3.1-7.5,5.6c-1.4,1.7-2.8,3.7-3.8,6.4c-1.5,3.6-2.5,8.4-2.8,14.9c-0.1,2.3-2,4.1-4.3,4c-2.3-0.1-4.1-2-4-4.4
	c0.3-8.1,1.8-14.4,4.1-19.4c2.3-5,5.5-8.6,8.9-11.1c1.7-1.3,3.5-2.3,5.2-3.2c-4.2-2.6-7.6-5.2-10.2-7.8c-3.7-3.8-5.9-7.6-7-11.2
	c-0.8-2.3-1-4.6-1-6.5c0-2.3,0.4-4.1,0.8-5.5c0.4-1.3,0.8-2.2,0.9-2.4l0,0c1.1-2,3.6-2.8,5.6-1.8c2,1.1,2.8,3.6,1.8,5.6l0,0l0,0
	l-0.1,0.1c-0.1,0.1-0.2,0.4-0.3,0.8c-0.2,0.7-0.4,1.8-0.4,3.1c0,1.1,0.2,2.4,0.6,3.9c0.5,1.5,1.3,3.2,2.6,5
	c2.6,3.6,7.5,7.9,16.1,12.2c6.5-3.2,10.8-6.4,13.7-9.4c2.9-3,4.3-5.6,5-7.8c0.5-1.5,0.6-2.8,0.6-3.9c0-2.1-0.6-3.6-0.7-3.9l0-0.1
	l0,0l0,0l0,0c-1-2-0.2-4.5,1.8-5.6c2-1.1,4.6-0.3,5.6,1.8c0.1,0.2,0.5,1,0.9,2.3c0.4,1.3,0.8,3.2,0.8,5.5c0,1.9-0.3,4.1-1,6.5
	c-0.7,2.3-2,4.8-3.8,7.4c-2.8,3.9-7.1,7.9-13.4,11.6C1052.7,109.3,1056,111.6,1059,115L1059,115z M1123.9,112.2
	c2.1,2.3,3.9,5.2,5.3,8.8c1.9,4.7,3.1,10.5,3.4,17.7c0.1,2.3-1.7,4.2-4,4.4c-2.3,0.1-4.2-1.7-4.3-4c-0.3-7.3-1.6-12.5-3.3-16.2
	c-1.8-3.7-3.9-6.1-6.4-8c-1.6-1.2-3.4-2.2-5.3-3.1c-1.4-0.7-2.8-1.3-4.3-1.9c-1.8,0.8-3.6,1.5-5.2,2.4c-2.8,1.4-5.3,3.1-7.5,5.5
	c-1.4,1.7-2.8,3.7-3.8,6.4c-1.4,3.6-2.5,8.4-2.8,14.9c-0.1,2.3-2,4.1-4.3,4c-2.3-0.1-4.1-2-4-4.4c0.3-8.1,1.8-14.4,4.1-19.4
	c2.3-5,5.5-8.6,8.9-11.1c1.7-1.3,3.5-2.3,5.2-3.2c-4.2-2.6-7.6-5.2-10.2-7.8c-3.7-3.8-5.9-7.6-7-11.2c-0.8-2.3-1-4.6-1-6.5
	c0-2.3,0.4-4.1,0.8-5.5c0.4-1.3,0.8-2.2,0.9-2.3c1.1-2,3.6-2.8,5.6-1.8c2,1.1,2.8,3.6,1.8,5.6l0,0l0,0l-0.1,0.1
	c-0.1,0.1-0.2,0.4-0.3,0.8c-0.2,0.7-0.4,1.8-0.4,3.1c0,1.1,0.2,2.4,0.6,3.9c0.5,1.5,1.3,3.2,2.6,5c2.6,3.6,7.4,7.9,16.1,12.2
	c6.5-3.2,10.8-6.4,13.7-9.4c2.9-3,4.3-5.6,5-7.8c0.5-1.5,0.6-2.8,0.6-3.9c0-2.1-0.6-3.6-0.7-3.9l0-0.1l0,0c-1-2-0.2-4.5,1.8-5.6
	c2-1.1,4.6-0.3,5.6,1.8c0.1,0.2,0.5,1,0.9,2.3s0.8,3.2,0.8,5.5c0,1.9-0.3,4.1-1,6.5c-0.7,2.3-2,4.8-3.8,7.4
	c-2.8,3.9-7.1,7.9-13.4,11.6C1117.6,106.6,1120.9,108.8,1123.9,112.2L1123.9,112.2z M1193.8,143c-2.3,0.1-4.2-1.7-4.3-4
	c-0.3-7.3-1.6-12.5-3.3-16.2c-1.8-3.7-3.9-6.1-6.4-8c-1.6-1.2-3.4-2.2-5.3-3.1c-1.4-0.7-2.8-1.3-4.3-1.9c-1.8,0.8-3.6,1.5-5.3,2.4
	c-2.8,1.4-5.3,3.1-7.5,5.5c-1.4,1.7-2.8,3.7-3.8,6.4c-1.4,3.6-2.5,8.4-2.8,14.9c-0.1,2.3-2,4.1-4.3,4c-2.3-0.1-4.1-2-4-4.4
	c0.3-8.1,1.8-14.4,4.1-19.4c2.3-5,5.5-8.6,8.9-11.1c1.7-1.3,3.5-2.3,5.2-3.2c-4.2-2.6-7.6-5.2-10.2-7.8c-3.7-3.8-5.9-7.6-7-11.2
	c-0.8-2.3-1-4.6-1-6.5c0-2.3,0.4-4.1,0.8-5.5c0.4-1.3,0.8-2.2,0.9-2.4l0,0c1.1-2,3.6-2.8,5.6-1.8c2,1.1,2.8,3.6,1.8,5.6l0,0l0,0
	l-0.1,0.1c-0.1,0.1-0.2,0.4-0.3,0.8c-0.2,0.7-0.4,1.8-0.4,3.1c0,1.1,0.2,2.4,0.6,3.9c0.5,1.5,1.3,3.2,2.6,5
	c2.6,3.6,7.4,7.9,16.1,12.2c6.5-3.2,10.8-6.4,13.7-9.4c2.9-3,4.3-5.6,5-7.8c0.5-1.5,0.6-2.8,0.6-3.9c0-2.1-0.6-3.6-0.7-3.9l0-0.1
	l0,0l0,0l0,0c-1-2-0.2-4.5,1.8-5.6c2-1.1,4.6-0.3,5.6,1.8c0.1,0.2,0.5,1,0.9,2.3c0.4,1.3,0.8,3.2,0.8,5.5c0,1.9-0.3,4.1-1,6.5
	c-0.7,2.3-2,4.8-3.8,7.4c-2.8,3.9-7.1,7.9-13.4,11.7c3.2,1.7,6.6,3.9,9.5,7.3c2.1,2.3,3.9,5.2,5.3,8.8c1.9,4.7,3.1,10.5,3.4,17.7
	C1197.9,141,1196.1,142.9,1193.8,143L1193.8,143z"/>
<g>
	<defs>
		<rect id="SVGID_1_" x="524.9" y="140.2" width="586.5" height="586.5"/>
	</defs>
	<clipPath id="SVGID_00000057124837650489580250000004487143951751288450_">
		<use xlink:href="#SVGID_1_"  style="overflow:visible;"/>
	</clipPath>
	<g style="clip-path:url(#SVGID_00000057124837650489580250000004487143951751288450_);">
		<g>
			<defs>
				<rect id="SVGID_00000103264002101667123700000010801836577821334446_" x="524.9" y="140.2" width="586.5" height="586.5"/>
			</defs>
			<clipPath id="SVGID_00000183928786449191269200000004060561422409223345_">
				<use xlink:href="#SVGID_00000103264002101667123700000010801836577821334446_"  style="overflow:visible;"/>
			</clipPath>
			<g style="clip-path:url(#SVGID_00000183928786449191269200000004060561422409223345_);">
				<path class="st5" d="M979.7,367.3c0.2-4-3-7.4-7-7.5s-7.4,3-7.5,7c-0.2,4,3,7.4,7,7.5S979.5,371.3,979.7,367.3"/>
				<path class="st5" d="M1009.5,365.4c0.2-4-3-7.4-7-7.5s-7.4,3-7.5,7c-0.2,4,3,7.4,7,7.5S1009.4,369.4,1009.5,365.4"/>
				<path class="st6" d="M972,388.8c0-8,6.5-14.4,14.4-14.4s14.4,6.5,14.4,14.4s-6.5,14.4-14.4,14.4S972,396.8,972,388.8"/>
				<path class="st6" d="M998,388.5c0,0-5.1,41.9,2.8,49.2c7.9,7.4-27.2,4-27.2,4s10.8-14.1,11.9-46.4S998,388.5,998,388.5"/>
				<path class="st6" d="M894.9,390.1c0-8,6.5-14.4,14.4-14.4s14.4,6.5,14.4,14.4s-6.5,14.4-14.4,14.4S894.9,398,894.9,390.1"/>
				<path class="st6" d="M919.6,389.8c0,0-5.1,41.9,2.8,49.2c7.9,7.4-27.2,4-27.2,4s10.8-14.1,11.9-46.4S919.6,389.8,919.6,389.8"/>
				<path class="st7" d="M831.9,390.1c0-8-6.5-14.4-14.4-14.4s-14.4,6.5-14.4,14.4s6.5,14.4,14.4,14.4S831.9,398,831.9,390.1"/>
				<path class="st7" d="M809.7,389.8c0,0,5.1,41.9-2.8,49.2c-7.9,7.4,27.2,4,27.2,4s-10.8-14.1-11.9-46.4S809.7,389.8,809.7,389.8"
					/>
				<path class="st7" d="M738,390.1c0-8-6.5-14.4-14.4-14.4s-14.4,6.5-14.4,14.4s6.5,14.4,14.4,14.4S738,398,738,390.1"/>
				<path class="st6" d="M713.2,389.8c0,0,5.1,41.9-2.8,49.2c-7.9,7.4,27.2,4,27.2,4s-10.8-14.1-11.9-46.4S713.2,389.8,713.2,389.8"
					/>
				<path class="st6" d="M655.5,390.1c0-8-6.5-14.4-14.4-14.4s-14.4,6.5-14.4,14.4s6.5,14.4,14.4,14.4S655.5,398,655.5,390.1"/>
				<path class="st6" d="M629.5,389.8c0,0,5.1,41.9-2.8,49.2c-7.9,7.4,27.2,4,27.2,4s-10.8-14.1-11.9-46.4S629.5,389.8,629.5,389.8"
					/>
				<path class="st6" d="M593.6,342.7c3.7-0.2,7.3-1.9,9.9-4.6c-1.7,0.4-3.5,0.8-5.2,1.2c2.8-3.7,4.2-8.4,3.7-13
					c-0.5,2.9-1.7,5.6-3.4,8c0.6-3.5,0.4-7.1-0.6-10.5c-0.6,2.7-1.2,5.5-1.8,8.2c-0.2-3.5-1.1-6.9-2.9-9.9c0.3,3.5,0,7.1-1.2,10.5
					c-0.6,1.7-1.3,3.4-1.3,5.2c0,1.8,1.2,3.7,3,3.9"/>
				<path class="st8" d="M639.9,560.1h32.2c1-2.1,1.5-4.6,1.9-6.9c1.7-9.6,3-19.4,1.6-29s-6.1-19.2-14.2-24.5
					c-6.3-4.2-17.1-5.3-24.7-4.8"/>
				<path class="st8" d="M638,494.9c-7,0.7-13.9,2.6-20.7,4.6l-2.6,3.9c-8.7,17.4-10.3,38.2-4.5,56.7h29.7"/>
				<path class="st9" d="M634.4,494.7c-0.5,0-1,0.1-1.5,0.1"/>
				<path class="st8" d="M1022.8,505.3l-2.6-3.9c-7.3-2.1-14.7-4.2-22.2-4.7c-7.6-0.5-15.5,0.8-21.8,4.9
					c-8.1,5.3-12.8,14.9-14.2,24.5c-1.4,9.6,0,19.4,1.6,29c0.3,1.6,0.6,3.3,1.2,5h63.2C1032.9,542,1031.1,522.1,1022.8,505.3"/>
				<path class="st8" d="M816.2,560.1h32.4c0.3-1.3,0.6-2.7,0.8-4c1.7-10.9,3.1-22,1.6-32.9c-1.5-10.9-6.2-21.7-14.5-27.8
					c-6.5-4.7-14.6-6.1-22.3-5.5"/>
				<path class="st8" d="M814.1,489.9c-7.8,0.6-15.3,3-22.8,5.3l-2.7,4.4c-8.3,18.6-10.3,40.5-5.6,60.5h33.1"/>
				<path class="st8" d="M753.7,518.1c-0.8-3.7-1.7-7.4-4-10.4c-2.7-3.6-7-5.7-11.3-7.1c-11.5-3.7-24.2-3.7-35.7,0l-0.9,1
					c-6.2,5-7.8,13.6-8.8,21.5c-1.5,12.3-2.5,24.6-2.9,37h69.3C758.5,546,756.6,531.9,753.7,518.1"/>
				<path class="st8" d="M941.7,518.1c-0.8-3.7-1.7-7.4-4-10.4c-2.7-3.6-7-5.7-11.3-7.1c-11.5-3.7-24.2-3.7-35.7,0l-0.9,1
					c-6.2,5-7.8,13.6-8.8,21.5c-1.5,12.3-2.5,24.6-2.9,37h69.3C946.5,546,944.7,531.9,941.7,518.1"/>
				<path class="st10" d="M915.2,475.7c-26.5,0-40.1-18.8-48.2-32.8c-8-14-16.9-18.6-40.7-21.2c-3.9-0.4-16.6-2.1-20.4-1.2
					c-26.5,5.9-31.9,8.5-40,22.5s-21.6,32.8-48.2,32.8s-43.4-10.9-43.4-10.9c46.7,67.2,106.2,2.8,106.2,2.8
					c-1.2,27.9,1,46.1,35.9,46.1s34.9-13.4,35.7-43.3c0,0,63,56.1,106.8-8.1C959,462.3,941.8,475.7,915.2,475.7"/>
				<path class="st10" d="M616.2,427.5c-9.8,2.7-20.3-1.7-25.3-10.5c-2.1-3.6-3.6-7.9-4.1-12.9c-2-21.7,23.7-46.7,9.6-61.4
					c-17-17.8-48.3,12.7-41.4,64c5.6,42.2,47.8,54.4,47.8,54.4s-17.9,67.8,42.8,62c28.1-2.7,36.5-20.5,38.4-32s0.6-45.4-13.4-52.4
					C658.3,432.4,638.4,421.3,616.2,427.5"/>
				<path class="st10" d="M849,418.3c0,0-12.2-10.5-42.2-2.8c-26.2,6.7-54-2.2-77.2-0.7c-7,0.4-14-0.2-20.7-2.1
					c-22.2-6.2-73.4-15.9-106.2,15c0,0,14.1,1.3,55.6,10.2s-7.1,71.4,44.8,79.9c42.8,7,62.7-14.1,55-39
					c-11.5-37.1,19.8-27.5,42.8-33.9C825.6,438.1,831.1,421.5,849,418.3"/>
				<path class="st6" d="M1037.5,344.4c-3.7-0.2-7.3-1.9-9.9-4.6c1.7,0.4,3.5,0.8,5.2,1.2c-2.8-3.7-4.2-8.4-3.7-13
					c0.5,2.9,1.7,5.6,3.4,8c-0.6-3.5-0.4-7.1,0.6-10.5c0.6,2.7,1.2,5.5,1.8,8.2c0.2-3.5,1.1-6.9,2.9-9.9c-0.3,3.5,0,7.1,1.2,10.5
					c0.6,1.7,1.3,3.4,1.3,5.2s-1.2,3.7-3,3.9"/>
				<path class="st10" d="M1015.1,427.5c9.8,2.7,20.3-1.7,25.3-10.5c2.1-3.6,3.6-7.9,4.1-12.9c2-21.7-23.7-46.7-9.6-61.4
					c17-17.8,48.3,12.7,41.4,64c-5.6,42.2-47.8,54.4-47.8,54.4s17.9,67.8-42.8,62c-28.1-2.7-29-21.1-30.9-32.6
					c-1.9-11.5-8.1-44.8,6-51.8C973,432.4,993,421.3,1015.1,427.5"/>
				<path class="st10" d="M786.4,418.3c0,0,8.1-10.5,38.2-2.8c26.2,6.7,54-2.2,77.2-0.7c7,0.4,14-0.2,20.7-2.1
					c22.2-6.2,73.4-15.9,106.2,15c0,0-14.1,1.3-55.6,10.2s7.1,71.4-44.8,79.9c-42.8,7-62.7-14.1-55-39
					c11.5-37.1-19.8-27.5-42.8-33.9C805.7,438.1,804.3,421.5,786.4,418.3"/>
				<path class="st11" d="M656.7,393.7c0.4,1,1,2.1,1.5,3.1c1.7-0.7,3.3-1.4,5-2.2c-1.8-2.9-2.8-6.4-2.8-6.4c1.7,1.9,4.2,3.6,6,4.7
					c4.5-2.5,9.1-5.5,13.7-9.3c0,0-10.2,1.9-21.1-9.2c-14.2-14.4-29.4-17.7-42.8-0.2c-11.9,15.5-21.2,17.9-21.2,17.9
					s4.9,3.1,13.1,5.9c0.5-0.7,1-1.4,1.5-2.1c0,0-0.1,1-0.3,2.4c3.3,1.1,7.2,2,11.4,2.7c0.7-1.7,1.4-3.6,1.7-5.4
					c0,0,0.7,2.7,0.9,5.8c9.7,1.1,21.1,0.6,33.4-4C656.6,395.3,656.7,393.7,656.7,393.7"/>
				<path class="st6" d="M738.6,384.2c0,0.1,0,0.3,0,0.4c1.3,10.7-5.7,20.3-15.5,21.5c-9.8,1.2-18.9-6.5-20.2-17.2l-0.6-5l10-1.2"/>
				<path d="M704,385.3l0.5,4.3l3.6-0.5c-0.1-1.8,0.7-2.5,0.7-2.5l0.3,2.4l33.8-4.4c-1.7-11.8-12.4-20.1-24.3-18.6
					c-12,1.5-20.5,12.3-19.1,24.3l3.3-0.4C702.8,387.1,704,385.3,704,385.3"/>
				<path class="st12" d="M930.6,390.3c0,0,10.2-16.8-8.6-25.4c-14.2-6.5-13.9-15.2-13.9-15.2s-3.7,6.1-1.6,11.5
					c0,0-3.3-2.9-4.1-4.5c0,0-1.6,4.5-0.8,7.4c0,0-11.5,7-9,21.3c2.9,17.1,19.3,12.7,19.3,20.5c0,0,2.9-2.5,2.9-4.5
					c0,0,2.9,1.6,1.2,4.9c0,0,4.1-1.6,3.7-5.7C919.5,400.5,926.9,398.1,930.6,390.3"/>
				<path class="st5" d="M989.8,400.8c10-1.3,17.1-10.6,15.7-20.6c-1.3-10-10.6-17.1-20.6-15.7"/>
				<path class="st5" d="M989.8,400.8c-10,1.3-19.3-5.7-20.6-15.7c-1.3-10,5.7-19.3,15.7-20.6c0,0,5.4,8.3,6.2,17.6
					C991.9,391.4,989.8,400.8,989.8,400.8"/>
				<path class="st13" d="M801.4,448.3c0,0,0.7,2.6,0.4,5.3c2.3,0.3,4.8,0.6,7.8,0.8c1.1-1.6,2.3-4,2.3-6.8c0,0,0.7,3.2,0.7,6.9
					c0.9,0,1.9,0,2.9,0c2.6,0,4.9-0.1,7.1-0.2c0.3-2.2,0.5-4.9,0.2-7.1c0,0,1.8,3.4,2.8,6.8c4.4-0.4,7.9-1.1,10.6-1.8
					c-0.4-1.4-0.9-3.1-1.1-4.6c0,0,0.9,2.4,2.3,4.3c5.7-1.7,7.8-3.6,7.8-3.6s-6.7-3.8-6.7-13.8s2.2-63-10.1-62.6
					c0,0-7.7-9.6-20.8-3.3c-11.2,5.4-12.3,15.8-12.3,39.1s2.8,36.7-8.4,40.5c0,0,2.6,2.9,11.4,4.7
					C799.4,452.1,801.2,450.5,801.4,448.3"/>
				<path class="st6" d="M702.6,482.3c-2-3.1-5.2-5.5-8.8-6.4c1.2,1.3,2.4,2.6,3.6,4c-4.6-0.6-9.4,0.5-13.2,3.1
					c2.8-1,5.8-1.3,8.7-0.9c-3.3,1.2-6.4,3.1-8.9,5.7c2.7-0.8,5.3-1.6,8-2.4c-3,1.8-5.5,4.4-7.2,7.4c2.9-2,6.2-3.5,9.7-4.1
					c1.8-0.3,3.6-0.5,5.1-1.4s2.7-2.9,1.9-4.5"/>
				<path class="st10" d="M759.8,454.9c-2.7,2.6-8.5,4.9-11.4,5.6c-6.7,1.8-12.8,2.6-19.8,3c-6.9,0.4-14,1.3-19.9,5
					s-10.2,10.6-8.9,17.3c1.2,6,6.4,10.5,12.3,12.2c5.8,1.7,12.1,1.1,18-0.3c17.4-4,33.4-13.9,44.7-27.7c0.8-0.9,1.5-1.9,1.6-3.1
					c0.2-2.1-1.7-3.8-3.5-5c-3.7-2.4-7.9-4-12.2-4.8"/>
				<path class="st6" d="M929.2,482.3c2-3.1,5.2-5.5,8.8-6.4l-3.6,4c4.6-0.6,9.4,0.5,13.2,3.1c-2.8-1-5.8-1.3-8.7-0.9
					c3.3,1.2,6.4,3.1,8.9,5.7c-2.7-0.8-5.3-1.6-8-2.4c3,1.8,5.5,4.4,7.2,7.4c-2.9-2-6.2-3.5-9.7-4.1c-1.8-0.3-3.6-0.5-5.1-1.4
					s-2.7-2.9-1.9-4.5"/>
				<path class="st10" d="M872,454.9c2.7,2.6,8.5,4.9,11.4,5.6c6.7,1.8,12.8,2.6,19.8,3c6.9,0.4,14,1.3,19.9,5s10.2,10.6,8.9,17.3
					c-1.2,6-6.4,10.5-12.3,12.2c-5.8,1.7-12.1,1.1-18-0.3c-17.4-4-33.4-13.9-44.7-27.7c-0.8-0.9-1.5-1.9-1.6-3.1
					c-0.2-2.1,1.7-3.8,3.5-5c3.7-2.4,7.9-4,12.2-4.8"/>
			</g>
		</g>
	</g>
</g>
</svg>
