<?xml version="1.0" encoding="UTF-8"?>
<svg id="Capa_1" data-name="Capa 1" xmlns="http://www.w3.org/2000/svg" xmlns:xlink="http://www.w3.org/1999/xlink" viewBox="0 0 639.83 283.25">
  <defs>
    <style>
      .cls-1 {
        fill: #fcfdfd;
      }

      .cls-2 {
        fill: #f3fafb;
      }

      .cls-3 {
        clip-path: url(#clippath-1);
      }

      .cls-4 {
        fill: #fe3b1f;
      }

      .cls-5 {
        clip-path: url(#clippath);
      }

      .cls-6 {
        fill: none;
      }

      .cls-7 {
        fill: #0082cb;
      }

      .cls-8 {
        fill: #001b71;
      }
    </style>
    <clipPath id="clippath">
      <rect class="cls-6" width="283.25" height="283.25"/>
    </clipPath>
    <clipPath id="clippath-1">
      <rect class="cls-6" width="283.25" height="283.25"/>
    </clipPath>
  </defs>
  <g class="cls-5">
    <g class="cls-3">
      <path class="cls-8" d="M33.46,86.14c.08-9.23,.81-18.4,1.88-27.57,.72-6.12,1.92-12.13,2.91-18.19,.28-1.69,.86-1.8,2.21-1.29,6.87,2.55,14.02,4.08,21.25,4.84,6.7,.71,13.44,.88,20.24,.3,7.31-.63,14.43-1.88,21.43-3.95,11.35-3.35,21.69-8.72,31.24-15.63,2.86-2.07,5.66-4.22,8.18-6.7,.68-.67,1.1-.82,1.94-.08,10.95,9.72,23.65,16.47,37.4,21.22,13.16,4.55,26.82,5.86,40.64,4.9,6.98-.48,13.82-2.17,20.52-4.3,3.17-1.01,3.68-.56,4.05,2.74,1.34,12.14,2.7,24.29,2.36,36.52-.24,8.56-.91,17.1-1.78,25.63-1.15,11.16-3.11,22.14-5.89,32.98-3.73,14.57-8.71,28.67-15.29,42.24-6.83,14.06-15.18,27.11-25.02,39.2-7.06,8.66-14.82,16.69-23.36,23.95-10.31,8.76-21.14,16.77-32.81,23.64-1.33,.78-2.37,.78-3.57,.08-11.3-6.62-22-14.07-32.04-22.51-6.72-5.66-13.23-11.53-19.26-17.9-7.66-8.1-14.75-16.69-21.16-25.83-5.86-8.35-11.08-17.07-15.66-26.18-7.56-15.03-12.95-30.85-16.32-47.3-1.52-7.42-2.64-14.94-3.15-22.54-.42-6.09-1-12.16-.91-18.27m146.43-22.21h-.46c0-3.87-.09-7.74,.04-11.61,.05-1.66-.55-2.32-2.07-2.93-11.77-4.69-22.67-10.87-32.14-19.37-1.22-1.09-1.92-.9-3.01,.1-3.62,3.33-7.47,6.38-11.55,9.14-7.58,5.13-15.66,9.28-24.34,12.26-.9,.31-1.9,.34-1.85,1.98,.34,12.56,.56,25.13,.7,37.69,.02,1.99,.45,2.89,2.55,2.28,.46-.13,.95-.18,1.42-.28,11.16-2.44,21.82-6.29,32-11.45,1.27-.64,2.27-.68,3.6-.11,7.11,3.06,14.32,5.88,21.76,8.04,3.4,.99,6.83,1.85,10.35,2.35,2.25,.32,3.09-.27,3.05-2.74-.15-8.45-.06-16.91-.06-25.37m-107.29,34.92c7.79,.09,16.42-.89,24.92-3.04,1.83-.46,2.58-1.21,2.51-3.28-.45-12.32-.75-24.65-1.02-36.98-.04-1.77-.67-1.7-2.05-1.37-6.6,1.58-13.3,2.58-20.08,2.91-9.15,.45-18.23-.22-27.15-2.4-1.22-.3-1.78-.28-1.79,1.18-.02,1.69-.28,3.37-.38,5.06-.64,11.17-1.84,22.33-.02,33.51,.24,1.45,.48,2.22,2.17,2.51,7.26,1.23,14.56,1.9,22.89,1.9m163.04,7.12q.03-1.55-1.83-1.41c-2.09,.16-4.18,.39-6.27,.46-11.72,.4-23.4-.3-34.98-2.01-16.01-2.37-31.54-6.59-46.38-13.13-1.48-.65-2.73-.59-4.15-.01-6.8,2.76-13.72,5.21-20.76,7.28-15.6,4.6-31.48,7.58-47.78,7.95-7.74,.18-15.5,.32-23.14-1.36-.92-.2-1.72-.27-1.6,1.24,.54,6.65,1.08,13.29,2.17,19.89,3.7,22.41,11.81,43.09,24.12,62.17,10.23,15.84,22.73,29.66,37.17,41.74,9.05,7.57,18.69,14.31,29.01,20.06,1.5,.83,2.67,.97,4.21,.04,4.98-3,9.86-6.14,14.6-9.49,12.63-8.94,24.07-19.17,34.05-31.02,9.4-11.16,17.33-23.26,23.72-36.35,5.14-10.52,9.1-21.5,12.09-32.82,2.86-10.84,4.69-21.85,5.76-33.21m-50.39-32.64h.12c0,6.21,.02,12.41-.01,18.62,0,1.38,.3,2.37,1.9,2.49,2.41,.18,4.74,.83,7.12,1.21,11.77,1.87,23.58,2.42,35.46,1.82,7.14-.36,7.27-.33,7.58-7.52,.49-11.68,.23-23.37,.11-35.06-.02-1.92-.77-2.47-2.49-1.99-4.04,1.13-8.17,1.65-12.32,2.18-11.88,1.52-23.65,.91-35.3-1.76-1.8-.41-2.24-.21-2.21,1.62,.08,6.13,.03,12.25,.03,18.38"/>
      <path class="cls-1" d="M179.9,63.93c0,8.46-.09,16.91,.06,25.37,.04,2.47-.79,3.07-3.05,2.74-3.52-.51-6.95-1.36-10.35-2.35-7.44-2.17-14.65-4.98-21.76-8.05-1.33-.57-2.33-.53-3.6,.11-10.18,5.16-20.84,9.01-32,11.45-.47,.1-.96,.15-1.42,.28-2.1,.6-2.52-.29-2.55-2.29-.14-12.57-.37-25.13-.7-37.69-.04-1.64,.95-1.67,1.85-1.98,8.67-2.98,16.75-7.13,24.34-12.26,4.08-2.76,7.93-5.81,11.55-9.14,1.09-1,1.79-1.2,3.01-.1,9.47,8.5,20.37,14.68,32.14,19.37,1.52,.61,2.12,1.27,2.07,2.93-.13,3.87-.04,7.74-.04,11.61h.46m-36.65-15.01c-3.3-.22-6.24,.72-8.18,3.59-2.65,3.92-.43,8.4,4.77,9.91,2.17,.63,4.36,1.16,6.48,1.93,1.63,.59,2.28,1.95,1.3,3.49-1.6,2.52-7.52,1.86-8.81-.9-.76-1.64-3.39-2.82-4.75-1.83-1.67,1.22-.36,2.79,.19,4.07,.51,1.18,1.48,2.12,2.64,2.76,4.12,2.27,8.36,2.29,12.54,.3,2.93-1.39,4.22-4.02,3.8-7.17-.4-2.99-2.32-4.66-5.1-5.48-2.32-.68-4.66-1.29-6.98-1.97-1.09-.32-1.94-.96-1.87-2.21,.07-1.19,.89-1.8,1.97-2.17,2.38-.83,4.42-.13,5.79,2.07,.68,1.09,3.58,1.95,4.64,1.16,1.37-1.02,.51-2.35-.03-3.44-1.72-3.46-4.84-4.21-8.41-4.1"/>
      <path class="cls-7" d="M72.6,98.84c-8.33,0-15.63-.67-22.89-1.91-1.69-.29-1.94-1.06-2.17-2.51-1.82-11.18-.62-22.35,.02-33.51,.1-1.69,.36-3.37,.38-5.05,.01-1.46,.58-1.48,1.79-1.18,8.92,2.18,18,2.85,27.15,2.4,6.78-.33,13.48-1.33,20.08-2.91,1.38-.33,2.01-.4,2.05,1.37,.26,12.33,.57,24.66,1.02,36.98,.07,2.07-.67,2.82-2.51,3.28-8.5,2.15-17.13,3.12-24.92,3.04m-9.2-21.82c.26,6.6,1.83,9.73,5.12,11.87,6.38,4.14,14.85,1.2,16.61-5.78,.17-.66,.6-1.42-.17-1.98-1.19-.88-4.47,.11-5,1.5-.82,2.16-2.28,3.48-4.65,3.6-2.49,.12-4.48-.86-5.54-3.12-1.6-3.41-1.56-6.9,.4-10.16,2.05-3.41,7.17-3.37,9.35-.03,.86,1.32,3.77,2.18,5.17,1.6,.67-.28,.45-.7,.35-1.16-.53-2.49-1.8-4.47-4.02-5.76-3.96-2.29-8.06-2.34-11.97-.1-4.29,2.45-5.68,6.56-5.65,9.53"/>
      <path class="cls-2" d="M235.64,105.96c-1.07,11.37-2.9,22.38-5.76,33.22-2.99,11.33-6.95,22.3-12.09,32.82-6.39,13.09-14.32,25.19-23.72,36.35-9.98,11.85-21.43,22.08-34.05,31.02-4.74,3.36-9.63,6.49-14.6,9.49-1.54,.93-2.71,.8-4.21-.04-10.33-5.74-19.97-12.49-29.01-20.06-14.44-12.08-26.94-25.9-37.17-41.74-12.32-19.07-20.43-39.75-24.12-62.17-1.09-6.6-1.63-13.24-2.17-19.89-.12-1.5,.68-1.44,1.6-1.24,7.64,1.68,15.4,1.54,23.14,1.36,16.3-.37,32.18-3.35,47.78-7.95,7.05-2.08,13.96-4.52,20.76-7.28,1.42-.58,2.67-.64,4.15,.01,14.84,6.54,30.37,10.76,46.38,13.13,11.58,1.71,23.26,2.41,34.98,2.01,2.09-.07,4.18-.3,6.27-.46q1.86-.14,1.83,1.41m-3.84,4.95c.02-1.65,.54-3.11-1.72-2.89-11.31,1.07-22.58,.2-33.79-1.15-14.85-1.79-29.49-4.92-43.27-10.73-6.48-2.73-11.78-2.51-18.25-.05-17.46,6.64-35.58,10.8-54.33,12-8.48,.54-16.95,.74-25.37-.28-2.57-.31-2.89,.37-2.68,2.49,.92,9.37,2.38,18.64,4.72,27.78,7.06,27.66,21.02,51.48,40.39,72.23,12.85,13.75,27.46,25.37,43.84,34.72,1.45,.83,2.5,.87,3.94-.01,8.21-5.01,16.04-10.51,23.49-16.58,12.85-10.47,24.01-22.47,33.35-36.13,10.88-15.9,18.75-33.22,23.91-51.78,2.74-9.86,4.61-19.89,5.76-29.62"/>
      <path class="cls-4" d="M185.25,73.31c0-6.13,.05-12.25-.03-18.38-.02-1.84,.42-2.04,2.21-1.62,11.65,2.67,23.41,3.28,35.3,1.76,4.15-.53,8.28-1.05,12.32-2.18,1.72-.48,2.47,.07,2.49,1.99,.11,11.69,.38,23.38-.11,35.06-.3,7.19-.43,7.15-7.58,7.52-11.89,.61-23.7,.05-35.46-1.82-2.38-.38-4.72-1.03-7.12-1.21-1.6-.12-1.91-1.11-1.9-2.49,.03-6.21,.01-12.41,.01-18.62h-.12Zm35.21,1.73c.24,.05,.48,.1,.72,.15,0,3.83,.15,7.67-.05,11.49-.13,2.47,1.41,1.9,2.78,2.03,1.63,.16,2.26-.31,2.21-2.09-.13-5.32-.06-10.64-.06-15.95,0-5.38,.01-5.35-5.39-5.38-1.4,0-2.08,.29-2.52,1.83-1.29,4.51-2.86,8.94-4.43,13.75-1.62-3.03-2.42-5.96-3.26-8.85-2.01-6.87-2.05-6.96-8.13-6.69-.08,0-.16,.01-.24,0-1.14-.22-1.38,.41-1.38,1.37,0,6.85,0,13.7-.01,20.55,0,.95,.27,1.4,1.37,1.48,3.48,.23,3.57,.21,3.58-3.37,.01-3.4,0-6.8,0-10.3,1.3,.26,1.31,1.13,1.52,1.72,1.16,3.15,2.29,6.31,3.3,9.52,.48,1.52,1.01,2.5,2.9,2.47,1.81-.02,2.61-.73,2.96-2.39,.23-1.09,.57-2.17,1.02-3.19,1.19-2.65,1.65-5.61,3.12-8.14"/>
      <path class="cls-8" d="M143.24,48.91c3.57-.11,6.69,.64,8.41,4.1,.54,1.09,1.4,2.42,.03,3.44-1.06,.79-3.96-.07-4.64-1.16-1.38-2.19-3.41-2.89-5.79-2.07-1.09,.38-1.9,.98-1.97,2.17-.07,1.25,.78,1.89,1.87,2.21,2.32,.68,4.66,1.29,6.98,1.97,2.77,.81,4.7,2.48,5.1,5.48,.42,3.15-.87,5.78-3.8,7.17-4.18,1.99-8.42,1.96-12.54-.3-1.16-.64-2.13-1.58-2.64-2.76-.55-1.28-1.87-2.85-.19-4.07,1.36-.99,3.98,.2,4.75,1.83,1.29,2.76,7.21,3.42,8.81,.9,.98-1.54,.33-2.89-1.3-3.49-2.11-.77-4.31-1.3-6.48-1.93-5.2-1.51-7.41-5.99-4.77-9.91,1.94-2.87,4.87-3.81,8.18-3.59"/>
      <path class="cls-8" d="M63.4,77.02c-.03-2.97,1.36-7.08,5.65-9.53,3.91-2.24,8.01-2.19,11.97,.1,2.22,1.29,3.5,3.27,4.02,5.76,.1,.47,.32,.88-.35,1.16-1.39,.59-4.3-.28-5.17-1.6-2.18-3.34-7.3-3.37-9.35,.03-1.97,3.27-2,6.75-.4,10.16,1.06,2.26,3.05,3.24,5.54,3.12,2.37-.12,3.83-1.43,4.65-3.6,.53-1.4,3.81-2.38,5-1.5,.76,.56,.34,1.32,.17,1.98-1.76,6.98-10.24,9.93-16.61,5.78-3.29-2.14-4.86-5.27-5.12-11.87"/>
      <path class="cls-8" d="M231.8,110.91c-1.15,9.73-3.01,19.76-5.76,29.62-5.16,18.55-13.03,35.87-23.91,51.78-9.34,13.65-20.5,25.66-33.35,36.13-7.46,6.07-15.29,11.57-23.49,16.58-1.44,.88-2.49,.84-3.94,.01-16.39-9.35-31-20.97-43.84-34.72-19.38-20.75-33.33-44.56-40.39-72.23-2.33-9.15-3.79-18.41-4.72-27.78-.21-2.12,.1-2.81,2.68-2.5,8.42,1.02,16.89,.82,25.37,.28,18.74-1.2,36.87-5.36,54.33-12,6.46-2.46,11.77-2.68,18.25,.05,13.78,5.81,28.42,8.94,43.27,10.73,11.21,1.35,22.48,2.23,33.79,1.16,2.26-.21,1.74,1.24,1.72,2.89m-103.6,21.94c0,2.25-.25,4.54,.04,6.75,1.61,12.2,6.04,23.46,11.74,34.28,.68,1.29,1.3,2.36,3.18,2.4,1.94,.04,2.7-.97,3.48-2.35,5.85-10.34,9.84-21.27,11.06-33.16,1.41-13.65-1.79-26.01-10.03-37.01-3.58-4.78-3.9-4.78-8.18-.61-8.36,8.14-11.69,18.25-11.3,29.69m-33.28,5.91c-1.65-.31-3.26-.29-6.1,.83-3.24,1.28-6.29,2.91-8.91,5.19-5.72,4.99-7.59,11.23-4.97,17.25,2.41,5.55,6.9,9.21,11.93,12.29,1.32,.81,1.64,.05,1.93-1.06,.81-3.05,2.04-5.95,3.64-8.66,2.68-4.55,6.46-7.18,11.99-6.28,4.54,.74,8.22,3.26,11.57,6.2,3.51,3.08,7.38,5.93,10.23,9.66,1.31,1.72,2.42,.69,3.83,.24,1.42-.45-3.11-2.18-3.34-3.28-1.53-7.05-1.8-12.56-5.69-18.69-6.12-9.66-11.87-13.13-25.05-13.59m114.57,17.55c.23-2.52-.86-5.1-2.48-7.47-2.88-4.22-6.88-7.21-11.22-9.75-1.72-1.01-3.24-1.68-5.37-1.85-10.45-.83-19.17,1.95-26.07,9.83-6.75,7.7-8.45,14.56-10.58,24.32-.14,.62-1.55,3-.69,3.04,1.75,.09,3.46,1.87,4.87-.07,1.18-1.62,2.49-3.16,3.88-4.62,4.29-4.52,8.83-8.72,14.82-10.97,4.78-1.79,9.62-.42,12.78,3.61,2.54,3.24,3.95,6.99,5.15,10.84,.39,1.25,.76,1.79,2.14,.91,3.29-2.1,6.28-4.53,8.79-7.5,2.39-2.83,4.01-6.02,3.97-10.31m-54.86,61.09c.05-11.68-4.42-19.49-10.75-26.48-.74-.82-1.4-.9-2.24-.13-7.13,6.58-12.06,14.33-12.12,24.31-.06,10.26,5.26,18.14,12.07,25.22,1.05,1.09,1.81,.59,2.59-.3,6.22-7.02,10.22-14.97,10.45-22.62m-12.6-30.67c4.6,0,9.2,0,13.79,0,5.66-.01,5.56-.02,5.63-5.75,.02-2.01-.69-2.39-2.51-2.38-10.41,.08-20.81,.04-31.22,.05-5.65,0-5.58,.02-5.55,5.79,.01,1.84,.68,2.35,2.43,2.32,5.81-.08,11.62-.03,17.42-.03m23.98,22.33c4.09,0,10.13-1.49,13.75-3.35,.72-.37,1.4-.67,1.54-1.66,.21-1.51,.61-2.99,.91-4.49,.28-1.39-.18-1.68-1.55-1.23-2.06,.67-4.17,1.23-6.3,1.66-6.3,1.25-14.09,.14-16.41-8.63-.23-.89-.84-1.09-1.63-1.09-.97,0-1.94,.04-2.91-.02-1.24-.08-1.71,.39-1.7,1.67,.02,2.27,.36,4.48,.92,6.67,1.8,7.05,6.18,10.48,13.38,10.47m-66.49-11.29c.41,2.1,.82,3.73,1.03,5.39,.19,1.54,.95,2.31,2.39,2.91,3.29,1.37,6.65,2.48,10.18,2.86,3.8,.41,7.6,.38,10.91-2.01,5.23-3.78,5.91-9.45,6.27-15.23,.02-.36-.15-.83-.4-1.08-1.2-1.18-5.48-.08-6.03,1.52-1.87,5.37-5.8,8.07-11.46,8.27-4.37,.16-8.39-1.2-12.89-2.62"/>
      <path class="cls-8" d="M220.46,75.05c-1.47,2.54-1.93,5.49-3.12,8.14-.45,1.01-.79,2.1-1.02,3.19-.35,1.66-1.15,2.37-2.96,2.39-1.9,.02-2.43-.95-2.9-2.47-1-3.2-2.14-6.37-3.3-9.52-.21-.58-.23-1.46-1.52-1.72,0,3.5,0,6.9,0,10.3-.01,3.58-.1,3.6-3.58,3.37-1.1-.07-1.37-.53-1.37-1.48,.02-6.85,.02-13.7,.01-20.55,0-.96,.24-1.59,1.38-1.37,.08,.01,.16,0,.24,0,6.08-.27,6.12-.17,8.13,6.69,.85,2.89,1.65,5.82,3.26,8.85,1.57-4.81,3.15-9.24,4.43-13.75,.44-1.54,1.12-1.84,2.52-1.83,5.4,.03,5.39,0,5.39,5.38,0,5.32-.07,10.64,.06,15.95,.04,1.79-.59,2.25-2.21,2.09-1.37-.13-2.91,.43-2.78-2.03,.2-3.82,.05-7.66,.05-11.49-.24-.05-.48-.1-.72-.15"/>
      <path class="cls-1" d="M128.2,132.85c-.39-11.45,2.94-21.55,11.3-29.69,4.28-4.17,4.6-4.17,8.18,.61,8.24,11,11.44,23.36,10.03,37.01-1.23,11.89-5.21,22.82-11.06,33.16-.78,1.38-1.54,2.39-3.48,2.35-1.88-.04-2.5-1.11-3.18-2.4-5.7-10.82-10.13-22.08-11.74-34.28-.29-2.21-.04-4.5-.04-6.75"/>
      <path class="cls-1" d="M94.9,138.58c13.17,.45,21.98,3.34,26.57,13.81,2.8,6.39,4.86,12.85,9.08,19.94,.57,.96,.93,1.63-.49,2.08-1.42,.45-2.28,1.29-3.59-.43-2.84-3.73-6.96-6.38-10.47-9.47-3.35-2.94-7.03-5.46-11.57-6.2-5.53-.9-9.31,1.73-11.99,6.28-1.6,2.71-2.83,5.61-3.64,8.66-.3,1.11-.61,1.87-1.93,1.06-5.03-3.08-9.52-6.74-11.93-12.29-2.61-6.02-.75-12.25,4.97-17.25,2.61-2.28,5.32-4.03,8.66-5.04,3.09-.93,2.72-.83,4.66-1.23"/>
      <path class="cls-1" d="M210.54,156.4c.04,4.29-1.58,7.49-3.97,10.31-2.51,2.97-5.5,5.4-8.79,7.5-1.39,.88-1.76,.34-2.14-.91-1.19-3.86-2.61-7.61-5.15-10.84-3.16-4.03-8-5.39-12.78-3.61-6,2.24-10.53,6.45-14.82,10.97-1.38,1.46-2.69,3-3.88,4.62-1.42,1.94-3.02,.51-4.78,.41-.86-.04-.53-.66-.39-1.28,2.13-9.76,4.82-18.73,11.56-26.43,6.9-7.87,15.37-10.51,25.82-9.68,2.13,.17,3.9,.7,5.62,1.7,4.34,2.54,8.34,5.54,11.22,9.75,1.62,2.37,2.71,4.95,2.48,7.47"/>
      <path class="cls-1" d="M155.68,217.5c-.23,7.65-4.23,15.61-10.45,22.62-.79,.89-1.55,1.39-2.59,.3-6.81-7.08-12.13-14.96-12.07-25.22,.06-9.98,4.99-17.74,12.12-24.31,.84-.77,1.5-.69,2.24,.13,6.33,6.99,10.8,14.8,10.75,26.48"/>
      <path class="cls-2" d="M143.08,186.82c-5.81,0-11.62-.05-17.42,.03-1.75,.02-2.41-.48-2.43-2.32-.04-5.77-.1-5.78,5.55-5.79,10.41,0,20.81,.03,31.22-.05,1.82-.01,2.53,.37,2.51,2.38-.07,5.73,.02,5.74-5.63,5.75-4.6,0-9.2,0-13.79,0"/>
      <path class="cls-2" d="M167.06,209.15c-7.21,0-11.58-3.42-13.38-10.47-.56-2.19-.89-4.4-.92-6.67-.01-1.28,.45-1.75,1.69-1.67,.97,.06,1.94,.03,2.91,.02,.8,0,1.4,.2,1.63,1.09,2.32,8.77,10.11,9.88,16.41,8.63,2.13-.42,4.24-.98,6.3-1.66,1.37-.45,1.82-.15,1.55,1.23-.3,1.5-.7,2.98-.91,4.49-.14,.99-.82,1.29-1.54,1.66-3.62,1.87-9.66,3.35-13.75,3.35"/>
      <path class="cls-2" d="M100.57,197.86c4.5,1.42,8.52,2.78,12.89,2.62,5.66-.2,9.58-2.91,11.46-8.27,.56-1.6,4.83-2.7,6.03-1.52,.25,.25,.42,.72,.4,1.08-.36,5.78-1.04,11.45-6.27,15.23-3.31,2.39-7.11,2.42-10.91,2.01-3.53-.38-6.89-1.49-10.18-2.86-1.44-.6-2.19-1.37-2.39-2.91-.21-1.65-.62-3.28-1.03-5.39"/>
    </g>
  </g>
  <g>
    <path class="cls-8" d="M311.28,99.57c-1.24,5.74-5.56,9.92-13.27,9.92-9.76,0-14.37-6.91-14.37-15.66s4.76-16,14.69-16c8.19,0,12.16,4.81,12.92,9.95h-6.65c-.64-2.37-2.29-4.74-6.48-4.74-5.49,0-7.61,4.94-7.61,10.54,0,5.2,1.84,10.68,7.79,10.68,4.34,0,5.71-2.91,6.29-4.7h6.69Z"/>
    <path class="cls-8" d="M336.73,97.46c0,6.99-4.18,12.13-11.5,12.13s-11.35-5.11-11.35-12.01,4.31-12.16,11.65-12.16c6.8,0,11.2,4.8,11.2,12.04Zm-16.36,.04c0,4.45,1.91,7.08,4.99,7.08s4.87-2.64,4.87-7.04c0-4.84-1.77-7.12-4.96-7.12-2.97,0-4.9,2.2-4.9,7.08Z"/>
    <path class="cls-8" d="M340.42,109.05v-32.58h6.4v32.58h-6.4Z"/>
    <path class="cls-8" d="M356.94,98.87c0,2.89,1.45,5.71,4.64,5.71,2.66,0,3.42-1.07,4.03-2.47h6.4c-.82,2.83-3.34,7.47-10.6,7.47s-10.91-5.69-10.91-11.75c0-7.25,3.72-12.42,11.14-12.42,7.93,0,10.63,5.74,10.63,11.51,0,.78,0,1.29-.08,1.95h-15.25Zm8.92-3.93c-.04-2.69-1.12-4.95-4.23-4.95s-4.3,2.11-4.55,4.95h8.79Z"/>
    <path class="cls-8" d="M397.35,106.24c0,7.42-2.74,12.11-11.49,12.11s-10.1-4.71-10.32-7.32h6.52c.45,1.59,1.62,2.67,4.09,2.67,4.15,0,4.94-2.53,4.94-7.06v-1.1c-1.21,2-3.12,3.25-6.51,3.25-6.09,0-9.56-4.99-9.56-11.2,0-7.22,4.33-12.16,10.1-12.16,3.96,0,5.61,1.87,5.96,2.94,.04-.63,.21-2.03,.25-2.41h6.07c-.04,2.06-.05,4.41-.05,6.63v13.66Zm-15.76-8.94c0,3.98,1.99,6.32,4.82,6.32,3.85,0,4.88-2.64,4.88-6.52s-.68-6.56-4.74-6.56c-2.78,0-4.95,2.14-4.95,6.76Z"/>
    <path class="cls-8" d="M402.32,76.47h6.4v5.71h-6.4v-5.71Zm0,9.48h6.4v23.1h-6.4v-23.1Z"/>
    <path class="cls-8" d="M435.24,97.46c0,6.99-4.18,12.13-11.5,12.13s-11.35-5.11-11.35-12.01,4.31-12.16,11.65-12.16c6.8,0,11.2,4.8,11.2,12.04Zm-16.36,.04c0,4.45,1.91,7.08,4.99,7.08s4.87-2.64,4.87-7.04c0-4.84-1.77-7.12-4.96-7.12-2.97,0-4.9,2.2-4.9,7.08Z"/>
    <path class="cls-8" d="M293.4,166.99c1.13,5,4.72,7.19,10.48,7.19s8.2-2.27,8.2-5.91c0-4.05-2.4-5.81-10.91-7.79-13.55-3.18-16.9-8.11-16.9-14.83,0-8.68,6.49-14.57,18.28-14.57,13.22,0,18.49,7.11,19.2,14.39h-10.84c-.52-3.06-2.22-6.39-8.63-6.39-4.37,0-7.01,1.81-7.01,5.34s2.12,4.87,10.16,6.73c14.48,3.41,17.65,8.8,17.65,15.82,0,9.09-6.87,15.33-20.04,15.33s-19.29-6.22-20.49-15.3h10.85Z"/>
    <path class="cls-8" d="M360.26,171.93c0,3.56,.29,8.76,.51,9.66h-9.89c-.29-.74-.51-2.71-.52-3.65-1.35,2.1-3.89,4.52-10.51,4.52-9.01,0-12.81-5.92-12.81-11.72,0-8.52,6.84-12.45,17.8-12.45h5.33v-2.28c0-2.66-.96-5.27-5.76-5.27-4.37,0-5.33,1.86-5.8,4.56h-9.84c.56-6.64,4.67-12.02,16.03-11.95,10.01,.06,15.46,3.97,15.46,12.87v15.71Zm-10.09-7.36h-4.22c-6.23,0-8.54,1.91-8.54,5.51,0,2.7,1.66,4.98,5.38,4.98,6.57,0,7.38-4.57,7.38-9.51v-.98Z"/>
    <path class="cls-8" d="M368.56,153.62c0-3.18,0-6.65-.08-9.42h10.03c.21,.96,.34,3.56,.4,4.76,1.27-2.35,4.29-5.63,10.84-5.63,7.51,0,12.38,5.07,12.38,14.47v23.78h-10.35v-22.63c0-4.2-1.4-7.25-5.97-7.25s-6.91,2.45-6.91,9.05v20.83h-10.35v-27.96Z"/>
    <path class="cls-8" d="M469.53,162.91c0-8.5,.14-18.02,.35-23.65h-.34c-2.34,10.16-7.32,26.74-12.1,42.32h-9.17c-3.63-13.62-8.78-32.51-10.96-42.46h-.34c.42,5.84,.64,16.09,.64,24.62v17.83h-9.81v-49.79h16.02c3.88,13.01,8.23,29.33,9.73,36.75h.08c1.22-6.54,6.69-23.99,10.84-36.75h15.44v49.79h-10.38v-18.68Z"/>
    <path class="cls-8" d="M488.59,128.87h10.35v9.23h-10.35v-9.23Zm0,15.34h10.35v37.38h-10.35v-37.38Z"/>
    <path class="cls-8" d="M541.09,177.03c0,12-4.43,19.59-18.59,19.59s-16.34-7.62-16.69-11.84h10.55c.73,2.57,2.62,4.32,6.61,4.32,6.72,0,7.99-4.1,7.99-11.42v-1.78c-1.95,3.23-5.05,5.25-10.54,5.25-9.85,0-15.46-8.07-15.46-18.12,0-11.69,7-19.68,16.35-19.68,6.41,0,9.08,3.02,9.65,4.76,.07-1.01,.34-3.28,.41-3.9h9.81c-.06,3.33-.08,7.13-.08,10.73v22.1Zm-25.5-14.47c0,6.43,3.22,10.23,7.8,10.23,6.23,0,7.89-4.28,7.89-10.55s-1.11-10.61-7.67-10.61c-4.49,0-8.01,3.46-8.01,10.93Z"/>
    <path class="cls-8" d="M582.05,170.73c0,3.6,.01,7.52,.08,10.86h-10.14c-.15-1-.22-3-.28-4.31-2.21,3.75-5.52,5.18-10.29,5.18-7.61,0-12.48-4.63-12.48-13.9v-24.35h10.34v22.27c0,4.13,1.28,7.54,5.76,7.54,4.72,0,6.67-2.51,6.67-9.92v-19.9h10.35v26.52Z"/>
    <path class="cls-8" d="M598.76,165.11c0,4.67,2.35,9.24,7.5,9.24,4.31,0,5.54-1.73,6.52-3.99h10.35c-1.32,4.57-5.4,12.09-17.15,12.09s-17.65-9.21-17.65-19.01c0-11.73,6.02-20.1,18.02-20.1,12.84,0,17.2,9.28,17.2,18.62,0,1.26,0,2.08-.14,3.15h-24.67Zm14.44-6.36c-.07-4.35-1.81-8.01-6.85-8.01s-6.96,3.42-7.37,8.01h14.22Z"/>
    <path class="cls-8" d="M629.48,181.59v-52.72h10.35v52.72h-10.35Z"/>
  </g>
</svg>