<?xml version="1.0" encoding="UTF-8"?>
<svg id="Capa_1" data-name="Capa 1" xmlns="http://www.w3.org/2000/svg" xmlns:xlink="http://www.w3.org/1999/xlink" viewBox="0 0 1004.66 352.17">
  <defs>
    <style>
      .cls-1 {
        fill: #fcfdfd;
      }

      .cls-2 {
        fill: #f3fafb;
      }

      .cls-3 {
        clip-path: url(#clippath);
      }

      .cls-4 {
        fill: none;
      }

      .cls-5 {
        fill: #cad1ea;
      }

      .cls-6 {
        fill: #001b71;
      }

      .cls-7 {
        fill: #efb8a9;
      }
    </style>
    <clipPath id="clippath">
      <rect class="cls-4" width="352.17" height="352.17"/>
    </clipPath>
  </defs>
  <g class="cls-3">
    <path class="cls-6" d="M41.6,107.1c.1-11.47,1.01-22.88,2.34-34.28,.89-7.61,2.39-15.08,3.62-22.62,.34-2.1,1.07-2.23,2.75-1.61,8.54,3.17,17.43,5.07,26.42,6.02,8.32,.88,16.71,1.1,25.16,.37,9.09-.79,17.94-2.34,26.65-4.91,14.11-4.16,26.96-10.84,38.84-19.44,3.55-2.57,7.04-5.24,10.17-8.33,.85-.83,1.37-1.02,2.41-.1,13.62,12.08,29.4,20.48,46.5,26.39,16.36,5.66,33.35,7.29,50.53,6.09,8.67-.6,17.19-2.69,25.51-5.34,3.94-1.25,4.58-.7,5.03,3.41,1.66,15.09,3.36,30.2,2.93,45.41-.3,10.64-1.13,21.26-2.22,31.86-1.43,13.87-3.87,27.53-7.32,41.01-4.64,18.11-10.83,35.65-19.02,52.52-8.49,17.48-18.87,33.71-31.11,48.74-8.77,10.77-18.43,20.75-29.05,29.78-12.82,10.89-26.28,20.85-40.8,29.39-1.65,.97-2.95,.97-4.44,.1-14.05-8.24-27.36-17.5-39.83-27.99-8.36-7.03-16.45-14.33-23.94-22.26-9.53-10.07-18.34-20.75-26.31-32.11-7.29-10.39-13.78-21.23-19.47-32.55-9.39-18.69-16.1-38.35-20.3-58.81-1.89-9.23-3.28-18.57-3.92-28.02-.52-7.57-1.25-15.12-1.14-22.72m182.07-27.62c-.19,0-.38,0-.57,0,0-4.81-.11-9.63,.05-14.43,.07-2.06-.68-2.89-2.57-3.64-14.63-5.83-28.19-13.52-39.96-24.08-1.51-1.36-2.39-1.12-3.74,.13-4.5,4.14-9.29,7.93-14.36,11.36-9.43,6.38-19.48,11.53-30.26,15.24-1.12,.38-2.36,.42-2.3,2.46,.42,15.62,.7,31.24,.87,46.86,.03,2.48,.56,3.59,3.17,2.84,.57-.17,1.18-.22,1.76-.35,13.88-3.04,27.13-7.82,39.79-14.23,1.58-.8,2.83-.85,4.48-.14,8.84,3.81,17.8,7.31,27.06,10,4.23,1.23,8.49,2.3,12.87,2.93,2.8,.4,3.85-.34,3.79-3.41-.19-10.51-.07-21.03-.07-31.54M90.27,122.89c9.68,.11,20.41-1.11,30.98-3.77,2.28-.58,3.21-1.5,3.12-4.08-.56-15.32-.94-30.65-1.26-45.98-.05-2.21-.83-2.12-2.55-1.71-8.21,1.97-16.54,3.2-24.97,3.61-11.38,.55-22.66-.27-33.76-2.99-1.51-.37-2.21-.34-2.23,1.47-.02,2.1-.35,4.19-.47,6.29-.8,13.89-2.29,27.77-.03,41.67,.29,1.8,.59,2.76,2.7,3.12,9.03,1.53,18.1,2.36,28.46,2.37m202.71,8.85q.04-1.93-2.28-1.75c-2.6,.2-5.19,.48-7.8,.57-14.57,.5-29.09-.37-43.5-2.49-19.91-2.94-39.21-8.19-57.67-16.32-1.84-.81-3.4-.73-5.16-.02-8.46,3.43-17.06,6.47-25.82,9.06-19.4,5.72-39.15,9.42-59.41,9.88-9.62,.22-19.27,.39-28.77-1.7-1.15-.25-2.14-.33-1.99,1.54,.67,8.27,1.34,16.53,2.7,24.73,4.6,27.87,14.68,53.58,29.99,77.29,12.71,19.69,28.26,36.88,46.21,51.9,11.25,9.41,23.23,17.79,36.08,24.94,1.86,1.04,3.32,1.2,5.23,.05,6.19-3.73,12.26-7.63,18.15-11.8,15.7-11.12,29.92-23.84,42.34-38.57,11.69-13.87,21.54-28.92,29.49-45.19,6.39-13.08,11.31-26.73,15.03-40.81,3.56-13.48,5.83-27.16,7.16-41.3m-62.65-40.59h.15c0,7.72,.02,15.44-.02,23.15,0,1.72,.37,2.95,2.36,3.1,3,.23,5.9,1.03,8.86,1.5,14.63,2.32,29.31,3.01,44.09,2.26,8.88-.45,9.04-.41,9.42-9.34,.61-14.53,.28-29.06,.14-43.6-.02-2.39-.96-3.07-3.09-2.47-5.02,1.4-10.16,2.05-15.32,2.71-14.77,1.89-29.4,1.13-43.88-2.19-2.23-.51-2.78-.26-2.75,2.02,.1,7.62,.04,15.24,.04,22.85"/>
    <path class="cls-1" d="M223.67,79.48c0,10.51-.12,21.03,.07,31.54,.06,3.07-.99,3.82-3.79,3.41-4.38-.63-8.64-1.69-12.87-2.93-9.26-2.7-18.22-6.19-27.06-10-1.65-.71-2.9-.66-4.48,.14-12.66,6.41-25.91,11.2-39.79,14.23-.59,.13-1.19,.18-1.76,.35-2.61,.75-3.14-.36-3.17-2.84-.18-15.62-.45-31.25-.87-46.86-.06-2.03,1.19-2.07,2.3-2.46,10.78-3.71,20.83-8.86,30.26-15.24,5.07-3.43,9.86-7.23,14.36-11.36,1.35-1.24,2.22-1.49,3.74-.13,11.77,10.56,25.33,18.25,39.96,24.08,1.89,.75,2.64,1.58,2.57,3.64-.16,4.81-.05,9.62-.05,14.43,.19,0,.38,0,.57,0m-45.57-18.67c-4.11-.27-7.76,.89-10.17,4.46-3.29,4.87-.53,10.44,5.93,12.32,2.69,.78,5.43,1.45,8.06,2.4,2.03,.74,2.83,2.43,1.62,4.33-1.99,3.13-9.35,2.31-10.95-1.12-.95-2.03-4.21-3.51-5.9-2.28-2.08,1.52-.44,3.46,.24,5.06,.63,1.46,1.84,2.64,3.28,3.43,5.12,2.82,10.39,2.85,15.59,.38,3.64-1.73,5.25-4.99,4.73-8.91-.5-3.72-2.89-5.8-6.34-6.81-2.88-.84-5.79-1.6-8.68-2.44-1.35-.39-2.41-1.19-2.32-2.74,.08-1.48,1.1-2.23,2.45-2.7,2.96-1.03,5.49-.16,7.21,2.57,.85,1.35,4.45,2.43,5.77,1.44,1.7-1.27,.63-2.92-.04-4.28-2.14-4.3-6.02-5.23-10.46-5.1"/>
    <path class="cls-5" d="M90.27,122.89c-10.36,0-19.43-.84-28.46-2.37-2.11-.36-2.41-1.31-2.7-3.12-2.26-13.9-.77-27.78,.03-41.67,.12-2.1,.45-4.19,.47-6.29,.02-1.81,.72-1.84,2.23-1.47,11.09,2.72,22.38,3.54,33.76,2.99,8.43-.41,16.76-1.65,24.97-3.61,1.71-.41,2.5-.5,2.55,1.71,.33,15.33,.71,30.66,1.26,45.98,.09,2.58-.84,3.5-3.12,4.08-10.57,2.67-21.3,3.88-30.98,3.77m-11.44-27.13c.33,8.21,2.27,12.1,6.37,14.76,7.93,5.15,18.47,1.49,20.66-7.19,.21-.83,.74-1.77-.21-2.47-1.48-1.09-5.56,.13-6.22,1.87-1.02,2.69-2.84,4.32-5.79,4.47-3.1,.15-5.57-1.06-6.89-3.88-1.99-4.24-1.94-8.58,.5-12.64,2.55-4.23,8.92-4.19,11.63-.04,1.07,1.64,4.69,2.72,6.42,1.99,.84-.35,.56-.87,.44-1.45-.65-3.1-2.23-5.56-5-7.16-4.93-2.85-10.02-2.91-14.89-.12-5.33,3.05-7.06,8.15-7.02,11.85"/>
    <path class="cls-2" d="M292.98,131.74c-1.33,14.13-3.6,27.82-7.16,41.3-3.72,14.09-8.64,27.73-15.03,40.81-7.94,16.27-17.8,31.32-29.49,45.19-12.41,14.73-26.64,27.46-42.34,38.57-5.89,4.17-11.97,8.07-18.15,11.8-1.91,1.15-3.37,.99-5.23-.05-12.84-7.14-24.83-15.53-36.08-24.94-17.96-15.02-33.5-32.21-46.21-51.9-15.31-23.72-25.4-49.43-29.99-77.29-1.35-8.2-2.03-16.46-2.7-24.73-.15-1.87,.84-1.79,1.99-1.54,9.5,2.09,19.15,1.92,28.77,1.7,20.26-.47,40.01-4.17,59.41-9.89,8.76-2.58,17.36-5.63,25.82-9.05,1.76-.71,3.32-.79,5.16,.02,18.45,8.13,37.76,13.38,57.67,16.32,14.4,2.13,28.92,2.99,43.5,2.49,2.6-.09,5.2-.37,7.8-.57q2.32-.18,2.28,1.75m-4.77,6.16c.02-2.06,.67-3.86-2.14-3.6-14.06,1.33-28.08,.24-42.01-1.44-18.46-2.23-36.66-6.12-53.79-13.35-8.05-3.4-14.65-3.12-22.69-.06-21.71,8.25-44.24,13.43-67.55,14.92-10.54,.67-21.07,.92-31.54-.35-3.2-.39-3.59,.46-3.33,3.1,1.15,11.65,2.96,23.17,5.86,34.54,8.78,34.4,26.13,64.01,50.22,89.81,15.97,17.1,34.14,31.54,54.51,43.17,1.81,1.03,3.11,1.08,4.9-.01,10.2-6.22,19.94-13.06,29.21-20.61,15.98-13.01,29.85-27.94,41.46-44.92,13.53-19.77,23.31-41.31,29.73-64.37,3.41-12.26,5.73-24.72,7.16-36.83"/>
    <path class="cls-7" d="M230.33,91.16c0-7.62,.06-15.24-.04-22.85-.03-2.28,.52-2.53,2.75-2.02,14.48,3.32,29.11,4.08,43.88,2.19,5.16-.66,10.3-1.31,15.32-2.71,2.14-.6,3.07,.08,3.09,2.47,.14,14.53,.47,29.07-.14,43.59-.38,8.94-.54,8.89-9.42,9.34-14.78,.75-29.46,.06-44.09-2.26-2.96-.47-5.86-1.28-8.86-1.5-1.99-.15-2.37-1.38-2.36-3.1,.04-7.72,.02-15.44,.02-23.15h-.15m43.78,2.16c.3,.06,.6,.12,.89,.18,0,4.76,.18,9.53-.07,14.28-.16,3.07,1.75,2.36,3.45,2.53,2.02,.2,2.81-.38,2.75-2.6-.16-6.61-.08-13.22-.07-19.84,0-6.7,.02-6.65-6.7-6.68-1.74,0-2.59,.36-3.14,2.27-1.6,5.61-3.55,11.12-5.51,17.1-2.01-3.77-3.01-7.41-4.06-11-2.5-8.54-2.55-8.65-10.11-8.32-.1,0-.2,.02-.3,0-1.41-.27-1.72,.51-1.72,1.71,0,8.52,0,17.03-.02,25.55,0,1.18,.33,1.74,1.7,1.84,4.33,.29,4.44,.26,4.46-4.19,.01-4.23,0-8.46,0-12.81,1.62,.32,1.63,1.41,1.9,2.13,1.44,3.92,2.85,7.85,4.1,11.83,.59,1.9,1.25,3.1,3.61,3.08,2.25-.03,3.25-.91,3.68-2.97,.28-1.35,.7-2.7,1.27-3.96,1.48-3.3,2.05-6.97,3.88-10.13"/>
    <path class="cls-6" d="M178.1,60.82c4.44-.13,8.32,.8,10.46,5.1,.67,1.35,1.74,3.01,.04,4.28-1.32,.99-4.92-.09-5.77-1.44-1.71-2.73-4.25-3.6-7.21-2.57-1.35,.47-2.37,1.22-2.45,2.7-.09,1.55,.97,2.35,2.32,2.74,2.88,.84,5.79,1.6,8.68,2.44,3.45,1.01,5.84,3.09,6.34,6.81,.52,3.92-1.08,7.18-4.73,8.91-5.2,2.47-10.47,2.44-15.59-.38-1.44-.79-2.65-1.97-3.28-3.43-.69-1.6-2.32-3.54-.24-5.06,1.69-1.23,4.95,.25,5.9,2.28,1.61,3.43,8.96,4.26,10.95,1.12,1.21-1.91,.41-3.6-1.62-4.33-2.63-.96-5.36-1.62-8.06-2.4-6.46-1.87-9.21-7.45-5.93-12.32,2.41-3.57,6.06-4.73,10.17-4.46"/>
    <path class="cls-6" d="M78.83,95.76c-.03-3.7,1.69-8.8,7.02-11.85,4.86-2.78,9.96-2.73,14.89,.12,2.77,1.6,4.35,4.06,5,7.16,.12,.58,.4,1.09-.44,1.45-1.73,.73-5.35-.34-6.42-1.99-2.71-4.15-9.08-4.2-11.63,.04-2.44,4.06-2.49,8.4-.5,12.64,1.32,2.81,3.79,4.03,6.89,3.88,2.95-.15,4.77-1.78,5.79-4.47,.66-1.74,4.73-2.96,6.22-1.87,.95,.7,.42,1.64,.21,2.47-2.19,8.68-12.73,12.34-20.66,7.19-4.1-2.66-6.04-6.55-6.37-14.76"/>
    <path class="cls-6" d="M288.21,137.9c-1.43,12.1-3.75,24.57-7.16,36.83-6.42,23.07-16.2,44.6-29.73,64.37-11.61,16.98-25.49,31.91-41.46,44.92-9.27,7.55-19.01,14.39-29.21,20.61-1.79,1.09-3.1,1.05-4.9,.01-20.37-11.63-38.54-26.07-54.51-43.17-24.09-25.79-41.45-55.41-50.22-89.81-2.9-11.37-4.71-22.89-5.86-34.54-.26-2.64,.13-3.49,3.33-3.1,10.47,1.27,21,1.02,31.54,.35,23.31-1.49,45.84-6.67,67.55-14.92,8.04-3.06,14.63-3.33,22.69,.06,17.13,7.22,35.34,11.12,53.79,13.34,13.94,1.68,27.95,2.77,42.01,1.44,2.81-.27,2.16,1.54,2.14,3.6m-128.81,27.28c0,2.8-.31,5.64,.05,8.4,2,15.17,7.5,29.17,14.59,42.62,.84,1.6,1.62,2.94,3.95,2.99,2.42,.05,3.36-1.2,4.33-2.92,7.27-12.85,12.23-26.44,13.76-41.23,1.75-16.97-2.23-32.34-12.47-46.02-4.45-5.94-4.84-5.95-10.17-.76-10.39,10.12-14.54,22.69-14.05,36.92m-41.1,4.4c-2.06-.39-5.3,.87-8.51,2.83-3.7,2.26-7.18,4.76-10.43,7.6-7.12,6.21-9.43,13.96-6.18,21.45,3,6.91,8.58,11.45,14.83,15.28,1.64,1.01,2.04,.06,2.4-1.32,1.01-3.79,2.53-7.39,4.52-10.77,3.33-5.65,8.04-8.93,14.91-7.81,5.64,.92,10.23,4.05,14.39,7.71,4.37,3.83,8.48,7.97,12.01,12.62,1.63,2.14,4,1.59,5.77,1.03,1.76-.56,.61-2.55,.31-3.92-1.9-8.77-4.71-17.2-9.54-24.83-7.61-12.01-18.1-19.3-34.48-19.87m143.48,24.88c.29-3.13-1.07-6.34-3.08-9.29-3.58-5.24-8.55-8.96-13.95-12.13-2.13-1.25-4.06-3-6.7-3.21-13-1.03-23.81,3.34-32.39,13.13-8.39,9.57-12.2,21.2-14.86,33.33-.17,.77-.51,1.92,.56,1.97,2.18,.11,4.58,1.03,6.34-1.38,1.47-2.01,3.1-3.93,4.82-5.74,5.34-5.62,10.97-10.84,18.43-13.63,5.94-2.22,11.96-.53,15.89,4.48,3.15,4.02,4.92,8.69,6.4,13.48,.48,1.55,.94,2.22,2.66,1.13,4.09-2.61,7.8-5.64,10.93-9.33,2.98-3.52,4.99-7.49,4.94-12.82m-68.21,75.96c.06-14.53-5.49-24.23-13.37-32.93-.93-1.02-1.75-1.13-2.79-.16-8.86,8.18-14.99,17.82-15.07,30.23-.08,12.76,6.54,22.55,15.01,31.36,1.3,1.36,2.25,.73,3.23-.37,7.73-8.72,12.7-18.62,12.99-28.13m-15.67-38.14c5.72,0,11.43,0,17.15,0,7.03-.01,6.91-.02,7-7.15,.03-2.5-.86-2.97-3.12-2.95-12.94,.09-25.88,.04-38.81,.06-7.03,0-6.94,.02-6.9,7.2,.01,2.29,.85,2.92,3.02,2.89,7.22-.1,14.44-.04,21.66-.03m29.81,27.76c5.08,0,12.59-1.85,17.09-4.17,.9-.46,1.74-.83,1.91-2.07,.26-1.88,.76-3.72,1.13-5.58,.34-1.72-.22-2.09-1.92-1.53-2.56,.84-5.19,1.53-7.83,2.06-7.83,1.56-17.52,.17-20.41-10.73-.29-1.1-1.04-1.36-2.03-1.35-1.2,0-2.41,.05-3.61-.03-1.54-.1-2.12,.49-2.11,2.08,.03,2.83,.44,5.57,1.14,8.3,2.24,8.77,7.68,13.03,16.64,13.02m-82.67-14.04c.51,2.62,1.02,4.64,1.28,6.7,.24,1.91,1.18,2.87,2.97,3.62,4.09,1.71,8.27,3.08,12.66,3.56,4.72,.51,9.45,.47,13.57-2.5,6.5-4.7,7.35-11.75,7.79-18.94,.03-.44-.18-1.03-.49-1.34-1.5-1.47-6.81-.1-7.5,1.88-2.33,6.67-7.21,10.04-14.24,10.29-5.44,.19-10.44-1.49-16.03-3.26"/>
    <path class="cls-6" d="M274.1,93.31c-1.83,3.16-2.39,6.83-3.88,10.13-.57,1.26-.98,2.61-1.27,3.96-.43,2.06-1.43,2.95-3.68,2.97-2.36,.03-3.02-1.18-3.61-3.08-1.25-3.98-2.65-7.92-4.1-11.83-.27-.72-.28-1.81-1.9-2.13,0,4.36,.01,8.58,0,12.81-.01,4.45-.13,4.48-4.46,4.19-1.37-.09-1.7-.65-1.7-1.84,.02-8.52,.03-17.03,.02-25.55,0-1.2,.3-1.98,1.72-1.71,.1,.02,.2,0,.3,0,7.56-.33,7.61-.22,10.11,8.32,1.05,3.59,2.05,7.23,4.06,11,1.96-5.99,3.91-11.49,5.51-17.1,.54-1.91,1.4-2.28,3.14-2.27,6.72,.03,6.71-.01,6.7,6.68,0,6.61-.08,13.23,.07,19.84,.05,2.22-.73,2.8-2.75,2.6-1.7-.17-3.61,.54-3.45-2.53,.25-4.75,.07-9.52,.07-14.28-.3-.06-.6-.12-.89-.18"/>
    <path class="cls-1" d="M159.39,165.18c-.49-14.23,3.65-26.8,14.05-36.92,5.33-5.19,5.72-5.19,10.17,.76,10.24,13.68,14.22,29.05,12.47,46.02-1.52,14.79-6.48,28.37-13.76,41.23-.97,1.72-1.92,2.97-4.33,2.92-2.34-.05-3.11-1.39-3.95-2.99-7.09-13.45-12.59-27.45-14.59-42.62-.36-2.75-.05-5.6-.05-8.4"/>
    <path class="cls-1" d="M118.29,169.58c16.38,.57,26.87,7.86,34.48,19.87,4.83,7.63,7.64,16.06,9.54,24.83,.3,1.36,1.45,3.36-.31,3.92-1.76,.56-4.14,1.12-5.77-1.03-3.54-4.64-7.64-8.78-12.01-12.62-4.16-3.65-8.74-6.78-14.39-7.71-6.87-1.12-11.57,2.16-14.91,7.81-1.99,3.37-3.52,6.98-4.52,10.77-.37,1.38-.76,2.33-2.4,1.32-6.25-3.84-11.83-8.38-14.83-15.28-3.25-7.49-.93-15.24,6.18-21.45,3.25-2.84,6.73-5.34,10.43-7.6,3.21-1.96,6.45-3.22,8.51-2.83"/>
    <path class="cls-1" d="M261.77,194.46c.05,5.33-1.96,9.31-4.94,12.82-3.12,3.69-6.84,6.72-10.93,9.33-1.72,1.1-2.18,.43-2.66-1.13-1.48-4.79-3.25-9.46-6.4-13.48-3.93-5.01-9.95-6.71-15.89-4.48-7.46,2.79-13.09,8.02-18.43,13.63-1.72,1.81-3.35,3.73-4.82,5.74-1.76,2.41-4.16,1.49-6.34,1.38-1.07-.06-.73-1.21-.56-1.97,2.65-12.13,6.47-23.76,14.86-33.33,8.58-9.79,19.39-14.16,32.39-13.13,2.65,.21,4.57,1.96,6.7,3.21,5.4,3.16,10.37,6.88,13.95,12.13,2.01,2.94,3.37,6.15,3.08,9.29"/>
    <path class="cls-1" d="M193.57,270.42c-.29,9.51-5.26,19.4-12.99,28.13-.98,1.1-1.92,1.73-3.23,.37-8.47-8.81-15.09-18.6-15.01-31.36,.08-12.41,6.2-22.05,15.07-30.23,1.04-.96,1.87-.86,2.79,.16,7.88,8.7,13.43,18.4,13.37,32.92"/>
    <path class="cls-2" d="M177.9,232.28c-7.22,0-14.44-.06-21.66,.04-2.17,.03-3-.6-3.02-2.89-.05-7.18-.13-7.19,6.9-7.2,12.94-.01,25.88,.04,38.81-.06,2.26-.02,3.15,.46,3.12,2.95-.09,7.13,.03,7.14-7,7.15-5.72,.01-11.43,0-17.15,0"/>
    <path class="cls-2" d="M207.71,260.05c-8.96,.01-14.4-4.26-16.64-13.02-.69-2.72-1.11-5.47-1.14-8.3-.02-1.59,.56-2.18,2.11-2.08,1.2,.08,2.41,.04,3.61,.03,.99,0,1.74,.25,2.03,1.35,2.89,10.9,12.57,12.29,20.41,10.73,2.64-.53,5.27-1.22,7.83-2.06,1.7-.56,2.27-.19,1.92,1.53-.37,1.86-.87,3.71-1.13,5.58-.17,1.23-1.02,1.6-1.91,2.07-4.5,2.32-12.01,4.16-17.09,4.17"/>
    <path class="cls-2" d="M125.04,246.01c5.59,1.77,10.59,3.45,16.03,3.26,7.04-.25,11.91-3.62,14.24-10.29,.69-1.98,6.01-3.35,7.5-1.88,.31,.31,.52,.9,.49,1.34-.45,7.19-1.29,14.24-7.79,18.94-4.11,2.98-8.85,3.01-13.57,2.5-4.39-.48-8.57-1.85-12.66-3.56-1.79-.75-2.73-1.71-2.97-3.62-.26-2.06-.77-4.08-1.28-6.7"/>
  </g>
  <g>
    <path class="cls-6" d="M344.53,111.27c0-4.2,.8-8.16,2.39-11.86,1.6-3.7,3.77-6.92,6.51-9.66,2.74-2.74,5.96-4.91,9.66-6.51,3.7-1.6,7.65-2.39,11.86-2.39,4.52,0,8.73,.9,12.62,2.71s7.21,4.31,9.98,7.51l-7.99,4.55c-1.86-1.97-4.05-3.53-6.55-4.67-2.5-1.14-5.19-1.72-8.07-1.72s-5.67,.57-8.22,1.72c-2.56,1.15-4.79,2.72-6.71,4.71-1.91,2-3.42,4.34-4.51,7.03-1.09,2.69-1.64,5.55-1.64,8.59s.55,5.98,1.64,8.67c1.09,2.69,2.6,5.03,4.51,7.03,1.92,2,4.15,3.57,6.71,4.71,2.55,1.15,5.27,1.72,8.14,1.72s5.66-.57,8.19-1.72c2.53-1.14,4.72-2.7,6.59-4.67l7.91,4.63c-2.77,3.14-6.1,5.62-9.98,7.43-3.89,1.81-8.09,2.72-12.62,2.72-4.2,0-8.16-.8-11.86-2.39-3.7-1.6-6.92-3.77-9.66-6.51-2.74-2.74-4.91-5.98-6.51-9.7-1.6-3.73-2.39-7.69-2.39-11.9Z"/>
    <path class="cls-6" d="M431.81,80.92c4.2,0,8.16,.8,11.86,2.39,3.7,1.6,6.92,3.77,9.66,6.51,2.74,2.74,4.91,5.97,6.51,9.66,1.6,3.7,2.4,7.66,2.4,11.86s-.8,8.17-2.4,11.9c-1.6,3.73-3.77,6.96-6.51,9.7-2.74,2.74-5.96,4.91-9.66,6.51-3.7,1.6-7.66,2.4-11.86,2.4s-8.16-.8-11.86-2.4c-3.7-1.6-6.92-3.77-9.66-6.51-2.74-2.74-4.91-5.98-6.51-9.7-1.6-3.72-2.39-7.69-2.39-11.9s.8-8.16,2.39-11.86c1.6-3.7,3.77-6.92,6.51-9.66,2.74-2.74,5.96-4.91,9.66-6.51,3.7-1.6,7.65-2.39,11.86-2.39Zm-21.08,30.43c0,3.09,.55,5.98,1.64,8.66,1.09,2.69,2.6,5.03,4.51,7.03,1.92,2,4.15,3.57,6.71,4.71,2.55,1.14,5.3,1.72,8.22,1.72s5.67-.57,8.22-1.72c2.56-1.14,4.78-2.72,6.67-4.71,1.89-2,3.38-4.34,4.47-7.03,1.09-2.69,1.64-5.58,1.64-8.66s-.55-5.9-1.64-8.59c-1.09-2.69-2.58-5.03-4.47-7.03-1.89-2-4.11-3.56-6.67-4.71-2.55-1.14-5.3-1.72-8.22-1.72s-5.67,.57-8.22,1.72c-2.56,1.15-4.79,2.72-6.71,4.71-1.91,2-3.42,4.34-4.51,7.03-1.09,2.69-1.64,5.55-1.64,8.59Z"/>
    <path class="cls-6" d="M502.01,132.27v8.38h-29.71v-58.54h9.34v50.15h20.36Z"/>
    <path class="cls-6" d="M543.45,132.27v8.38h-33.78v-58.54h32.58v8.38h-23.24v16.13h21.8v8.38h-21.8v17.25h24.44Z"/>
    <path class="cls-6" d="M581.38,105.6h26.19v25.16c-3.14,3.62-6.96,6.38-11.46,8.26-4.5,1.89-9.28,2.84-14.33,2.84-4.63,0-8.85-.79-12.66-2.36-3.81-1.57-7.07-3.73-9.78-6.47-2.71-2.74-4.82-5.95-6.31-9.62-1.49-3.68-2.24-7.61-2.24-11.82,0-4.42,.8-8.5,2.39-12.26,1.6-3.75,3.79-7,6.59-9.74,2.8-2.74,6.06-4.88,9.78-6.43,3.73-1.54,7.69-2.31,11.9-2.31,4.63,0,8.98,.9,13.06,2.71s7.52,4.31,10.34,7.51l-7.99,4.63c-1.87-2.02-4.15-3.62-6.87-4.79-2.71-1.17-5.59-1.76-8.62-1.76s-5.67,.56-8.22,1.68c-2.56,1.12-4.79,2.66-6.71,4.63-1.92,1.97-3.43,4.3-4.55,6.99-1.12,2.69-1.68,5.63-1.68,8.83s.53,5.99,1.6,8.71c1.07,2.71,2.56,5.07,4.47,7.07,1.92,2,4.22,3.57,6.91,4.71s5.63,1.72,8.83,1.72,6.01-.55,8.94-1.64c2.93-1.09,5.4-2.65,7.43-4.67v-13.5h-17.01v-8.07Z"/>
    <path class="cls-6" d="M629.06,82.12v58.54h-9.34v-58.54h9.34Z"/>
    <path class="cls-6" d="M669.23,80.92c4.2,0,8.16,.8,11.86,2.39,3.7,1.6,6.92,3.77,9.66,6.51,2.74,2.74,4.91,5.97,6.51,9.66,1.6,3.7,2.4,7.66,2.4,11.86s-.8,8.17-2.4,11.9c-1.6,3.73-3.77,6.96-6.51,9.7-2.74,2.74-5.96,4.91-9.66,6.51-3.7,1.6-7.66,2.4-11.86,2.4s-8.16-.8-11.86-2.4c-3.7-1.6-6.92-3.77-9.66-6.51-2.74-2.74-4.91-5.98-6.51-9.7-1.6-3.72-2.39-7.69-2.39-11.9s.8-8.16,2.39-11.86c1.6-3.7,3.77-6.92,6.51-9.66s5.96-4.91,9.66-6.51c3.7-1.6,7.65-2.39,11.86-2.39Zm-21.08,30.43c0,3.09,.55,5.98,1.64,8.66,1.09,2.69,2.6,5.03,4.51,7.03,1.92,2,4.15,3.57,6.71,4.71,2.55,1.14,5.3,1.72,8.22,1.72s5.67-.57,8.22-1.72c2.56-1.14,4.78-2.72,6.67-4.71,1.89-2,3.38-4.34,4.47-7.03,1.09-2.69,1.64-5.58,1.64-8.66s-.55-5.9-1.64-8.59c-1.09-2.69-2.58-5.03-4.47-7.03-1.89-2-4.11-3.56-6.67-4.71-2.55-1.14-5.3-1.72-8.22-1.72s-5.67,.57-8.22,1.72c-2.56,1.15-4.79,2.72-6.71,4.71-1.91,2-3.42,4.34-4.51,7.03-1.09,2.69-1.64,5.55-1.64,8.59Z"/>
  </g>
  <g>
    <path class="cls-6" d="M354.94,239.01c1.45,2.32,3.56,4.09,6.34,5.31,2.78,1.23,5.84,1.84,9.16,1.84,4.34,0,7.84-1.06,10.52-3.2,2.67-2.13,4.01-5.11,4.01-8.94s-1.34-6.56-4.01-8.41c-2.68-1.84-6.36-3.6-11.06-5.26-6.44-2.31-11.86-5.1-16.27-8.35-4.41-3.26-6.61-8.24-6.61-14.97s2.42-12.49,7.27-16.43c4.84-3.94,10.99-5.91,18.43-5.91,4.34,0,8.69,.85,13.06,2.55s8.11,4.9,11.22,9.6l-10.63,5.53c-2.75-4.12-7.16-6.18-13.23-6.18-3.83,0-6.99,.92-9.49,2.76-2.5,1.84-3.74,4.43-3.74,7.76,0,3.54,1.44,6.39,4.34,8.56,2.89,2.17,6.83,4.01,11.82,5.53,6.14,1.95,11.28,4.5,15.39,7.65,4.12,3.15,6.18,8.18,6.18,15.12,0,7.74-2.57,13.66-7.7,17.79s-11.75,6.18-19.84,6.18c-11.49,0-20.03-4.12-25.59-12.36l10.41-6.18Z"/>
    <path class="cls-6" d="M456.76,235.65h-34.16l-8.02,20.28h-12.8l31.88-79.48h12.14l31.77,79.48h-12.8l-8.02-20.28Zm-30.04-10.62h25.92l-11.93-30.36c-.58-1.52-.86-3.18-.86-4.99h-.22c0,1.81-.29,3.47-.87,4.99l-12.04,30.36Z"/>
    <path class="cls-6" d="M541.44,235.54c.86,1.3,1.55,2.85,2.06,4.66h.22c-.22-.79-.42-1.64-.6-2.55-.18-.9-.27-1.75-.27-2.55v-58.66h12.69v79.48h-14.75l-40.12-59.1c-.86-1.3-1.55-2.85-2.06-4.66h-.22c.22,.8,.41,1.65,.6,2.55s.27,1.75,.27,2.55v58.66h-12.69v-79.48h14.75l40.12,59.1Z"/>
    <path class="cls-6" d="M617.34,255.92h-12.69v-79.48h14.42l27.11,39.03c.94,1.23,1.41,2.82,1.41,4.77h.22c0-1.95,.47-3.54,1.41-4.77l27.11-39.03h14.42v79.48h-12.69v-58.34c0-.79,.09-1.64,.27-2.55s.38-1.75,.6-2.55h-.22c-.51,1.73-1.23,3.25-2.17,4.55l-23.31,32.53h-10.96l-23.42-32.53c-.94-1.3-1.66-2.82-2.17-4.55h-.22c.22,.8,.41,1.65,.6,2.55s.27,1.75,.27,2.55v58.34Z"/>
    <path class="cls-6" d="M720.78,176.44v79.48h-12.69v-79.48h12.69Z"/>
    <path class="cls-6" d="M775.54,208.32h35.57v34.16c-4.27,4.92-9.45,8.66-15.56,11.22-6.11,2.57-12.6,3.85-19.46,3.85-6.29,0-12.02-1.07-17.19-3.2-5.17-2.13-9.6-5.06-13.29-8.78-3.68-3.72-6.54-8.08-8.56-13.06-2.03-4.99-3.04-10.34-3.04-16.05,0-6,1.08-11.55,3.25-16.64,2.17-5.1,5.15-9.5,8.94-13.23,3.8-3.72,8.22-6.63,13.29-8.73,5.06-2.1,10.44-3.14,16.16-3.14,6.29,0,12.2,1.23,17.73,3.68s10.21,5.85,14.04,10.19l-10.85,6.29c-2.53-2.75-5.64-4.92-9.33-6.51-3.68-1.59-7.59-2.39-11.71-2.39s-7.7,.76-11.17,2.28c-3.47,1.52-6.51,3.61-9.11,6.29-2.6,2.67-4.66,5.84-6.18,9.49-1.52,3.65-2.28,7.65-2.28,11.98s.72,8.13,2.17,11.82c1.45,3.68,3.47,6.88,6.07,9.6,2.6,2.71,5.73,4.84,9.38,6.4s7.65,2.33,11.98,2.33,8.17-.74,12.14-2.22c3.98-1.48,7.34-3.59,10.09-6.34v-18.33h-23.1v-10.95Z"/>
    <path class="cls-6" d="M839.84,176.44v51.72c0,5.71,1.62,10.13,4.88,13.28,3.25,3.15,7.19,4.72,11.82,4.72s8.57-1.57,11.82-4.72c3.26-3.15,4.88-7.57,4.88-13.28v-51.72h12.69v51.72c0,8.96-2.86,16.1-8.57,21.41-5.71,5.32-12.65,7.97-20.82,7.97s-15.11-2.66-20.82-7.97c-5.71-5.31-8.57-12.45-8.57-21.41v-51.72h12.69Z"/>
    <path class="cls-6" d="M949.47,244.54v11.38h-45.86v-79.48h44.24v11.38h-31.56v21.91h29.6v11.38h-29.6v23.42h33.18Z"/>
    <path class="cls-6" d="M1004.66,244.54v11.38h-40.34v-79.48h12.69v68.1h27.65Z"/>
  </g>
</svg>